<?xml version="1.0" encoding="UTF-8" standalone="no"?>
<svg width="163px" height="22px" viewBox="0 0 163 22" version="1.1" xmlns="http://www.w3.org/2000/svg" xmlns:xlink="http://www.w3.org/1999/xlink">
    <!-- Generator: Sketch 3.7.2 (28276) - http://www.bohemiancoding.com/sketch -->
    <title>dha-logo</title>
    <desc>Created with Sketch.</desc>
    <defs></defs>
    <g id="Symbols" stroke="none" stroke-width="1" fill="none" fill-rule="evenodd">
        <g id="Top-navigation-bar---Active-5" transform="translate(-31.000000, -15.000000)">
            <g id="Global-panel">
                <g transform="translate(30.000000, 9.000000)">
                    <g id="logo-+-CLM" transform="translate(1.000000, 6.000000)">
                        <g id="dha-logo">
                            <path d="M10.1279297,17 L10.1279297,2.0703125 L14.6396484,2.0703125 C16.1709061,2.0703125 17.4355419,2.64965241 18.4335938,3.80834961 C19.4316456,4.96704681 19.9306641,6.45897525 19.9306641,8.28417969 L19.9306641,10.7963867 C19.9306641,12.6215912 19.4316456,14.1118106 18.4335938,15.2670898 C17.4355419,16.4223691 16.1709061,17 14.6396484,17 L10.1279297,17 Z M13.050293,4.40820312 L13.050293,14.6723633 L14.4755859,14.6723633 C15.2890666,14.6723633 15.9162576,14.3186071 16.3571777,13.611084 C16.7980979,12.9035609 17.0185547,11.9653379 17.0185547,10.7963867 L17.0185547,8.26367188 C17.0185547,7.10155669 16.7980979,6.16846055 16.3571777,5.46435547 C15.9162576,4.76025039 15.2890666,4.40820312 14.4755859,4.40820312 L13.050293,4.40820312 Z M24.5285156,17 L21.6164063,17 L21.6164063,5.90527344 L24.5285156,5.90527344 L24.5285156,17 Z M24.5285156,3.22900391 L21.6164063,3.22900391 L21.6164063,1.00390625 L24.5285156,1.00390625 L24.5285156,3.22900391 Z M25.9066406,10.9399414 C25.9066406,9.37450389 26.2296355,8.1098681 26.8756348,7.14599609 C27.5216341,6.18212409 28.4325137,5.70019531 29.6083008,5.70019531 C30.1004908,5.70019531 30.5345685,5.82494992 30.9105469,6.07446289 C31.2865253,6.32397586 31.6146471,6.68115002 31.8949219,7.14599609 L32.0794922,5.90527344 L34.6122071,5.90527344 L34.6122071,16.784668 C34.6122071,18.2407299 34.1900921,19.387447 33.3458496,20.2248535 C32.5016071,21.06226 31.3446363,21.480957 29.8749024,21.480957 C29.3963844,21.480957 28.8871121,21.4040535 28.3470703,21.2502441 C27.8070286,21.0964348 27.3045922,20.8896497 26.8397461,20.6298828 L27.3524414,18.3842773 C27.7420918,18.6030284 28.1385722,18.7670893 28.5418946,18.8764648 C28.9452169,18.9858404 29.3827125,19.0405273 29.8543946,19.0405273 C30.469632,19.0405273 30.9310532,18.847414 31.2386719,18.4611816 C31.5462906,18.0749492 31.7000977,17.512699 31.7000977,16.7744141 L31.7000977,16.1386719 C31.4266588,16.4941424 31.1156268,16.7624503 30.7669922,16.9436035 C30.4183577,17.1247568 30.0252952,17.215332 29.587793,17.215332 C28.4188418,17.215332 27.5130892,16.7658736 26.8705078,15.8669434 C26.2279265,14.9680131 25.9066406,13.7802808 25.9066406,12.3037109 L25.9066406,10.9399414 Z M28.81875,12.3037109 C28.81875,13.1103556 28.9349598,13.7409645 29.1673828,14.1955566 C29.3998059,14.6501488 29.7894504,14.8774414 30.3363281,14.8774414 C30.6371109,14.8774414 30.9020008,14.8159186 31.1310059,14.6928711 C31.3600109,14.5698236 31.5497063,14.3886731 31.7000977,14.1494141 L31.7000977,8.89941406 C31.5497063,8.6259752 31.3634289,8.41406325 31.1412598,8.26367188 C30.9190907,8.1132805 30.6576187,8.03808594 30.356836,8.03808594 C29.8099582,8.03808594 29.4168958,8.30297587 29.1776367,8.83276367 C28.9383777,9.36255148 28.81875,10.064937 28.81875,10.9399414 L28.81875,12.3037109 Z M39.2715821,17 L36.3594727,17 L36.3594727,5.90527344 L39.2715821,5.90527344 L39.2715821,17 Z M39.2715821,3.22900391 L36.3594727,3.22900391 L36.3594727,1.00390625 L39.2715821,1.00390625 L39.2715821,3.22900391 Z M44.5051758,3.14697266 L44.5051758,5.90527344 L46.0432618,5.90527344 L46.0432618,8.01757812 L44.5051758,8.01757812 L44.5051758,13.5854492 C44.5051758,14.0366233 44.5701166,14.3596182 44.7,14.5544434 C44.8298835,14.7492686 45.0076161,14.8466797 45.2332032,14.8466797 C45.4109384,14.8466797 45.5613276,14.8381349 45.684375,14.8210449 C45.8074225,14.803955 45.9441399,14.7749025 46.0945313,14.7338867 L46.3201172,16.9487305 C46.0124985,17.0444341 45.7185561,17.1127928 45.4382813,17.1538086 C45.1580065,17.1948244 44.8401385,17.215332 44.484668,17.215332 C43.5481399,17.215332 42.8320826,16.9265166 42.3364747,16.348877 C41.8408667,15.7712373 41.5930665,14.8535219 41.5930665,13.5957031 L41.5930665,8.01757812 L40.2805665,8.01757812 L40.2805665,5.90527344 L41.5930665,5.90527344 L41.5930665,3.14697266 L44.5051758,3.14697266 Z M52.8251954,17 C52.7431637,16.8154288 52.6696781,16.6137706 52.6047364,16.3950195 C52.5397947,16.1762684 52.4902346,15.9541027 52.4560547,15.7285156 C52.1826159,16.1796898 51.8493673,16.5402819 51.4562989,16.8103027 C51.0632305,17.0803236 50.6069363,17.215332 50.0874024,17.215332 C49.1713822,17.215332 48.4382352,16.9145538 47.8879395,16.3129883 C47.3376438,15.7114228 47.0625001,14.9082081 47.0625001,13.9033203 C47.0625001,12.8164008 47.4128384,11.972171 48.1135255,11.3706055 C48.8142125,10.76904 49.8549736,10.4682617 51.2358399,10.4682617 L52.3330079,10.4682617 L52.3330079,9.56591797 C52.3330079,9.02587621 52.2355967,8.61059716 52.0407715,8.32006836 C51.8459464,8.02953956 51.5537129,7.88427734 51.1640626,7.88427734 C50.8359359,7.88427734 50.5898446,8.00048712 50.4257813,8.23291016 C50.261718,8.46533319 50.1796876,8.80370872 50.1796876,9.24804688 L47.3598633,9.23779297 L47.3291016,9.17626953 C47.2949218,8.21239752 47.6520959,7.39209323 48.4006348,6.71533203 C49.1491737,6.03857083 50.1352478,5.70019531 51.3588868,5.70019531 C52.514166,5.70019531 53.452389,6.03686187 54.173584,6.71020508 C54.8947791,7.38354829 55.2553712,8.34227894 55.2553712,9.58642578 L55.2553712,14.0776367 C55.2553712,14.6245145 55.2929684,15.1337867 55.3681641,15.6054688 C55.4433598,16.0771508 55.5595696,16.5419899 55.7167969,17 L52.8251954,17 Z M50.9282227,15.0209961 C51.2221695,15.0209961 51.4938953,14.9423836 51.7434083,14.7851562 C51.9929212,14.6279289 52.1894525,14.4262708 52.3330079,14.1801758 L52.3330079,12.1396484 L51.2358399,12.1396484 C50.7915017,12.1396484 50.4702159,12.2934555 50.2719727,12.6010742 C50.0737295,12.9086929 49.9746094,13.2983375 49.9746094,13.7700195 C49.9746094,14.139162 50.0600578,14.4399402 50.2309571,14.6723633 C50.4018564,14.9047863 50.6342759,15.0209961 50.9282227,15.0209961 L50.9282227,15.0209961 Z M59.8839844,17 L56.9718751,17 L56.9718751,1.00390625 L59.8839844,1.00390625 L59.8839844,17 Z M76.6470704,17 L73.734961,17 L73.734961,10.8168945 L69.1001954,10.8168945 L69.1001954,17 L66.1778321,17 L66.1778321,2.0703125 L69.1001954,2.0703125 L69.1001954,8.48925781 L73.734961,8.48925781 L73.734961,2.0703125 L76.6470704,2.0703125 L76.6470704,17 Z M82.772754,17.215332 C81.3782158,17.215332 80.270805,16.7573288 79.4504884,15.8413086 C78.6301718,14.9252884 78.2200196,13.7700265 78.2200196,12.3754883 L78.2200196,10.8168945 C78.2200196,9.31981673 78.6011193,8.09277822 79.3633302,7.13574219 C80.125541,6.17870615 81.1799738,5.70019531 82.5266603,5.70019531 C83.8254949,5.70019531 84.8303676,6.134273 85.5413087,7.00244141 C86.2522498,7.87060981 86.607715,9.05321517 86.607715,10.550293 L86.607715,12.3344727 L81.1218751,12.3344727 L81.1218751,12.3754883 C81.1218751,13.1069373 81.2876449,13.7084937 81.6191896,14.1801758 C81.9507342,14.6518578 82.4514616,14.8876953 83.1213868,14.8876953 C83.6682646,14.8876953 84.1125961,14.8261725 84.4543946,14.703125 C84.7961932,14.5800775 85.2029274,14.3750014 85.6746095,14.0878906 L86.4128907,15.9438477 C86.0300763,16.3129901 85.5190951,16.6171863 84.8799317,16.8564453 C84.2407684,17.0957043 83.5383828,17.215332 82.772754,17.215332 L82.772754,17.215332 Z M82.5266603,8.03808594 C82.0618142,8.03808594 81.7200207,8.24999788 81.5012696,8.67382812 C81.2825185,9.09765837 81.1594729,9.66845344 81.132129,10.3862305 L83.7468751,10.3862305 L83.7468751,9.97607422 C83.7468751,9.36083677 83.6511729,8.8840349 83.4597657,8.5456543 C83.2683585,8.2072737 82.9573265,8.03808594 82.5266603,8.03808594 L82.5266603,8.03808594 Z M93.2153322,17 C93.1333005,16.8154288 93.0598149,16.6137706 92.9948732,16.3950195 C92.9299314,16.1762684 92.8803714,15.9541027 92.8461915,15.7285156 C92.5727527,16.1796898 92.239504,16.5402819 91.8464357,16.8103027 C91.4533673,17.0803236 90.997073,17.215332 90.4775392,17.215332 C89.561519,17.215332 88.828372,16.9145538 88.2780763,16.3129883 C87.7277806,15.7114228 87.4526368,14.9082081 87.4526368,13.9033203 C87.4526368,12.8164008 87.8029751,11.972171 88.5036622,11.3706055 C89.2043493,10.76904 90.2451104,10.4682617 91.6259767,10.4682617 L92.7231447,10.4682617 L92.7231447,9.56591797 C92.7231447,9.02587621 92.6257335,8.61059716 92.4309083,8.32006836 C92.2360831,8.02953956 91.9438497,7.88427734 91.5541993,7.88427734 C91.2260727,7.88427734 90.9799814,8.00048712 90.8159181,8.23291016 C90.6518548,8.46533319 90.5698243,8.80370872 90.5698243,9.24804688 L87.7500001,9.23779297 L87.7192384,9.17626953 C87.6850585,8.21239752 88.0422327,7.39209323 88.7907716,6.71533203 C89.5393105,6.03857083 90.5253846,5.70019531 91.7490236,5.70019531 C92.9043028,5.70019531 93.8425258,6.03686187 94.5637208,6.71020508 C95.2849158,7.38354829 95.6455079,8.34227894 95.6455079,9.58642578 L95.6455079,14.0776367 C95.6455079,14.6245145 95.6831052,15.1337867 95.7583009,15.6054688 C95.8334966,16.0771508 95.9497064,16.5419899 96.1069337,17 L93.2153322,17 Z M91.3183595,15.0209961 C91.6123063,15.0209961 91.8840321,14.9423836 92.133545,14.7851562 C92.383058,14.6279289 92.5795892,14.4262708 92.7231447,14.1801758 L92.7231447,12.1396484 L91.6259767,12.1396484 C91.1816385,12.1396484 90.8603527,12.2934555 90.6621095,12.6010742 C90.4638663,12.9086929 90.3647462,13.2983375 90.3647462,13.7700195 C90.3647462,14.139162 90.4501946,14.4399402 90.6210939,14.6723633 C90.7919932,14.9047863 91.0244127,15.0209961 91.3183595,15.0209961 L91.3183595,15.0209961 Z M100.274121,17 L97.3620118,17 L97.3620118,1.00390625 L100.274121,1.00390625 L100.274121,17 Z M105.507715,3.14697266 L105.507715,5.90527344 L107.045801,5.90527344 L107.045801,8.01757812 L105.507715,8.01757812 L105.507715,13.5854492 C105.507715,14.0366233 105.572656,14.3596182 105.702539,14.5544434 C105.832423,14.7492686 106.010155,14.8466797 106.235742,14.8466797 C106.413478,14.8466797 106.563867,14.8381349 106.686914,14.8210449 C106.809962,14.803955 106.946679,14.7749025 107.09707,14.7338867 L107.322656,16.9487305 C107.015038,17.0444341 106.721095,17.1127928 106.44082,17.1538086 C106.160546,17.1948244 105.842678,17.215332 105.487207,17.215332 C104.550679,17.215332 103.834622,16.9265166 103.339014,16.348877 C102.843406,15.7712373 102.595606,14.8535219 102.595606,13.5957031 L102.595606,8.01757812 L101.283106,8.01757812 L101.283106,5.90527344 L102.595606,5.90527344 L102.595606,3.14697266 L105.507715,3.14697266 Z M111.254004,7.22802734 C111.541115,6.74267335 111.886326,6.36670055 112.289649,6.10009766 C112.692971,5.83349476 113.137302,5.70019531 113.622656,5.70019531 C114.607036,5.70019531 115.37949,6.09154882 115.940039,6.87426758 C116.500589,7.65698634 116.78086,8.86522621 116.78086,10.4990234 L116.78086,17 L113.858496,17 L113.858496,10.4785156 C113.858496,9.56249542 113.750831,8.92675959 113.535498,8.57128906 C113.320165,8.21581854 112.983499,8.03808594 112.525488,8.03808594 C112.25205,8.03808594 112.009376,8.09789979 111.797461,8.2175293 C111.585546,8.3371588 111.404395,8.50292863 111.254004,8.71484375 L111.254004,17 L108.341895,17 L108.341895,1.00390625 L111.254004,1.00390625 L111.254004,7.22802734 Z M129.606445,13.831543 L125.668945,13.831543 L124.869141,17 L121.92627,17 L126.130371,2.0703125 L129.165528,2.0703125 L133.359375,17 L130.416504,17 L129.606445,13.831543 Z M126.263672,11.4833984 L129.011719,11.4833984 L127.668457,6.20263672 L127.606934,6.20263672 L126.263672,11.4833984 Z M137.3625,3.14697266 L137.3625,5.90527344 L138.900586,5.90527344 L138.900586,8.01757812 L137.3625,8.01757812 L137.3625,13.5854492 C137.3625,14.0366233 137.427441,14.3596182 137.557324,14.5544434 C137.687208,14.7492686 137.86494,14.8466797 138.090528,14.8466797 C138.268263,14.8466797 138.418652,14.8381349 138.541699,14.8210449 C138.664747,14.803955 138.801464,14.7749025 138.951856,14.7338867 L139.177442,16.9487305 C138.869823,17.0444341 138.57588,17.1127928 138.295606,17.1538086 C138.015331,17.1948244 137.697463,17.215332 137.341992,17.215332 C136.405464,17.215332 135.689407,16.9265166 135.193799,16.348877 C134.698191,15.7712373 134.450391,14.8535219 134.450391,13.5957031 L134.450391,8.01757812 L133.137891,8.01757812 L133.137891,5.90527344 L134.450391,5.90527344 L134.450391,3.14697266 L137.3625,3.14697266 Z M143.324121,17 L140.412012,17 L140.412012,1.00390625 L143.324121,1.00390625 L143.324121,17 Z M150.495703,17 C150.413672,16.8154288 150.340186,16.6137706 150.275244,16.3950195 C150.210303,16.1762684 150.160743,15.9541027 150.126563,15.7285156 C149.853124,16.1796898 149.519875,16.5402819 149.126807,16.8103027 C148.733738,17.0803236 148.277444,17.215332 147.75791,17.215332 C146.84189,17.215332 146.108743,16.9145538 145.558447,16.3129883 C145.008152,15.7114228 144.733008,14.9082081 144.733008,13.9033203 C144.733008,12.8164008 145.083346,11.972171 145.784033,11.3706055 C146.484721,10.76904 147.525482,10.4682617 148.906348,10.4682617 L150.003516,10.4682617 L150.003516,9.56591797 C150.003516,9.02587621 149.906105,8.61059716 149.71128,8.32006836 C149.516454,8.02953956 149.224221,7.88427734 148.834571,7.88427734 C148.506444,7.88427734 148.260353,8.00048712 148.096289,8.23291016 C147.932226,8.46533319 147.850196,8.80370872 147.850196,9.24804688 L145.030371,9.23779297 L144.99961,9.17626953 C144.96543,8.21239752 145.322604,7.39209323 146.071143,6.71533203 C146.819682,6.03857083 147.805756,5.70019531 149.029395,5.70019531 C150.184674,5.70019531 151.122897,6.03686187 151.844092,6.71020508 C152.565287,7.38354829 152.925879,8.34227894 152.925879,9.58642578 L152.925879,14.0776367 C152.925879,14.6245145 152.963476,15.1337867 153.038672,15.6054688 C153.113868,16.0771508 153.230078,16.5419899 153.387305,17 L150.495703,17 Z M148.598731,15.0209961 C148.892677,15.0209961 149.164403,14.9423836 149.413916,14.7851562 C149.663429,14.6279289 149.85996,14.4262708 150.003516,14.1801758 L150.003516,12.1396484 L148.906348,12.1396484 C148.46201,12.1396484 148.140724,12.2934555 147.942481,12.6010742 C147.744238,12.9086929 147.645117,13.2983375 147.645117,13.7700195 C147.645117,14.139162 147.730566,14.4399402 147.901465,14.6723633 C148.072364,14.9047863 148.304784,15.0209961 148.598731,15.0209961 L148.598731,15.0209961 Z M159.338672,14.0981445 C159.338672,13.7836898 159.215626,13.511964 158.969531,13.282959 C158.723436,13.0539539 158.251762,12.7719743 157.554492,12.4370117 C156.440229,12.0200174 155.604544,11.5483425 155.047412,11.0219727 C154.490281,10.4956028 154.211719,9.81201592 154.211719,8.97119141 C154.211719,8.06884314 154.568893,7.2980989 155.283252,6.65893555 C155.997611,6.01977219 156.94267,5.70019531 158.118457,5.70019531 C159.348932,5.70019531 160.329879,6.02831703 161.061328,6.68457031 C161.792777,7.34082359 162.144825,8.17821756 162.117481,9.19677734 L162.086719,9.25830078 L159.277149,9.25830078 C159.277149,8.79345471 159.181446,8.42431777 158.990039,8.15087891 C158.798632,7.87744004 158.50469,7.74072266 158.108203,7.74072266 C157.793749,7.74072266 157.52715,7.84667863 157.308399,8.05859375 C157.089648,8.27050887 156.980274,8.52685396 156.980274,8.82763672 C156.980274,9.15576336 157.089648,9.42065329 157.308399,9.62231445 C157.52715,9.82397562 158.002243,10.0991194 158.733692,10.4477539 C159.895807,10.8442403 160.757126,11.3142063 161.317676,11.857666 C161.878226,12.4011258 162.158496,13.1137651 162.158496,13.9956055 C162.158496,14.9389696 161.782524,15.7114228 161.030567,16.3129883 C160.27861,16.9145538 159.290827,17.215332 158.067188,17.215332 C156.788861,17.215332 155.777152,16.8427772 155.032031,16.0976562 C154.286911,15.3525353 153.931445,14.5117234 153.965625,13.5751953 L153.986133,13.5136719 L156.652149,13.5136719 C156.665821,14.1015654 156.802538,14.5253893 157.062305,14.7851562 C157.322072,15.0449232 157.680955,15.1748047 158.138965,15.1748047 C158.528615,15.1748047 158.825976,15.0791025 159.031055,14.8876953 C159.236134,14.6962881 159.338672,14.4331071 159.338672,14.0981445 L159.338672,14.0981445 Z" fill="#FFFFFF"></path>
                            <g id="6pack" transform="translate(2.000000, 10.000000) scale(1, -1) rotate(-90.000000) translate(-2.000000, -10.000000) translate(-8.000000, 8.000000)">
                                <rect id="Card" fill="#6A1B9A" x="-2.84217094e-14" y="0.0373643969" width="3.27052896" height="3.95182845"></rect>
                                <rect id="Card" fill="#D84315" x="3.26541876" y="0.0373831776" width="3.27052896" height="3.95182845"></rect>
                                <rect id="Card" fill="#0097A7" x="6.53083751" y="0.0373831776" width="3.27052896" height="3.95182845"></rect>
                                <rect id="Card" fill="#FAA906" x="9.79625627" y="0.0373831776" width="3.27052896" height="3.95182845"></rect>
                                <rect id="Card" fill="#558B2F" x="13.061675" y="0.0373831776" width="3.27052896" height="3.95182845"></rect>
                                <rect id="Card" fill="#5D4037" x="16.3270938" y="0.0373831776" width="3.27052896" height="3.95182845"></rect>
                            </g>
                        </g>
                    </g>
                </g>
            </g>
        </g>
    </g>
</svg>