<?xml version="1.0" encoding="UTF-8" standalone="no"?>
<svg width="59px" height="46px" viewBox="0 0 59 46" version="1.1" xmlns="http://www.w3.org/2000/svg" xmlns:xlink="http://www.w3.org/1999/xlink">
    <!-- Generator: Sketch 3.6.1 (26313) - http://www.bohemiancoding.com/sketch -->
    <title>asset-bg-apps</title>
    <desc>Created with Sketch.</desc>
    <defs></defs>
    <g id="HSS-Framework" stroke="none" stroke-width="1" fill="none" fill-rule="evenodd">
        <g id="01---View-mode" transform="translate(-30.000000, -658.000000)" fill="#000000">
            <g id="Framework" transform="translate(30.000000, 264.000000)">
                <g id="APPLICATIONS" transform="translate(0.000000, 390.000000)">
                    <g id="thead">
                        <g id="asset-bg-apps" transform="translate(-10.000000, 4.000000)">
                            <path d="M35.0810755,60.6266981 L64.622044,60.6266981 L64.622044,8.26119497 L35.0810755,8.26119497 L35.0810755,60.6266981 Z M49.8511258,67.1312138 C48.7058994,67.1312138 47.7715786,65.9868553 47.7715786,64.5800943 C47.7715786,63.1701509 48.7047421,62.0302767 49.8511258,62.0302767 C50.998522,62.0302767 51.930673,63.1711635 51.930673,64.5800943 C51.930673,65.9880126 50.9995346,67.1312138 49.8511258,67.1312138 L49.8511258,67.1312138 Z M45.3669937,5.63369811 L54.3374277,5.63369811 L54.3374277,2.41962893 L45.3669937,2.41962893 L45.3669937,5.63369811 Z M66.2657484,0 L33.4363585,0 C31.9941572,0 30.8143585,1.44668553 30.8143585,3.21623899 L30.8143585,65.6704969 C30.8143585,67.4410629 31.9941572,68.8865912 33.4363585,68.8865912 L66.2657484,68.8865912 C67.7080943,68.8877484 68.8878931,67.4410629 68.8878931,65.6716541 L68.8878931,3.21623899 C68.8878931,1.44668553 67.7080943,0 66.2657484,0 L66.2657484,0 Z" id="Fill-1"></path>
                            <path d="M15.6257516,13.4783327 C13.8326195,16.0239553 12.3685755,19.1183956 11.3396509,22.586622 L20.3704057,22.586622 C20.7363805,19.2724522 21.2562673,16.1628233 21.9289088,13.4783327 L15.6257516,13.4783327 Z" id="Fill-3"></path>
                            <path d="M20.1841925,24.4206189 L10.843444,24.4206189 C10.1480918,27.2687132 9.74334969,30.3320528 9.67984654,33.5278956 L19.7396704,33.5278956 C19.7633937,30.4677384 19.9161484,27.3806755 20.1841925,24.4206189" id="Fill-4"></path>
                            <path d="M22.0053585,24.4206189 C21.7513459,27.1911786 21.597434,30.2362918 21.5726981,33.5278956 L27.9383459,33.5278956 L27.9383459,24.4206189 L22.0053585,24.4206189 Z" id="Fill-5"></path>
                            <path d="M21.5726692,35.3609377 C21.597405,38.6547113 21.751317,41.6996799 22.0053296,44.469227 L27.938317,44.469227 L27.938317,35.3609377 L21.5726692,35.3609377 Z" id="Fill-7"></path>
                            <path d="M23.8008195,13.4783327 C23.150744,15.9604522 22.5855805,19.0162698 22.1861906,22.586622 L27.9383604,22.586622 L27.9383604,13.4783327 L23.8008195,13.4783327 Z" id="Fill-9"></path>
                            <path d="M10.8412887,44.4680698 L20.1842069,44.4680698 C19.9161629,41.5058434 19.7634082,38.4221075 19.7396849,35.3597805 L9.67986101,35.3597805 C9.74336415,38.5577931 10.1492635,41.6209881 10.8412887,44.4680698" id="Fill-10"></path>
                            <path d="M22.4294409,11.6452906 C23.0312019,9.6366239 23.7372585,7.95878113 24.5338686,6.69942264 C24.2959126,6.72618365 24.0547742,6.75410189 23.8189881,6.78751698 C21.3338308,7.68104528 19.0399063,9.35252327 17.0552522,11.6452906 L22.4294409,11.6452906 Z" id="Fill-12"></path>
                            <path d="M13.4709119,13.4783327 L9.4495283,13.4783327 C6.59072956,16.0012447 4.25268553,19.094817 2.61447799,22.586622 L9.4441761,22.586622 C10.4119119,19.1832006 11.7852579,16.1056849 13.4709119,13.4783327" id="Fill-13"></path>
                            <path d="M17.7332604,8.41402201 C15.6030843,9.24911006 13.6020843,10.3385 11.7636755,11.645305 L14.7549774,11.645305 C15.6784491,10.4374434 16.6752604,9.35788994 17.7332604,8.41402201" id="Fill-17"></path>
                            <path d="M26.9556673,6.50992579 C26.0793528,7.28382516 25.1560258,9.02546038 24.3260006,11.6452906 L27.9372899,11.6452906 L27.9372899,6.4840327 C27.6079126,6.4840327 27.2817176,6.49806415 26.9556673,6.50992579" id="Fill-20"></path>
                            <path d="M53.7238774,37.4868176 L57.3878208,37.0486604 L57.3878208,31.8422704 L53.7238774,31.4020881 C53.3244874,29.4161321 52.5398836,27.5700566 51.459173,25.9426981 L53.739934,23.0332704 L51.9005126,21.1937044 L50.0610912,19.3552956 L48.7823491,20.3584717 L47.1525314,21.6372138 C45.5230031,20.5543333 43.6759151,19.7717547 41.6889465,19.3725094 L41.2519465,15.7053836 L38.6471604,15.7053836 L38.6471604,24.0956101 C41.4747138,24.0956101 44.0290157,25.2279623 45.8975126,27.0642013 C45.919066,27.0867673 45.9459717,27.101956 45.9686824,27.1266918 C45.9900912,27.1492579 46.0062925,27.1763082 46.0300157,27.197717 C47.8652421,29.0631761 49.0007767,31.6205157 49.0007767,34.4482138 C49.0007767,40.1604591 44.3649025,44.8008176 38.6471604,44.8008176 L38.6471604,53.1846792 L41.2519465,53.1846792 L41.6889465,49.518566 C41.9386195,49.4701069 42.1851101,49.4141258 42.4295755,49.3526478 C44.1366384,48.9221572 45.727544,48.2030818 47.1536887,47.2558868 L50.0610912,49.5379497 L51.2848648,48.3096918 L53.739934,45.8631572 L53.2502799,45.2301509 L51.459173,42.9482327 C51.5646258,42.7911384 51.669066,42.6285472 51.7680094,42.4607484 C52.6916258,40.9537421 53.3622421,39.2789371 53.7238774,37.4868176" id="Fill-21"></path>
                            <path d="M46.9761258,34.4471 C46.9761258,29.8499931 43.2465094,26.1182069 38.6494025,26.1182069 L38.6494025,30.5517101 C40.802,30.5517101 42.5446478,32.2953704 42.5446478,34.4471 C42.5446478,36.5965151 40.802,38.3403201 38.6494025,38.3403201 L38.6494025,42.7738233 C43.2465094,42.7738233 46.9761258,39.0442069 46.9761258,34.4471" id="Fill-22"></path>
                        </g>
                    </g>
                </g>
            </g>
        </g>
    </g>
</svg>