<?xml version="1.0" encoding="UTF-8" standalone="no"?>
<svg width="14px" height="31px" viewBox="0 0 14 31" version="1.1" xmlns="http://www.w3.org/2000/svg" xmlns:xlink="http://www.w3.org/1999/xlink">
    <!-- Generator: Sketch 3.6.1 (26313) - http://www.bohemiancoding.com/sketch -->
    <title>continuum-3</title>
    <desc>Created with Sketch.</desc>
    <defs></defs>
    <g id="HSS-Framework" stroke="none" stroke-width="1" fill="none" fill-rule="evenodd">
        <g id="01---View-mode" transform="translate(-513.000000, -276.000000)">
            <g id="Framework" transform="translate(30.000000, 264.000000)">
                <g id="Fixed-header" transform="translate(-6.000000, -2.000000)">
                    <g id="Top-icons" transform="translate(247.000000, 14.000000)">
                        <g id="continuum-3" transform="translate(242.000000, 0.000000)">
                            <g id="icon-pregnant">
                                <path d="M10.0378683,9.6162 C9.8437993,8.72244615 8.94490275,7.99036923 8.0435924,7.99036923 L5.82966137,7.99036923 C4.90421309,7.99036923 3.99035102,8.72292308 3.79966137,9.61763077 L0.035109644,22.4983692 C-0.155097253,23.3926 0.446902747,24.1256308 1.37186826,24.1256308 L1.8695924,24.1256308 L3.56117861,24.1256308 L3.68573033,25.7829385 L3.94062689,28.9602 C4.0140062,29.8720769 4.70821309,30.6184615 5.4840062,30.6184615 L8.30331654,30.6184615 C9.07910964,30.6184615 9.77331654,29.8725538 9.84669585,28.9602 L10.1011096,25.7829385 L10.2319372,24.1256308 L11.9182131,24.1256308 L12.5433855,24.1256308 C13.4693165,24.1256308 14.0679372,23.3935538 13.8719372,22.4993231 L10.0378683,9.6162 Z M10.3115924,3.31747692 C10.3115924,1.48513846 8.80876482,0 6.9540062,0 C5.09924758,0 3.59593723,1.48513846 3.59593723,3.31747692 C3.59593723,5.14933846 5.09924758,6.63447692 6.9540062,6.63447692 C8.80876482,6.63447692 10.3115924,5.14933846 10.3115924,3.31747692 Z" id="Combined-Shape" fill="#000000"></path>
                                <g id="magzat" transform="translate(0.000000, 10.969231)">
                                    <path d="M13.6406657,6.65617488 C13.6406657,3.00718894 10.6478798,0.0496298077 6.95424551,0.0496298077 C3.26061125,0.0496298077 0.266863954,3.00718894 0.266863954,6.65617488 C0.266863954,10.3042111 3.26061125,13.2617702 6.95424551,13.2617702 C10.6478798,13.2617702 13.6406657,10.3042111 13.6406657,6.65617488" id="Path" fill="#000000"></path>
                                    <path d="M11.7422372,6.65604006 C11.7422372,4.04301068 9.59911097,1.92511025 6.95410904,1.92511025 C4.30910711,1.92511025 2.16529243,4.04301068 2.16529243,6.65604006 C2.16529243,9.26838932 4.30910711,11.3862898 6.95410904,11.3862898 C9.59911097,11.3862898 11.7422372,9.26838932 11.7422372,6.65604006" id="Path" fill="#FFFFFF"></path>
                                    <path d="M8.00026703,6.65586003 C8.00026703,6.42376664 7.92419477,6.20636265 7.7848119,6.02704656 C7.37884875,5.50477492 7.47831588,4.75627006 8.00697794,4.35521416 C8.53564,3.95415827 9.29330343,4.05242304 9.69926657,4.57469468 C10.1597162,5.16706313 10.4140601,5.89394298 10.4140601,6.65586003 C10.4140592,8.55610726 8.85244394,10.0744618 6.87444587,10.0732776 C6.25489141,10.0593933 5.65947857,9.88329446 5.14101188,9.56789982 C4.573435,9.22263037 4.39664397,8.488184 4.74613807,7.92746793 C5.09563218,7.36675186 5.8390651,7.19209787 6.40664199,7.53736732 C6.5628804,7.63241057 6.74087971,7.68505552 6.90236594,7.68896897 C7.52830499,7.68925054 8.00026703,7.23036287 8.00026703,6.65586003 Z" id="Path" fill="#000000"></path>
                                </g>
                            </g>
                        </g>
                    </g>
                </g>
            </g>
        </g>
    </g>
</svg>