<?xml version="1.0" encoding="UTF-8" standalone="no"?>
<svg width="17px" height="24px" viewBox="0 0 17 24" version="1.1" xmlns="http://www.w3.org/2000/svg" xmlns:xlink="http://www.w3.org/1999/xlink">
    <!-- Generator: Sketch 3.6.1 (26313) - http://www.bohemiancoding.com/sketch -->
    <title>continuum-4</title>
    <desc>Created with Sketch.</desc>
    <defs></defs>
    <g id="HSS-Framework" stroke="none" stroke-width="1" fill="none" fill-rule="evenodd">
        <g id="01---View-mode" transform="translate(-626.000000, -282.000000)" fill="#212121">
            <g id="Framework" transform="translate(30.000000, 264.000000)">
                <g id="Fixed-header" transform="translate(-6.000000, -2.000000)">
                    <g id="Top-icons" transform="translate(247.000000, 14.000000)">
                        <g id="continuum-4" transform="translate(355.000000, 6.000000)">
                            <g id="icon-child">
                                <path d="M8.57555556,0.3375 C10.4644444,0.3375 11.9755556,1.875 11.9755556,3.7125 C11.9755556,5.55 10.4266667,7.0875 8.57555556,7.0875 C6.72444444,7.0875 5.17555556,5.55 5.17555556,3.7125 C5.17555556,1.875 6.68666667,0.3375 8.57555556,0.3375 Z M0.226666667,10.0125 C0.226666667,8.0625 2.19111111,8.0625 2.19111111,8.0625 L14.96,8.0625 C14.96,8.0625 16.9244444,7.9875 16.9244444,10.0125 C16.9244444,12.0375 14.96,12 14.96,12 L12.9955556,12 L12.9955556,21.75 C12.9955556,21.75 12.9955556,23.7 11.0311111,23.7 C9.06666667,23.7 9.06666667,21.75 9.06666667,21.75 L9.06666667,15.9 L8.08444444,15.9 L8.08444444,21.7125 C8.08444444,21.7125 8.08444444,23.6625 6.12,23.6625 C4.15555556,23.6625 4.15555556,21.7125 4.15555556,21.7125 L4.15555556,12 L2.19111111,12 C2.19111111,12 0.226666667,12 0.226666667,10.0125 Z" id="Combined-Shape"></path>
                            </g>
                        </g>
                    </g>
                </g>
            </g>
        </g>
    </g>
</svg>