<?xml version="1.0" encoding="UTF-8" standalone="no"?>
<svg width="45px" height="32px" viewBox="0 0 45 32" version="1.1" xmlns="http://www.w3.org/2000/svg" xmlns:xlink="http://www.w3.org/1999/xlink">
    <!-- Generator: Sketch 3.6.1 (26313) - http://www.bohemiancoding.com/sketch -->
    <title>continuum-7</title>
    <desc>Created with Sketch.</desc>
    <defs></defs>
    <g id="HSS-Framework" stroke="none" stroke-width="1" fill="none" fill-rule="evenodd">
        <g id="01---View-mode" transform="translate(-942.000000, -276.000000)" fill="#212121">
            <g id="Framework" transform="translate(30.000000, 264.000000)">
                <g id="Fixed-header" transform="translate(-6.000000, -2.000000)">
                    <g id="Top-icons" transform="translate(247.000000, 14.000000)">
                        <g id="continuum-7" transform="translate(671.000000, 0.000000)">
                            <g id="icon-father" transform="translate(16.000000, 0.000000)">
                                <path d="M13.673,17.1466667 C13.876,18.0547879 13.3355,18.7980606 12.471,18.7980606 L10.904,18.7980606 L10.7615,20.4838788 L9.992,29.8778182 C9.916,30.8048485 9.198,31.5636364 8.394,31.5636364 L5.474,31.5636364 C4.6705,31.5636364 3.951,30.8053333 3.875,29.8778182 L3.1065,20.4838788 L2.96,18.7980606 L1.4635,18.7980606 C0.636,18.7980606 0.124,18.0547879 0.328,17.1466667 L1.8795,10.2118788 C2.083,9.30375758 3.0335,8.56 3.993,8.56 L5.2575,8.56 L8.7435,8.56 L10.008,8.56 C10.967,8.56 11.917,9.30375758 12.1205,10.2118788 L13.673,17.1466667 Z M10.4775,3.8089697 C10.4775,1.94618182 8.9205,0.436363636 6.9995,0.436363636 C5.079,0.436363636 3.5215,1.94618182 3.5215,3.8089697 C3.5215,5.67127273 5.0785,7.18109091 6.9995,7.18109091 C8.9205,7.18109091 10.4775,5.67127273 10.4775,3.8089697 Z" id="Combined-Shape"></path>
                            </g>
                            <g id="icon-mother">
                                <path d="M14.515,23.3095758 L10.544,10.2123636 C10.343,9.30375758 9.412,8.55951515 8.4785,8.55951515 L6.1855,8.55951515 C5.227,8.55951515 4.2805,9.30424242 4.083,10.2138182 L0.184,23.3086061 C-0.013,24.217697 0.6105,24.9629091 1.5685,24.9629091 L2.084,24.9629091 L3.836,24.9629091 L3.965,26.6477576 L4.229,29.8778182 C4.305,30.8048485 5.024,31.5636364 5.8275,31.5636364 L8.7475,31.5636364 C9.551,31.5636364 10.27,30.8053333 10.346,29.8778182 L10.6095,26.6477576 L10.745,24.9629091 L12.4915,24.9629091 L13.139,24.9629091 C14.098,24.9629091 14.718,24.2186667 14.515,23.3095758 Z M10.8275,3.8089697 C10.8275,1.94618182 9.271,0.436363636 7.35,0.436363636 C5.429,0.436363636 3.872,1.94618182 3.872,3.8089697 C3.872,5.67127273 5.429,7.18109091 7.35,7.18109091 C9.271,7.18109091 10.8275,5.67127273 10.8275,3.8089697 Z" id="Combined-Shape"></path>
                            </g>
                            <g id="icon-child" transform="translate(31.000000, 12.000000)">
                                <path d="M7.06222222,0.28125 C8.61777778,0.28125 9.86222222,1.5625 9.86222222,3.09375 C9.86222222,4.625 8.58666667,5.90625 7.06222222,5.90625 C5.53777778,5.90625 4.26222222,4.625 4.26222222,3.09375 C4.26222222,1.5625 5.50666667,0.28125 7.06222222,0.28125 Z M0.186666667,8.34375 C0.186666667,6.71875 1.80444444,6.71875 1.80444444,6.71875 L12.32,6.71875 C12.32,6.71875 13.9377778,6.65625 13.9377778,8.34375 C13.9377778,10.03125 12.32,10 12.32,10 L10.7022222,10 L10.7022222,18.125 C10.7022222,18.125 10.7022222,19.75 9.08444444,19.75 C7.46666667,19.75 7.46666667,18.125 7.46666667,18.125 L7.46666667,13.25 L6.65777778,13.25 L6.65777778,18.09375 C6.65777778,18.09375 6.65777778,19.71875 5.04,19.71875 C3.42222222,19.71875 3.42222222,18.09375 3.42222222,18.09375 L3.42222222,10 L1.80444444,10 C1.80444444,10 0.186666667,10 0.186666667,8.34375 Z" id="Combined-Shape"></path>
                            </g>
                        </g>
                    </g>
                </g>
            </g>
        </g>
    </g>
</svg>