<?xml version="1.0" encoding="UTF-8" standalone="no"?>
<svg width="39px" height="31px" viewBox="0 0 39 31" version="1.1" xmlns="http://www.w3.org/2000/svg" xmlns:xlink="http://www.w3.org/1999/xlink">
    <!-- Generator: Sketch 39 (31667) - http://www.bohemiancoding.com/sketch -->
    <title>Group</title>
    <desc>Created with Sketch.</desc>
    <defs></defs>
    <g id="Assets" stroke="none" stroke-width="1" fill="none" fill-rule="evenodd">
        <g id="HSS-Icons" transform="translate(-631.000000, -826.000000)" fill="#000000">
            <g id="Group" transform="translate(631.000000, 826.000000)">
                <path d="M35.8140845,24.8758621 L26.8056338,24.8758621 C26.6957746,25.0965517 26.5859155,25.3172414 26.4211268,25.537931 C25.6521127,26.6413793 24.3887324,27.3034483 23.015493,27.3034483 C22.1915493,27.3034483 21.3676056,27.0275862 20.7084507,26.5862069 L15.5450704,22.8896552 L15.5450704,22.8896552 L13.6774648,21.5103448 L13.5126761,21.4 C13.2929577,21.2344828 13.2380282,20.9034483 13.3478873,20.6827586 C13.5126761,20.462069 13.8422535,20.4068966 14.0619718,20.5172414 L16.643662,22.2275862 L21.3676056,25.4827586 C21.5873239,25.6482759 21.8619718,25.7586207 22.0816901,25.8689655 C22.356338,25.9793103 22.6859155,26.0344828 23.015493,26.0344828 C23.9492958,26.0344828 24.828169,25.5931034 25.3774648,24.7655172 C26.256338,23.4413793 25.9267606,21.6206897 24.6084507,20.737931 L11.7,11.8551724 C11.2056338,11.5241379 10.656338,11.3586207 10.0521127,11.3586207 L0.329577465,11.3586207 L0.329577465,21.0689655 L6.20704225,21.0689655 L19.1704225,30.1724138 C19.6647887,30.5034483 20.2140845,30.6689655 20.8183099,30.6689655 L35.7591549,30.6689655 C37.3521127,30.6689655 38.6704225,29.3448276 38.6704225,27.7448276 C38.6704225,26.1448276 37.4070423,24.8758621 35.8140845,24.8758621 L35.8140845,24.8758621 Z" id="Shape"></path>
                <path d="M37.4355369,6.21403918 L35.3649181,7.58545409 C35.2056397,7.70300394 35.1260005,7.85973707 35.1260005,8.05565349 L35.1260005,12.2482648 L25.9276746,12.2482648 L25.9276746,10.7201167 C25.9276746,10.4458338 25.6091179,10.2891006 25.3702003,10.4458338 L21.1493235,13.2278468 C20.9502255,13.3453967 20.9502255,13.658863 21.1493235,13.7764128 L25.3702003,16.5584259 C25.6091179,16.715159 25.9276746,16.5584259 25.9276746,16.2841429 L25.9276746,14.7559949 L36.4002275,14.7559949 C37.1169802,14.7559949 37.7142741,14.1682456 37.7142741,13.4629465 L37.7142741,6.37077232 C37.7142741,6.21403918 37.5549957,6.09648934 37.4355369,6.21403918 L37.4355369,6.21403918 Z M34.4888871,0.0622637463 C34.2499695,-0.0944693859 33.9314128,0.0622637463 33.9314128,0.336546728 L33.9314128,1.86469477 L23.4588599,1.86469477 C22.7421072,1.86469477 22.1448133,2.45244401 22.1448133,3.15774311 L22.1448133,10.3282839 C22.1448133,10.485017 22.3040917,10.5633836 22.46337,10.485017 L24.5339889,9.11360213 C24.6932672,8.99605228 24.7729064,8.83931915 24.7729064,8.64340273 L24.7729064,4.41160816 L33.9712323,4.41160816 L33.9712323,5.9397562 C33.9712323,6.21403918 34.2897891,6.37077232 34.5287066,6.21403918 L38.7495835,3.43202609 C38.9486814,3.31447624 38.9486814,3.00100997 38.7495835,2.88346013 L34.4888871,0.0622637463 L34.4888871,0.0622637463 Z" id="Shape"></path>
            </g>
        </g>
    </g>
</svg>