<?xml version="1.0" encoding="UTF-8" standalone="no"?>
<svg width="38px" height="32px" viewBox="0 0 38 32" version="1.1" xmlns="http://www.w3.org/2000/svg" xmlns:xlink="http://www.w3.org/1999/xlink">
    <!-- Generator: Sketch 39 (31667) - http://www.bohemiancoding.com/sketch -->
    <title>Group</title>
    <desc>Created with Sketch.</desc>
    <defs></defs>
    <g id="Assets" stroke="none" stroke-width="1" fill="none" fill-rule="evenodd">
        <g id="HSS-Icons" transform="translate(-721.000000, -825.000000)" fill="#000000">
            <g id="Group" transform="translate(721.000000, 825.000000)">
                <g transform="translate(14.096774, 5.538462)" id="Shape">
                    <path d="M14.3100645,0.348307692 L17.3825484,0.348307692 L17.3825484,12.8172308 L14.3100645,12.8172308 L14.3100645,0.348307692 L14.3100645,0.348307692 Z"></path>
                    <path d="M8.056,12.8283077 L4.96819355,12.8283077 L4.96819355,1.92738462 L8.056,1.92738462 C8.056,5.56123077 8.056,9.176 8.056,12.8283077 L8.056,12.8283077 Z"></path>
                    <path d="M12.7201935,12.8326154 L9.64096774,12.8326154 L9.64096774,6.94153846 L12.7201935,6.94153846 L12.7201935,12.8326154 L12.7201935,12.8326154 Z"></path>
                    <path d="M3.37770968,5.01723077 L3.37770968,10.2701538 C2.84693548,9.61846154 2.08019355,9.19261538 1.12467742,9.03815385 C0.85316129,8.99076923 0.582258065,8.97907692 0.304612903,8.99076923 L0.304612903,5.01723077 L3.37770968,5.01723077 L3.37770968,5.01723077 Z"></path>
                </g>
                <path d="M34.5499677,0.180307692 C31.0699032,0.221538462 25.2485484,0.198153846 21.7684839,0.192 C18.2884194,0.198153846 14.8089677,0.221538462 11.3289032,0.180307692 C9.63606452,0.156307692 7.97264516,1.65476923 7.97264516,3.50276923 L7.97264516,17.8695385 C8.51506452,17.6738462 9.10529032,17.3723077 9.81870968,16.9396923 C10.0957419,16.7741538 10.3733871,16.5784615 10.6442903,16.3827692 L10.6442903,3.74523077 C10.6442903,3.04615385 10.8214194,2.86892308 11.5287097,2.86892308 L34.3489355,2.86892308 C35.0568387,2.86892308 35.2333548,3.04676923 35.2333548,3.74523077 L35.2333548,20.5403077 C35.2333548,21.192 34.9857419,21.4461538 34.3366774,21.4461538 L16.4012903,21.4461538 C15.6523226,22.0978462 14.8500323,22.7550769 14.0128065,23.4061538 C13.711871,23.6430769 13.5114516,23.8621538 13.3815161,24.0750769 C16.1769677,24.0812308 18.9730323,24.0812308 21.7684839,24.0812308 C25.1186129,24.0812308 30.8106452,24.0750769 34.1546452,24.0750769 C34.5260645,24.0750769 34.9036129,24.0750769 35.2633871,23.9981538 C36.8207742,23.6664615 37.9000968,22.3224615 37.9056129,20.6818462 C37.9117419,14.9550769 37.9056129,9.22892308 37.9056129,3.50215385 C37.9062258,1.65476923 36.2428065,0.156307692 34.5499677,0.180307692 L34.5499677,0.180307692 Z" id="Shape"></path>
                <path d="M16.0592903,19.776 C15.1509677,20.5932308 14.1599032,21.4221538 13.11,22.2393846 C12.3316129,22.8436923 11.9007419,23.4947692 11.7064516,24.3476923 C11.4294194,25.5913846 10.798129,26.6098462 9.8426129,27.3796923 C9.6716129,27.5156923 9.55332258,27.6873846 9.41235484,27.8892308 C9.34125806,27.984 9.27690323,28.0849231 9.19416129,28.1852308 L8.96432258,28.4812308 L9.31796774,28.5821538 C9.95477419,28.7655385 10.0669355,29.1150769 10.0491613,29.6246154 C10.0375161,29.8910769 10.0375161,30.1636923 10.0375161,30.4184615 C10.0436452,30.6492308 10.0436452,30.8923077 10.0375161,31.1230769 C10.0197419,31.6024615 9.81319355,31.816 9.35903226,31.816 C6.65796774,31.8221538 3.95016129,31.8221538 1.24296774,31.816 C0.853774194,31.816 0.647225806,31.6381538 0.629451613,31.2892308 C0.588387097,30.5901538 0.605548387,29.88 0.629451613,29.2104615 C0.629451613,29.1095385 0.676645161,28.9852308 0.706064516,28.9501538 C1.46116129,28.5772308 1.36677419,27.9255385 1.29567742,27.4461538 C1.28954839,27.3987692 1.28403226,27.3513846 1.27790323,27.304 C0.900354839,24.3784615 0.522806452,21.5181538 0.139741935,18.6338462 C-0.0429032258,17.2658462 0.287451613,16.2295385 1.17187097,15.3883077 C2.34558065,14.2750769 3.51929032,13.1261538 4.65745161,12.0184615 C5.13,11.5581538 6.02974194,10.688 6.39380645,10.3415385 C6.45387097,10.2843077 6.55132258,10.3286154 6.55132258,10.4110769 L6.55132258,16.288 C6.51577419,16.4006154 6.46858065,16.5132308 6.41587097,16.6196923 C6.23874194,16.9926154 6.22709677,17.4547692 6.23874194,17.8572308 C6.25651613,18.8104615 6.81670968,19.4504615 7.64229032,19.4504615 C7.83106452,19.4504615 8.03148387,19.4147692 8.23803226,19.3495385 C8.93980645,19.1126154 9.68877419,18.7452308 10.5793226,18.2067692 C11.045129,17.9286154 11.4876452,17.5969231 11.9123871,17.2830769 C12.2188387,17.0578462 12.5375484,16.8209231 12.8617742,16.608 C13.6107419,16.1107692 14.300871,15.9212308 14.9793548,16.0338462 C15.8938065,16.1876923 16.4595161,16.6498462 16.7077419,17.4492308 C16.9909032,18.3489231 16.7727097,19.1304615 16.0592903,19.776 L16.0592903,19.776 Z" id="Shape"></path>
            </g>
        </g>
    </g>
</svg>