<?xml version="1.0" encoding="UTF-8" standalone="no"?>
<svg width="32px" height="32px" viewBox="0 0 32 32" version="1.1" xmlns="http://www.w3.org/2000/svg" xmlns:xlink="http://www.w3.org/1999/xlink">
    <!-- Generator: Sketch 39 (31667) - http://www.bohemiancoding.com/sketch -->
    <title>Group</title>
    <desc>Created with Sketch.</desc>
    <defs></defs>
    <g id="Assets" stroke="none" stroke-width="1" fill="none" fill-rule="evenodd">
        <g id="HSS-Icons" transform="translate(-355.000000, -825.000000)" fill="#000000">
            <g id="Group" transform="translate(355.000000, 825.000000)">
                <path d="M13.7333333,20 L13.6,20 C13.0666667,19.9333333 12.6666667,19.6 12.4666667,19.0666667 L10,11.2 L8,14.3333333 C7.73333333,14.6666667 7.33333333,14.9333333 6.93333333,14.9333333 L1.66666667,14.9333333 C0.933333333,14.9333333 0.333333333,14.3333333 0.333333333,13.6 C0.333333333,12.8666667 0.933333333,12.2666667 1.66666667,12.2666667 L6.2,12.2666667 L9.4,7.4 C9.66666667,7 10.2,6.73333333 10.6666667,6.8 C11.1333333,6.86666667 11.6,7.2 11.7333333,7.73333333 L14.0666667,15.3333333 L19.3333333,5.93333333 C19.6,5.46666667 20.1333333,5.2 20.6666667,5.26666667 C21.2,5.33333333 21.6,5.73333333 21.7333333,6.26666667 L23.2666667,12.3333333 L26.8666667,12.3333333 C27.6,12.3333333 28.2,12.9333333 28.2,13.6666667 C28.2,14.4 27.6,15 26.8666667,15 L22.2666667,15 C21.6666667,15 21.1333333,14.6 21,14 L20,10.1333333 L14.8666667,19.3333333 C14.6666667,19.7333333 14.2,20 13.7333333,20 L13.7333333,20 Z" id="Shape"></path>
                <path d="M30.3333333,24.8666667 L1.66666667,24.8666667 C0.933333333,24.8666667 0.333333333,24.2666667 0.333333333,23.5333333 L0.333333333,1.66666667 C0.333333333,0.933333333 0.933333333,0.333333333 1.66666667,0.333333333 L30.4,0.333333333 C31.1333333,0.333333333 31.7333333,0.933333333 31.7333333,1.66666667 L31.7333333,23.6 C31.6666667,24.3333333 31.0666667,24.8666667 30.3333333,24.8666667 L30.3333333,24.8666667 Z M2.93333333,22.2666667 L29.0666667,22.2666667 L29.0666667,2.93333333 L2.93333333,2.93333333 L2.93333333,22.2666667 L2.93333333,22.2666667 Z" id="Shape"></path>
                <path d="M16,31.6666667 C15.2666667,31.6666667 14.6666667,31.0666667 14.6666667,30.3333333 L14.6666667,23.6 C14.6666667,22.8666667 15.2666667,22.2666667 16,22.2666667 C16.7333333,22.2666667 17.3333333,22.8666667 17.3333333,23.6 L17.3333333,30.4 C17.3333333,31.0666667 16.7333333,31.6666667 16,31.6666667 L16,31.6666667 Z" id="Shape"></path>
                <path d="M19.2,31.6666667 L12.8,31.6666667 C12.0666667,31.6666667 11.4666667,31.0666667 11.4666667,30.3333333 C11.4666667,29.6 12.0666667,29 12.8,29 L19.2,29 C19.9333333,29 20.5333333,29.6 20.5333333,30.3333333 C20.5333333,31.0666667 19.9333333,31.6666667 19.2,31.6666667 L19.2,31.6666667 Z" id="Shape"></path>
            </g>
        </g>
    </g>
</svg>