<?xml version="1.0" encoding="UTF-8" standalone="no"?>
<svg width="12px" height="26px" viewBox="0 0 12 26" version="1.1" xmlns="http://www.w3.org/2000/svg" xmlns:xlink="http://www.w3.org/1999/xlink">
    <!-- Generator: Sketch 3.6.1 (26313) - http://www.bohemiancoding.com/sketch -->
    <title>icon-mother</title>
    <desc>Created with Sketch.</desc>
    <defs></defs>
    <g id="HSS-Framework" stroke="none" stroke-width="1" fill="none" fill-rule="evenodd">
        <g id="01---View-mode" transform="translate(-55.000000, -333.000000)" fill="#7CB342">
            <g id="Framework" transform="translate(30.000000, 264.000000)">
                <g id="Fixed-header" transform="translate(-6.000000, -2.000000)">
                    <g id="Header-1" transform="translate(0.000000, 60.000000)">
                        <g id="icon-mother" transform="translate(31.000000, 11.000000)">
                            <path d="M11.612,18.9390303 L8.4352,8.29754545 C8.2744,7.55930303 7.5296,6.95460606 6.7828,6.95460606 L4.9484,6.95460606 C4.1816,6.95460606 3.4244,7.55969697 3.2664,8.29872727 L0.1472,18.9382424 C-0.0104,19.6768788 0.4884,20.2823636 1.2548,20.2823636 L1.6672,20.2823636 L3.0688,20.2823636 L3.172,21.651303 L3.3832,24.2757273 C3.444,25.0289394 4.0192,25.6454545 4.662,25.6454545 L6.998,25.6454545 C7.6408,25.6454545 8.216,25.0293333 8.2768,24.2757273 L8.4876,21.651303 L8.596,20.2823636 L9.9932,20.2823636 L10.5112,20.2823636 C11.2784,20.2823636 11.7744,19.6776667 11.612,18.9390303 Z M8.662,3.09478788 C8.662,1.58127273 7.4168,0.354545455 5.88,0.354545455 C4.3432,0.354545455 3.0976,1.58127273 3.0976,3.09478788 C3.0976,4.60790909 4.3432,5.83463636 5.88,5.83463636 C7.4168,5.83463636 8.662,4.60790909 8.662,3.09478788 Z" id="Combined-Shape"></path>
                        </g>
                    </g>
                </g>
            </g>
        </g>
    </g>
</svg>