<?xml version="1.0" encoding="UTF-8" standalone="no"?>
<svg width="39px" height="32px" viewBox="0 0 39 32" version="1.1" xmlns="http://www.w3.org/2000/svg" xmlns:xlink="http://www.w3.org/1999/xlink">
    <!-- Generator: Sketch 39 (31667) - http://www.bohemiancoding.com/sketch -->
    <title>Group</title>
    <desc>Created with Sketch.</desc>
    <defs></defs>
    <g id="Assets" stroke="none" stroke-width="1" fill="none" fill-rule="evenodd">
        <g id="HSS-Icons" transform="translate(-544.000000, -825.000000)" fill="#000000">
            <g id="Group" transform="translate(544.000000, 825.000000)">
                <path d="M35.8140845,25.8758621 L26.8056338,25.8758621 C26.6957746,26.0965517 26.5859155,26.3172414 26.4211268,26.537931 C25.6521127,27.6413793 24.3887324,28.3034483 23.015493,28.3034483 C22.1915493,28.3034483 21.3676056,28.0275862 20.7084507,27.5862069 L15.5450704,23.8896552 L15.5450704,23.8896552 L13.6774648,22.5103448 L13.5126761,22.4 C13.2929577,22.2344828 13.2380282,21.9034483 13.3478873,21.6827586 C13.5126761,21.462069 13.8422535,21.4068966 14.0619718,21.5172414 L16.643662,23.2275862 L21.3676056,26.4827586 C21.5873239,26.6482759 21.8619718,26.7586207 22.0816901,26.8689655 C22.356338,26.9793103 22.6859155,27.0344828 23.015493,27.0344828 C23.9492958,27.0344828 24.828169,26.5931034 25.3774648,25.7655172 C26.256338,24.4413793 25.9267606,22.6206897 24.6084507,21.737931 L11.7,12.8551724 C11.2056338,12.5241379 10.656338,12.3586207 10.0521127,12.3586207 L0.329577465,12.3586207 L0.329577465,22.0689655 L6.20704225,22.0689655 L19.1704225,31.1724138 C19.6647887,31.5034483 20.2140845,31.6689655 20.8183099,31.6689655 L35.7591549,31.6689655 C37.3521127,31.6689655 38.6704225,30.3448276 38.6704225,28.7448276 C38.6704225,27.1448276 37.4070423,25.8758621 35.8140845,25.8758621 L35.8140845,25.8758621 Z" id="Shape"></path>
                <path d="M34.4401084,11.1771346 L35.6418048,16.266435 C35.8947934,17.2327579 34.8195915,18.0058162 33.9973782,17.490444 L29.6965704,14.7203184 L25.3325154,17.490444 C24.5103021,18.0058162 23.4983473,17.2327579 23.6880888,16.266435 L24.8897851,11.1771346 L20.9684603,7.82721527 C20.2094943,7.18300002 20.6522245,5.95899105 21.6009321,5.89456952 L26.7239532,5.50804038 L28.6846156,0.676426011 C29.0640986,-0.225475337 30.3290421,-0.225475337 30.7085252,0.676426011 L32.6691876,5.50804038 L37.7922087,5.89456952 C38.7409163,5.95899105 39.1203993,7.18300002 38.3614332,7.82721527 L34.4401084,11.1771346 Z" id="Path"></path>
            </g>
        </g>
    </g>
</svg>