<?xml version="1.0" encoding="UTF-8" standalone="no"?>
<svg width="32px" height="32px" viewBox="0 0 32 32" version="1.1" xmlns="http://www.w3.org/2000/svg" xmlns:xlink="http://www.w3.org/1999/xlink">
    <!-- Generator: Sketch 39 (31667) - http://www.bohemiancoding.com/sketch -->
    <title>Page 1</title>
    <desc>Created with Sketch.</desc>
    <defs>
        <polygon id="path-1" points="31.9880874 31.9924152 31.9880874 0.000142424242 0 0.000142424242 0 31.9924152"></polygon>
    </defs>
    <g id="Assets" stroke="none" stroke-width="1" fill="none" fill-rule="evenodd">
        <g id="HSS-Icons" transform="translate(-163.000000, -825.000000)">
            <g id="Page-1" transform="translate(163.000000, 825.000000)">
                <mask id="mask-2" fill="white">
                    <use xlink:href="#path-1"></use>
                </mask>
                <g id="Clip-2"></g>
                <path d="M16.3575795,2.5389 C15.6550382,2.5389 15.0930173,2.76911212 14.588797,3.26271818 C14.0960334,3.76283939 13.8594522,4.32938485 13.8594522,5.02956667 C13.8594522,5.72553636 14.0937542,6.28368788 14.5968198,6.78571818 C15.0930173,7.27168788 15.6550382,7.50153636 16.3575795,7.50153636 C17.068569,7.50153636 17.6279157,7.27399091 18.1187039,6.78532424 C18.6214047,6.28368788 18.8561018,5.7259 18.8561018,5.02956667 C18.8561018,4.32938485 18.6191255,3.76283939 18.1106811,3.24708182 C17.6279157,2.76641515 17.068569,2.5389 16.3575795,2.5389 M8.22186059,14.4119303 C7.52813219,14.4119303 6.97756809,14.6429 6.48826895,15.139203 C5.9775453,15.6485061 5.7432433,16.2127485 5.7432433,16.9216879 C5.7432433,17.6134455 5.97487104,18.1628091 6.47258803,18.6503242 C6.97756809,19.1626576 7.52813219,19.3936576 8.22186059,19.3936576 C8.93285014,19.3936576 9.49870009,19.1600212 10.0017656,18.6583545 C10.1568122,18.5033545 10.2854503,18.3415061 10.3846108,18.1773242 C10.6105254,17.8020515 10.7199878,17.3909 10.7199878,16.9213242 C10.7199878,16.2184455 10.4960182,15.6580212 10.0155624,15.1609606 C9.89917113,15.0552333 9.7869736,14.9578697 9.67900019,14.8689 C9.25519012,14.561597 8.77816828,14.4119303 8.22186059,14.4119303 M22.6655301,14.6696273 C22.6421911,14.6826273 22.6192167,14.6944455 22.5946925,14.7062939 C22.3871939,14.8059303 22.2003905,14.9437485 22.0246184,15.1269909 C21.5020125,15.6488697 21.2673459,16.2127485 21.2673459,16.9220818 C21.2673459,17.3843848 21.3799081,17.7894455 21.6107457,18.1601424 C21.720664,18.3422333 21.8493022,18.5037182 22.0043183,18.6591121 C22.501306,19.1630515 23.0522348,19.3944152 23.7459632,19.3944152 C24.4657352,19.3944152 25.0289109,19.1634455 25.517815,18.6667485 C25.6809147,18.5041121 25.8095529,18.3422333 25.9087134,18.1784758 C26.1514332,17.7898394 26.2636308,17.3847788 26.2636308,16.9224455 C26.2636308,16.2135061 26.0296934,15.6496273 25.5262329,15.147597 C25.4290173,15.0510212 25.3267875,14.9620515 25.2214883,14.8834152 C24.7965235,14.5673242 24.3126032,14.4126879 23.7459632,14.4126879 C23.3393535,14.4119303 22.9856213,14.4962939 22.6655301,14.6696273 M14.0428217,23.6606879 C14.9421645,24.558203 15.591099,25.5710515 15.9858264,26.6900212 C16.3843829,25.5687788 17.0409755,24.5540515 17.9502557,23.6557182 C19.0276194,22.5711121 20.2749812,21.8476576 21.6720106,21.4956879 C21.136003,21.2490515 20.6429052,20.8989606 20.1968805,20.4465667 C19.9020733,20.152597 19.644797,19.826203 19.4391825,19.4841121 C18.9667495,18.7274455 18.72172,17.8593242 18.72172,16.9224455 C18.72172,15.549597 19.2102594,14.3592636 20.1743012,13.3834455 C19.1049603,12.3782636 17.856079,11.8926273 16.3575795,11.8926273 C14.7698872,11.8926273 13.4562765,12.4378091 12.3421721,13.5590818 C12.2789926,13.6220515 12.2177276,13.6854152 12.1587723,13.7491727 C12.8938606,14.6520818 13.2660087,15.717203 13.2660087,16.9224455 C13.2660087,17.8524455 13.0309166,18.7141121 12.5676612,19.4841424 C12.3620771,19.826203 12.1044057,20.1529909 11.8019708,20.454203 C11.3509622,20.9042939 10.8532452,21.2524758 10.3130439,21.497203 C11.7127476,21.8503242 12.9616289,22.5737788 14.0428217,23.6606879 M2.54600874,29.4536576 L13.8973478,29.4536576 C13.8954028,27.8719909 13.3533174,26.5644152 12.2410971,25.4546273 C12.2395472,25.4530818 12.2384228,25.4519303 12.2368729,25.4508091 C11.1227685,24.3291727 9.8095529,23.7843848 8.22146553,23.7843848 C6.63608281,23.7843848 5.33013029,24.3280212 4.22942754,25.4466273 C3.09462792,26.5678697 2.54792327,27.8742939 2.54600874,29.4536576 M18.070476,29.4536576 L29.4413554,29.4536576 C29.4394408,27.8742939 28.8923411,26.5678697 27.7701835,25.459203 C27.7675092,25.4561424 27.7644095,25.4534758 27.7617656,25.4511727 C26.6480258,24.3295364 25.3344456,23.7847788 23.7467229,23.7847788 C22.1716422,23.7847788 20.8645956,24.3299303 19.7504608,25.4511727 C18.6195206,26.5678697 18.0727552,27.8742939 18.070476,29.4536576 M30.5998587,31.9924152 L16.9127324,31.9924152 C16.5547457,31.9924152 16.2274218,31.8439303 15.9938492,31.6015061 C15.7610971,31.8439303 15.4333782,31.9924152 15.0749964,31.9924152 L1.38787009,31.9924152 C0.772607028,31.9924152 0.245017284,31.5533848 0.135524406,30.9498091 C0.0459365622,30.4565667 -1.21557455e-05,29.9564455 -1.21557455e-05,29.4631727 C-1.21557455e-05,27.1992939 0.815881481,25.2450212 2.42539335,23.6553242 C3.49397455,22.569597 4.74015119,21.8457485 6.1441094,21.4937485 C5.6092566,21.2471424 5.11764786,20.8974455 4.67238291,20.446203 C3.69876847,19.4917788 3.19685774,18.3010212 3.19685774,16.9220818 C3.19685774,15.5347182 3.69609421,14.3332939 4.68004103,13.3521424 C5.64484255,12.3736576 6.83899259,11.8731727 8.22186059,11.8731727 C8.89224995,11.8731727 9.52319392,11.9915061 10.1093744,12.2255364 C10.2452452,12.0697788 10.3880448,11.9170818 10.5377732,11.7677788 C11.6170515,10.6812939 12.8666925,9.95744545 14.2683411,9.60432424 C13.7392319,9.36417273 13.2499328,9.02480909 12.8046678,8.58841515 C11.8126678,7.5988697 11.3134617,6.40432424 11.3134617,5.02956667 C11.3134617,3.65902121 11.8099935,2.46062727 12.7889565,1.46726364 C13.7878245,0.488415152 14.983099,0.000142424242 16.3575795,0.000142424242 C17.7488653,0.000142424242 18.9472395,0.491475758 19.9185443,1.46002121 C20.9055301,2.46138485 21.4020923,3.65977879 21.4020923,5.03032424 C21.4020923,6.40508182 20.9028558,7.59962727 19.918909,8.58117273 C19.4759537,9.0228697 18.9858948,9.3649303 18.4525614,9.60699091 C19.8504114,9.96126364 21.0938834,10.6869909 22.1666583,11.7769606 C22.2550914,11.8651424 22.3427647,11.955597 22.4277637,12.0472636 C22.8474104,11.9319606 23.2880562,11.8739303 23.7467229,11.8739303 C24.8654465,11.8739303 25.875042,12.2026273 26.7471863,12.8508697 C26.9516156,13.0039606 27.1453478,13.1719303 27.326833,13.3529 C28.3111445,14.3344152 28.810381,15.5354758 28.810381,16.9228091 C28.810381,17.8600818 28.5649869,18.7282333 28.0821911,19.5024455 C27.8869394,19.8269303 27.6296631,20.1533848 27.326833,20.4545667 C26.8834826,20.9050515 26.3880448,21.2543848 25.8455643,21.4998697 C27.2414389,21.8533848 28.487646,22.5756879 29.5669242,23.6606879 C31.1733668,25.2496273 31.9881056,27.2019606 31.9881056,29.4639606 C31.9881056,29.957203 31.9425519,30.4573242 31.852569,30.9505667 C31.7423164,31.5533848 31.2151217,31.9924152 30.5998587,31.9924152" id="Fill-1" fill="#000000" mask="url(#mask-2)"></path>
            </g>
        </g>
    </g>
</svg>