<?xml version="1.0" encoding="UTF-8" standalone="no"?>
<svg width="32px" height="32px" viewBox="0 0 32 32" version="1.1" xmlns="http://www.w3.org/2000/svg" xmlns:xlink="http://www.w3.org/1999/xlink">
    <!-- Generator: Sketch 3.8.3 (29802) - http://www.bohemiancoding.com/sketch -->
    <title>Group</title>
    <desc>Created with Sketch.</desc>
    <defs>
        <path d="M20,31.6666667 L20,31.6666667 C19.6,31.6666667 19.1333333,31.6 18.7333333,31.5333333 C18.6,31.5333333 18.4,31.4666667 18.2666667,31.4 C16.8,31 15.2666667,31 13.8,31.4 C13.6666667,31.4666667 13.4666667,31.4666667 13.3333333,31.5333333 C12.9333333,31.6 12.4666667,31.6666667 12.0666667,31.6666667 C7.33333333,31.6666667 2.66666667,26.9333333 1,20.3333333 C-0.133333333,16 0.333333333,11.6666667 2.2,8.8 C3.33333333,7 4.93333333,5.8 6.86666667,5.46666667 C9.06666667,5.06666667 11.4,5.73333333 13.5333333,7.4 C14.2666667,7.93333333 15.1333333,8.26666667 16.1333333,8.26666667 C17.0666667,8.26666667 18,7.93333333 18.7333333,7.4 C20.8666667,5.73333333 23.2,5.06666667 25.4,5.46666667 C27.2666667,5.86666667 28.9333333,7 30.0666667,8.8 C31.9333333,11.7333333 32.3333333,16 31.2666667,20.3333333 C29.4,26.9333333 24.7333333,31.6666667 20,31.6666667 L20,31.6666667 Z M16,28.5333333 C17,28.5333333 17.9333333,28.6666667 18.9333333,28.9333333 C19,28.9333333 19.1333333,29 19.2,29 C19.4666667,29.0666667 19.7333333,29.0666667 20,29.0666667 C23.4666667,29.0666667 27.2,24.9333333 28.5333333,19.6666667 C29.4666667,16 29.1333333,12.4666667 27.6666667,10.1333333 C27.1333333,9.33333333 26.2,8.26666667 24.7333333,7.93333333 C23.3333333,7.66666667 21.6666667,8.13333333 20.2,9.33333333 C19.0666667,10.2666667 17.5333333,10.7333333 16,10.7333333 C14.4666667,10.7333333 13,10.2 11.8,9.33333333 C10.2666667,8.13333333 8.66666667,7.6 7.26666667,7.93333333 C5.8,8.2 4.86666667,9.26666667 4.33333333,10.1333333 C2.86666667,12.4666667 2.53333333,16 3.46666667,19.6666667 C4.8,24.9333333 8.6,29.0666667 12,29.0666667 C12.2666667,29.0666667 12.5333333,29.0666667 12.8,29 C12.8666667,29 13,28.9333333 13.0666667,28.9333333 C14.0666667,28.6666667 15,28.5333333 16,28.5333333 L16,28.5333333 Z" id="path-1"></path>
        <mask id="mask-2" maskContentUnits="userSpaceOnUse" maskUnits="objectBoundingBox" x="-0.1" y="-0.1" width="31.6597619" height="26.5129434">
            <rect x="0.288722974" y="5.25372331" width="31.6597619" height="26.5129434" fill="white"></rect>
            <use xlink:href="#path-1" fill="black"></use>
        </mask>
    </defs>
    <g id="Assets" stroke="none" stroke-width="1" fill="none" fill-rule="evenodd">
        <g id="HSS-Icons" transform="translate(-259.000000, -824.000000)">
            <g id="Group" transform="translate(259.000000, 824.000000)">
                <g id="Shape">
                    <use fill="#000000" fill-rule="evenodd" xlink:href="#path-1"></use>
                    <use stroke="#000000" mask="url(#mask-2)" stroke-width="0.2" xlink:href="#path-1"></use>
                </g>
                <path d="M16,6.73333333 C15.8666667,6.73333333 15.8,6.73333333 15.6666667,6.66666667 C15,6.46666667 14.5333333,5.8 14.7333333,5.06666667 C14.8,4.93333333 15.8,1.06666667 21.6666667,0.333333333 C22.4,0.266666667 23.0666667,0.733333333 23.1333333,1.46666667 C23.2,2.2 22.6666667,2.86666667 22,2.93333333 C18,3.46666667 17.2666667,5.73333333 17.2666667,5.73333333 C17.1333333,6.33333333 16.6,6.73333333 16,6.73333333 L16,6.73333333 Z" id="Shape" fill="#000000"></path>
                <path d="M21.0021863,19 C21.0021863,19.8790993 20.2894622,20.5916047 19.4105815,20.5916047 L17.593791,20.5916047 L17.593791,22.4083953 C17.593791,23.2874945 16.8808483,24 16.0021863,24 C15.1233056,24 14.4105815,23.2872759 14.4105815,22.4083953 L14.4105815,20.5916047 L12.593791,20.5916047 C11.7149104,20.5916047 11,19.8788806 11,19 C11,18.1211194 11.7149104,17.4083953 12.593791,17.4083953 L14.4105815,17.4083953 L14.4105815,15.5916047 C14.4105815,14.7127241 15.1233056,14 16.0021863,14 C16.8810669,14 17.593791,14.7127241 17.593791,15.5916047 L17.593791,17.4083953 L19.4105815,17.4083953 C20.2894622,17.4083953 21.0021863,18.1211194 21.0021863,19 L21.0021863,19 Z" id="Shape" fill="#000000"></path>
            </g>
        </g>
    </g>
</svg>