<?xml version="1.0" encoding="UTF-8" standalone="no"?>
<svg width="32px" height="32px" viewBox="0 0 32 32" version="1.1" xmlns="http://www.w3.org/2000/svg" xmlns:xlink="http://www.w3.org/1999/xlink">
    <!-- Generator: Sketch 3.8.3 (29802) - http://www.bohemiancoding.com/sketch -->
    <title>Group</title>
    <desc>Created with Sketch.</desc>
    <defs></defs>
    <g id="Assets" stroke="none" stroke-width="1" fill="none" fill-rule="evenodd">
        <g id="HSS-Icons" transform="translate(-446.000000, -825.000000)" fill="#000000">
            <g id="Group" transform="translate(446.000000, 825.000000)">
                <path d="M29.8,23.1333333 C28.9333333,22.4666667 27.9333333,22.1333333 26.8666667,22.1333333 C26,22.1333333 25.2,22.3333333 24.4666667,22.8 L21.6,19.6666667 C22.7333333,17.7333333 22.4,15.2666667 20.7333333,13.7333333 L22.6666667,9.86666667 C22.8666667,9.86666667 23,9.93333333 23.2,9.93333333 C24.6666667,9.93333333 26.0666667,9.26666667 26.9333333,8.06666667 C28.6666667,6 28.2666667,2.93333333 26.2,1.33333333 C25.3333333,0.666666667 24.3333333,0.333333333 23.2666667,0.333333333 C21.8,0.333333333 20.4,1 19.5333333,2.2 C17.9333333,4.26666667 18.3333333,7.26666667 20.3333333,8.86666667 L18.4666667,12.5333333 C18.1333333,12.4666667 17.8666667,12.4 17.5333333,12.4 C16.0666667,12.4 14.6666667,13.0666667 13.8,14.2666667 C13.2,15.0666667 12.8666667,16 12.8,16.9333333 L9.46666667,17.6 C9.13333333,16.8666667 8.66666667,16.2 8,15.6666667 C7.13333333,15 6.13333333,14.6666667 5.06666667,14.6666667 C3.6,14.6666667 2.2,15.3333333 1.33333333,16.5333333 C-0.266666667,18.6 0.133333333,21.6 2.2,23.2666667 C3.06666667,23.9333333 4.06666667,24.2666667 5.13333333,24.2666667 C6.6,24.2666667 8,23.6 8.86666667,22.4 C9.4,21.7333333 9.66666667,21 9.8,20.2666667 L13.4,19.5333333 C13.7333333,20.0666667 14.1333333,20.6 14.6666667,21 C15.5333333,21.6666667 16.5333333,22 17.6,22 C18.4,22 19.1333333,21.8 19.8,21.4666667 L22.7333333,24.6666667 C21.6666667,26.6666667 22.1333333,29.2666667 24,30.6666667 C24.8666667,31.3333333 25.8666667,31.6666667 26.9333333,31.6666667 C28.4,31.6666667 29.8,31 30.6666667,29.8 C32.2666667,27.7333333 31.8666667,24.7333333 29.8,23.1333333 L29.8,23.1333333 Z" id="Shape"></path>
            </g>
        </g>
    </g>
</svg>