<svg xmlns="http://www.w3.org/2000/svg" width="168" height="24" viewBox="0 0 168 24">
  <g fill="none" fill-rule="evenodd">
    <path fill="#474747" d="M24.3823738,11.2789336 C24.3823738,13.6555858 23.8837087,15.4981709 22.8863636,16.8067442 C21.8890185,18.1153176 20.4213164,18.7695945 18.4832131,18.7695945 L14.7272727,18.7695945 L14.7272727,3.74583284 L18.5044331,3.74583284 C20.4283896,3.74583284 21.8890185,4.40718296 22.8863636,5.72990305 C23.8837087,7.05262314 24.3823738,8.90228151 24.3823738,11.2789336 Z M21.8359735,11.2789336 C21.8359735,10.3876891 21.754631,9.60963012 21.5919435,8.9447334 C21.429256,8.27983667 21.1993749,7.72812212 20.9022934,7.28957322 C20.6052119,6.85102431 20.2515487,6.52211756 19.8412933,6.30284311 C19.4310378,6.08356866 18.9854223,5.97393308 18.5044331,5.97393308 L17.294893,5.97393308 L17.294893,16.5414942 L18.5044331,16.5414942 C18.9854223,16.5414942 19.4310378,16.4318586 19.8412933,16.2125842 C20.2515487,15.9933097 20.6052119,15.664403 20.9022934,15.2258541 C21.1993749,14.7873052 21.429256,14.2391273 21.5919435,13.5813039 C21.754631,12.9234805 21.8359735,12.1560315 21.8359735,11.2789336 Z M29.3054143,4.80683295 C29.3054143,5.23123512 29.1710223,5.58489829 28.9022342,5.86783306 C28.6334462,6.15076784 28.3010028,6.29223311 27.9048941,6.29223311 C27.4946387,6.29223311 27.1586587,6.15076784 26.896944,5.86783306 C26.6352294,5.58489829 26.504374,5.23123512 26.504374,4.80683295 C26.504374,4.39657752 26.6352294,4.04291435 26.896944,3.74583284 C27.1586587,3.44875132 27.4946387,3.30021279 27.9048941,3.30021279 C28.3151496,3.30021279 28.6511296,3.44875132 28.9128443,3.74583284 C29.1745589,4.04291435 29.3054143,4.39657752 29.3054143,4.80683295 Z M26.716574,18.7695945 L26.716574,7.94739329 L29.0932143,7.94739329 L29.0932143,18.7695945 L26.716574,18.7695945 Z M39.5758954,18.4725144 C39.5758954,19.2788785 39.4980895,20.0109613 39.3424754,20.6687847 C39.1868612,21.326608 38.9322238,21.8924691 38.5785553,22.3663848 C38.2248868,22.8403006 37.772198,23.2081103 37.2204751,23.469825 C36.6687523,23.7315396 35.9967923,23.862395 35.2045749,23.862395 C34.4547978,23.862395 33.7403982,23.7173931 33.0613547,23.427385 C32.3823112,23.1373768 31.8235234,22.7518839 31.3849745,22.2708948 L32.6793947,20.5520746 C32.9906229,20.8915964 33.354896,21.1745269 33.7722248,21.4008747 C34.1895536,21.6272226 34.6457791,21.7403948 35.1409149,21.7403948 C35.5370236,21.7403948 35.869467,21.6590522 36.138255,21.4963647 C36.4070431,21.3336772 36.6227776,21.1144061 36.7854651,20.8385447 C36.9481526,20.5626833 37.0648614,20.2373131 37.1355951,19.8624246 C37.2063288,19.487536 37.2416951,19.0808233 37.2416951,18.6422744 L37.2416951,17.3266343 L37.1992551,17.3266343 C37.043641,17.8076234 36.7571738,18.2143361 36.339845,18.5467844 C35.9225163,18.8792328 35.4167779,19.0454545 34.8226149,19.0454545 C34.2425986,19.0454545 33.7333236,18.9039892 33.2947747,18.6210544 C32.8562258,18.3381197 32.4919528,17.9420169 32.2019446,17.4327343 C31.9119365,16.9234517 31.6926653,16.3222243 31.5441245,15.6290341 C31.3955838,14.9358439 31.3213145,14.1790047 31.3213145,13.3584939 C31.3213145,12.5238363 31.3991204,11.7528506 31.5547345,11.0455136 C31.7103487,10.3381767 31.9366931,9.72987603 32.2337746,9.22059342 C32.5308561,8.71131082 32.8951292,8.31167144 33.3266047,8.0216633 C33.7580803,7.73165515 34.2567453,7.58665325 34.8226149,7.58665325 C35.5158051,7.58665325 36.0462998,7.76702146 36.4141151,8.12776331 C36.7819303,8.48850515 37.0507143,8.93765737 37.2204751,9.47523345 L37.2841352,9.47523345 L37.2841352,7.94739329 L39.5758954,7.94739329 L39.5758954,18.4725144 Z M37.3053552,13.3372739 C37.3053552,12.8279913 37.2664522,12.3470094 37.1886451,11.8943137 C37.1108381,11.4416181 36.9976659,11.0525886 36.8491251,10.7272136 C36.7005843,10.4018386 36.5131429,10.1436645 36.286795,9.9526835 C36.0604472,9.76170253 35.7987365,9.66621347 35.501655,9.66621347 C35.1904267,9.66621347 34.9216427,9.76170253 34.6952949,9.9526835 C34.468947,10.1436645 34.2850422,10.4018386 34.1435748,10.7272136 C34.0021074,11.0525886 33.8960085,11.4416181 33.8252748,11.8943137 C33.7545411,12.3470094 33.7191748,12.8279913 33.7191748,13.3372739 C33.7191748,13.8465565 33.7545411,14.3275384 33.8252748,14.780234 C33.8960085,15.2329297 34.0021074,15.6254958 34.1435748,15.9579441 C34.2850422,16.2903925 34.468947,16.5521033 34.6952949,16.7430842 C34.9216427,16.9340652 35.1904267,17.0295543 35.501655,17.0295543 C35.7987365,17.0295543 36.0604472,16.9340652 36.286795,16.7430842 C36.5131429,16.5521033 36.7005843,16.2903925 36.8491251,15.9579441 C36.9976659,15.6254958 37.1108381,15.2329297 37.1886451,14.780234 C37.2664522,14.3275384 37.3053552,13.8465565 37.3053552,13.3372739 Z M45.029436,4.80683295 C45.029436,5.23123512 44.895044,5.58489829 44.6262559,5.86783306 C44.3574679,6.15076784 44.0250245,6.29223311 43.6289158,6.29223311 C43.2186604,6.29223311 42.8826804,6.15076784 42.6209657,5.86783306 C42.3592511,5.58489829 42.2283957,5.23123512 42.2283957,4.80683295 C42.2283957,4.39657752 42.3592511,4.04291435 42.6209657,3.74583284 C42.8826804,3.44875132 43.2186604,3.30021279 43.6289158,3.30021279 C44.0391713,3.30021279 44.3751513,3.44875132 44.6368659,3.74583284 C44.8985806,4.04291435 45.029436,4.39657752 45.029436,4.80683295 Z M42.4405957,18.7695945 L42.4405957,7.94739329 L44.817236,7.94739329 L44.817236,18.7695945 L42.4405957,18.7695945 Z M50.1222365,9.79353349 L50.1222365,15.3531741 C50.1222365,15.9473371 50.2106523,16.3788062 50.3874866,16.6475942 C50.5643208,16.9163823 50.8366414,17.0507743 51.2044566,17.0507743 C51.3317773,17.0507743 51.4626327,17.0366277 51.5970267,17.0083343 C51.7314207,16.9800408 51.8481296,16.9376012 51.9471567,16.8810142 L51.9895967,18.7483744 C51.8198359,18.8332549 51.5934914,18.9039875 51.3105567,18.9605745 C51.0276219,19.0171614 50.7446913,19.0454545 50.4617566,19.0454545 C49.5422185,19.0454545 48.8808684,18.7731338 48.4776864,18.2284844 C48.0745043,17.6838349 47.8729163,16.9022393 47.8729163,15.8836741 L47.8729163,9.79353349 L46.5148361,9.79353349 L46.5148361,7.94739329 L47.8729163,7.94739329 L47.8729163,5.18879299 L50.1222365,5.18879299 L50.1222365,7.94739329 L52.0108167,7.94739329 L52.0108167,9.79353349 L50.1222365,9.79353349 Z M58.1221774,13.6980139 L57.4219173,13.6980139 C57.1248358,13.6980139 56.8383686,13.7227703 56.5625072,13.7722839 C56.2866458,13.8217975 56.0426182,13.9172866 55.8304171,14.0587539 C55.6182161,14.2002213 55.4484577,14.3947361 55.3211371,14.642304 C55.1938164,14.8898719 55.1301571,15.2046322 55.1301571,15.5865941 C55.1301571,16.1524637 55.2539392,16.5697862 55.5015071,16.8385742 C55.749075,17.1073623 56.0355422,17.2417543 56.3609172,17.2417543 C56.6862922,17.2417543 56.9621495,17.1498019 57.1884973,16.9658943 C57.4148451,16.7819867 57.5952133,16.548569 57.7296073,16.2656342 C57.8640014,15.9826994 57.9630271,15.6679392 58.0266874,15.3213441 C58.0903477,14.974749 58.1221774,14.638769 58.1221774,14.313394 L58.1221774,13.6980139 Z M58.2070574,17.1568743 C58.0514433,17.7510373 57.7685127,18.2143361 57.3582573,18.5467844 C56.9480019,18.8792328 56.4033606,19.0454545 55.7243171,19.0454545 C55.4130889,19.0454545 55.094792,18.9888684 54.769417,18.8756945 C54.444042,18.7625206 54.1505016,18.5750791 53.8887869,18.3133644 C53.6270723,18.0516497 53.4113377,17.7121331 53.2415769,17.2948043 C53.071816,16.8774755 52.9869368,16.3717372 52.9869368,15.7775741 C52.9869368,15.0136502 53.1248655,14.3876664 53.4007269,13.8996039 C53.6765883,13.4115414 54.0302515,13.0260486 54.461727,12.7431138 C54.8932025,12.460179 55.3741844,12.2656643 55.9046872,12.1595637 C56.4351899,12.0534632 56.9550747,12.0004137 57.4643573,12.0004137 L58.0585174,12.0004137 L58.0585174,11.6608937 C58.0585174,10.93941 57.9135155,10.4195251 57.6235073,10.1012235 C57.3334992,9.78292189 56.9480063,9.62377347 56.4670172,9.62377347 C56.0567618,9.62377347 55.6854155,9.71926252 55.3529671,9.9102435 C55.0205187,10.1012245 54.7340516,10.3523253 54.493557,10.6635536 L53.3476769,9.15693342 C53.7437856,8.66179756 54.2459873,8.2763047 54.854297,8.00044329 C55.4626068,7.72458188 56.0638342,7.58665325 56.6579972,7.58665325 C57.322894,7.58665325 57.8852184,7.6927522 58.3449874,7.90495328 C58.8047564,8.11715437 59.1761028,8.42484132 59.4590375,8.82802338 C59.7419723,9.23120544 59.9435603,9.72987051 60.0638076,10.3240335 C60.1840549,10.9181966 60.2441776,11.5901566 60.2441776,12.3399338 L60.2441776,18.7695945 L58.2494974,18.7695945 L58.2494974,17.1568743 L58.2070574,17.1568743 Z M62.9603379,18.7695945 L62.9603379,2.72727273 L65.3794182,2.72727273 L65.3794182,18.7695945 L62.9603379,18.7695945 Z M79.5119397,18.7695945 L79.5119397,12.1065137 L75.0132992,12.1065137 L75.0132992,18.7695945 L72.4881189,18.7695945 L72.4881189,3.74583284 L75.0132992,3.74583284 L75.0132992,9.83597349 L79.5119397,9.83597349 L79.5119397,3.74583284 L82.03712,3.74583284 L82.03712,18.7695945 L79.5119397,18.7695945 Z M86.7267405,13.9738739 C86.7267405,14.3982761 86.76918,14.7979155 86.8540605,15.1728041 C86.9389409,15.5476926 87.062723,15.8730628 87.2254105,16.1489242 C87.388098,16.4247856 87.5861494,16.6440567 87.8195706,16.8067442 C88.0529918,16.9694317 88.3253124,17.0507743 88.6365407,17.0507743 C89.0750896,17.0507743 89.4252161,16.909309 89.6869308,16.6263742 C89.9486454,16.3434394 90.1573067,16.0180693 90.3129208,15.6502541 L92.074181,16.6688142 C91.7629528,17.4185914 91.3208738,18.0162821 90.7479309,18.4619044 C90.174988,18.9075267 89.4429052,19.1303345 88.5516607,19.1303345 C87.2926009,19.1303345 86.2811242,18.6352061 85.5172003,17.6449343 C84.7532764,16.6546626 84.3713202,15.2329367 84.3713202,13.3797139 C84.3713202,12.5167628 84.4703459,11.7280939 84.6684002,11.0136836 C84.8664546,10.2992733 85.1493851,9.68743602 85.5172003,9.17815342 C85.8850155,8.66887082 86.3200212,8.2763047 86.8222305,8.00044329 C87.3244397,7.72458188 87.8867641,7.58665325 88.5092207,7.58665325 C89.2024109,7.58665325 89.7930284,7.72811852 90.2810908,8.01105329 C90.7691533,8.29398807 91.1652561,8.67948093 91.469411,9.16754342 C91.7735659,9.65560591 91.9963737,10.2320769 92.137841,10.8969736 C92.2793084,11.5618703 92.3500411,12.2833432 92.3500411,13.0614138 L92.3500411,13.9738739 L86.7267405,13.9738739 Z M90.0582808,12.2338337 C90.0582808,11.4274696 89.9309621,10.7731928 89.6763208,10.2709835 C89.4216795,9.76877431 89.0255767,9.51767346 88.4880007,9.51767346 C88.1767724,9.51767346 87.911525,9.60962588 87.6922506,9.79353349 C87.4729761,9.97744109 87.2961445,10.2073222 87.1617505,10.4831836 C87.0273565,10.759045 86.9247942,11.056122 86.8540605,11.3744237 C86.7833268,11.6927253 86.7479605,11.9791924 86.7479605,12.2338337 L90.0582808,12.2338337 Z M98.9070218,13.6980139 L98.2067617,13.6980139 C97.9096802,13.6980139 97.623213,13.7227703 97.3473516,13.7722839 C97.0714902,13.8217975 96.8274626,13.9172866 96.6152615,14.0587539 C96.4030604,14.2002213 96.2333021,14.3947361 96.1059815,14.642304 C95.9786608,14.8898719 95.9150014,15.2046322 95.9150014,15.5865941 C95.9150014,16.1524637 96.0387836,16.5697862 96.2863515,16.8385742 C96.5339194,17.1073623 96.8203866,17.2417543 97.1457616,17.2417543 C97.4711366,17.2417543 97.7469938,17.1498019 97.9733417,16.9658943 C98.1996895,16.7819867 98.3800577,16.548569 98.5144517,16.2656342 C98.6488457,15.9826994 98.7478714,15.6679392 98.8115318,15.3213441 C98.8751921,14.974749 98.9070218,14.638769 98.9070218,14.313394 L98.9070218,13.6980139 Z M98.9919018,17.1568743 C98.8362877,17.7510373 98.5533571,18.2143361 98.1431017,18.5467844 C97.7328463,18.8792328 97.188205,19.0454545 96.5091615,19.0454545 C96.1979333,19.0454545 95.8796364,18.9888684 95.5542614,18.8756945 C95.2288864,18.7625206 94.935346,18.5750791 94.6736313,18.3133644 C94.4119166,18.0516497 94.1961821,17.7121331 94.0264212,17.2948043 C93.8566604,16.8774755 93.7717812,16.3717372 93.7717812,15.7775741 C93.7717812,15.0136502 93.9097099,14.3876664 94.1855713,13.8996039 C94.4614327,13.4115414 94.8150958,13.0260486 95.2465714,12.7431138 C95.6780469,12.460179 96.1590288,12.2656643 96.6895315,12.1595637 C97.2200342,12.0534632 97.7399191,12.0004137 98.2492017,12.0004137 L98.8433618,12.0004137 L98.8433618,11.6608937 C98.8433618,10.93941 98.6983599,10.4195251 98.4083517,10.1012235 C98.1183436,9.78292189 97.7328507,9.62377347 97.2518616,9.62377347 C96.8416062,9.62377347 96.4702598,9.71926252 96.1378115,9.9102435 C95.8053631,10.1012245 95.5188959,10.3523253 95.2784014,10.6635536 L94.1325213,9.15693342 C94.5286299,8.66179756 95.0308316,8.2763047 95.6391414,8.00044329 C96.2474512,7.72458188 96.8486786,7.58665325 97.4428416,7.58665325 C98.1077383,7.58665325 98.6700628,7.6927522 99.1298318,7.90495328 C99.5896008,8.11715437 99.9609471,8.42484132 100.243882,8.82802338 C100.526817,9.23120544 100.728405,9.72987051 100.848652,10.3240335 C100.968899,10.9181966 101.029022,11.5901566 101.029022,12.3399338 L101.029022,18.7695945 L99.0343418,18.7695945 L99.0343418,17.1568743 L98.9919018,17.1568743 Z M103.745182,18.7695945 L103.745182,2.72727273 L106.164263,2.72727273 L106.164263,18.7695945 L103.745182,18.7695945 Z M111.469263,9.79353349 L111.469263,15.3531741 C111.469263,15.9473371 111.557679,16.3788062 111.734513,16.6475942 C111.911347,16.9163823 112.183668,17.0507743 112.551483,17.0507743 C112.678804,17.0507743 112.809659,17.0366277 112.944053,17.0083343 C113.078447,16.9800408 113.195156,16.9376012 113.294183,16.8810142 L113.336623,18.7483744 C113.166862,18.8332549 112.940518,18.9039875 112.657583,18.9605745 C112.374648,19.0171614 112.091718,19.0454545 111.808783,19.0454545 C110.889245,19.0454545 110.227895,18.7731338 109.824713,18.2284844 C109.421531,17.6838349 109.219943,16.9022393 109.219943,15.8836741 L109.219943,9.79353349 L107.861863,9.79353349 L107.861863,7.94739329 L109.219943,7.94739329 L109.219943,5.18879299 L111.469263,5.18879299 L111.469263,7.94739329 L113.357843,7.94739329 L113.357843,9.79353349 L111.469263,9.79353349 Z M120.551424,18.7695945 L120.551424,11.9791937 C120.551424,11.7104057 120.537278,11.438085 120.508984,11.1622236 C120.480691,10.8863622 120.420568,10.6352614 120.328614,10.4089136 C120.23666,10.1825657 120.102268,10.0021975 119.925434,9.86780349 C119.7486,9.73340947 119.518719,9.66621347 119.235784,9.66621347 C118.698208,9.66621347 118.270275,9.93499748 117.951974,10.4725736 C117.633672,11.0101496 117.474524,11.6891829 117.474524,12.5096938 L117.474524,18.7695945 L115.076664,18.7695945 L115.076664,2.72727273 L117.474524,2.72727273 L117.474524,9.62377347 L117.516964,9.62377347 C117.700871,9.07205065 118.015632,8.59460537 118.461254,8.19142331 C118.906876,7.78824126 119.469201,7.58665325 120.148244,7.58665325 C120.742407,7.58665325 121.223389,7.71043536 121.591204,7.95800329 C121.959019,8.20557122 122.24195,8.53447797 122.440004,8.9447334 C122.638059,9.35498882 122.772451,9.82536084 122.843184,10.3558635 C122.913918,10.8863663 122.949284,11.4274709 122.949284,11.9791937 L122.949284,18.7695945 L120.551424,18.7695945 Z M136.487646,18.7695945 L135.744946,15.5865941 L131.798025,15.5865941 L131.034105,18.7695945 L128.487705,18.7695945 L132.222425,3.74583284 L135.469086,3.74583284 L139.140146,18.7695945 L136.487646,18.7695945 Z M133.835146,6.14369309 L133.750266,6.14369309 L132.116325,13.5919139 L135.426646,13.5919139 L133.835146,6.14369309 Z M143.044627,9.79353349 L143.044627,15.3531741 C143.044627,15.9473371 143.133042,16.3788062 143.309877,16.6475942 C143.486711,16.9163823 143.759031,17.0507743 144.126847,17.0507743 C144.254167,17.0507743 144.385023,17.0366277 144.519417,17.0083343 C144.653811,16.9800408 144.77052,16.9376012 144.869547,16.8810142 L144.911987,18.7483744 C144.742226,18.8332549 144.515881,18.9039875 144.232947,18.9605745 C143.950012,19.0171614 143.667081,19.0454545 143.384147,19.0454545 C142.464609,19.0454545 141.803258,18.7731338 141.400076,18.2284844 C140.996894,17.6838349 140.795306,16.9022393 140.795306,15.8836741 L140.795306,9.79353349 L139.437226,9.79353349 L139.437226,7.94739329 L140.795306,7.94739329 L140.795306,5.18879299 L143.044627,5.18879299 L143.044627,7.94739329 L144.933207,7.94739329 L144.933207,9.79353349 L143.044627,9.79353349 Z M146.652027,18.7695945 L146.652027,2.72727273 L149.071107,2.72727273 L149.071107,18.7695945 L146.652027,18.7695945 Z M156.349568,13.6980139 L155.649308,13.6980139 C155.352226,13.6980139 155.065759,13.7227703 154.789898,13.7722839 C154.514036,13.8217975 154.270009,13.9172866 154.057808,14.0587539 C153.845607,14.2002213 153.675848,14.3947361 153.548528,14.642304 C153.421207,14.8898719 153.357548,15.2046322 153.357548,15.5865941 C153.357548,16.1524637 153.48133,16.5697862 153.728898,16.8385742 C153.976466,17.1073623 154.262933,17.2417543 154.588308,17.2417543 C154.913683,17.2417543 155.18954,17.1498019 155.415888,16.9658943 C155.642236,16.7819867 155.822604,16.548569 155.956998,16.2656342 C156.091392,15.9826994 156.190418,15.6679392 156.254078,15.3213441 C156.317738,14.974749 156.349568,14.638769 156.349568,14.313394 L156.349568,13.6980139 Z M156.434448,17.1568743 C156.278834,17.7510373 155.995903,18.2143361 155.585648,18.5467844 C155.175392,18.8792328 154.630751,19.0454545 153.951708,19.0454545 C153.640479,19.0454545 153.322183,18.9888684 152.996808,18.8756945 C152.671433,18.7625206 152.377892,18.5750791 152.116177,18.3133644 C151.854463,18.0516497 151.638728,17.7121331 151.468967,17.2948043 C151.299207,16.8774755 151.214327,16.3717372 151.214327,15.7775741 C151.214327,15.0136502 151.352256,14.3876664 151.628117,13.8996039 C151.903979,13.4115414 152.257642,13.0260486 152.689118,12.7431138 C153.120593,12.460179 153.601575,12.2656643 154.132078,12.1595637 C154.66258,12.0534632 155.182465,12.0004137 155.691748,12.0004137 L156.285908,12.0004137 L156.285908,11.6608937 C156.285908,10.93941 156.140906,10.4195251 155.850898,10.1012235 C155.56089,9.78292189 155.175397,9.62377347 154.694408,9.62377347 C154.284152,9.62377347 153.912806,9.71926252 153.580358,9.9102435 C153.247909,10.1012245 152.961442,10.3523253 152.720948,10.6635536 L151.575067,9.15693342 C151.971176,8.66179756 152.473378,8.2763047 153.081688,8.00044329 C153.689997,7.72458188 154.291225,7.58665325 154.885388,7.58665325 C155.550285,7.58665325 156.112609,7.6927522 156.572378,7.90495328 C157.032147,8.11715437 157.403493,8.42484132 157.686428,8.82802338 C157.969363,9.23120544 158.170951,9.72987051 158.291198,10.3240335 C158.411445,10.9181966 158.471568,11.5901566 158.471568,12.3399338 L158.471568,18.7695945 L156.476888,18.7695945 L156.476888,17.1568743 L156.434448,17.1568743 Z M165.792469,10.3876936 C165.594415,10.1189055 165.34685,9.89963435 165.049769,9.72987348 C164.752687,9.56011261 164.413171,9.47523345 164.031209,9.47523345 C163.67754,9.47523345 163.380463,9.59901556 163.139969,9.84658349 C162.899474,10.0941514 162.779229,10.4230582 162.779229,10.8333136 C162.779229,11.2577158 162.906547,11.5654027 163.161189,11.7563837 C163.41583,11.9473647 163.819006,12.1418794 164.370729,12.3399338 C164.681957,12.4531077 164.989644,12.5910363 165.293799,12.7537238 C165.597954,12.9164113 165.873811,13.1250726 166.121379,13.3797139 C166.368947,13.6343552 166.566998,13.9420421 166.715539,14.302784 C166.86408,14.6635258 166.938349,15.0914582 166.938349,15.5865941 C166.938349,16.1807571 166.84286,16.700642 166.651879,17.1462643 C166.460898,17.5918866 166.202724,17.9632329 165.877349,18.2603144 C165.551974,18.5573959 165.180628,18.7766671 164.763299,18.9181345 C164.34597,19.0596019 163.910964,19.1303345 163.458269,19.1303345 C162.779225,19.1303345 162.146168,18.9959425 161.559078,18.7271544 C160.971989,18.4583664 160.473324,18.09763 160.063068,17.6449343 L161.357488,16.1170942 C161.61213,16.4141757 161.909207,16.6688132 162.248729,16.8810142 C162.58825,17.0932153 162.984353,17.1993143 163.437049,17.1993143 C163.833157,17.1993143 164.144381,17.0649223 164.370729,16.7961342 C164.597077,16.5273462 164.710249,16.173683 164.710249,15.7351341 C164.710249,15.2258515 164.544027,14.8580418 164.211579,14.631694 C163.87913,14.4053462 163.437051,14.1931483 162.885329,13.9950939 C162.602394,13.8960668 162.326537,13.7758213 162.057749,13.6343539 C161.788961,13.4928865 161.541396,13.3019084 161.315048,13.0614138 C161.088701,12.8209193 160.908332,12.5273788 160.773938,12.1807837 C160.639544,11.8341886 160.572348,11.4133295 160.572348,10.9181936 C160.572348,10.3947643 160.667837,9.92792889 160.858818,9.51767346 C161.049799,9.10741803 161.3009,8.75729149 161.612129,8.46728334 C161.923357,8.1772752 162.284093,7.95800403 162.694349,7.80946327 C163.104604,7.66092251 163.529,7.58665325 163.967549,7.58665325 C164.618299,7.58665325 165.20538,7.70336209 165.728809,7.93678329 C166.252238,8.17020448 166.697854,8.47081817 167.065669,8.83863338 L165.792469,10.3876936 Z"/>
    <g transform="matrix(0 1 1 0 .009 .157)">
      <polygon fill="#6A1B9A" points="0 .043 3.735 .043 3.735 7.265 0 7.265"/>
      <polygon fill="#D84315" points="3.729 .043 7.464 .043 7.464 7.265 3.729 7.265"/>
      <polygon fill="#0097A7" points="7.458 .043 11.193 .043 11.193 7.265 7.458 7.265"/>
      <polygon fill="#FAA806" points="11.187 .043 14.921 .043 14.921 7.265 11.187 7.265"/>
      <polygon fill="#558B2F" points="14.916 .043 18.65 .043 18.65 7.265 14.916 7.265"/>
      <polygon fill="#5D4037" points="18.645 .043 22.379 .043 22.379 7.265 18.645 7.265"/>
    </g>
  </g>
</svg>
