<?xml version="1.0" encoding="UTF-8"?>
<svg width="175px" height="54px" viewBox="0 0 175 54" version="1.1" xmlns="http://www.w3.org/2000/svg" xmlns:xlink="http://www.w3.org/1999/xlink">
    <!-- Generator: Sketch 51 (57462) - http://www.bohemiancoding.com/sketch -->
    <title>WHO logo</title>
    <desc>Created with Sketch.</desc>
    <defs></defs>
    <g id="01---Landing-page-v4-(WHO)" stroke="none" stroke-width="1" fill="none" fill-rule="evenodd">
        <g id="5---B---Landing-page-(logged-in---project-list)" transform="translate(-116.000000, -38.000000)">
            <rect x="0" y="0" width="1440" height="2176"></rect>
            <g id="Top-navigation-bar-(logged-out)" fill="#008DC9" fill-rule="nonzero">
                <g id="Upper">
                    <g>
                        <g id="WHO-logo" transform="translate(116.000000, 38.000000)">
                            <path d="M49.1680679,10.2813014 C50.325203,11.6638314 52.3464589,12.4789253 53.5334381,13.8655375 C52.6842393,9.76693499 49.5302661,6.41811006 45.7997602,5.62206675 C47.617534,6.99507136 48.0095762,8.89741076 49.1680679,10.2813014 Z M4.34095233,20.672048 C6.90889694,15.0643651 10.743857,16.2509459 12.3662879,10.90725 C11.4506183,12.5469632 7.26159932,13.2382281 5.3176666,17.4388874 C6.31065945,14.9432576 5.81280648,11.1249713 7.49085586,9.06342321 C2.47298628,12.7769312 4.6109053,18.7860377 4.34095233,20.672048 Z M8.99391061,34.1204172 C9.45513679,36.3057943 8.10130229,39.4559485 10.2527868,42.4673055 C8.02262252,39.9607897 3.30319341,39.323955 1.37282617,35.5111117 C3.78069817,44.8268596 10.0506612,42.9081911 12.881776,44.9329987 C10.5539404,41.5787307 12.4571766,39.3498094 8.99391061,34.1204172 Z M8.26951419,39.970315 C6.88176599,34.7626949 9.34661299,32.9678554 7.47457729,27.9684312 C7.27787789,30.7838391 5.40855529,32.1568437 6.67014456,37.301869 C4.4426934,32.942001 0.997062488,31.3186169 0,28.3290321 C0.0691296659,36.5044649 6.61723921,37.7141786 8.26951419,39.970315 Z M18.3256016,48.6995762 C16.3979474,46.0243264 17.7137986,44.5111637 12.2984606,39.6505369 C13.4460998,41.4263258 12.2631903,43.6579686 15.9150165,47.127901 C12.3432266,45.0132834 7.4121761,45.9181873 5.03686125,43.0932541 C9.11735644,50.925776 16.2921367,47.7252737 18.3256016,48.6995762 Z M44.5313882,47.127901 C48.1845709,43.6579686 47.0016614,41.4263258 48.1479441,39.6505369 C42.7339626,44.5111637 44.0484572,46.0243264 42.1208031,48.6995762 C44.1542679,47.7252737 51.3290482,50.925776 55.4095434,43.0932541 C53.0342285,45.9181873 48.1045346,45.0132834 44.5313882,47.127901 Z M50.1949744,42.4673055 C52.3451024,39.4559485 50.9926244,36.3057943 51.4538506,34.1204172 C47.989228,39.3498094 49.8938208,41.5787307 47.5646286,44.9329987 C50.3971,42.9081911 56.667063,44.8268596 59.0735785,35.5111117 C57.1432112,39.323955 52.4251387,39.9607897 50.1949744,42.4673055 Z M41.5442703,49.0697024 C39.4266995,48.5022664 37.2467275,48.2219503 35.6229401,48.1811275 C33.598971,48.1294187 31.7906931,48.5131524 30.2238806,49.099639 C28.6570681,48.5131524 26.8487902,48.1294187 24.8234646,48.1811275 C23.1996771,48.2219503 21.0197051,48.5022664 18.9021343,49.0697024 C15.6464201,49.9405873 12.8302272,50.6141625 10.3762326,49.3677083 C12.7271296,51.4619146 15.472782,52.2089706 19.4393272,51.7803319 C22.741164,51.4224526 25.4054235,49.7691319 28.5173437,49.790904 L28.639433,49.7952584 C25.3593009,51.4553829 23.5076134,53.7972471 23.5076134,53.7972471 L25.0093116,54 C25.0093116,54 26.5910461,50.8131052 30.2238806,49.9857645 C33.8567151,50.8131052 35.437093,54 35.437093,54 L36.9387912,53.7972471 C36.9387912,53.7972471 35.0871038,51.4553829 31.8069716,49.7952584 L31.9290609,49.790904 C35.0423377,49.7691319 37.7052406,51.4224526 41.008434,51.7803319 C44.9749792,52.2089706 47.719275,51.4619146 50.0715286,49.3677083 C47.617534,50.6141625 44.8013411,49.9405873 41.5442703,49.0697024 Z M7.6970511,22.3253687 C6.35271243,24.9108085 4.26498566,25.5027381 4.48745947,30.8409909 C3.36152496,26.09875 0.670134516,24.3352079 0.705404754,21.3034396 C-1.16798749,29.2094424 3.83360353,30.149726 5.11825411,33.4631712 C4.92969399,28.7141265 7.9507255,27.756153 7.6970511,22.3253687 Z M9.57315644,16.2196485 C9.10514751,16.8768945 8.77686299,17.1558498 7.53019574,18.1859435 C5.82908505,19.5902455 4.4711809,21.4381546 3.89871781,24.1310943 C4.02758983,21.2326802 2.24237319,17.0674006 3.43070889,14.0301892 C-1.16798749,20.5414152 3.69252258,24.441347 3.86480412,26.7981795 C5.05313982,22.2614131 7.79200943,22.2260334 9.57315644,16.2196485 Z M56.5490434,24.1310943 C55.9765803,21.4381546 54.6186761,19.5902455 52.9175654,18.1859435 C51.6708982,17.1558498 51.3426137,16.8768945 50.8746048,16.2196485 C52.6543952,22.2260334 55.3946214,22.2614131 56.5829571,26.7981795 C56.7552386,24.441347 61.6143921,20.5414152 57.0170523,14.0301892 C58.2040315,17.0674006 56.4188148,21.2326802 56.5490434,24.1310943 Z M60.4477612,28.3290321 C59.4506987,31.3186169 56.0037112,32.942001 53.7776166,37.301869 C55.0392059,32.1568437 53.1698833,30.7838391 52.9731839,27.9684312 C51.0997917,32.9678554 53.5646387,34.7626949 52.178247,39.970315 C53.830522,37.7141786 60.3772207,36.5044649 60.4477612,28.3290321 Z M52.7507101,22.3253687 C52.4956791,27.756153 55.5180672,28.7141265 55.3281505,33.4631712 C56.6128011,30.149726 61.6143921,29.2094424 59.7423564,21.3034396 C59.7762159,24.3352079 57.0848797,26.09875 55.9603017,30.8409909 C56.181419,25.5027381 54.0950488,24.9108085 52.7507101,22.3253687 Z M11.2783368,10.2813014 C12.4368284,8.89741076 12.8302272,6.99507136 14.6466445,5.62206675 C10.9174951,6.41811006 7.76352193,9.76693499 6.91432313,13.8655375 C8.10130229,12.4789253 10.1212017,11.6638314 11.2783368,10.2813014 Z M48.0801167,10.90725 C49.7039042,16.2509459 53.5388643,15.0643651 56.1054523,20.672048 C55.8354993,18.7860377 57.9747749,12.7769312 52.9555488,9.06342321 C54.6335982,11.1249713 54.1371017,14.9432576 55.128738,17.4388874 C53.1848053,13.2382281 48.9971429,12.5469632 48.0801167,10.90725 Z M35.0613293,13.9417399 C34.096824,13.5416771 33.0739871,13.2572787 32.0063841,13.1075954 C32.0020432,13.3334812 31.996617,13.5634492 31.9928187,13.7920565 C32.9763157,13.9376576 33.9204728,14.2016446 34.8117246,14.57041 C34.9297442,14.3826254 35.0152067,14.1744295 35.0613293,13.9417399 Z M34.2853841,7.32845702 L34.4902228,7.14339396 L34.1008936,6.97738151 L33.0739871,6.9583309 L32.8081038,7.14339396 L32.2030835,7.09299149 L32.1965721,7.23995334 C32.5804751,7.2657533 32.9562388,7.30254819 33.2533227,7.35289623 L33.7525322,7.30804566 L34.2856554,7.32840259 L34.2853841,7.32845702 Z M32.3102508,29.503366 C32.3102508,29.3278283 32.0796377,29.1563728 31.7377877,28.9958034 L31.6753865,28.9947148 C31.6732161,29.1375943 31.6604102,29.8329416 31.6536818,30.1744918 C32.0755681,29.9826249 32.3102508,29.779872 32.3102508,29.5036382 L32.3102508,29.503366 Z M20.43232,16.4349203 C20.4567379,16.2947623 20.4838688,16.1818194 20.519139,16.0566297 C20.3916236,16.0892879 20.2451164,16.1042018 20.0999658,16.1001739 L20.43232,16.4349203 Z M30.2455854,46.6872876 C41.7775965,46.6872876 51.1594798,37.274926 51.1594798,25.7071239 C51.1594798,14.8564413 42.9048876,5.90401576 32.3645127,4.8358209 L32.3400949,4.95692834 C32.2979876,5.15968125 32.2600043,5.34338355 32.2302145,5.50667449 C36.9496436,5.96933214 41.1997073,8.0662599 44.4079423,11.2245787 L42.1004549,13.5392277 L42.1872739,13.1337219 L41.8861203,12.9976461 L41.4696602,12.9744588 L41.5591924,12.7077503 L41.278387,11.7593021 L40.7045674,11.1279105 L38.9017156,10.1726585 L38.7470692,10.338671 L38.4201412,10.433924 C39.0387269,11.349714 39.3737942,12.4070228 39.3737942,13.4765785 C39.3737942,13.6153758 39.3716237,13.7514515 39.3629418,13.8861666 L40.2582632,15.012874 L39.83909,15.1108486 L40.1158257,15.529962 L39.3276716,16.3205622 L39.0102394,15.715025 C38.8583061,16.1382207 38.6588936,16.5314797 38.4133585,16.8961628 L38.5897097,17.0608145 L36.1614895,19.4965709 C36.0136258,19.3564129 35.8589793,19.2216979 35.7029764,19.0910651 C35.4696502,19.1985106 35.2322543,19.3006218 34.9907889,19.3931533 L35.1983407,19.5550835 L35.0748948,19.6789125 L34.7900198,19.8394819 L34.6842091,20.1238803 L34.5065014,19.945621 L33.9950829,20.1184373 L34.1348073,20.3429623 L34.4888663,20.2490156 L34.7194794,20.2667599 L34.7370602,20.1415701 L34.9147679,20.0531753 L34.9677276,19.9457299 L35.2878728,19.8572262 L35.536121,19.8463401 L35.6812716,19.9783336 L34.7181228,20.9444717 L34.6448692,20.8410541 L33.6396675,21.0084273 L33.4144806,21.2343131 L33.1933633,21.2602219 L33.8200883,20.658767 L33.5949014,20.5471848 L33.0115859,21.3309813 L33.1825109,21.3119307 L33.1727438,21.6004114 L33.3857218,21.6833631 L33.4291313,21.9922552 L33.0777854,21.9214958 L32.7115176,21.9895336 L31.8284051,21.5336798 C31.8284051,21.5336798 31.7795694,23.9150059 31.7551515,25.111112 C33.8415217,25.8159846 36.056764,26.8324706 36.056764,29.5036382 C36.056764,30.6752506 35.5507717,31.6236988 34.5550658,32.3244891 L34.5626625,32.3255777 L34.5179506,32.3555144 L34.5125245,32.3522486 L34.4459994,32.3985143 C33.6022267,32.9591465 32.5169887,33.2571525 31.5755446,33.5524369 L31.5470029,35.4221181 C33.0446314,36.1678134 34.8596921,37.2550589 34.6928368,40.3603082 C34.6724343,41.1250541 34.3740481,41.3346108 34.1203737,41.4040094 L34.1203737,41.405098 C33.2454005,41.6214585 32.3405832,41.7656988 31.4167743,41.8337367 C31.4113481,42.0732301 31.4070072,42.3045589 31.4032088,42.5181979 C35.4321552,42.2406033 39.0758421,40.5328523 41.8309902,37.8984252 L44.2592105,40.3341816 C40.6209498,43.8449367 35.6804034,46.0058201 30.2447172,46.0058201 C24.838875,46.0058201 19.9213899,43.8680696 16.2885554,40.3913335 L18.7181322,37.9542162 C21.4461494,40.5382953 25.0315047,42.2174704 28.9966934,42.5113941 C28.9923524,42.3004766 28.9890967,42.0718693 28.9845387,41.8282937 C25.2119798,41.5330092 21.7989061,39.9313973 19.1984043,37.472508 L19.8481906,36.820705 L20.7367293,36.9241226 L21.2101644,36.4124777 L22.4514055,36.4560219 L22.6345394,36.0233009 L22.5911299,35.8409594 C24.389912,37.2112425 26.5603881,38.1107034 28.9221375,38.3583613 C28.9177966,38.0930135 28.9145409,37.860324 28.9098743,37.6725394 C26.3012333,37.3813372 23.942197,36.2491867 22.1095012,34.5523218 L24.5404345,32.1138438 C25.1305327,32.6418178 25.7925279,33.0895071 26.5114982,33.4392219 C26.5657601,33.2078931 26.6471529,32.9928933 26.7556767,32.7996657 C26.1262386,32.4866914 25.5429232,32.0947932 25.0220089,31.6321355 L27.4583684,29.1882145 C27.8436279,29.4998281 28.2845059,29.7461252 28.7606541,29.9148592 C28.7552279,29.6712835 28.7498017,29.4181826 28.7457863,29.18005 C28.4568417,29.0534995 28.1868887,28.8942908 27.9413536,28.7037848 L28.6291232,28.0138806 C28.3863012,27.9403996 28.1434792,27.8628364 27.9006572,27.7798302 L27.4421441,28.2411271 C27.2101744,27.9812224 27.013475,27.6900202 26.8588286,27.3743244 C26.4396554,27.1879006 26.0326911,26.9769831 25.6555709,26.7279644 C24.1579423,25.7400543 23.3996322,24.3466383 23.3996322,22.5858177 C23.3996322,21.2427498 23.7740394,20.2235422 24.3831292,19.4343027 L21.9603352,17.0026285 C23.7048554,15.3302572 25.9512983,14.1776953 28.4473459,13.7994046 C28.4419197,13.5626328 28.4375787,13.3326647 28.4337804,13.1135827 C25.7559554,13.5000379 23.3467269,14.7288022 21.4801174,16.522281 L21.07044,16.1113321 C20.9767839,16.2746231 20.8683144,16.4841798 20.7448686,16.746806 L21.0026126,17.00535 C18.9162424,19.2342713 17.6207394,22.2143308 17.5664775,25.4937571 L14.1262728,25.4937571 C14.1819455,21.2645219 15.8626537,17.4203811 18.5703228,14.566872 L19.6637001,15.6622821 L19.81699,15.6579276 C20.0109763,15.6429049 20.2266674,15.5830315 20.4369323,15.4755861 L19.0491841,14.0835309 C19.7830763,13.3718545 20.5834394,12.7295769 21.4407775,12.1662231 C21.5099072,11.9348943 21.5737192,11.7335022 21.6103459,11.6600212 C21.6523447,11.5756543 21.8708031,11.2858128 22.1366864,10.9524272 C20.8316876,11.6777111 19.6324995,12.5690074 18.5689662,13.6018226 L16.140746,11.1660662 C19.3259198,8.05537384 23.5257912,5.98702199 28.1896018,5.51211752 L28.16106,5.36515568 C28.1298052,5.2032255 28.094535,5.02632699 28.0606755,4.84126393 C17.5515012,5.94075622 9.33082277,14.8782134 9.33082277,25.7057632 C9.33082277,37.2735652 18.712706,46.6859269 30.2447172,46.6859269 L30.2455854,46.6872876 Z M34.7593076,32.1924956 L34.7571371,32.1748602 L34.7636485,32.1884677 L34.7593076,32.1928222 L34.7593076,32.1924956 Z M44.8845789,11.7076478 C48.3044354,15.3041306 50.4220062,20.1552321 50.4776247,25.493485 L47.0414896,25.493485 C47.0076302,22.8495326 46.3645723,20.3511813 45.2481337,18.1331461 L45.2779777,18.0705512 L45.5153735,18.1957409 L45.5710462,18.0147601 L44.9551736,16.9343184 L44.2294207,15.9232754 L43.3747957,15.2088776 C43.0831379,14.841473 42.7765582,14.4863152 42.4550564,14.144765 L44.8846332,11.7076478 L44.8845789,11.7076478 Z M40.5083563,16.1246676 L41.3344938,16.1627688 L41.5298367,16.4009014 L41.4321653,16.7519769 L42.578448,17.4677355 L42.8022783,17.439214 L44.2700628,19.1224714 L44.8696569,18.9115539 C45.8002485,20.9173109 46.3320152,23.1462322 46.3632158,25.4935394 L42.9243676,25.4935394 C42.9093913,24.5927177 42.7968521,23.7163897 42.6042224,22.8699984 L42.7615819,22.6577202 L42.9745599,21.5772785 L42.8144873,20.4165521 L42.3993837,19.0816487 L41.4416611,17.6746251 L41.6736307,17.7984541 L41.7902938,17.6814289 L41.0211313,17.1575372 L40.9708848,17.3289926 L41.7400473,18.4325672 L42.1768556,19.3374711 L42.4861485,20.2328498 L42.5852307,20.8356655 L42.7453033,21.8507908 L42.4563587,21.8712566 C42.4563587,21.8712566 42.1253611,21.250751 42.0222635,20.9935678 L42.1755533,20.7635997 L41.8825391,20.3431256 L41.8825391,19.9226514 L41.6736307,19.6559429 L41.4131736,19.6899074 C41.3195175,19.5157304 41.2219004,19.3442749 41.1201593,19.1741802 L41.3046498,19.2694332 L41.3547878,19.2191396 L41.2557055,19.0027792 L41.4795359,18.8762287 L41.3791514,18.7496782 L41.0467972,18.8762287 L41.1675299,18.3523369 L40.9708305,18.2407548 L40.7931228,18.6585074 C40.4187157,18.0937929 40.0022556,17.5603759 39.5437425,17.0650601 L40.5082478,16.1247764 L40.5083563,16.1246676 Z M39.8205867,24.2075689 L40.4351028,23.8701009 L41.0645409,23.7721264 L41.2042653,23.4632343 L41.5542545,23.2523169 L41.6885527,22.9583932 L41.7984331,22.448109 C41.8486796,22.6290898 41.8948022,22.8100706 41.936801,22.9924121 L41.6030902,23.9898476 L41.5895248,24.3273155 L42.0751688,23.6795948 C42.1755533,24.2701637 42.2338849,24.8757009 42.2447373,25.493485 L39.2332016,25.493485 L39.1626611,25.2308587 L39.5126504,24.9505426 L39.5817801,24.7818086 L39.7350699,24.6702265 L40.1420342,24.6280974 L40.1840329,24.4457559 L39.8204782,24.2076233 L39.8205867,24.2075689 Z M35.6926123,21.835768 L36.0005486,21.7650086 L35.9869832,21.6915277 L35.6804034,21.4846925 L35.7848033,20.8342503 L36.1510712,20.4668457 C36.3830408,20.7281112 36.5960188,21.0070665 36.7913616,21.2969079 L36.6624896,21.6969707 L36.3260658,21.4574774 L36.0710349,21.5282368 L36.1971938,21.7650086 L36.3233527,21.7650086 L36.1836283,22.1160841 L36.0845461,21.9759261 L35.6925038,21.835768 L35.6926123,21.835768 Z M37.0098201,33.2851841 L36.2677885,33.0729059 L36.0439582,33.1559665 L35.6234284,32.8334669 L35.2300296,32.6919481 C35.4240159,32.5504293 35.6139326,32.4021067 35.79571,32.2469803 L36.4075129,32.6797013 L36.8741653,32.9259985 L37.1061349,33.1586881 L37.0097658,33.2852385 L37.0098201,33.2851841 Z M36.6326998,19.9837767 L39.0636331,17.5452987 C39.6333831,18.1644435 40.1366623,18.8434616 40.5680444,19.571467 L40.2641778,19.6545277 L40.2804563,20.2001916 L41.1934129,20.7771529 C41.4158867,21.2738295 41.6058033,21.7881959 41.7618063,22.3175307 L41.6017337,22.551581 L41.2734492,22.7611377 L41.190754,23.2673396 L40.9655671,23.3938901 L40.7797201,23.6156936 L40.5884469,23.5476558 L40.2533796,23.5327418 L40.4487225,23.2673941 L40.5884469,22.5788506 L40.8122773,22.4386926 L40.1557082,21.8086617 L39.6659945,21.9760349 L39.5547576,22.4386926 L39.2454648,22.7761605 L38.9253195,22.5080912 L38.8113695,22.2264144 L38.9945035,22.1121107 L39.094888,22.2985345 L39.2454648,22.2427979 L39.1816528,21.9325451 L38.9659617,21.9202439 L38.9523962,22.0454336 L38.8126718,22.0740639 L38.0570748,21.1909321 L37.8020439,20.9936222 L37.8997153,20.8874831 L38.1289718,20.8072528 L37.9173504,20.7241922 L37.6189099,20.7840655 L37.7708433,20.9759324 L37.3882968,20.9694007 C37.1590403,20.6237683 36.908079,20.2931041 36.6326998,19.9842121 L36.6326998,19.9837767 Z M37.8698712,32.9631199 L37.5402302,32.6324558 L37.7939046,32.3031524 L38.1113367,31.6567925 L37.9865343,31.4730902 L38.1981558,30.9941034 L38.1737379,30.5600217 L38.047579,30.1123324 L37.747782,30.0061933 L37.6365451,30.2592942 L37.4574808,30.2117221 C37.7165814,29.7980517 37.9892474,29.408875 38.176451,28.9516604 L38.4857439,28.8183061 L38.659382,28.582895 L38.7434879,28.6822848 L38.9523962,28.4291838 L38.7841843,28.2182664 L38.9388308,28.1761373 L39.2182796,28.2890802 L39.7500462,28.3039941 L40.071548,28.1352602 L40.9098944,27.9107351 L40.7511784,27.6317798 L40.6982187,27.2929511 L41.1485925,27.490261 L41.3154479,27.3922864 L41.2327528,27.0412109 L40.6792813,27.2480461 L40.071548,27.1242171 L39.6089653,26.1744082 L42.2379545,26.1744082 C42.122648,29.2102588 40.8814069,31.9589896 38.9211956,34.0178161 L38.5589974,33.6544938 L38.7150004,33.170064 L38.4355516,32.1045906 L37.8698712,32.9632288 L37.8698712,32.9631199 Z M38.3351671,39.6893457 L38.659382,38.9926377 L38.533223,38.6837457 L39.0093712,38.2632716 L39.0093712,38.0115314 L38.602407,37.7584304 L38.9388308,37.0848553 L39.4421099,36.4262485 L38.9388308,35.8792239 L38.560354,35.8792239 L38.3256712,35.4982117 C38.5277968,35.3308385 38.7272093,35.1580223 38.9184825,34.9770415 L41.3507724,37.4168802 C40.440529,38.2864044 39.4285444,39.0497896 38.3351671,39.6893457 Z M41.3643379,36.468432 L41.6315777,36.1677045 L41.3792599,34.8341619 L41.2029087,34.7647088 L41.3100217,34.5401838 L40.7362021,34.3578423 L40.6249652,34.8341075 L40.5679902,35.4382839 L40.4472574,35.5485053 L39.4000027,34.4980003 C41.4823033,32.3167056 42.799511,29.3978801 42.9175306,26.1742449 L46.3577353,26.1742449 C46.2383591,30.347689 44.5358919,34.1305957 41.8322925,36.9364783 L41.3642836,36.4683776 L41.3643379,36.468432 Z M42.3112081,37.418241 C45.1382533,34.4885294 46.9180438,30.535528 47.0374199,26.1742993 L50.473555,26.1742993 C50.3528223,31.4866977 48.1891289,36.2996981 44.7407849,39.8539974 L42.3112081,37.418241 Z M21.6252137,34.0762198 C21.3756089,33.8176758 21.1382131,33.5482458 20.9130262,33.2692904 L21.0174261,32.3984055 L20.6538714,31.5601787 L20.5683546,30.2511297 L20.1613903,29.4564471 L20.2469071,28.962492 L19.7558368,28.0181261 L19.3271678,27.8044871 L19.5008059,27.3010068 L19.3217416,26.9036655 L19.4980928,26.4505331 L19.9688148,26.4505331 L20.1343136,26.1742993 L20.9373898,26.1742993 L21.0621922,26.4124319 L20.9116154,27.2316081 L20.813944,27.3731269 L21.1164541,28.0317337 L20.9170416,28.1405943 L20.7786737,27.9664173 L20.7216987,28.0317337 L20.85871,28.4222712 L21.0933928,28.8794858 L21.2046297,28.8671846 L21.2684417,28.4589572 L21.1544917,28.3079131 L21.1422285,28.0316793 L21.1069583,27.460161 L21.2751702,26.4477572 L21.1123844,26.1742449 L21.6889172,26.1742449 C21.8028672,28.2888625 22.6832666,30.2007272 24.0533796,31.6404089 L21.6251594,34.0761654 L21.6252137,34.0762198 Z M19.3529965,27.3363865 L19.027425,27.8466706 L18.4712405,27.8466706 L18.427831,27.8140125 C18.3328727,27.2792346 18.2731846,26.73221 18.2514798,26.1742993 L19.2878822,26.1742993 L19.039634,27.0070831 L19.3529965,27.3363865 Z M20.4830006,24.9700287 L20.5468126,24.2842067 L20.9537769,24.0474349 L21.682243,24.1753461 L21.7921233,24.3087004 C21.7283113,24.6951556 21.6904365,25.0911361 21.6808864,25.4939204 L20.857462,25.4939204 L20.4830549,24.9700287 L20.4830006,24.9700287 Z M23.9720411,27.5459432 L24.142966,27.460161 L24.5933399,27.8003504 L24.3993535,27.9595591 L24.9039893,28.297027 L24.8727344,27.9350655 L25.1413308,27.4873761 L25.4221362,27.7867429 L25.7110808,28.201774 L25.1915231,28.3187992 L25.4262058,28.7909821 L25.7897606,28.5991153 L25.743638,28.4467104 L26.0135909,28.2630081 L26.1736635,27.5118698 C26.370363,27.9581983 26.6376028,28.3677864 26.9618177,28.7229442 L24.5335975,31.1587007 C23.3737493,29.9381009 22.5991606,28.3473751 22.4051743,26.583833 L22.9016707,27.1158893 L23.3696797,27.1050032 L23.9719868,27.5458887 L23.9720411,27.5459432 Z M21.4814197,17.4872216 L23.9109964,19.922978 C23.4036476,20.4822495 22.9695524,21.108198 22.6209196,21.7872162 L22.4513512,21.7763301 L22.1095012,21.8837756 L21.9914816,21.8714743 L21.6265702,22.2116638 L22.0877964,22.1367676 L22.5015434,22.0333501 L22.4282899,22.191198 L22.0674482,22.415723 L21.8951667,22.415723 L21.3606869,22.8239503 L20.8465554,22.7804061 L20.0977411,24.1751828 L20.2469613,24.4554989 L19.8413536,24.9059098 L19.7789524,25.4937571 L18.2446971,25.4937571 C18.298959,22.4021154 19.5184953,19.5921506 21.4814197,17.4870583 L21.4814197,17.4872216 Z M18.3423685,35.8749783 L19.1142441,36.3267499 L19.2729602,36.4356105 L18.7154191,36.994882 C18.4522489,36.725452 18.2026441,36.4437751 17.9584655,36.1566552 L18.3423685,35.8749783 Z M17.573206,26.174136 C17.5853607,26.5102432 17.6139024,26.8422681 17.650475,27.1715715 L17.2299452,27.2668245 L17.1444284,27.6954632 L16.2667421,28.8126454 L16.2884469,30.3489409 L15.3904124,30.6496684 L14.8979856,30.6540228 C14.4421856,29.2361132 14.1749457,27.7324758 14.1315362,26.1744082 L17.5730975,26.1744082 L17.573206,26.174136 Z M14.1791239,30.6319786 L13.9769983,30.5951837 L13.7843686,30.3801839 L12.8212198,30.2944018 L13.1210168,30.7026291 L12.2256954,30.5311736 L12.4617346,30.3161739 L12.2433305,30.1011742 L11.5989704,30.3814903 L11.3683573,30.8114897 L11.4565871,31.7912353 L12.1959056,33.573828 L12.5540341,34.1317387 L12.7588728,34.2079412 L12.1959056,33.1397463 L12.0738163,32.5968039 L12.1999752,32.4620889 L12.1240085,32.1627222 L12.4604324,32.2075728 L12.9786335,32.9940908 L13.1088621,33.0472148 L13.0939943,32.472975 L13.3029027,32.5954432 L13.3490253,32.9097782 L13.895714,33.0540186 L14.1222574,32.8893669 L14.2009372,32.9451035 L14.1900848,33.3628562 L14.4315503,33.6595014 L14.723208,33.7261241 L15.3607854,34.8079265 L15.7460449,34.9153719 L15.8654211,34.40917 C16.5369122,35.5222699 17.3332056,36.5510028 18.2353098,37.4763181 L15.805733,39.9120746 C12.3248319,36.3523322 10.1367206,31.5148382 10.0146313,26.1738639 L13.4521229,26.1738639 C13.4941216,27.7210455 13.7464937,29.2151575 14.1792324,30.6317064 L14.1791239,30.6319786 Z M15.661939,11.6477744 L18.0901592,14.0848916 C15.2590443,17.0622297 13.5036717,21.0764652 13.4480533,25.493485 L10.0119182,25.493485 C10.0675909,20.1252955 12.2095253,15.2510611 15.661939,11.6477744 Z M40.5396655,10.391795 L40.3307571,10.0556878 L39.8830964,9.829802 L39.5331071,10.0978713 L39.9794113,10.3360039 L40.484047,10.700687 L40.5396112,10.391795 L40.5396655,10.391795 Z M38.4573649,20.1184917 L38.4709304,20.3852002 L39.0664548,20.2055802 L39.2495887,19.8408971 L38.8371982,19.3006762 L39.0556024,18.9713729 L39.6131434,19.3687141 L39.7148302,19.2870687 L39.6035933,19.2067295 L39.4774344,18.9685969 L39.706691,18.8366034 L39.4815041,18.541319 L38.9619463,18.8066667 L38.7788124,19.1223625 L38.6757148,19.4094824 L38.9049713,19.7959377 L38.8208654,19.9782792 L38.4573106,20.1184373 L38.4573649,20.1184917 Z M13.6067693,35.5821433 L13.6501789,35.4256561 L13.3395295,34.752081 L12.9732616,34.6146445 L13.6067693,35.5821433 Z M27.659246,22.6263683 C27.659246,23.2060511 28.0105918,23.6115569 28.6495257,23.965354 C28.6495257,23.965354 28.6473552,23.8660731 28.6440995,23.7081707 L28.2412049,23.3040257 L28.4541829,22.9162097 L28.6278209,22.8685288 C28.6142555,22.1935929 28.60069,21.4383723 28.5979769,21.3322332 L28.566722,21.3365876 C27.9806935,21.660448 27.6591917,22.05915 27.6591917,22.626586 L27.659246,22.6263683 Z" id="path6653"></path>
                            <path d="M31.4328882,37.6079265 C32.4720855,38.1457751 33.4327541,38.8883273 33.8345596,40.2985075 C34.0099405,37.9651543 32.7299216,36.9523399 31.4603732,36.2686567 L31.4328358,37.6079265 L31.4328882,37.6079265 Z" id="path6657"></path>
                            <path d="M38.6865672,13.5867425 C38.6865672,11.4297821 37.130802,9.03890167 33.3231648,8.19434152 C33.0433704,8.13178151 32.6121896,8.0882615 32.1620855,8.05970149 C32.1545162,8.38474155 32.1377556,9.12866169 32.1377556,9.12866169 C32.1323489,9.36258173 32.1134256,10.2248219 32.1093166,10.4111419 C32.4607492,10.4410619 32.7202687,10.4845819 32.8405667,10.5145019 C35.0532405,11.046262 35.8453156,12.3233023 35.8453156,13.5867425 C35.8453156,15.6321829 34.1057241,16.403303 31.9687435,16.9867431 C31.7362573,17.0507176 31.4997162,17.1105032 31.2604716,17.1717032 C30.6130246,17.3349032 29.943951,17.4913032 29.2856907,17.6694633 C29.0505012,17.7333289 28.8153116,17.8013833 28.5841771,17.8721033 C26.2147103,18.5983434 24.1791045,19.7475437 24.1791045,22.6933042 C24.1791045,25.6105047 26.5012631,26.6998649 28.7693551,27.4029851 C28.7531351,26.5652249 28.7382127,25.7193048 28.7221009,24.8733846 C27.7191663,24.4028245 27.0135977,23.7799444 27.0135977,22.7327442 C27.0135977,21.710024 27.6569898,21.0939439 28.6396494,20.6465038 C28.8572673,20.5472782 29.0911052,20.4561038 29.3398113,20.3717838 C29.9048068,20.1773037 30.5387372,20.0154637 31.2051075,19.8522637 C31.4375937,19.7951437 31.6741349,19.7380237 31.9133794,19.6795436 C35.1073612,18.9016235 38.6865672,17.8965833 38.6865672,13.5867425" id="path6661"></path>
                            <path d="M27.4030107,33.9692222 C27.4083438,35.1433438 28.2563097,35.7846366 29.1082754,36.2686567 C29.1061422,36.0707101 29.0723302,34.2525841 29.0709436,34.2214008 C29.0896095,33.8580467 29.434929,33.6411189 29.7135844,33.5068949 C30.1242346,33.3103041 30.5388846,33.1679452 31.0681966,32.980845 C31.3188532,32.8927723 31.5361778,32.805947 31.7775014,32.731378 C33.486766,32.2080398 35.4626866,31.5409868 35.4626866,29.4259409 C35.4626866,27.3081835 33.768088,26.4418281 31.9148292,25.7910448 C31.9014964,26.4662325 31.8828305,27.4491865 31.8694977,28.1297974 C32.6521329,28.4429869 33.1694454,28.8226105 33.1694454,29.4259409 C33.1694454,30.1824766 32.3748107,30.6190438 31.8108334,30.8400389 C31.5775095,30.9322332 31.2188572,31.0542551 31.1201945,31.0854385 C30.6655461,31.2291531 30.1762325,31.3945606 29.7202508,31.5653912 C29.4789272,31.6575855 29.2456032,31.7565588 29.0282786,31.8704459 C28.2269775,32.2880319 27.3976775,32.8981413 27.4030107,33.9692222" id="path6665"></path>
                            <path d="M28.958057,8.05970149 C27.7806605,8.37739806 27.0877495,8.79665336 26.8254923,8.87868158 C26.062186,9.11825604 24.9869318,9.15861913 23.87717,10.2992019 C23.6784067,10.5023194 23.198062,11.0752148 22.8557474,11.5426454 C22.5217146,11.9983577 22.5065313,12.7301014 22.2594575,13.122014 C21.9033399,13.6923054 21.9889186,14.0178142 21.9889186,14.0178142 L21.9988567,14.0347927 C21.9864892,14.1051026 21.9147136,14.4071747 21.591668,14.7483079 C21.2189868,15.1376164 20.7303603,15.3524522 20.1492537,15.2652159 C20.6544438,15.5034883 21.3542563,15.1702194 21.3542563,15.1702194 C21.3542563,15.1702194 21.2203671,15.5308831 21.0864779,16.119403 C21.6551618,14.9072083 22.1755352,14.4645164 22.3384107,14.340823 C22.5841042,14.3929044 23.087914,14.3720719 24.0265185,13.8629761 C25.0879698,13.2887787 26.6849777,12.3513134 27.1349558,11.7575854 C27.6222019,11.1182861 28.2916478,10.6951247 29.0149254,10.4216973 C28.9956012,9.52719922 28.976277,8.73035374 28.9583883,8.05980566 L28.958057,8.05970149 Z M24.4806927,11.8435197 L23.9327133,11.9567967 L24.5869758,10.9464175 L25.354423,10.9686042 L24.4806927,11.8435718 L24.4806927,11.8435197 Z" id="path6669"></path>
                            <path d="M30.9520817,33.979748 C30.830579,34.0150538 30.5079248,34.1264026 30.3066402,34.1847929 C30.0920475,34.2472569 29.8208955,34.3368792 29.8208955,34.3979853 C29.8222263,34.4142802 30.0255071,43.5231615 30.0255071,43.7227747 C30.0255071,45.5994107 31.198281,45.610274 31.198281,43.7227747 C31.198281,43.5883413 31.4328358,33.8507463 31.4328358,33.8507463 C31.4328358,33.8507463 31.1517028,33.9213578 30.9520817,33.979748" id="path6673"></path>
                            <path d="M29.9882619,30.6268657 C30.249401,30.5229238 30.5069791,30.4299232 30.7491262,30.3451286 C30.9295496,30.280794 31.098103,30.2206719 31.2535995,30.1618627 C31.2642349,29.5847119 31.4055349,21.6003367 31.4328358,20.1492537 C30.809663,20.327049 30.2683929,20.4952707 29.8208955,20.6840072 C29.8398875,21.774029 29.974018,29.7543012 29.9882619,30.6268657" id="path6677"></path>
                            <path d="M30.6570303,0 C28.1431733,0 29.2105448,3.93224887 29.4102794,5.21348315 C29.4194392,5.27251384 29.6138305,14.0949187 29.6532686,16.119403 C30.034927,16.0134697 30.4140411,15.9141372 30.7817054,15.8188831 C31.0450498,15.7518028 31.2982165,15.6847225 31.5399336,15.6203253 C31.5794225,13.670971 31.7638399,5.25238974 31.7702008,5.19604226 C31.9203198,3.82626195 33.2370415,1.22018407e-13 30.6570303,1.22018407e-13" id="path6681"></path>
                            <polygon id="path6685" points="74.5833338 13.2422703 74.5418738 13.2422703 72.2284032 25.7910448 69.0539456 25.7910448 66.0895522 10.4776119 68.6117051 10.4776119 70.6736514 22.2806291 70.7151115 22.2806291 72.922168 10.4776119 76.2016577 10.4776119 78.3893661 22.2806291 78.4308262 22.2806291 80.5756926 10.4776119 83.0149254 10.4776119 79.9869599 25.7910448 76.7696603 25.7910448"></polygon>
                            <path d="M87.0545993,13.7014925 C89.2956922,13.7014925 91.880597,14.8708239 91.880597,19.3326412 C91.880597,23.922167 89.2956922,24.9850746 87.0545993,24.9850746 C84.8121032,24.9850746 82.2089552,23.922167 82.2089552,19.3326412 C82.2089552,14.8708239 84.8121032,13.7014925 87.0545993,13.7014925 M87.0545993,23.1160069 C88.7624328,23.1160069 89.1469409,21.1604698 89.1469409,19.3326412 C89.1469409,17.5048126 88.7624328,15.5718906 87.0545993,15.5718906 C85.3467659,15.5718906 84.9412081,17.5048126 84.9412081,19.3326412 C84.9412081,21.1604698 85.3467659,23.1160069 87.0545993,23.1160069" id="path6689"></path>
                            <path d="M93.5749393,15.708363 C93.5749393,15.0182481 93.5542839,14.3713497 93.4925373,13.8743589 L95.8313811,13.8743589 C95.8533549,14.5428656 95.9165298,15.234331 95.9165298,15.9028377 L95.9577308,15.9028377 C96.2722318,15.0398564 97.0866384,13.7014925 98.694851,13.7014925 C98.8624017,13.7014925 98.9873781,13.7447091 99.1343284,13.7663174 L99.1343284,16.2688282 C98.9036027,16.2040033 98.6742505,16.1607867 98.4023238,16.1607867 C97.3365911,16.1607867 96.1664826,16.8306439 96.1664826,18.9009888 L96.1664826,24.9850746 L93.5749393,24.9850746 L93.5749393,15.708363 Z" id="path6693"></path>
                            <polygon id="path6695" points="100.746269 8.86567164 103.164179 8.86567164 103.164179 24.9850746 100.746269 24.9850746"></polygon>
                            <path d="M113.561235,8.86567164 L113.561235,22.9441889 C113.561235,23.7309883 113.582378,24.4112835 113.641791,24.8159993 L111.309415,24.8159993 C111.269771,24.4964868 111.228859,23.8574619 111.228859,23.1145955 L111.16934,23.1145955 C110.766295,24.0505007 110.023635,24.9850746 108.414097,24.9850746 C105.841216,24.9850746 104.776119,22.3903673 104.776119,19.3496738 C104.776119,15.7777909 106.122687,13.6929722 108.354632,13.6929722 C109.842595,13.6929722 110.665864,14.5862758 111.027944,15.4369776 L111.068857,15.4369776 L111.068857,8.86567164 L113.561129,8.86567164 L113.561235,8.86567164 Z M109.098666,23.050693 C110.566808,23.050693 111.068962,21.3705901 111.068962,19.3070722 C111.068962,17.1796518 110.506021,15.6286851 109.13831,15.6286851 C107.750778,15.6286851 107.268445,17.0531781 107.268445,19.244501 C107.268445,21.7739745 107.650347,23.050693 109.098666,23.050693 Z" id="path6699"></path>
                            <polygon id="path6703" points="122.507463 10.4776119 125.18213 10.4776119 125.18213 16.708737 129.504437 16.708737 129.504437 10.4776119 132.179104 10.4776119 132.179104 25.7910448 129.504437 25.7910448 129.504437 19.0339067 125.18213 19.0339067 125.18213 25.7910448 122.507463 25.7910448"></polygon>
                            <path d="M142.105924,24.2840079 C141.553737,24.5181403 140.40753,24.9850746 138.838816,24.9850746 C135.317926,24.9850746 133.791045,22.4561794 133.791045,19.5029193 C133.791045,16.2303878 135.50896,13.7014925 138.288024,13.7014925 C140.641791,13.7014925 142.656716,15.0823412 142.656716,19.5454888 L142.656716,20.0549927 L136.335847,20.0549927 C136.335847,21.9253907 137.077674,23.0521526 139.11491,23.0521526 C140.72685,23.0521526 141.489594,22.5626032 141.979032,22.2007623 L142.105924,24.2840079 Z M140.111914,18.3974422 C140.111914,16.4645201 139.474668,15.4854213 138.288024,15.4854213 C136.90895,15.4854213 136.335847,16.9527393 136.335847,18.3974422 L140.111914,18.3974422 Z" id="path6707"></path>
                            <path d="M144.562898,14.508983 C145.302863,14.1697572 146.339092,13.7014925 148.012359,13.7014925 C151.397838,13.7014925 152.179531,15.359043 152.179531,18.1007859 L152.179531,22.8818745 C152.179531,23.6680803 152.265767,24.3904317 152.328358,24.8161269 L149.958245,24.8161269 C149.831672,24.3904317 149.810808,23.8596431 149.810808,23.3288544 L149.769081,23.3288544 C149.11257,24.2201537 148.286369,24.9850746 146.721593,24.9850746 C145.027462,24.9850746 143.462687,23.8170736 143.462687,21.7763974 C143.462687,18.8018526 145.874528,18.0582163 149.197416,18.0582163 L149.725962,18.0582163 L149.725962,17.6551362 C149.725962,16.5709439 149.197416,15.5718906 147.69384,15.5718906 C146.38221,15.5718906 145.219408,16.209103 144.710334,16.6347982 L144.562898,14.508983 Z M149.725962,19.4603497 L149.492289,19.4603497 C147.250139,19.4603497 145.917646,19.9286144 145.917646,21.5209803 C145.917646,22.5200336 146.572765,23.2011459 147.588131,23.2011459 C149.154298,23.2011459 149.725962,22.0318145 149.725962,20.0762774 L149.725962,19.4603497 Z" id="path6711"></path>
                            <polygon id="path6713" points="154.746269 8.86567164 157.164179 8.86567164 157.164179 24.9850746 154.746269 24.9850746"></polygon>
                            <path d="M160.48647,12.1101289 L163.074627,11.2835821 L163.074627,14.4154729 L165.223881,14.4154729 L165.223881,16.3953725 L163.074627,16.3953725 L163.074627,22.2029873 C163.074627,23.3999143 163.491585,23.7471456 164.243206,23.7471456 C164.701312,23.7471456 165.035975,23.6164232 165.223881,23.5074879 L165.223881,25.4220263 C164.827496,25.6181099 164.26378,25.7910448 163.491585,25.7910448 C161.571384,25.7910448 160.48647,24.8773497 160.48647,22.5297933 L160.48647,16.3953725 L158.776119,16.3953725 L158.776119,14.4154729 L160.48647,14.4154729 L160.48647,12.1101289 Z" id="path6717"></path>
                            <path d="M166.029851,8.86567164 L168.484728,8.86567164 L168.484728,15.3344213 L168.544603,15.3344213 C168.980649,14.6469148 169.554669,13.7441422 171.078879,13.7441422 C173.397084,13.7441422 174.089552,15.6142674 174.089552,17.8489997 L174.089552,24.9850746 L171.633374,24.9850746 L171.633374,18.344112 C171.633374,16.6461998 171.237678,15.9358213 170.227612,15.9358213 C168.940299,15.9358213 168.484728,17.11844 168.484728,18.5365062 L168.484728,24.9850746 L166.029851,24.9850746 L166.029851,8.86567164 Z" id="path6721"></path>
                            <path d="M71.7320102,29.8208955 C74.6746255,29.8208955 77.3731343,32.1241191 77.3731343,37.4782795 C77.3731343,42.8311047 74.6746255,45.1343284 71.7320102,45.1343284 C68.789395,45.1343284 66.0895522,42.8311047 66.0895522,37.4782795 C66.0895522,32.1241191 68.789395,29.8208955 71.7320102,29.8208955 M71.7320102,43.0447371 C73.3753928,43.0447371 74.6946342,41.5733444 74.6946342,37.4782795 C74.6946342,33.3832147 73.3753928,31.9104868 71.7320102,31.9104868 C70.0886277,31.9104868 68.7680524,33.3832147 68.7680524,37.4782795 C68.7680524,41.5733444 70.0886277,43.0447371 71.7320102,43.0447371" id="path6725"></path>
                            <path d="M79.0689058,35.8562662 C79.0689058,35.1661513 79.0469317,34.5192529 78.9850746,34.0222621 L81.3253145,34.0222621 C81.3458603,34.6921193 81.4090358,35.3822343 81.4090358,36.0520914 L81.4502372,36.0520914 C81.7633679,35.1877596 82.5791558,33.8507463 84.187384,33.8507463 C84.3549364,33.8507463 84.479914,33.8939629 84.6268657,33.9155712 L84.6268657,36.4180819 C84.3975112,36.3532571 84.1667833,36.3100405 83.894854,36.3100405 C82.829111,36.3100405 81.6603644,36.9785471 81.6603644,39.0502425 L81.6603644,45.1343284 L79.0687959,45.1343284 L79.0687959,35.8562662 L79.0689058,35.8562662 Z" id="path6729"></path>
                            <path d="M86.0339913,46.8982388 C86.6153718,47.24498 87.7794513,47.8504227 89.0832731,47.8504227 C91.4298886,47.8504227 91.8108841,46.0977542 91.8108841,44.3450858 L91.8108841,43.2845453 L91.7713344,43.2845453 C91.3705641,44.1500438 90.6678978,45.1672417 89.0437234,45.1672417 C87.598841,45.1672417 85.4328358,44.1283725 85.4328358,39.6288635 C85.4328358,36.5555986 86.4558547,33.8507463 89.1636908,33.8507463 C90.6678978,33.8507463 91.3705641,34.7826133 91.8926201,35.755114 L91.9717195,35.755114 C91.9717195,35.1713427 92.0309913,34.6092427 92.0520845,34.0241169 L94.2985075,34.0241169 C94.2576922,34.6092427 94.2181425,35.193014 94.2181425,35.7781398 L94.2181425,43.9983446 C94.2181425,47.4833646 93.2346733,49.9701493 89.4444937,49.9701493 C87.8005445,49.9701493 86.4954044,49.5164059 85.894249,49.2780213 L86.0339913,46.8982388 Z M89.9019519,43.1992144 C91.4668017,43.1992144 92.0890503,41.9869746 92.0890503,39.4554929 C92.0890503,37.1190531 91.2664165,35.8634706 90.0825622,35.885142 C88.7787404,35.9068133 88.2777776,37.2043839 88.2777776,39.4771642 C88.2777776,42.0953313 89.0595433,43.1992144 89.9019519,43.1992144 Z" id="path6733"></path>
                            <path d="M97.8165804,34.6582368 C98.557941,34.3176806 99.5941768,33.8507463 101.266063,33.8507463 C104.651564,33.8507463 105.434652,35.5082968 105.434652,38.2487093 L105.434652,43.0311283 C105.434652,43.8160037 105.519554,44.5396854 105.58209,44.9653806 L103.213352,44.9653806 C103.086778,44.5396854 103.064523,44.0075665 103.064523,43.4767779 L103.021461,43.4767779 C102.366337,44.3694074 101.54013,45.1343284 99.9753446,45.1343284 C98.2825944,45.1343284 96.7164179,43.964997 96.7164179,41.9256512 C96.7164179,38.9511063 99.1282741,38.2074701 102.451183,38.2074701 L102.979733,38.2074701 L102.979733,37.8030597 C102.979733,36.7201976 102.451183,35.7211443 100.948989,35.7211443 C99.63596,35.7211443 98.4731505,36.3583568 97.9654645,36.7840519 L97.816636,34.6582368 L97.8165804,34.6582368 Z M102.979677,39.6096035 L102.747394,39.6096035 C100.503839,39.6096035 99.171337,40.0778681 99.171337,41.6702341 C99.171337,42.6692874 99.8264605,43.3490693 100.843223,43.3490693 C102.408009,43.3490693 102.979677,42.1810682 102.979677,40.2255312 L102.979677,39.6096035 Z" id="path6737"></path>
                            <path d="M107.280575,35.8562662 C107.280575,35.1661513 107.257889,34.5192529 107.19403,34.0222621 L109.69651,34.0222621 C109.717721,34.5840778 109.782942,35.1661513 109.782942,35.727967 L109.846801,35.727967 L109.825477,35.727967 C110.213964,35.0581098 110.968253,33.8507463 112.781665,33.8507463 C115.303995,33.8507463 116.059701,35.727967 116.059701,37.9711782 L116.059701,45.1343284 L113.385663,45.1343284 L113.385663,38.4668185 C113.385663,36.7638147 112.953223,36.0520914 111.852982,36.0520914 C110.450742,36.0520914 109.955918,37.2378467 109.955918,38.6612932 L109.955918,45.1343284 L107.280461,45.1343284 L107.280461,35.8562662 L107.280575,35.8562662 Z" id="path6741"></path>
                            <path d="M118.477612,29.0149254 L120.895522,29.0149254 L120.895522,31.6943895 L118.477612,31.6943895 L118.477612,29.0149254 Z M118.514849,33.8239379 L120.857044,33.8239379 L120.857044,45.1343284 L118.514849,45.1343284 L118.514849,33.8239379 Z" id="path6743"></path>
                            <polygon id="path6747" points="123.313433 42.7890111 127.85992 35.9107852 123.458779 35.9107852 123.458779 33.8507463 130.423176 33.8507463 130.423176 36.1741191 125.959551 43.0742894 130.567164 43.0742894 130.567164 45.1343284 123.313433 45.1343284"></polygon>
                            <path d="M133.277925,34.6582368 C134.019281,34.3176806 135.05551,33.8507463 136.728777,33.8507463 C140.114256,33.8507463 140.895949,35.5082968 140.895949,38.2487093 L140.895949,43.0311283 C140.895949,43.8160037 140.98085,44.5396854 141.044776,44.9653806 L138.676053,44.9653806 C138.546699,44.5396854 138.525835,44.0075665 138.525835,43.4767779 L138.484108,43.4767779 C137.827597,44.3694074 137.002787,45.1343284 135.438011,45.1343284 C133.74388,45.1343284 132.179104,43.964997 132.179104,41.9256512 C132.179104,38.9511063 134.590945,38.2074701 137.912443,38.2074701 L138.44238,38.2074701 L138.44238,37.8030597 C138.44238,36.7201976 137.912443,35.7211443 136.410258,35.7211443 C135.098628,35.7211443 133.934435,36.3583568 133.426752,36.7840519 L133.277925,34.6582368 Z M138.44238,39.6096035 L138.210098,39.6096035 C135.965166,39.6096035 134.632673,40.0778681 134.632673,41.6702341 C134.632673,42.6692874 135.287792,43.3490693 136.304549,43.3490693 C137.870715,43.3490693 138.44238,42.1810682 138.44238,40.2255312 L138.44238,39.6096035 Z" id="path6751"></path>
                            <path d="M143.562104,31.4533349 L146.14834,30.6268657 L146.14834,33.7584625 L148.298507,33.7584625 L148.298507,35.7381763 L146.14834,35.7381763 L146.14834,41.5452461 C146.14834,42.7406991 146.56658,43.0878979 147.318042,43.0878979 C147.777421,43.0878979 148.110642,42.9585493 148.298507,42.8496242 L148.298507,44.763983 C147.900836,44.9600482 147.338611,45.1343284 146.56658,45.1343284 C144.648159,45.1343284 143.562104,44.220719 143.562104,41.8706598 L143.562104,35.7381763 L141.850746,35.7381763 L141.850746,33.7584625 L143.562104,33.7584625 L143.562104,31.4533349 Z" id="path6755"></path>
                            <path d="M149.910448,29.0149254 L152.861503,29.0149254 L152.861503,31.6943895 L149.910448,31.6943895 L149.910448,29.0149254 Z M150.274214,33.8239379 L153.134328,33.8239379 L153.134328,45.1343284 L150.274214,45.1343284 L150.274214,33.8239379 Z" id="path6757"></path>
                            <path d="M159.593316,33.8507463 C161.834409,33.8507463 164.41791,35.0199398 164.41791,39.4825613 C164.41791,44.0715461 161.834409,45.1343284 159.593316,45.1343284 C157.35082,45.1343284 154.746269,44.0715461 154.746269,39.4825613 C154.746269,35.0199398 157.35082,33.8507463 159.593316,33.8507463 M159.593316,43.2641508 C161.299746,43.2641508 161.685658,41.3088442 161.685658,39.4825613 C161.685658,37.653618 161.299746,35.7209238 159.593316,35.7209238 C157.885483,35.7209238 157.479925,37.653618 157.479925,39.4825613 C157.479925,41.3088442 157.885483,43.2641508 159.593316,43.2641508" id="path6761"></path>
                            <path d="M166.117756,35.8562662 C166.117756,35.1661513 166.095071,34.5192529 166.029851,34.0222621 L168.532315,34.0222621 C168.553639,34.5840778 168.618859,35.1661513 168.618859,35.727967 L168.684079,35.727967 L168.662755,35.727967 C169.049822,35.0581098 169.805524,33.8507463 171.616089,33.8507463 C174.141238,33.8507463 174.895522,35.727967 174.895522,37.9711782 L174.895522,45.1343284 L172.221501,45.1343284 L172.221501,38.4668185 C172.221501,36.7638147 171.789064,36.0520914 170.68883,36.0520914 C169.288017,36.0520914 168.791778,37.2378467 168.791778,38.6612932 L168.791778,45.1343284 L166.117756,45.1343284 L166.117756,35.8562662 Z" id="path6765"></path>
                        </g>
                    </g>
                </g>
            </g>
        </g>
    </g>
</svg>
