<?xml version="1.0" encoding="UTF-8"?>
<svg width="1090px" height="162px" viewBox="0 0 1090 162" version="1.1" xmlns="http://www.w3.org/2000/svg" xmlns:xlink="http://www.w3.org/1999/xlink">
    <!-- Generator: Sketch 64 (93537) - https://sketch.com -->
    <title>Digital Health Atlas</title>
    <desc>Created with Sketch.</desc>
    <g id="Page-1" stroke="none" stroke-width="1" fill="none" fill-rule="evenodd">
        <circle id="Oval" stroke="#0C5277" stroke-width="3" fill="#0C5277" cx="81" cy="81" r="79.5"></circle>
        <g id="DHA_Logo_Main_CMYK_Horizontal-Logo" transform="translate(15.000000, 12.000000)" fill="#FFFFFF">
            <path d="M115.459,26.892 L66.538,26.892 C65.943,26.892 65.458,26.408 65.458,25.812 C65.458,25.216 65.943,24.732 66.538,24.732 L115.459,24.732 C116.056,24.732 116.539,25.216 116.539,25.812 C116.539,26.408 116.056,26.892 115.459,26.892" id="Fill-2"></path>
            <path d="M128.47,48.315 L66.539,48.315 C65.943,48.315 65.459,47.832 65.459,47.236 C65.459,46.639 65.943,46.156 66.539,46.156 L128.47,46.156 C129.067,46.156 129.55,46.639 129.55,47.236 C129.55,47.832 129.067,48.315 128.47,48.315" id="Fill-3"></path>
            <path d="M131.895,69.944 L66.538,69.944 C65.943,69.944 65.459,69.46 65.459,68.864 C65.459,68.267 65.943,67.784 66.538,67.784 L131.895,67.784 C132.49,67.784 132.974,68.267 132.974,68.864 C132.974,69.46 132.49,69.944 131.895,69.944" id="Fill-4"></path>
            <path d="M128.47,92.935 L66.539,92.935 C65.943,92.935 65.459,92.452 65.459,91.855 C65.459,91.259 65.943,90.775 66.539,90.775 L128.47,90.775 C129.067,90.775 129.55,91.259 129.55,91.855 C129.55,92.452 129.067,92.935 128.47,92.935" id="Fill-5"></path>
            <path d="M115.459,113.649 L66.538,113.649 C65.943,113.649 65.458,113.165 65.458,112.569 C65.458,111.973 65.943,111.489 66.538,111.489 L115.459,111.489 C116.056,111.489 116.539,111.973 116.539,112.569 C116.539,113.165 116.056,113.649 115.459,113.649" id="Fill-6"></path>
            <path d="M66.539,46.144 C66.397,46.147 66.255,46.155 66.113,46.155 C54.699,46.155 45.412,36.87 45.412,25.456 C45.412,14.043 54.699,4.757 66.113,4.757 C66.255,4.757 66.397,4.765 66.539,4.767 L66.539,2.61 C66.601,2.61 66.662,2.612 66.724,2.612 C66.52,2.607 66.318,2.597 66.113,2.597 C53.507,2.597 43.253,12.852 43.253,25.456 C43.253,38.061 53.507,48.315 66.113,48.315 C66.255,48.315 66.396,48.307 66.539,48.304 L66.539,46.144" id="Fill-7"></path>
            <path d="M66.539,68.047 C66.396,68.05 66.255,68.058 66.112,68.058 C54.762,68.058 45.529,58.825 45.529,47.475 C45.529,36.125 54.762,26.892 66.112,26.892 C66.255,26.892 66.396,26.9 66.539,26.903 L66.539,24.743 C66.396,24.74 66.255,24.732 66.112,24.732 C53.571,24.732 43.369,34.934 43.369,47.475 C43.369,60.015 53.571,70.218 66.112,70.218 C66.255,70.218 66.396,70.209 66.539,70.207 L66.539,68.047" id="Fill-8"></path>
            <path d="M66.539,135.234 L66.539,133.128 C66.396,133.13 66.255,133.14 66.113,133.14 C48.69,133.14 34.515,118.964 34.515,101.541 C34.515,84.118 48.69,69.944 66.113,69.944 C66.255,69.944 66.396,69.952 66.539,69.954 L66.539,67.795 C66.396,67.793 66.255,67.784 66.113,67.784 C47.498,67.784 32.354,82.928 32.354,101.541 C32.354,120.156 47.498,135.299 66.113,135.299 C66.943,135.299 67.763,135.259 68.579,135.2 C67.902,135.22 67.222,135.234 66.539,135.234" id="Fill-9"></path>
            <path d="M66.539,132.841 C66.397,132.843 66.255,132.847 66.113,132.847 C30.863,132.847 2.187,104.17 2.187,68.922 C2.187,33.673 30.863,4.996 66.113,4.996 C66.255,4.996 66.397,5.001 66.539,5.002 L66.539,2.842 C66.397,2.841 66.255,2.837 66.113,2.837 C29.672,2.837 0.027,32.482 0.027,68.922 C0.027,105.362 29.672,135.007 66.113,135.007 C66.255,135.007 66.397,135.003 66.539,135.001 L66.539,132.841" id="Fill-10"></path>
            <path d="M66.539,91.764 C66.396,91.766 66.255,91.775 66.113,91.775 C42.705,91.775 23.663,72.733 23.663,49.326 C23.663,25.92 42.705,6.878 66.113,6.878 C66.255,6.878 66.396,6.887 66.539,6.889 L66.539,4.728 C66.396,4.726 66.255,4.718 66.113,4.718 C41.515,4.718 21.503,24.729 21.503,49.326 C21.503,73.923 41.515,93.935 66.113,93.935 C66.255,93.935 66.396,93.925 66.539,93.924 L66.539,91.764" id="Fill-11"></path>
            <path d="M66.539,112.467 C66.396,112.474 66.256,112.489 66.113,112.489 C60.612,112.489 56.136,108.014 56.136,102.514 C56.136,97.013 60.612,92.537 66.113,92.537 C66.256,92.537 66.396,92.553 66.539,92.56 L66.539,90.389 C66.398,90.384 66.255,90.378 66.113,90.378 C59.42,90.378 53.976,95.823 53.976,102.514 C53.976,109.205 59.42,114.649 66.113,114.649 C66.255,114.649 66.398,114.643 66.539,114.638 L66.539,112.467" id="Fill-12"></path>
            <path d="M69.531,4.057 C69.531,5.946 68.001,7.477 66.112,7.477 C64.224,7.477 62.693,5.946 62.693,4.057 C62.693,2.169 64.224,0.637 66.112,0.637 C68.001,0.637 69.531,2.169 69.531,4.057" id="Fill-13"></path>
            <path d="M69.531,112.23 C69.531,114.118 68.001,115.649 66.112,115.649 C64.224,115.649 62.693,114.118 62.693,112.23 C62.693,110.341 64.224,108.809 66.112,108.809 C68.001,108.809 69.531,110.341 69.531,112.23" id="Fill-14"></path>
            <path d="M69.531,133.864 C69.531,135.752 68.001,137.284 66.112,137.284 C64.224,137.284 62.693,135.752 62.693,133.864 C62.693,131.976 64.224,130.444 66.112,130.444 C68.001,130.444 69.531,131.976 69.531,133.864" id="Fill-15"></path>
            <path d="M69.531,25.692 C69.531,27.58 68.001,29.111 66.112,29.111 C64.224,29.111 62.693,27.58 62.693,25.692 C62.693,23.803 64.224,22.272 66.112,22.272 C68.001,22.272 69.531,23.803 69.531,25.692" id="Fill-16"></path>
            <path d="M69.531,47.326 C69.531,49.215 68.001,50.746 66.112,50.746 C64.224,50.746 62.693,49.215 62.693,47.326 C62.693,45.438 64.224,43.907 66.112,43.907 C68.001,43.907 69.531,45.438 69.531,47.326" id="Fill-17"></path>
            <path d="M69.531,68.961 C69.531,70.849 68.001,72.38 66.112,72.38 C64.224,72.38 62.693,70.849 62.693,68.961 C62.693,67.073 64.224,65.541 66.112,65.541 C68.001,65.541 69.531,67.073 69.531,68.961" id="Fill-18"></path>
            <path d="M69.531,90.595 C69.531,92.484 68.001,94.014 66.112,94.014 C64.224,94.014 62.693,92.484 62.693,90.595 C62.693,88.706 64.224,87.175 66.112,87.175 C68.001,87.175 69.531,88.706 69.531,90.595" id="Fill-19"></path>
        </g>
        <g id="Group" transform="translate(177.000000, 27.000000)" fill="#0C5277">
            <path d="M9.6115382,76.0443915 L22.5526842,76.0443915 C39.7353178,76.0443915 43.4189278,60.889792 43.4189278,45.1780381 C43.4189278,30.9148857 39.7353178,15.4259936 22.5526842,15.4259936 L9.6115382,15.4259936 L9.6115382,76.0443915 Z M0.126,6.736 L24.1147418,6.736 C42.0800212,6.736 53.126,18.9917817 53.126,45.5123308 C53.126,69.6928314 42.0800212,84.736 26.6825963,84.736 L0.126,84.736 L0.126,6.736 L0.126,6.736 Z" id="Fill-20"></path>
            <path d="M65.5805455,84.736 L74.6714545,84.736 L74.6714545,23.2918583 L65.5805455,23.2918583 L65.5805455,84.736 Z M65.126,14.1310954 L75.126,14.1310954 L75.126,2.736 L65.126,2.736 L65.126,14.1310954 Z" id="Fill-21"></path>
            <path d="M124.324725,36.7919896 C121.354832,33.9143854 117.066582,30.9261042 111.125203,30.9261042 C101.55555,30.9261042 97.9272753,36.018854 97.9272753,46.4208958 L97.9272753,61.6943333 C97.9272753,72.0963752 101.55555,77.189125 111.125203,77.189125 C117.066582,77.189125 121.354832,74.2008437 124.324725,71.3232396 L124.324725,36.7919896 Z M133.126,82.7229792 C133.126,94.5654271 128.946151,107.736 110.905211,107.736 C104.195454,107.736 97.2672992,105.190427 92.8658645,103.19824 L95.5057688,96.3362604 C98.4756612,97.5537083 104.307044,99.76725 110.905211,99.76725 C120.256466,99.76725 124.324725,93.6800104 124.324725,82.501625 L124.324725,78.6279271 C121.354832,81.8375625 115.965028,85.3792292 109.146869,85.3792292 C96.0557489,85.3792292 89.126,76.8570937 89.126,62.3583958 L89.126,45.7568333 C89.126,31.2581354 96.0557489,22.736 109.146869,22.736 C115.965028,22.736 121.576418,26.2776667 124.544717,29.4873021 L126.304653,23.6214167 L133.126,23.6214167 L133.126,82.7229792 L133.126,82.7229792 Z" id="Fill-22"></path>
            <path d="M150.580545,84.736 L159.671455,84.736 L159.671455,23.2918583 L150.580545,23.2918583 L150.580545,84.736 Z M150.126,14.1310954 L160.126,14.1310954 L160.126,2.736 L150.126,2.736 L150.126,14.1310954 Z" id="Fill-23"></path>
            <path d="M193.850472,66.7939495 C193.850472,73.3689866 195.743143,76.4893432 203.097429,76.4893432 C206.106,76.4893432 209.671714,75.5978128 211.454571,75.0406062 L213.126,82.2842912 C209.448857,84.0673522 205.660286,84.736 201.983143,84.736 C189.168857,84.736 184.934571,78.941052 184.934571,65.6795364 L184.934571,30.9098484 L174.126,30.9098484 C174.126,30.9098484 174.126,30.1297593 174.126,23.8906612 L185.157429,23.1089569 L185.157429,10.8520282 L193.850472,9.736 L193.850472,23.1089569 L210.676186,23.1089569 L210.676186,30.9098484 L193.850472,30.9098484 L193.850472,66.7939495" id="Fill-24"></path>
            <path d="M257.282839,69.7077314 L257.282839,52.2324664 C245.191236,52.2324664 231.084366,55.3490742 231.084366,68.1494276 C231.084366,74.8278728 236.346452,78.5010177 242.616172,78.5010177 C250.565282,78.5010177 255.827368,73.7147986 257.282839,69.7077314 Z M257.17088,41.4356466 C257.17088,35.4266591 254.147979,30.9727491 244.183602,30.9727491 C238.809556,30.9727491 232.538214,32.8665884 227.613628,35.0927368 L224.926605,27.7448339 C232.427877,23.7393799 239.593271,22.736 244.183602,22.736 C259.186147,22.736 266.126,30.0822898 266.126,43.3278728 L266.126,84.8455406 L258.960606,84.8455406 L257.952972,78.3897102 C254.370275,82.6193922 249.445689,85.736 241.160701,85.736 C229.069098,85.736 222.126,78.1670954 222.126,68.1494276 C222.126,50.1176254 242.392254,45.1104047 257.17088,45.1104047 L257.17088,41.4356466 L257.17088,41.4356466 Z" id="Fill-25"></path>
            <polygon id="Fill-26" points="281.126 83.736 290.126 83.736 290.126 0.736 281.126 0.736"></polygon>
            <polyline id="Fill-27" points="380.62092 48.6323954 347.632701 48.6323954 347.632701 84.736 338.126 84.736 338.126 6.736 347.632701 6.736 347.632701 39.9407868 380.62092 39.9407868 380.62092 6.736 390.126 6.736 390.126 84.736 380.62092 84.736 380.62092 48.6323954"></polyline>
            <path d="M438.526,50.006318 L438.526,46.555788 C438.526,36.0945036 434.997795,30.9727491 425.737854,30.9727491 C416.476316,30.9727491 412.948111,36.0945036 412.948111,46.555788 L412.948111,50.006318 L438.526,50.006318 Z M447.126,57.3526078 L412.948111,57.3526078 L412.948111,66.4798163 C412.948111,72.490417 416.476316,77.4992509 426.287538,77.4992509 C433.233692,77.4992509 439.189136,74.1600283 441.943949,72.2678021 L445.58241,79.0575548 C441.173752,83.0646219 433.455803,85.736 426.287538,85.736 C411.513179,85.736 404.126,77.8331731 404.126,64.5875901 L404.126,45.8879435 C404.126,31.7519011 411.18241,22.736 425.737854,22.736 C440.620872,22.736 447.126,31.4179788 447.126,45.8879435 L447.126,57.3526078 L447.126,57.3526078 Z" id="Fill-28"></path>
            <path d="M492.282839,69.7077314 L492.282839,52.2324664 C480.191236,52.2324664 466.084366,55.3490742 466.084366,68.1494276 C466.084366,74.8278728 471.346452,78.5010177 477.616172,78.5010177 C485.565282,78.5010177 490.827368,73.7147986 492.282839,69.7077314 Z M492.17088,41.4356466 C492.17088,35.4266591 489.147979,30.9727491 479.183602,30.9727491 C473.807934,30.9727491 467.538214,32.8665884 462.613628,35.0927368 L459.926605,27.7448339 C467.427877,23.7393799 474.593271,22.736 479.183602,22.736 C494.186147,22.736 501.126,30.0822898 501.126,43.3278728 L501.126,84.8455406 L493.960606,84.8455406 L492.952972,78.3897102 C489.370275,82.6193922 484.445689,85.736 476.160701,85.736 C464.069098,85.736 457.126,78.1670954 457.126,68.1494276 C457.126,50.1176254 477.390631,45.1104047 492.17088,45.1104047 L492.17088,41.4356466 L492.17088,41.4356466 Z" id="Fill-29"></path>
            <polygon id="Fill-30" points="516.126 83.736 525.126 83.736 525.126 0.736 516.126 0.736"></polygon>
            <path d="M555.849655,66.7939495 C555.849655,73.3689866 557.743863,76.4893432 565.097844,76.4893432 C568.106291,76.4893432 571.671857,75.5978128 573.453026,75.0406062 L575.126,82.2842912 C571.447395,84.0673522 567.660595,84.736 563.981989,84.736 C551.169849,84.736 546.935739,78.941052 546.935739,65.6795364 L546.935739,30.9098484 L536.126,30.9098484 C536.126,30.9098484 536.126,30.1297593 536.126,23.8906612 L547.156972,23.1089569 L547.156972,10.8520282 L555.849655,9.736 L555.849655,23.1089569 L572.674673,23.1089569 L572.674673,30.9098484 L555.849655,30.9098484 L555.849655,66.7939495" id="Fill-31"></path>
            <path d="M595.015207,83.736 L586.126,83.736 L586.126,0.736 L595.015207,0.736 L595.015207,29.62 C598.015314,26.7426667 604.569494,21.984 612.680896,21.984 C625.903591,21.984 631.126,31.28 631.126,42.7893333 L631.126,83.736 L622.238403,83.736 L622.238403,44.892 C622.238403,34.4893333 617.682685,30.7282705 609.682399,30.7282705 C604.013919,30.7282705 598.235934,34.2696039 595.015207,37.1469372 L595.015207,83.736" id="Fill-32"></path>
            <path d="M701.845853,21.3334451 L690.560632,56.5439877 L713.578013,56.5439877 L702.292793,21.3334451 L701.845853,21.3334451 Z M688.2142,65.3470271 L682.068783,84.736 L672.126,84.736 L697.935133,6.736 L706.205132,6.736 L732.126,84.736 C732.126,84.736 732.126,84.736 722.069863,84.736 L715.924445,65.3470271 L688.2142,65.3470271 L688.2142,65.3470271 Z" id="Fill-33"></path>
            <path d="M753.848857,66.7939495 C753.848857,73.3689866 755.743143,76.4893432 763.097429,76.4893432 C766.106,76.4893432 769.671714,75.5978128 771.454571,75.0406062 L773.126,82.2842912 C769.448857,84.0673522 765.660286,84.736 761.983143,84.736 C749.168857,84.736 744.934571,78.941052 744.934571,65.6795364 L744.934571,30.9098484 L734.126,30.9098484 C734.126,30.9098484 734.126,30.1297593 734.126,23.8906612 L745.157429,23.1089569 L745.157429,10.8520282 L753.848857,9.736 L753.848857,23.1089569 L770.674571,23.1089569 L770.674571,30.9098484 L753.848857,30.9098484 L753.848857,66.7939495" id="Fill-34"></path>
            <polygon id="Fill-35" points="786.126 83.736 795.126 83.736 795.126 0.736 786.126 0.736"></polygon>
            <path d="M844.281216,69.7077314 L844.281216,52.2324664 C832.191236,52.2324664 818.084366,55.3490742 818.084366,68.1494276 C818.084366,74.8278728 823.346452,78.5010177 829.616172,78.5010177 C837.563659,78.5010177 842.827368,73.7147986 844.281216,69.7077314 Z M844.17088,41.4356466 C844.17088,35.4266591 841.146356,30.9727491 831.183602,30.9727491 C825.807934,30.9727491 819.538214,32.8665884 814.613628,35.0927368 L811.926605,27.7448339 C819.427877,23.7393799 826.593271,22.736 831.183602,22.736 C846.186147,22.736 853.126,30.0822898 853.126,43.3278728 L853.126,84.8455406 L845.960606,84.8455406 L844.952972,78.3897102 C841.370275,82.6193922 836.445689,85.736 828.160701,85.736 C816.067476,85.736 809.126,78.1670954 809.126,68.1494276 C809.126,50.1176254 829.390631,45.1104047 844.17088,45.1104047 L844.17088,41.4356466 L844.17088,41.4356466 Z" id="Fill-36"></path>
            <path d="M897.701342,68.1476608 C897.701342,61.2466007 892.758877,59.5769894 885.120521,57.5734558 C876.134219,55.236 866.698603,52.5646219 866.698603,41.0999576 C866.698603,29.1900636 875.12326,23.736 886.470094,23.736 C892.758877,23.736 898.936959,25.6282261 903.991753,28.5222191 L900.958877,35.5345866 C897.139699,33.5326662 891.52326,31.6388269 886.470094,31.6388269 C879.955025,31.6388269 875.347918,33.8665884 875.347918,40.4321131 C875.347918,46.5540212 881.301342,48.2236325 888.378055,50.1158587 C898.038329,52.7872367 906.126,55.4586148 906.126,67.4798163 C906.126,79.5010177 899.273945,86.736 885.120521,86.736 C876.583534,86.736 868.495863,82.9515477 865.126,80.8367067 L868.383534,74.1582615 C872.539699,76.1617951 879.618039,78.8331731 885.120521,78.8331731 C894.670094,78.8331731 897.701342,74.3808763 897.701342,68.1476608" id="Fill-37"></path>
        </g>
    </g>
</svg>