<?xml version="1.0" encoding="UTF-8"?>
<svg width="1090px" height="162px" viewBox="0 0 1090 162" version="1.1" xmlns="http://www.w3.org/2000/svg" xmlns:xlink="http://www.w3.org/1999/xlink">
    <!-- Generator: Sketch 64 (93537) - https://sketch.com -->
    <title>Digital Health Atlas</title>
    <desc>Created with Sketch.</desc>
    <g id="Page-1" stroke="none" stroke-width="1" fill="none" fill-rule="evenodd">
        <circle id="Oval" stroke="#0C5277" stroke-width="3" fill="#0A4366" cx="81" cy="81" r="79.5"></circle>
        <g id="DHA_Logo_Main_CMYK_Horizontal-Logo" transform="translate(15.000000, 12.000000)" fill="#FFFFFF">
            <path d="M115.459,26.892 L66.538,26.892 C65.943,26.892 65.458,26.408 65.458,25.812 C65.458,25.216 65.943,24.732 66.538,24.732 L115.459,24.732 C116.056,24.732 116.539,25.216 116.539,25.812 C116.539,26.408 116.056,26.892 115.459,26.892" id="Fill-2"></path>
            <path d="M128.47,48.315 L66.539,48.315 C65.943,48.315 65.459,47.832 65.459,47.236 C65.459,46.639 65.943,46.156 66.539,46.156 L128.47,46.156 C129.067,46.156 129.55,46.639 129.55,47.236 C129.55,47.832 129.067,48.315 128.47,48.315" id="Fill-3"></path>
            <path d="M131.895,69.944 L66.538,69.944 C65.943,69.944 65.459,69.46 65.459,68.864 C65.459,68.267 65.943,67.784 66.538,67.784 L131.895,67.784 C132.49,67.784 132.974,68.267 132.974,68.864 C132.974,69.46 132.49,69.944 131.895,69.944" id="Fill-4"></path>
            <path d="M128.47,92.935 L66.539,92.935 C65.943,92.935 65.459,92.452 65.459,91.855 C65.459,91.259 65.943,90.775 66.539,90.775 L128.47,90.775 C129.067,90.775 129.55,91.259 129.55,91.855 C129.55,92.452 129.067,92.935 128.47,92.935" id="Fill-5"></path>
            <path d="M115.459,113.649 L66.538,113.649 C65.943,113.649 65.458,113.165 65.458,112.569 C65.458,111.973 65.943,111.489 66.538,111.489 L115.459,111.489 C116.056,111.489 116.539,111.973 116.539,112.569 C116.539,113.165 116.056,113.649 115.459,113.649" id="Fill-6"></path>
            <path d="M66.539,46.144 C66.397,46.147 66.255,46.155 66.113,46.155 C54.699,46.155 45.412,36.87 45.412,25.456 C45.412,14.043 54.699,4.757 66.113,4.757 C66.255,4.757 66.397,4.765 66.539,4.767 L66.539,2.61 C66.601,2.61 66.662,2.612 66.724,2.612 C66.52,2.607 66.318,2.597 66.113,2.597 C53.507,2.597 43.253,12.852 43.253,25.456 C43.253,38.061 53.507,48.315 66.113,48.315 C66.255,48.315 66.396,48.307 66.539,48.304 L66.539,46.144" id="Fill-7"></path>
            <path d="M66.539,68.047 C66.396,68.05 66.255,68.058 66.112,68.058 C54.762,68.058 45.529,58.825 45.529,47.475 C45.529,36.125 54.762,26.892 66.112,26.892 C66.255,26.892 66.396,26.9 66.539,26.903 L66.539,24.743 C66.396,24.74 66.255,24.732 66.112,24.732 C53.571,24.732 43.369,34.934 43.369,47.475 C43.369,60.015 53.571,70.218 66.112,70.218 C66.255,70.218 66.396,70.209 66.539,70.207 L66.539,68.047" id="Fill-8"></path>
            <path d="M66.539,135.234 L66.539,133.128 C66.396,133.13 66.255,133.14 66.113,133.14 C48.69,133.14 34.515,118.964 34.515,101.541 C34.515,84.118 48.69,69.944 66.113,69.944 C66.255,69.944 66.396,69.952 66.539,69.954 L66.539,67.795 C66.396,67.793 66.255,67.784 66.113,67.784 C47.498,67.784 32.354,82.928 32.354,101.541 C32.354,120.156 47.498,135.299 66.113,135.299 C66.943,135.299 67.763,135.259 68.579,135.2 C67.902,135.22 67.222,135.234 66.539,135.234" id="Fill-9"></path>
            <path d="M66.539,132.841 C66.397,132.843 66.255,132.847 66.113,132.847 C30.863,132.847 2.187,104.17 2.187,68.922 C2.187,33.673 30.863,4.996 66.113,4.996 C66.255,4.996 66.397,5.001 66.539,5.002 L66.539,2.842 C66.397,2.841 66.255,2.837 66.113,2.837 C29.672,2.837 0.027,32.482 0.027,68.922 C0.027,105.362 29.672,135.007 66.113,135.007 C66.255,135.007 66.397,135.003 66.539,135.001 L66.539,132.841" id="Fill-10"></path>
            <path d="M66.539,91.764 C66.396,91.766 66.255,91.775 66.113,91.775 C42.705,91.775 23.663,72.733 23.663,49.326 C23.663,25.92 42.705,6.878 66.113,6.878 C66.255,6.878 66.396,6.887 66.539,6.889 L66.539,4.728 C66.396,4.726 66.255,4.718 66.113,4.718 C41.515,4.718 21.503,24.729 21.503,49.326 C21.503,73.923 41.515,93.935 66.113,93.935 C66.255,93.935 66.396,93.925 66.539,93.924 L66.539,91.764" id="Fill-11"></path>
            <path d="M66.539,112.467 C66.396,112.474 66.256,112.489 66.113,112.489 C60.612,112.489 56.136,108.014 56.136,102.514 C56.136,97.013 60.612,92.537 66.113,92.537 C66.256,92.537 66.396,92.553 66.539,92.56 L66.539,90.389 C66.398,90.384 66.255,90.378 66.113,90.378 C59.42,90.378 53.976,95.823 53.976,102.514 C53.976,109.205 59.42,114.649 66.113,114.649 C66.255,114.649 66.398,114.643 66.539,114.638 L66.539,112.467" id="Fill-12"></path>
            <path d="M69.531,4.057 C69.531,5.946 68.001,7.477 66.112,7.477 C64.224,7.477 62.693,5.946 62.693,4.057 C62.693,2.169 64.224,0.637 66.112,0.637 C68.001,0.637 69.531,2.169 69.531,4.057" id="Fill-13"></path>
            <path d="M69.531,112.23 C69.531,114.118 68.001,115.649 66.112,115.649 C64.224,115.649 62.693,114.118 62.693,112.23 C62.693,110.341 64.224,108.809 66.112,108.809 C68.001,108.809 69.531,110.341 69.531,112.23" id="Fill-14"></path>
            <path d="M69.531,133.864 C69.531,135.752 68.001,137.284 66.112,137.284 C64.224,137.284 62.693,135.752 62.693,133.864 C62.693,131.976 64.224,130.444 66.112,130.444 C68.001,130.444 69.531,131.976 69.531,133.864" id="Fill-15"></path>
            <path d="M69.531,25.692 C69.531,27.58 68.001,29.111 66.112,29.111 C64.224,29.111 62.693,27.58 62.693,25.692 C62.693,23.803 64.224,22.272 66.112,22.272 C68.001,22.272 69.531,23.803 69.531,25.692" id="Fill-16"></path>
            <path d="M69.531,47.326 C69.531,49.215 68.001,50.746 66.112,50.746 C64.224,50.746 62.693,49.215 62.693,47.326 C62.693,45.438 64.224,43.907 66.112,43.907 C68.001,43.907 69.531,45.438 69.531,47.326" id="Fill-17"></path>
            <path d="M69.531,68.961 C69.531,70.849 68.001,72.38 66.112,72.38 C64.224,72.38 62.693,70.849 62.693,68.961 C62.693,67.073 64.224,65.541 66.112,65.541 C68.001,65.541 69.531,67.073 69.531,68.961" id="Fill-18"></path>
            <path d="M69.531,90.595 C69.531,92.484 68.001,94.014 66.112,94.014 C64.224,94.014 62.693,92.484 62.693,90.595 C62.693,88.706 64.224,87.175 66.112,87.175 C68.001,87.175 69.531,88.706 69.531,90.595" id="Fill-19"></path>
        </g>
        <g id="Group" transform="translate(203.000000, 33.000000)" fill="#0C5277">
            <path d="M9.40086129,68.1998385 L21.1211444,68.1998385 C36.6827749,68.1998385 40.0188745,54.5995569 40.0188745,40.499265 C40.0188745,27.699 36.6827749,13.7987122 21.1211444,13.7987122 L9.40086129,13.7987122 L9.40086129,68.1998385 Z M0.810185185,6 L22.5358381,6 C38.8062799,6 48.8101852,16.9987784 48.8101852,40.7992712 C48.8101852,62.4997205 38.8062799,76 24.8614422,76 L0.810185185,76 L0.810185185,6 L0.810185185,6 Z" id="Fill-20"></path>
            <path d="M60.2192761,76 L68.4010943,76 L68.4010943,20.5504087 L60.2192761,20.5504087 L60.2192761,76 Z M59.8101852,12.2833787 L68.8101852,12.2833787 L68.8101852,2 L59.8101852,2 L59.8101852,12.2833787 Z" id="Fill-21"></path>
            <path d="M112.809026,33.5677083 C110.109124,30.9947917 106.210714,28.3229167 100.809461,28.3229167 C92.1097758,28.3229167 88.8113446,32.8764342 88.8113446,42.1770833 L88.8113446,55.8333333 C88.8113446,65.1339825 92.1097758,69.6875 100.809461,69.6875 C106.210714,69.6875 110.109124,67.015625 112.809026,64.4427083 L112.809026,33.5677083 Z M120.810185,74.6354167 C120.810185,85.2239583 117.010323,97 100.609468,97 C94.5096888,97 88.2113663,94.7239583 84.210062,92.9427083 L86.609975,86.8072917 C89.3098772,87.8958333 94.6111344,89.875 100.609468,89.875 C109.110609,89.875 112.809026,84.4322917 112.809026,74.4375 L112.809026,70.9739583 C110.109124,73.84375 105.209301,77.0104167 99.010975,77.0104167 C87.1099569,77.0104167 80.8101852,69.390625 80.8101852,56.4270833 L80.8101852,41.5833333 C80.8101852,28.6197917 87.1099569,21 99.010975,21 C105.209301,21 110.310566,24.1666667 113.009019,27.0364583 L114.608961,21.7916667 L120.810185,21.7916667 L120.810185,74.6354167 L120.810185,74.6354167 Z" id="Fill-22"></path>
            <path d="M136.219276,76 L144.401094,76 L144.401094,20.5504087 L136.219276,20.5504087 L136.219276,76 Z M135.810185,12.2833787 L144.810185,12.2833787 L144.810185,2 L135.810185,2 L135.810185,12.2833787 Z" id="Fill-23"></path>
            <path d="M175.511634,59.9717682 C175.511634,65.8454681 177.210185,68.6329866 183.810185,68.6329866 C186.510185,68.6329866 189.710185,67.8365527 191.310185,67.3387816 L192.810185,73.8098068 C189.510185,75.4026746 186.110185,76 182.810185,76 C171.310185,76 167.510185,70.8231798 167.510185,58.9762259 L167.510185,27.9153046 L157.810185,27.9153046 C157.810185,27.9153046 157.810185,27.218425 157.810185,21.6448306 L167.710185,20.9465082 L167.710185,9.99698516 L175.511634,9 L175.511634,20.9465082 L190.611634,20.9465082 L190.611634,27.9153046 L175.511634,27.9153046 L175.511634,59.9717682" id="Fill-24"></path>
            <path d="M231.770948,62.4982332 L231.770948,46.6872792 C220.778581,46.6872792 207.954154,49.5070671 207.954154,61.0883392 C207.954154,67.130742 212.737869,70.4540636 218.437614,70.4540636 C225.664078,70.4540636 230.447793,66.1236749 231.770948,62.4982332 Z M231.669167,36.9187279 C231.669167,31.4820249 228.921075,27.4522968 219.862551,27.4522968 C214.977055,27.4522968 209.275834,29.1657705 204.798938,31.1799047 L202.35619,24.5318021 C209.175528,20.9078199 215.689523,20 219.862551,20 C233.501228,20 239.810185,26.6466431 239.810185,38.630742 L239.810185,76.1943463 L233.29619,76.1943463 L232.38016,70.3533569 C229.123162,74.180212 224.646266,77 217.114459,77 C206.122093,77 199.810185,70.1519435 199.810185,61.0883392 C199.810185,44.7738516 218.234052,40.243509 231.669167,40.243509 L231.669167,36.9187279 L231.669167,36.9187279 Z" id="Fill-25"></path>
            <polygon id="Fill-26" points="253.810185 75 261.810185 75 261.810185 0 253.810185 0"></polygon>
            <polyline id="Fill-27" points="343.219055 43.5993292 313.40278 43.5993292 313.40278 76 304.810185 76 304.810185 6 313.40278 6 313.40278 35.7991677 343.219055 35.7991677 343.219055 6 351.810185 6 351.810185 76 343.219055 76 343.219055 43.5993292"></polyline>
            <path d="M395.010185,44.6731449 L395.010185,41.5512367 C395.010185,32.0862652 391.810185,27.4522968 383.411634,27.4522968 C375.011634,27.4522968 371.811634,32.0862652 371.811634,41.5512367 L371.811634,44.6731449 L395.010185,44.6731449 Z M402.810185,51.319788 L371.811634,51.319788 L371.811634,59.5777385 C371.811634,65.0159011 375.011634,69.5477032 383.910185,69.5477032 C390.210185,69.5477032 395.611634,66.5265018 398.110185,64.8144876 L401.410185,70.9575972 C397.411634,74.5830389 390.411634,77 383.910185,77 C370.510185,77 363.810185,69.8498233 363.810185,57.8657244 L363.810185,40.9469965 C363.810185,28.1572438 370.210185,20 383.411634,20 C396.910185,20 402.810185,27.8551237 402.810185,40.9469965 L402.810185,51.319788 L402.810185,51.319788 Z" id="Fill-28"></path>
            <path d="M443.770948,62.4982332 L443.770948,46.6872792 C432.778581,46.6872792 419.954154,49.5070671 419.954154,61.0883392 C419.954154,67.130742 424.737869,70.4540636 430.437614,70.4540636 C437.664078,70.4540636 442.447793,66.1236749 443.770948,62.4982332 Z M443.669167,36.9187279 C443.669167,31.4820249 440.921075,27.4522968 431.862551,27.4522968 C426.97558,27.4522968 421.275834,29.1657705 416.798938,31.1799047 L414.35619,24.5318021 C421.175528,20.9078199 427.689523,20 431.862551,20 C445.501228,20 451.810185,26.6466431 451.810185,38.630742 L451.810185,76.1943463 L445.29619,76.1943463 L444.38016,70.3533569 C441.123162,74.180212 436.646266,77 429.114459,77 C418.122093,77 411.810185,70.1519435 411.810185,61.0883392 C411.810185,44.7738516 430.232577,40.243509 443.669167,40.243509 L443.669167,36.9187279 L443.669167,36.9187279 Z" id="Fill-29"></path>
            <polygon id="Fill-30" points="464.810185 75 472.810185 75 472.810185 0 464.810185 0"></polygon>
            <path d="M500.510902,59.9717682 C500.510902,65.8454681 502.210831,68.6329866 508.810558,68.6329866 C511.510446,68.6329866 514.710314,67.8365527 516.308798,67.3387816 L517.810185,73.8098068 C514.508873,75.4026746 511.110463,76 507.80915,76 C496.311075,76 492.511233,70.8231798 492.511233,58.9762259 L492.511233,27.9153046 L482.810185,27.9153046 C482.810185,27.9153046 482.810185,27.218425 482.810185,21.6448306 L492.709775,20.9465082 L492.709775,9.99698516 L500.510902,9 L500.510902,20.9465082 L515.610276,20.9465082 L515.610276,27.9153046 L500.510902,27.9153046 L500.510902,59.9717682" id="Fill-31"></path>
            <path d="M535.711703,75 L527.810185,75 L527.810185,0 L535.711703,0 L535.711703,26.1 C538.378465,23.5 544.204402,19.2 551.414537,19.2 C563.168044,19.2 567.810185,27.6 567.810185,38 L567.810185,75 L559.910099,75 L559.910099,39.9 C559.910099,30.5 555.860572,27.1014493 548.749206,27.1014493 C543.710557,27.1014493 538.574571,30.3014493 535.711703,32.9014493 L535.711703,75" id="Fill-32"></path>
            <path d="M631.558053,19.1002712 L621.401354,50.6994762 L642.116997,50.6994762 L631.960299,19.1002712 L631.558053,19.1002712 Z M619.289566,58.5996397 L613.75869,76 L604.810185,76 L628.038405,6 L635.481404,6 L658.810185,76 C658.810185,76 658.810185,76 649.759662,76 L644.228786,58.5996397 L619.289566,58.5996397 L619.289566,58.5996397 Z" id="Fill-33"></path>
            <path d="M678.510185,59.9717682 C678.510185,65.8454681 680.210185,68.6329866 686.810185,68.6329866 C689.510185,68.6329866 692.710185,67.8365527 694.310185,67.3387816 L695.810185,73.8098068 C692.510185,75.4026746 689.110185,76 685.810185,76 C674.310185,76 670.510185,70.8231798 670.510185,58.9762259 L670.510185,27.9153046 L660.810185,27.9153046 C660.810185,27.9153046 660.810185,27.218425 660.810185,21.6448306 L670.710185,20.9465082 L670.710185,9.99698516 L678.510185,9 L678.510185,20.9465082 L693.610185,20.9465082 L693.610185,27.9153046 L678.510185,27.9153046 L678.510185,59.9717682" id="Fill-34"></path>
            <polygon id="Fill-35" points="706.810185 75 714.810185 75 714.810185 0 706.810185 0"></polygon>
            <path d="M759.769473,62.4982332 L759.769473,46.6872792 C748.778581,46.6872792 735.954154,49.5070671 735.954154,61.0883392 C735.954154,67.130742 740.737869,70.4540636 746.437614,70.4540636 C753.662602,70.4540636 758.447793,66.1236749 759.769473,62.4982332 Z M759.669167,36.9187279 C759.669167,31.4820249 756.9196,27.4522968 747.862551,27.4522968 C742.97558,27.4522968 737.275834,29.1657705 732.798938,31.1799047 L730.35619,24.5318021 C737.175528,20.9078199 743.689523,20 747.862551,20 C761.501228,20 767.810185,26.6466431 767.810185,38.630742 L767.810185,76.1943463 L761.29619,76.1943463 L760.38016,70.3533569 C757.123162,74.180212 752.646266,77 745.114459,77 C734.120618,77 727.810185,70.1519435 727.810185,61.0883392 C727.810185,44.7738516 746.232577,40.243509 759.669167,40.243509 L759.669167,36.9187279 L759.669167,36.9187279 Z" id="Fill-36"></path>
            <path d="M807.207445,61.1819788 C807.207445,54.9381625 802.747171,53.4275618 795.854021,51.614841 C787.744432,49.5 779.229363,47.0830389 779.229363,36.7102473 C779.229363,25.934629 786.832103,21 797.071928,21 C802.747171,21 808.322514,22.7120141 812.884158,25.3303887 L810.147171,31.6749117 C806.700596,29.8636503 801.632103,28.1501767 797.071928,28.1501767 C791.192476,28.1501767 787.034843,30.1657705 787.034843,36.1060071 C787.034843,41.6448763 792.407445,43.155477 798.793747,44.8674912 C807.511555,47.2844523 814.810185,49.7014134 814.810185,60.5777385 C814.810185,71.4540636 808.626624,78 795.854021,78 C788.149911,78 780.851281,74.5759717 777.810185,72.6625442 L780.749911,66.6201413 C784.500596,68.4328622 790.888367,70.8498233 795.854021,70.8498233 C804.471928,70.8498233 807.207445,66.8215548 807.207445,61.1819788" id="Fill-37"></path>
        </g>
    </g>
</svg>