<svg xmlns="http://www.w3.org/2000/svg" width="22" height="20" viewBox="0 0 22 20">
  <g fill="#008DC9" fill-rule="evenodd">
    <path d="M13.8097344 7.09309859L13.8097344 7.00943662 13.7616724 7.07225352 13.7755231 7.14887324 13.8097344 7.09309859zM13.7755231 7.4971831L13.8097344 7.51788732 13.8507326 7.45549296 13.9123684 7.34394366 13.8781571 7.35084507 13.8233082 7.37859155 13.7958837 7.2184507 13.7616724 7.24633803 13.7890968 7.34394366 13.7548855 7.42042254 13.7068235 7.40661972 13.6451877 7.44830986 13.6519746 7.5528169 13.7755231 7.4971831zM13.9604304 7.11408451L14.0425652 7.17661972 14.1385508 7.15577465 14.0632028 7.13492958 14.0425652 7.05126761 14.0425652 6.9884507 14.0014286 6.91197183 13.9465797 6.9328169 13.9192937 6.91197183 13.8370204 6.9884507 13.9672173 7.05830986 13.9604304 7.11408451zM14.6317754 6.49394366L14.7003365 6.56352113 14.7344093 6.55661972 14.7893967 6.5915493 14.7756845 6.54957746 14.6385623 6.45211268 14.5495021 6.36859155 14.5906387 6.49394366 14.6317754 6.49394366zM13.508204 7.67126761L13.5424153 7.6015493 13.3917193 7.60859155 13.3231582 7.65732394 13.3985062 7.68521127 13.508204 7.67126761zM15.1045009 7.68521127L15.1662752 7.79676056 15.1456376 7.83859155 15.200348 8.02661972 15.24841 8.04056338 15.24841 7.83859155 15.1935611 7.76873239 15.1729235 7.55985915 15.077492 7.30661972 15.0579625 7.35169014 15.0840018 7.4971831 15.1045009 7.68521127zM14.7072619 6.68887324L14.8168212 6.86309859 14.8852438 6.89788732 14.7687592 6.69591549 14.7072619 6.68887324zM15.0155792 7.17661972L15.0567159 7.19746479 14.9538049 6.9884507 14.8990946 6.97464789 14.9538049 7.06521127 15.0155792 7.17661972zM13.8291255 5.65140845C13.8237237 5.66591549 13.8190144 5.68098592 13.8131971 5.69549296L13.8644448 5.73464789 13.9192937 5.71366197 13.8291255 5.65140845zM4.71049565 12.9259155L4.70315476 12.8584507 4.62946886 12.7687324 4.58528503 12.783662 4.66631181 12.8884507 4.65897092 12.9183099 4.72531593 12.9932394 4.76936126 13.0905634 4.80620421 13.075493 4.76936126 12.9932394 4.71049565 12.9259155zM14.0228972 3.76605634L14.0997688 3.8228169 14.2814904 3.88676056 14.3445112 4.00056338 14.3932658 4.00056338 14.3794151 3.87957746 14.3234581 3.83690141 14.3374473 3.77295775 14.2258104 3.72338028 14.1837042 3.76605634 14.1277473 3.73746479 14.1557257 3.67352113 14.0228972 3.76605634zM11.788497 14.6590141L11.7948684 14.6625352C11.7937603 14.6590141 11.7926522 14.6557746 11.7915442 14.6525352L11.788497 14.6590141zM17.3865476 12.2384507C17.0219963 13.1143662 16.5012088 13.9015493 15.8388668 14.5790141L14.8806731 13.604507C15.4183585 13.0538028 15.8416369 12.4140845 16.1376271 11.7019718 16.4354178 10.9860563 16.590546 10.2270423 16.6020421 9.44507042L17.9570593 9.44507042C17.9455632 10.4132394 17.7549771 11.3526761 17.3865476 12.2384507zM14.6852392 13.4057746L14.6934112 13.356338 14.7618338 13.2935211 14.700198 12.9801408 14.7139103 12.896338 14.6453491 12.7640845 14.6042125 12.7222535 14.6453491 12.715493 14.5905002 12.6387324 14.4603033 12.631831 14.4603033 12.7361972 14.4125183 12.7778873 14.4467296 12.8616901 14.3918807 13.021831 14.350744 13.0498592 14.3666724 13.0819718 13.8349428 12.5414085C14.6456261 11.7091549 15.1003457 10.613662 15.1233379 9.44507042L16.4988542 9.44507042C16.475862 10.9871831 15.8783413 12.4339437 14.8078182 13.5305634L14.6852392 13.4057746zM13.7180426 14.4076056L13.7205357 14.4012676 13.7684592 14.3177465 13.7205357 14.1922535 13.8986561 14.0390141 13.8849439 13.9343662 13.754747 13.8649296 13.8849439 13.6071831 14.0356399 13.356338 13.8575195 13.1332394 13.7958837 13.1542254 13.7136103 13.1332394 13.6382624 12.9660563 13.6040511 12.9801408 13.6451877 12.8197183 13.6715041 12.6983099C13.7014217 12.6704225 13.7317548 12.6430986 13.7611184 12.614507L14.3544837 13.2176056 14.3576694 13.2238028 14.3614091 13.2249296 14.7338553 13.6033803C14.4216598 13.9125352 14.0805163 14.1804225 13.7180426 14.4076056zM13.5629144 11.9977465L13.3353468 12.1805634 13.3026591 12.2066197 13.28216 12.171831 13.1724622 12.171831 13.0148409 12.2066197 12.8641449 12.1440845 12.7887969 12.1440845 12.6723123 12.0532394 12.5969643 12.0604225 12.5285417 11.9977465 12.4188439 11.9905634 12.363995 11.9140845 12.3159329 11.8952113C12.3193956 11.8930986 12.3225813 11.8908451 12.3261825 11.8884507L12.3914194 11.9001408 12.3914194 11.8652113 12.5490408 11.8933803 12.6038897 11.9280282 12.7749462 11.9559155 12.7887969 11.9977465 12.9257807 11.9977465 13.1108265 12.0532394 13.1637363 12.1423944 13.2750962 12.1370423 13.3573695 12.0466197 13.4259306 11.9070423 13.5287031 11.6353521 13.5080655 11.5867606 13.5561275 11.5377465 13.5972642 11.3707042 13.5698397 11.3009859 13.6040511 11.2452113 13.5561275 11.1825352 13.5422768 11.0153521 13.4259306 11.0430986 13.3573695 11.1408451 13.2547356 11.1338028 13.2681708 11.2591549 13.1861745 11.3638028 13.1176133 11.3290141 13.0559776 11.3843662 12.8983562 11.3985915 12.8918464 11.3928169C12.9264732 11.3539437 12.9598535 11.3138028 12.9925412 11.2730986L13.0627644 11.2730986 13.139082 11.2591549 13.2135989 11.1756338 13.2274496 11.1094366 13.3026591 11.1059155 13.4464297 10.89 13.5629144 10.6390141 13.8712317 10.4929577 13.8643063 10.4092958 13.8233082 10.3674648 13.8439457 10.3395775 13.9399313 10.388169 14.1451992 10.4301408 14.3097459 10.3605634 14.5769265 10.3046479 14.5083654 10.1097183 14.3918807 9.99126761 14.2481101 9.9843662 14.0630643 9.53140845 14.0356399 9.55239437 13.9672173 9.49661972 14.0219277 9.46169014 14.0188805 9.44507042 15.02015 9.44507042C14.9972962 10.585493 14.5533803 11.6547887 13.7620879 12.4671831L13.7321703 12.4367606 13.7411733 12.4016901 13.7753846 12.2276056 13.7411733 11.9559155 13.679399 11.7956338 13.6382624 11.8373239 13.5629144 11.9488732 13.5629144 11.9977465zM12.6928114 8.06830986L12.8091575 8.02661972 12.6792376 7.93605634 12.7544471 7.84549296 12.7407349 7.79676056 12.8641449 7.74098592 12.7476603 7.6015493 12.6106765 7.7271831 12.5900389 7.81746479 12.5011172 7.7756338 12.4051316 7.78985915 12.3777072 7.7271831 12.3768761 7.72676056 12.5987649 7.50112676 12.6176019 7.52507042 12.809296 7.53197183 12.874533 7.45239437C12.9667788 7.56295775 13.0508528 7.68056338 13.1264778 7.80408451L13.1245387 7.80366197 13.0284146 8.01253521 12.8778571 7.92901408 12.8367205 7.93605634 12.8778571 8.01957746 12.9257807 8.05450704 12.8778571 8.1728169 12.8572196 8.1171831 12.6928114 8.06830986zM12.6905952 7.40774648L12.7670513 7.32985915C12.7950298 7.35985915 12.8223157 7.39056338 12.8490476 7.42183099L12.7613725 7.4971831 12.686163 7.49014085 12.6587386 7.46225352 12.7202358 7.42042254 12.6905952 7.40774648zM13.8005929 6.27901408C13.9035039 6.38732394 13.999905 6.50014085 14.0904888 6.61676056L14.0357784 6.6471831 13.9740041 6.66112676 14.0699897 6.68887324 14.1150046 6.64971831C14.1580804 6.70605634 14.1993555 6.76323944 14.2393842 6.82140845L14.1933997 6.82140845 14.1933997 6.84915493 14.2413233 6.86309859 14.3850939 7.09309859 14.425261 7.11352113C14.4421589 7.1428169 14.4579487 7.1728169 14.4741541 7.20225352L14.4741541 7.29507042 14.378307 7.39957746 14.3508826 7.32295775 14.2687477 7.30901408 14.302959 7.39957746 14.2413233 7.46225352 14.3920192 7.51788732 14.4537935 7.60859155 14.5769265 7.64338028 14.5838519 7.69915493 14.6934112 7.7271831 14.7140488 7.90112676 14.7799783 7.89169014C14.8186218 8.00422535 14.8520021 8.11859155 14.8816426 8.23464789L14.878457 8.2356338 14.8097573 8.35408451 14.7139103 8.4028169 14.6453491 8.60492958 14.4672287 8.70943662 14.4055929 8.59774648 14.4604418 8.33323944 14.5425767 8.27042254 14.2686092 8.05450704 14.1247001 8.13126761 13.9946417 8.4028169 13.8575195 8.32619718 13.8165213 8.21478873 13.8917308 8.18 13.9259421 8.22873239 13.9877163 8.20774648 13.9672173 8.12408451 13.8780185 8.09633803 13.8849439 8.15197183 13.8233082 8.15197183 13.754747 8.04760563 13.5972642 7.88732394 13.4122184 7.75492958 13.2408848 7.74098592 13.2237099 7.76507042C13.1131811 7.58197183 12.9849233 7.41098592 12.8399061 7.25591549L13.8005929 6.27901408zM14.4880048 6.99549296L14.4849576 7.01225352C14.4792788 7.00295775 14.4734615 6.99352113 14.4677827 6.98408451L14.4880048 6.99549296zM14.2138988 8.9184507L14.4055929 8.79295775 14.6385623 8.77197183 14.700198 8.63957746 14.775546 8.59774648 14.8783185 8.41676056 14.9036653 8.32366197C14.9115602 8.35774648 14.9187626 8.39211268 14.925965 8.42633803L14.8852438 8.53521127 14.8990946 8.56309859 14.8442457 8.67450704 14.8510325 8.73028169 14.7414732 8.88366197 14.7619723 8.98098592 14.8029705 8.98802817 14.9126683 8.81380282 14.9126683 8.70943662 14.9675172 8.69549296 14.973196 8.68676056C15.0047756 8.90112676 15.021535 9.11943662 15.0220891 9.34028169L13.9866083 9.34028169 13.9604304 9.32225352 13.9672173 9.23873239 14.0562775 9.20380282 14.1247001 9.10647887 14.2891083 9.08549296 14.2891083 9.01591549 14.2138988 8.9184507zM13.876772 6.20169014L13.9946417 6.33366197 14.0562775 6.13859155 13.9604304 6.12464789 13.9604304 6.11661972 14.2598832 5.81197183 14.4564251 6.01943662 14.6450721 6.00521127 14.7079544 6.11183099 14.7291461 6.27535211 15.10644 6.5028169 15.2112901 6.48859155 15.4630964 6.78 15.5189148 6.92929577 15.6937111 7.11408451 15.8964858 7.10690141 15.9862386 6.91366197C16.3210108 7.66676056 16.4991312 8.48943662 16.5007933 9.34028169L15.125277 9.34028169C15.1245845 9.07464789 15.1002072 8.81295775 15.0557463 8.55661972L15.1182131 8.45859155 15.1524245 8.45859155 15.2277724 8.13126761 15.1729235 8.1171831 15.1867743 8.0615493 15.049652 8.06830986 15.0222276 8.03352113 14.9949416 8.09633803 15.0770765 8.16591549 15.0155792 8.18676056 14.99231 8.24873239C14.9594837 8.11478873 14.9208402 7.98267606 14.8759638 7.8528169L14.9538049 7.73394366 14.9331674 7.59464789 14.8647447 7.58070423 14.8374588 7.42746479 14.878457 7.3928169 14.8029705 7.28816901 14.6730506 7.30197183 14.6295593 7.27253521C14.6010268 7.21676056 14.5708322 7.16169014 14.5402221 7.10690141L14.6730506 7.10690141 14.6454876 7.03732394 14.7344093 7.00943662 14.7344093 6.93971831 14.6730506 6.9328169 14.5838519 7.00253521 14.5564274 6.97464789 14.6317754 6.85619718 14.5701397 6.8143662 14.4947917 6.92591549 14.4036538 6.87943662C14.331076 6.76676056 14.2530964 6.6571831 14.1704075 6.55070423L14.1727621 6.52183099 14.1608505 6.53788732C14.0708207 6.42295775 13.9751122 6.31183099 13.8734478 6.20492958L13.876772 6.20169014zM15.8773718 4.1671831C16.5210153 4.83549296 17.0291987 5.60816901 17.3865476 6.46676056 17.7650881 7.37690141 17.9574748 8.34380282 17.9591369 9.34028169L16.6038427 9.34028169C16.6023191 8.52985915 16.4456674 7.74352113 16.1376271 7.00323944 16.107848 6.93140845 16.0758528 6.86098592 16.0434421 6.79070423L16.0783459 6.71605634 16.1552175 6.76577465 16.1830575 6.68042254 15.7286149 5.92704225 15.6308288 5.89859155 14.9596223 5.11647887 14.9592067 5.10112676 15.8773718 4.1671831zM3.95064446 12.2384507C3.58221497 11.3526761 3.39149038 10.4132394 3.37999428 9.44507042L4.73528846 9.44507042C4.74415293 10.0557746 4.8419391 10.6519718 5.02559982 11.2252113L4.92393544 11.2940845 4.65897092 11.1442254 4.5999668 11.2042254 4.52641941 11.1667606 4.48223558 11.2042254 4.51173764 11.3014085 4.35702495 11.2940845 4.26879579 11.2415493 4.27627518 11.1592958 4.25411401 11.091831 4.20993017 11.091831 4.21740957 11.1667606 4.20993017 11.2116901 4.17322573 11.1966197 4.06269689 11.2491549 4.13624428 11.3088732 4.04053571 11.2864789 3.99649038 11.3388732 4.04801511 11.3612676 3.9816701 11.3612676 3.9816701 11.4735211 4.01117216 11.533662 4.04801511 11.5633803 3.98901099 11.5633803 4.01851305 11.6607042 4.07737866 11.6832394 4.09843178 11.7204225 4.13624428 11.788169 4.15840545 11.8478873 4.02599245 11.765493 4.07737866 11.9078873 3.98901099 11.7130986 3.98901099 11.8405634 4.07003777 12.0349296 4.13624428 12.1997183 4.34248168 12.6115493 4.32032051 12.5290141 4.15840545 12.1322535 4.15840545 11.9826761 4.23943223 11.8478873 4.50439675 12.1698592 4.5412397 12.14 4.49705586 11.9377465 4.54858059 11.9750704 4.62946886 12.1176056 4.76202038 12.1547887 4.8210245 12.2446479 4.87241071 12.2521127 4.82836538 12.14 4.87241071 12.08 4.91673306 12.2370423 5.01230311 12.3942254 5.10067079 12.3794366 5.33613324 12.783662 5.46868475 12.8211268 5.50566621 12.6564789 5.55705243 12.723662 5.75594895 13.0156338 6.00401557 13.0830986C6.14404647 13.2632394 6.29308036 13.4369014 6.45374886 13.601831L5.49555517 14.5761972C4.83445971 13.8994366 4.31450321 13.1132394 3.95064446 12.2384507zM3.95064446 6.46676056C4.30730082 5.60929577 4.81465316 4.83760563 5.45691163 4.17028169L6.41510531 5.14450704C5.89736493 5.68549296 5.48779876 6.30985915 5.19942651 7.00323944 4.89138622 7.74352113 4.73487294 8.52985915 4.73321085 9.34028169L3.37805517 9.34028169C3.37971726 8.34380282 3.57210394 7.37690141 3.95064446 6.46676056zM6.21385417 9.44507042C6.21814789 9.65802817 6.23698489 9.86887324 6.2693956 10.0757746L6.1975103 10.0364789 6.1975103 10.1338028 6.14584707 10.1112676 6.10180174 10.0364789 5.99875229 10.0812676 5.98407051 10.1712676 5.74833104 10.5380282 5.68212454 10.5529577 5.6528995 11.1667606 5.48336653 11.2491549 5.4318418 11.2264789 5.35095353 11.2639437 5.1595364 11.2491549 5.13917582 11.2402817C4.95108288 10.6678873 4.8476179 10.064507 4.83833791 9.44507042L6.21385417 9.44507042zM7.53382898 6.28197183L8.4945158 7.25887324C8.27304258 7.49647887 8.08882784 7.77 7.95101305 8.07L7.89796474 8.06028169 7.94201007 8.00042254 7.83175824 8.09774648 7.74339057 8.15760563 7.7212294 8.12028169 7.56665522 8.18014085 7.57413462 8.23985915 7.65502289 8.18746479 7.79477679 8.18014085 7.91846383 8.14577465C7.91181548 8.16140845 7.9047516 8.17661972 7.89838027 8.19225352L7.73604968 8.30732394 7.69920673 8.26985915 7.50778961 8.41211268 7.33839515 8.38211268 7.22814332 8.51690141 7.05874886 8.89873239 7.08825092 9.00352113 6.94822001 9.19056338 6.92619734 9.3328169 6.92425824 9.34028169 6.31496451 9.34028169C6.31801168 8.18985915 6.75043155 7.10802817 7.53382898 6.28197183zM8.01555746 8.18140845C8.0238679 8.16211268 8.03176282 8.1428169 8.04035027 8.12394366L8.0672207 8.12028169 8.03771864 8.18014085 8.01555746 8.18140845zM8.19977221 9.98408451L8.3395261 10.0438028 8.43523466 10.1635211 8.4794185 10.1338028 8.64147207 10.2387324 8.70033768 10.3135211 8.58980884 10.2684507 8.56778617 10.3135211 8.66349473 10.3657746 8.76654418 10.4483099 8.76654418 10.3956338 8.74438301 10.3135211 8.78870536 10.2387324 8.84023008 10.2085915 8.73718063 10.0812676 8.85491186 10.1412676 8.92845925 10.2387324 8.98012248 10.3732394 9.08303342 10.3956338 8.86225275 10.4332394 8.94314103 10.6128169 9.01682692 10.6204225 9.0315087 10.5453521 9.00948603 10.4556338 9.1051946 10.4483099 9.17888049 10.3208451 9.20810554 10.1338028 9.25976877 10.1112676 9.30575321 10.0374648C9.3756994 10.1814085 9.46586767 10.3135211 9.57473443 10.4278873L8.60573718 11.4132394C8.18301282 10.9759155 7.89450206 10.4049296 7.80558036 9.76929577L7.86112179 9.77450704 8.04519803 9.9615493 8.19977221 9.98408451zM7.16913919 9.22802817L7.20598214 8.98084507 7.40474016 8.87605634 7.64034112 8.93605634 7.68964973 9.0271831C7.67870765 9.13 7.67275183 9.23464789 7.6721978 9.34028169L7.31013965 9.34028169 7.30903159 9.31028169 7.16913919 9.22802817zM7.57233402 12.4642254C7.48715201 12.3766197 7.40681777 12.2853521 7.32966918 12.1919718L7.33105426 12.1921127 7.3752381 12.0349296 7.36789721 11.8552113 7.22814332 11.6083099 7.22814332 11.3539437 7.17648008 11.1892958 7.21332303 11.121831 7.06608974 10.8522535 7.08091003 10.7550704 6.99974473 10.5977465 6.91899496 10.5753521 7.05140797 10.5529577 7.01470353 10.5005634 6.92619734 10.3057746 6.77162317 10.2608451 6.80846612 10.1338028 6.7496005 9.93169014 6.82314789 9.75943662 7.00722413 9.74450704 7.05874886 9.65478873 7.04005037 9.44507042 7.15653503 9.44507042 7.22814332 9.46746479 7.31637248 9.51253521 7.31401786 9.44507042 7.67427541 9.44507042C7.67704556 9.53957746 7.68438645 9.63267606 7.69546703 9.72464789L7.69186584 9.72943662 7.61083906 9.72211268 7.49296932 9.85690141 7.59615728 9.87929577 7.70765568 9.81126761C7.80405678 10.4588732 8.10073947 11.0405634 8.53302083 11.4874648L7.57233402 12.4642254zM7.47579441 12.5623944L7.41983745 12.4525352C7.44643086 12.4812676 7.47219322 12.5102817 7.49947917 12.5384507L7.47579441 12.5623944zM7.11761447 12.1921127L7.10293269 12.1547887 7.17648008 12.1669014C7.19088484 12.1853521 7.20487408 12.2042254 7.21969437 12.2225352L7.11761447 12.1921127zM6.683394 10.2160563L6.52881983 10.2535211 6.46247482 10.1861972 6.41829098 10.1561972 6.37826236 10.1016901C6.34225046 9.88661972 6.32147436 9.6671831 6.31690362 9.44507042L6.89711081 9.44507042 6.8893544 9.47507042 6.80846612 9.61746479 6.75680288 9.62464789 6.66123283 9.93915493 6.7496005 10.0812676 6.683394 10.2160563zM6.52660371 13.5274648C6.42383127 13.4221127 6.32687614 13.3125352 6.23282967 13.2008451L6.32272092 13.2401408 6.4110886 13.1877465 6.65389194 13.3449296 6.69405907 13.3573239 6.52660371 13.5274648zM17.4812866 6.42591549C17.1089789 5.53070423 16.5757257 4.72647887 15.8969013 4.03605634 15.2177999 3.3456338 14.4270616 2.80352113 13.5465705 2.42478873 12.8497402 2.12521127 12.119668 1.93943662 11.3688198 1.86802817 11.362864 1.90549296 11.3580163 1.94014085 11.354138 1.97183099 12.0963988 2.04197183 12.8178835 2.22521127 13.5064034 2.52126761 14.3668109 2.89140845 15.1399588 3.42 15.8052095 4.09225352L14.954636 4.95746479 14.9526969 4.89619718 14.8827507 4.90323944 14.7989538 4.86056338 14.6730506 4.82507042 14.8478468 4.79676056 14.8128045 4.74690141 14.7150183 4.74690141 14.7429968 4.66887324 14.6589228 4.4556338 14.435372 4.17816901 14.2186081 4.03605634 14.0997688 3.96492958 14.0090465 3.98633803 14.0090465 3.92943662 13.7992079 3.83690141 13.716519 3.91535211C13.8705391 4.18169014 13.9496268 4.45577465 13.9634776 4.70014085 13.9741426 4.88774648 13.9655552 5.06633803 13.9386848 5.23661972L14.0090465 5.19478873 14.2327358 5.60704225 14.0788542 5.62126761 14.188275 5.73661972 13.9285737 6.00070423 13.7958837 5.83211268 13.8083494 5.70605634C13.7726145 5.79295775 13.7307853 5.87690141 13.6832772 5.95802817L13.7000366 5.99225352 13.8644448 6.01323944 13.8806502 6.04943662 13.8015625 6.12985915C13.7555781 6.08380282 13.7084856 6.03915493 13.6608391 5.99521127 13.6425561 6.02521127 13.622888 6.05450704 13.6028045 6.08352113 13.6453262 6.12309859 13.6874325 6.16267606 13.7285691 6.20408451L12.7678823 7.18098592C12.6892102 7.10225352 12.6056902 7.0284507 12.5189847 6.95901408 12.4836653 6.97535211 12.4482074 6.9915493 12.4119185 7.00704225 12.5115053 7.08366197 12.6063828 7.16619718 12.695166 7.25507042L12.5713404 7.38098592 12.5695398 7.37859155 12.5900389 7.30901408 12.4941918 7.33690141 12.3914194 7.32295775 12.3914194 7.23943662 12.2818601 7.30901408 12.1653755 7.42042254 12.2203629 7.45549296 12.336709 7.37859155 12.4531937 7.42042254 12.4531937 7.44140845 12.5314503 7.42140845 12.2624691 7.69478873 11.9461184 7.76197183 11.8569196 7.88042254 11.7954224 7.92211268 11.788497 7.98478873 11.8364206 7.97774648 11.8844826 8.01957746 11.8745101 8.08915493 11.8513793 8.11295775 11.7747848 8.09633803 11.5932017 8.12521127C11.5582978 8.09788732 11.5222859 8.07169014 11.485166 8.04760563L11.4732543 8.03352113 11.4220066 8.00943662C11.3582933 7.97225352 11.2915327 7.94098592 11.2225561 7.91323944L11.2174313 8.31C11.2153537 8.4356338 11.2134146 8.55366197 11.2114755 8.66830986L11.2539973 8.64661972 11.2908402 8.68295775 11.2099519 8.76507042C11.2091209 8.81690141 11.2082898 8.86633803 11.2075973 8.91577465L11.3609249 8.75985915 11.3294837 8.86971831 11.3744986 8.8856338 11.4067708 9.05352113 11.4937534 9.14140845 11.2883471 9.02985915 11.2721417 9.10929577C11.5404304 9.22014085 11.9069208 9.38422535 12.204296 9.61126761 12.6543063 9.95464789 12.8856136 10.4308451 12.8232853 10.8852113 12.7779934 11.2133803 12.591147 11.4932394 12.2867079 11.6978873L12.2954338 11.7329577 12.2339366 11.8095775 12.1242388 11.8235211 12.0831021 11.8933803 11.8706319 11.9838028 11.6787992 11.9767606 11.6239503 12.0604225 11.6583001 12.116338 11.6576076 12.1170423C11.6318452 12.1264789 11.6059444 12.135493 11.5797665 12.1443662L11.4458299 12.1580282 11.4116186 12.1022535 11.2609226 12.1230986 11.2589835 12.1225352C11.2305895 12.1322535 11.2034421 12.1419718 11.1760176 12.151831L11.1756021 12.26C11.1756021 12.2921127 11.1690923 12.5384507 11.1592582 12.8905634 11.64625 13.1385915 12.2500034 13.5459155 12.2242411 14.6256338 12.2242411 14.6256338 12.213299 14.8223944 12.1577576 14.9646479L12.1584501 14.9656338 12.3689812 15.0278873C11.9556754 15.1553521 11.5267182 15.2364789 11.087927 15.268169 11.0868189 15.3038028 11.0857109 15.3394366 11.0846028 15.3733803 11.5462477 15.3409859 11.9984741 15.2549296 12.4369883 15.1159155L12.5285417 15.1469014 12.6242502 15.2302817 12.7418429 15.1840845 12.9257807 15.1397183 13.0011287 15.0701408 13.206812 14.9797183 13.4122184 14.8332394 13.6451877 14.596338 13.6561298 14.5678873C14.0722058 14.3205634 14.4575332 14.0233803 14.8067102 13.6777465L15.7650424 14.6521127C15.1086561 15.3050704 14.3497745 15.8211268 13.5064034 16.1839437 12.6076293 16.5705634 11.6528984 16.7664789 10.6685268 16.7664789 9.68429373 16.7664789 8.72956273 16.5705634 7.83065018 16.1839437 6.98617102 15.8205634 6.22645833 15.3038028 5.56910256 14.6494366L6.52757326 13.6749296C7.06013393 14.2028169 7.67510646 14.6202817 8.35822459 14.9140845 8.97070398 15.1774648 9.61531708 15.3307042 10.2789057 15.3742254 10.2780746 15.3398592 10.2768281 15.3046479 10.27572 15.2687324 8.8916163 15.175493 7.60128205 14.5925352 6.60042811 13.6008451L6.80458791 13.3930986 6.97786058 13.5471831 7.33839515 13.5173239 7.48576694 13.3674648 7.68438645 13.3749296 7.86846268 13.3973239 7.96403274 13.3225352 7.95683036 13.2326761 7.85378091 13.1129577 7.72870879 12.8659155 7.60349817 12.8135211 7.52538004 12.6601408 7.57316506 12.6115493C8.30434524 13.3304225 9.23539148 13.7661972 10.237492 13.8638028 10.2365224 13.8283099 10.2356914 13.7929577 10.2348603 13.758169 9.26143086 13.6605634 8.35711653 13.2359155 7.64615842 12.5374648L8.60670673 11.5607042C8.85975962 11.8050704 9.15478022 12.0052113 9.47902587 12.1485915 9.48650527 12.1138028 9.49536973 12.0790141 9.50658883 12.044507 9.19965659 11.9069014 8.91973329 11.718169 8.67956158 11.4866197L9.64938988 10.5002817C9.80077839 10.6395775 9.98000687 10.7474648 10.1769643 10.8160563L10.1750252 10.7050704C10.0070158 10.6409859 9.85354968 10.5460563 9.72224473 10.426338L9.7859581 10.3614085 9.82003091 10.3592958 9.87861951 10.2997183 10.0082624 10.3167606 10.0836103 10.2742254 10.1674073 10.2652113 10.1644986 10.0901408 9.86850847 9.99197183 9.8577049 10.001831 9.73637248 10.0230986 9.64855884 10.1464789 9.61088484 10.3039437 9.61240842 10.3135211C9.49218407 10.1769014 9.39702953 10.0177465 9.33483974 9.84225352L9.34370421 9.79676056C9.25519803 9.75605634 9.1733402 9.71253521 9.09743819 9.66605634L9.0315087 9.69957746 8.95796131 9.65478873 8.84743246 9.69957746 8.78870536 9.64704225 8.85491186 9.57985915 8.942587 9.56197183C8.63925595 9.33309859 8.45601076 9.03943662 8.36127175 8.64929577 8.30434524 8.41478873 8.28717033 8.18746479 8.30642285 7.97098592L8.17027015 8.0228169 8.0842571 8.03253521C8.17400984 7.85183099 8.28204556 7.68239437 8.40490156 7.52507042 8.44880838 7.4028169 8.50531937 7.28535211 8.5758196 7.17450704 8.57277244 7.17760563 8.56944826 7.18042254 8.5664011 7.18366197L7.60571429 6.20690141C8.27650527 5.53126761 9.12527816 5.10422535 10.0439973 4.97056338 10.0434432 4.93591549 10.0428892 4.90070423 10.0423352 4.86535211 9.09660714 4.99985915 8.22262592 5.43788732 7.53285943 6.13267606L7.30016712 5.89605634C7.29989011 5.89690141 7.29919757 5.89774648 7.29905907 5.89830986 7.28049908 5.93676056 7.26609432 5.96985915 7.25473672 5.99816901L7.46097413 6.20788732C6.65818567 7.05380282 6.21510073 8.16183099 6.21205357 9.34028169L4.83639881 9.34028169C4.83944597 7.78830986 5.42574748 6.32901408 6.48809867 5.21873239L6.86650069 5.60338028C6.89254006 5.60661972 6.92218063 5.60830986 6.95292926 5.60577465 6.97107372 5.6043662 6.98907967 5.60140845 7.0066701 5.59774648L6.55998397 5.14352113C6.85929831 4.84140845 7.18562157 4.57788732 7.53244391 4.35183099 7.55238897 4.29225352 7.57870536 4.23380282 7.61139309 4.17788732 7.20459707 4.42676056 6.82841117 4.72492958 6.48712912 5.06943662L5.52893544 4.09507042C6.19501717 3.4215493 6.96913462 2.89169014 7.83065018 2.52126761 8.51501488 2.22704225 9.2319288 2.04394366 9.96961882 1.9728169L9.95493704 1.86901408C9.20852106 1.94140845 8.4831582 2.12690141 7.79048306 2.42478873 6.91013049 2.80352113 6.11939217 3.3456338 5.44029075 4.03605634 4.76132784 4.72647887 4.22807463 5.53070423 3.85576694 6.42591549 3.47016255 7.35295775 3.27472871 8.33760563 3.27472871 9.35267606 3.27472871 10.3676056 3.47016255 11.3521127 3.85576694 12.2792958 4.22807463 13.174507 4.76132784 13.9784507 5.44029075 14.6690141 6.11939217 15.3595775 6.91013049 15.9016901 7.79048306 16.2804225 8.70213828 16.6722535 9.67044299 16.8712676 10.6685268 16.8712676 11.6667491 16.8712676 12.6350538 16.6722535 13.5465705 16.2804225 14.4270616 15.9016901 15.2177999 15.3595775 15.8969013 14.6690141 16.5757257 13.9784507 17.1089789 13.174507 17.4812866 12.2792958 17.8670295 11.3521127 18.0623249 10.3676056 18.0623249 9.35267606 18.0623249 8.33760563 17.8670295 7.35295775 17.4812866 6.42591549zM14.7003365 9.96338028L14.5085039 10.0330986 14.5564274 10.1097183 14.6934112 10.1235211 14.7003365 9.96338028zM9.45589515 9.8456338C9.43567308 9.83732394 9.4153125 9.82873239 9.39550595 9.82014085L9.3849794 9.95422535 9.45589515 9.8456338zM9.54883356 9.88225352C9.51822344 9.87084507 9.48816735 9.85901408 9.45894231 9.84690141L9.46586767 9.93169014 9.54883356 9.88225352zM7.17024725 5.91239437C7.17648008 5.86521127 7.18534455 5.82492958 7.19531708 5.78957746L7.13534341 5.72859155C7.09074405 5.73802817 7.04586767 5.74380282 7.00168384 5.74112676L7.17024725 5.91239437zM9.9957967 8.10521127L9.9899794 8.08577465C9.99261103 8.08422535 9.99496566 8.08253521 9.9975973 8.08126761L9.9957967 8.10521127zM9.98845582 7.91816901L9.99690476 7.96492958C9.90576694 8.01084507 9.82155449 8.06788732 9.74177427 8.13084507 9.74080472 8.24028169 9.78277244 8.35647887 9.86421474 8.46267606 9.89898008 8.50816901 9.93970124 8.54704225 9.99136447 8.58408451L10.1372127 8.51985915 10.1261321 7.88295775 10.0768235 7.88802817 10.0915053 7.81323944 10.123916 7.76211268 10.1228079 7.69774648 10.0915053 7.72338028 10.0252988 7.82830986 9.98845582 7.91816901zM11.1312798 13.8550704C11.1311413 13.8564789 11.1311413 13.8576056 11.1311413 13.8591549 11.1334959 13.8588732 11.135712 13.8587324 11.1380666 13.8584507 11.135989 13.8571831 11.1334959 13.8560563 11.1312798 13.8550704zM7.38991987 10.3283099L7.36055632 10.3509859 7.33839515 10.3807042 7.28700893 10.2684507 7.26498626 10.2909859 7.28700893 10.388169 7.31637248 10.4483099 7.29434982 10.4856338 7.35321543 10.5604225 7.38991987 10.6428169 7.41942193 10.6352113 7.42676282 10.5080282 7.39739927 10.4405634 7.38991987 10.3283099zM7.33105426 9.65478873L7.38991987 9.81183099 7.35321543 9.86422535 7.36789721 9.94647887 7.34587454 10.0666197 7.3015522 10.0964789 7.3752381 10.2909859 7.39739927 10.2835211 7.3752381 10.1112676 7.43410371 9.81929577 7.38991987 9.66971831 7.33105426 9.65478873zM11.3294837 10.6253521L11.333639 10.6256338C11.3308688 10.6269014 11.3283757 10.6287324 11.3256055 10.6301408L11.3294837 10.6253521zM11.2472104 10.8553521L11.2609226 10.9108451 11.2546898 10.936338C11.4774096 10.8250704 11.5092663 10.7605634 11.5070501 10.7312676 11.4995707 10.641831 11.3689583 10.5494366 11.1818349 10.4594366 11.1807269 10.5274648 11.1796188 10.5880282 11.1786493 10.6422535L11.2160462 10.6828169C11.2034421 10.688169 11.1904224 10.6923944 11.1776797 10.6973239 11.1769872 10.7387324 11.1761561 10.7764789 11.1756021 10.8098592 11.1974863 10.8021127 11.2196474 10.7952113 11.2411161 10.7859155L11.2472104 10.8553521zM12.0695284 7.54591549L12.1721623 7.54591549 12.1926614 7.50408451 12.1036012 7.48323944 12.0695284 7.42746479 11.9598306 7.43450704 12.0146795 7.51112676 12.0146795 7.6015493 12.0695284 7.54591549zM11.9117685 7.67126761L11.863845 7.70605634 11.8433459 7.67830986 11.7132875 7.90112676 11.8296337 7.88042254 11.8365591 7.79676056 11.9256193 7.70605634 11.9940419 7.64338028 11.9529052 7.58774648 11.9117685 7.67126761zM11.4322562 7.58070423L11.2951339 7.58774648 11.2539973 7.65732394 11.2258803 7.65732394 11.2229716 7.88267606 11.3636951 7.81746479 11.4322562 7.58070423zM12.4047161 5.17704225C12.0457051 5.02253521 11.6666106 4.91760563 11.2756044 4.86352113 11.2747734 4.89873239 11.2739423 4.93422535 11.2732498 4.96859155 11.645696 5.02112676 12.0069231 5.12098592 12.3494517 5.26676056 12.3698123 5.23704225 12.3885108 5.2071831 12.4047161 5.17704225L12.4047161 5.17704225zM8.27830586 19.8902817L8.819731 19.9453521C8.819731 19.9453521 9.51115957 18.3994366 11.2513656 18.3252113 12.3685657 18.2776056 13.3455964 18.8457746 14.5355128 18.933662 15.9646314 19.0391549 16.9409696 18.7322535 17.7585783 17.9404225 16.8938771 18.4246479 15.8737706 18.2156338 14.6941037 17.9404225 13.9269116 17.7612676 13.140744 17.686338 12.5574897 17.6922535 9.85064103 17.7195775 8.27830586 19.8902817 8.27830586 19.8902817M16.4467754 14.786338C16.1934455 15.043662 15.8541026 15.3829577 15.5243166 16.1028169 15.2042262 16.8021127 15.200902 17.0835211 14.8895375 17.5926761 15.5968945 17.3232394 16.1205907 17.8425352 17.9049805 17.1707042 18.7304842 16.8602817 19.3180323 16.0695775 19.5899222 15.3829577 18.9550046 15.9666197 18.4411424 16.2628169 17.6851694 16.3761972 16.940554 16.4877465 16.4643658 16.5374648 15.8417754 16.91 16.2325046 16.4877465 16.3789068 16.2519718 16.5863908 15.6932394 16.8091106 15.0942254 16.7730987 14.5790141 17.026013 14.1167606 16.8442914 14.3507042 16.6999668 14.5290141 16.4467754 14.786338"/>
    <path d="M17.3461035,13.8915493 C17.1605037,14.8749296 17.2153526,15.6969014 16.7208814,16.3264789 C17.3794837,15.7698592 18.0211882,15.7733803 18.9061115,15.3704225 C19.9613988,14.8429577 20.5186138,13.92 20.8107257,12.5771831 C20.5766484,13.17 19.9764961,13.7302817 19.3090293,14.1539437 C18.7393487,14.5159155 18.131717,14.6935211 17.7096852,15.2216901 C17.9540121,14.923662 18.018141,14.7787324 18.0727129,14.4461972 C18.2440465,13.5356338 17.9595524,13.0194366 18.0943201,12.0688732 C17.9569208,12.4619718 17.4657738,13.2578873 17.3461035,13.8915493"/>
    <path d="M18.348204,11.0026761 C18.2804739,12.5442254 18.9009867,12.8604225 18.4544391,14.2780282 C18.8451683,13.7070423 19.3075057,13.5356338 19.9072424,12.9994366 C20.6539354,12.3284507 21.269739,11.3147887 21.2136435,9.9456338 C21.0730586,10.3284507 20.627619,11.0626761 20.1392422,11.5842254 C19.6508654,12.1057746 19.2397756,12.7302817 19.0281364,13.1607042 C19.5162363,11.4573239 18.6436401,10.8094366 18.5380975,9.78760563 C18.5109501,10.1729577 18.3724428,10.7459155 18.348204,11.0026761"/>
    <path d="M18.6389309,9.2515493 C18.5065179,8.75112676 18.5633059,8.45380282 18.4488988,7.89295775 C18.6497344,8.39366197 19.8219219,9.28070423 19.69962,10.9880282 C19.7655495,10.6750704 20.0054441,9.72704225 20.3467262,9.06408451 C20.6154304,8.54267606 20.8878743,8.02239437 20.8229144,7.25140845 C21.1315087,8.26732394 21.1158574,8.85295775 20.9816438,9.36197183 C20.8474302,9.87098592 20.5125195,10.261831 20.2247012,10.665493 C20.0356387,10.9311268 19.63466,11.4495775 19.4432429,11.931831 C19.4583402,10.8869014 18.8124805,9.90633803 18.6389309,9.2515493"/>
    <path d="M18.2657921,6.97126761 C18.0452885,6.54323944 17.960245,6.18985915 17.6750584,5.64704225 C17.8512397,5.88 18.0040133,6.0043662 18.4422505,6.38239437 C19.0457269,6.9028169 19.5044631,7.48746479 19.7433883,8.46014085 C19.7608402,7.8543662 19.8341106,7.49183099 19.956274,6.81676056 C20.0659718,6.20859155 20.0371623,5.51253521 19.7605632,4.74338028 C20.2940934,5.39957746 20.7529682,6.69239437 20.4931284,7.5615493 C20.2874451,8.38661972 19.936883,8.80408451 19.8339721,9.38661972 C19.4767617,8.2215493 18.5680151,7.55774648 18.2657921,6.97126761"/>
    <path d="M18.5549954,5.89211268 C18.2879533,5.67380282 17.6189629,5.25 17.2915316,4.85873239 C16.9650698,4.4684507 16.799138,4.09577465 16.5688004,3.75169014 C17.0514984,4.20295775 17.3149393,4.33676056 17.8071944,4.64408451 C18.2536035,4.90323944 18.8572184,5.25239437 19.1014068,5.80112676 C18.9550046,5.38915493 18.8818727,4.84295775 18.8328411,4.38338028 C18.7598478,3.69901408 18.4849107,3.28211268 18.2835211,3.03042254 C18.9418464,3.56859155 19.3404705,4.02309859 19.5166518,4.99183099 C19.6926946,5.96070423 19.492136,6.69267606 19.559312,7.21450704 C19.2098581,6.50957746 18.821899,6.11070423 18.5549954,5.89211268"/>
    <path d="M18.6742502 4.88014085C18.3811687 3.98647887 18.074929 3.45338028 17.4778239 2.94352113 16.6953961 2.27535211 15.8651832 1.96211268 15.5363668 1.80112676 16.1765476 2.26535211 16.1433059 2.66746479 16.9951259 3.48380282 17.6614847 4.12225352 18.1301935 4.17253521 18.6742502 4.88014085M13.0584707 19.8902817L12.5170456 19.9453521C12.5170456 19.9453521 11.8257555 18.3994366 10.0855495 18.3252113 8.96821085 18.2776056 7.99145719 18.8457746 6.80140224 18.933662 5.37214515 19.0391549 4.39608402 18.7322535 3.57833677 17.9404225 4.44331502 18.4246479 5.46300595 18.2156338 6.64281136 17.9404225 7.41000343 17.7612676 8.19617102 17.686338 8.77928686 17.6922535 11.4864125 17.7195775 13.0584707 19.8902817 13.0584707 19.8902817M4.89013965 14.786338C5.14346955 15.043662 5.4828125 15.3829577 5.81259844 16.1028169 6.13255037 16.8021127 6.13601305 17.0835211 6.44737752 17.5926761 5.7398821 17.3232394 5.2161859 17.8425352 3.43193452 17.1707042 2.60629235 16.8602817 2.01888278 16.0695775 1.74713141 15.3829577 2.38191049 15.9666197 2.89563416 16.2628169 3.65160714 16.3761972 4.39636103 16.4877465 4.87241071 16.5374648 5.49500114 16.91 5.10427198 16.4877465 4.95786973 16.2519718 4.75038576 15.6932394 4.52780449 15.0942254 4.56367788 14.5790141 4.31090201 14.1167606 4.49262363 14.3507042 4.63708677 14.5290141 4.89013965 14.786338"/>
    <path d="M3.99067308,13.8915493 C4.17627289,14.8749296 4.12142399,15.6969014 4.61603365,16.3264789 C3.95743132,15.7698592 3.31558837,15.7733803 2.43066506,15.3704225 C1.37551625,14.8429577 0.818301282,13.92 0.526327839,12.5771831 C0.760128205,13.17 1.36041896,13.7302817 2.02774725,14.1539437 C2.59742788,14.5159155 3.20519803,14.6935211 3.62709135,15.2216901 C3.38290293,14.923662 3.31877404,14.7787324 3.26420215,14.4461972 C3.09286859,13.5356338 3.37736264,13.0194366 3.24259501,12.0688732 C3.37999428,12.4619718 3.87127976,13.2578873 3.99067308,13.8915493"/>
    <path d="M2.98871108,11.0026761 C3.05644116,12.5442254 2.43578984,12.8604225 2.88247596,14.2780282 C2.49174679,13.7070423 2.02927083,13.5356338 1.42953411,12.9994366 C0.683118132,12.3284507 0.0671760531,11.3147887 0.12327152,9.9456338 C0.263994963,10.3284507 0.709296016,11.0626761 1.19767285,11.5842254 C1.68604968,12.1057746 2.09713942,12.7302817 2.30877862,13.1607042 C1.8206788,11.4573239 2.69327495,10.8094366 2.79867903,9.78760563 C2.82582647,10.1729577 2.9644723,10.7459155 2.98871108,11.0026761"/>
    <path d="M2.6979842,9.2515493 C2.83039721,8.75112676 2.77374771,8.45380282 2.88801625,7.89295775 C2.68704212,8.39366197 1.51513164,9.28070423 1.6372951,10.9880282 C1.57136561,10.6750704 1.33160943,9.72704225 0.990050366,9.06408451 C0.721484661,8.54267606 0.449040751,8.02239437 0.513862179,7.25140845 C0.205267857,8.26732394 0.220919185,8.85295775 0.355132784,9.36197183 C0.48948489,9.87098592 0.824395604,10.261831 1.11221383,10.665493 C1.30127633,10.9311268 1.70225504,11.4495775 1.89353365,11.931831 C1.87857486,10.8869014 2.52443452,9.90633803 2.6979842,9.2515493"/>
    <path d="M2.9683505,7.13014085 C3.2499359,6.70774648 3.3766701,6.18985915 3.66171818,5.64704225 C3.48567537,5.88 3.33290179,6.0043662 2.89466461,6.38239437 C2.29118819,6.9028169 1.83245192,7.48746479 1.59338828,8.46014085 C1.57593636,7.8543662 1.50266598,7.49183099 1.38077953,6.81676056 C1.27080472,6.20859155 1.29961424,5.51253521 1.57621337,4.74338028 C1.04282166,5.39957746 0.583946886,6.69239437 0.84378663,7.5615493 C1.0493315,8.38661972 1.39989354,8.80408451 1.50294299,9.38661972 C1.86015339,8.2215493 2.59992102,7.68267606 2.9683505,7.13014085"/>
    <path d="M2.78191964,5.89211268 C3.04896177,5.67380282 3.71795215,5.25 4.04538347,4.85873239 C4.37170673,4.4684507 4.53791552,4.09577465 4.7681147,3.75169014 C4.28527816,4.20295775 4.02183723,4.33676056 3.52958219,4.64408451 C3.08317308,4.90323944 2.47969666,5.25239437 2.23564675,5.80112676 C2.38191049,5.38915493 2.45518086,4.84295775 2.50421245,4.38338028 C2.5769288,3.69901408 2.85186584,3.28211268 3.05325549,3.03042254 C2.39506868,3.56859155 1.99630609,4.02309859 1.82040179,4.99183099 C1.64422047,5.96070423 1.84464057,6.69267606 1.77746451,7.21450704 C2.12705701,6.50957746 2.51515453,6.11070423 2.78191964,5.89211268"/>
    <path d="M2.66266484 4.88014085C2.95560783 3.98647887 3.26184753 3.45338028 3.85909112 2.94352113 4.64138049 2.27535211 5.47159341 1.96211268 5.8004098 1.80112676 5.16022894 2.26535211 5.19374771 2.66746479 4.34178915 3.48380282 3.6754304 4.12225352 3.2065831 4.17253521 2.66266484 4.88014085M10.9641014 11.0639437C10.9679796 11.0346479 11.0124405 7.53309859 11.0150721 7.41295775 10.8836287 7.43225352 10.4538404 7.54901408 10.3392949 7.59450704 10.3406799 7.67267606 10.3933127 11.2684507 10.3933127 11.2684507 10.3933127 11.2684507 10.5237866 11.2208451 10.6514904 11.1776056 10.7927679 11.1343662 10.8981719 11.0897183 10.9641014 11.0639437zM10.4312637 12.6340845C10.4219837 12.7429577 10.4941461 15.6715493 10.5188004 15.9746479 10.578774 16.7094366 10.7976156 16.7197183 10.8456777 16.0122535 10.8598054 15.8025352 10.9598077 12.3567606 10.9598077 12.2347887 10.6548146 12.3321127 10.4467766 12.4529577 10.4312637 12.6340845zM10.2764125 6.14084507C10.5049496 6.07 10.8203308 6.04056338 11.0375103 5.96169014 11.0375103 5.66633803 11.1206147 2.2 11.1326648 2.01788732 11.1667376 1.50633803 11.6504052.121971831 10.6600778.121971831 9.69523581.121971831 10.1225309 1.58197183 10.1994025 2.05619718 10.228766 2.23830986 10.2764125 5.83957746 10.2764125 6.14084507zM12.0746532 9.78676056C11.8011012 9.57788732 11.4612042 9.4243662 11.2009489 9.31661972 11.1948546 9.69042254 11.1898684 9.98591549 11.1859902 10.2190141 11.4970776 10.3570423 11.7055311 10.5105634 11.722152 10.7130986 11.7384959 10.9128169 11.5164686 11.0702817 11.1679842 11.2180282L11.1679842 11.2195775 11.1113347 11.2414085C11.0268452 11.2756338 10.9364 11.3095775 10.8401374 11.3433803 10.7653434 11.3705634 10.6701889 11.4042254 10.5559203 11.4433803 10.4390201 11.483662 10.3402644 11.5264789 10.2744734 11.5569014 9.67445971 11.8509859 9.64232601 12.2321127 9.6819391 12.5877465 9.71476534 12.8821127 9.93997825 13.0773239 10.2230872 13.2261972 10.2163004 12.8911268 10.2131147 12.6516901 10.2161619 12.6153521 10.2297356 12.4567606 10.313117 12.3423944 10.4334799 12.2523944 10.5318201 12.1673239 10.6941506 12.1028169 10.9052358 12.0187324 11.1811424 11.9088732 11.4314251 11.8416901 11.8529029 11.6773239 12.8324267 11.2950704 12.8310417 10.3640845 12.0746532 9.78676056zM11.1523329 13.133662C11.1479006 13.283662 11.1433299 13.4453521 11.1383436 13.6138028 11.514391 13.7959155 11.8487477 14.0622535 12.0083082 14.6202817 12.0296383 13.7304225 11.5879384 13.3688732 11.1523329 13.133662zM8.63413118 4.15985915L8.33467834 4.48901408 8.17553342 4.46253521 8.20780563 4.31732394 8.48246566 4.05211268 8.70837111 4.03478873 8.63413118 4.15985915zM9.32569826 4.34492958C9.51226763 4.08070423 9.76005723 3.91239437 10.0243292 3.8071831 10.0189274 3.5084507 10.0133871 3.22 10.0084009 2.96647887 9.52819597 3.08126761 9.29938187 3.25211268 9.19937958 3.28577465 8.92915179 3.37704225 8.56570856 3.35380282 8.17304029 3.7884507 8.10281708 3.86633803 7.93273008 4.08450704 7.81181319 4.26253521 7.69352793 4.43619718 7.68812614 4.71535211 7.60114354 4.86521127 7.47482486 5.08253521 7.50529647 5.20676056 7.50529647 5.20676056L7.52011676 5.2315493C7.50308036 5.28338028 7.46706845 5.36352113 7.38964286 5.45098592 7.2580609 5.59957746 7.08534226 5.6815493 6.87952038 5.64816901 7.05833333 5.73915493 7.30612294 5.61183099 7.30612294 5.61183099 7.30612294 5.61183099 7.24947344 5.76352113 7.20168842 5.98788732 7.37288347 5.59464789 7.5379842 5.40422535 7.619288 5.32676056 7.70169986 5.35014085 7.88037431 5.34943662 8.22622711 5.14774648 8.60158196 4.92873239 9.16613782 4.57070423 9.32569826 4.34492958zM13.7478217 4.71295775C13.706408 3.98605634 12.9954499 2.9884507 11.3233894 2.87380282 11.3171566 3.11507042 11.3102312 3.38957746 11.3033059 3.67450704 11.4117571 3.68802817 11.5022024 3.70478873 11.5635611 3.71957746 12.3634409 3.91253521 12.7087397 4.36690141 12.7131719 4.82802817 12.7173272 5.27830986 12.3479281 5.81366197 11.5229785 6.06070423 11.4430598 6.08464789 11.3512294 6.10859155 11.2528892 6.13309859L11.2527507 6.13943662 11.0965144 6.18422535C10.9641014 6.21267606 10.7797482 6.25760563 10.6675572 6.28197183 10.5467788 6.30830986 10.408687 6.3343662 10.3146406 6.36352113L10.0661584 6.42464789 10.0661584 6.42267606C9.88485234 6.47478873 9.72002862 6.53042254 9.59190934 6.59126761 8.70920215 7.01014085 8.36888965 7.76549296 8.57083333 8.59676056 8.6911962 9.09295775 8.96821085 9.44676056 9.70049908 9.70521127 9.85424222 9.75957746 10.0086779 9.81014085 10.1603434 9.85915493L10.143861 8.91070423C9.94815018 8.82746479 9.80368704 8.74084507 9.69398924 8.59760563 9.40575549 8.22140845 9.45326351 7.69028169 10.1183757 7.43788732L10.1182372 7.43549296 10.1518945 7.42507042C10.1614515 7.42169014 10.1699004 7.41774648 10.1795959 7.41450704 10.4974702 7.3084507 10.833766 7.23014085 11.1663221 7.15126761L11.2326671 7.13394366 11.2326671 7.13535211C11.6988828 7.02422535 12.1547104 6.90816901 12.5365751 6.70704225 13.2284192 6.3428169 13.8079338 5.76183099 13.7478217 4.71295775L13.7478217 4.71295775z"/>
  </g>
</svg>
