<?xml version="1.0" encoding="UTF-8"?>
<svg width="423px" height="70px" viewBox="0 0 423 70" version="1.1" xmlns="http://www.w3.org/2000/svg" xmlns:xlink="http://www.w3.org/1999/xlink">
    <!-- Generator: Sketch 42 (36781) - http://www.bohemiancoding.com/sketch -->
    <title>Books</title>
    <desc>Created with Sketch.</desc>
    <defs></defs>
    <g id="Landing-page-v2-(editable)" stroke="none" stroke-width="1" fill="none" fill-rule="evenodd">
        <g id="07---Landing-page-(no-country)" transform="translate(-920.000000, -129.000000)">
            <g id="Download-Toolkit" transform="translate(80.000000, 95.000000)">
                <g id="Bg-Copy">
                    <g id="Group-5" transform="translate(0.000000, 24.000000)">
                        <g id="Books" transform="translate(840.000000, 10.000000)">
                            <polygon id="Fill-1" fill="#54ABB4" points="34.7415204 76.759837 42.4395451 76.759837 42.4395451 26.5897179 34.7415204 26.5897179"></polygon>
                            <g id="Group-14" transform="translate(35.382226, 31.367825)" fill="#231F1F">
                                <polygon id="Fill-2" points="0.128619171 40.3750006 6.2875171 40.3750006 6.2875171 0.238905329 0.128619171 0.238905329"></polygon>
                                <polygon id="Fill-4" points="0.921372278 4.55598987 5.49524213 4.55598987 5.49524213 4.36384474 0.921372278 4.36384474"></polygon>
                                <polygon id="Fill-6" points="0.921372278 5.89385971 5.49524213 5.89385971 5.49524213 5.70171458 0.921372278 5.70171458"></polygon>
                                <polygon id="Fill-8" points="0.921372278 7.23220736 5.49524213 7.23220736 5.49524213 7.04006223 0.921372278 7.04006223"></polygon>
                                <polygon id="Fill-10" points="0.921372278 35.9405051 5.49524213 35.9405051 5.49524213 35.74836 0.921372278 35.74836"></polygon>
                                <polygon id="Fill-12" points="1.11645266 38.0586398 5.30016175 38.0586398 5.30016175 37.8664946 1.11645266 37.8664946"></polygon>
                            </g>
                            <polygon id="Fill-15" fill="#F3703A" points="26.9335238 76.759837 34.7415204 76.759837 34.7415204 25.873002 26.9335238 25.873002"></polygon>
                            <g id="Group-28" transform="translate(27.253876, 30.890014)" fill="#231F1F">
                                <polygon id="Fill-16" points="0.46044707 40.7811396 6.70684429 40.7811396 6.70684429 0.0716715987 0.46044707 0.0716715987"></polygon>
                                <polygon id="Fill-18" points="1.26419735 36.4553804 5.90357214 36.4553804 5.90357214 36.2577061 1.26419735 36.2577061"></polygon>
                                <polygon id="Fill-20" points="1.26419735 35.0983981 5.90357214 35.0983981 5.90357214 34.9007239 1.26419735 34.9007239"></polygon>
                                <polygon id="Fill-22" points="1.26419735 33.7414158 5.90357214 33.7414158 5.90357214 33.5437416 1.26419735 33.5437416"></polygon>
                                <polygon id="Fill-24" points="1.26419735 4.62315652 5.90357214 4.62315652 5.90357214 4.42548231 1.26419735 4.42548231"></polygon>
                                <polygon id="Fill-26" points="1.46214656 2.47444199 5.70562293 2.47444199 5.70562293 2.27676778 1.46214656 2.27676778"></polygon>
                            </g>
                            <polygon id="Fill-29" fill="#B54A16" points="10.1078412 76.759837 19.0155555 76.759837 19.0155555 18.7058421 10.1078412 18.7058421"></polygon>
                            <g id="Group-40" transform="translate(10.997178, 24.200665)">
                                <polygon id="Fill-30" fill="#FFFFFF" points="0.00143441455 46.7537729 7.12760589 46.7537729 7.12760589 0.310576928 0.00143441455 0.310576928"></polygon>
                                <polygon id="Fill-32" fill="#231F1F" points="0.918025311 41.9032657 6.21101499 41.9032657 6.21101499 41.5934178 0.918025311 41.5934178"></polygon>
                                <polygon id="Fill-34" fill="#231F1F" points="0.918025311 39.6456103 6.21101499 39.6456103 6.21101499 39.3357624 0.918025311 39.3357624"></polygon>
                                <polygon id="Fill-36" fill="#231F1F" points="1.14418467 37.1944416 5.98533377 37.1944416 5.98533377 36.8845937 1.14418467 36.8845937"></polygon>
                                <polygon id="Fill-38" fill="#231F1F" points="1.38612259 7.85759627 5.74339585 7.85759627 5.74339585 2.24571009 1.38612259 2.24571009"></polygon>
                            </g>
                            <polygon id="Fill-41" fill="#92C8CA" points="19.0150774 76.759837 26.9335238 76.759837 26.9335238 25.156286 19.0150774 25.156286"></polygon>
                            <g id="Group-52" transform="translate(19.603665, 29.934393)">
                                <polygon id="Fill-42" fill="#FFFFFF" points="0.203686866 41.6650894 6.53806151 41.6650894 6.53806151 0.382248526 0.203686866 0.382248526"></polygon>
                                <polygon id="Fill-44" fill="#231F1F" points="1.01843433 37.2813888 5.72331405 37.2813888 5.72331405 37.078107 1.01843433 37.078107"></polygon>
                                <polygon id="Fill-46" fill="#231F1F" points="1.01843433 35.274584 5.72331405 35.274584 5.72331405 35.0713023 1.01843433 35.0713023"></polygon>
                                <polygon id="Fill-48" fill="#231F1F" points="1.21925237 33.0957674 5.52249601 33.0957674 5.52249601 32.8924857 1.21925237 32.8924857"></polygon>
                                <polygon id="Fill-50" fill="#231F1F" points="1.43441455 7.09071016 5.30733383 7.09071016 5.30733383 2.10236689 1.43441455 2.10236689"></polygon>
                            </g>
                            <polygon id="Fill-53" fill="#0E424F" points="42.4395451 76.759837 52.1170619 76.759837 52.1170619 13.6888302 42.4395451 13.6888302"></polygon>
                            <g id="Group-66" transform="translate(42.076160, 18.466937)" fill="#231F1F">
                                <polygon id="Fill-54" points="0.363385019 1.21363907 10.0409018 1.21363907 10.0409018 0.0573372789 0.363385019 0.0573372789"></polygon>
                                <polygon id="Fill-56" points="0.363385019 4.15695272 10.0409018 4.15695272 10.0409018 3.00065093 0.363385019 3.00065093"></polygon>
                                <polygon id="Fill-58" points="0.363385019 50.4090244 10.0409018 50.4090244 10.0409018 49.2527226 0.363385019 49.2527226"></polygon>
                                <polygon id="Fill-60" points="0.363385019 47.4657108 10.0409018 47.4657108 10.0409018 46.309409 0.363385019 46.309409"></polygon>
                                <path d="M8.56818842,11.9357102 C8.56818842,10.0779824 7.06109687,8.5719232 5.20209561,8.5719232 C3.34309436,8.5719232 1.83600281,10.0779824 1.83600281,11.9357102 C1.83600281,13.7934381 3.34309436,15.2994973 5.20209561,15.2994973 C7.06109687,15.2994973 8.56818842,13.7934381 8.56818842,11.9357102" id="Fill-62"></path>
                                <path d="M6.88538109,11.9357102 C6.88538109,11.0068463 6.13183531,10.2538167 5.20185654,10.2538167 C4.27235592,10.2538167 3.51928828,11.0068463 3.51928828,11.9357102 C3.51928828,12.8645742 4.27235592,13.6176037 5.20185654,13.6176037 C6.13183531,13.6176037 6.88538109,12.8645742 6.88538109,11.9357102" id="Fill-64"></path>
                            </g>
                            <polygon id="Fill-67" fill="#AF9C31" points="0.320352582 76.759837 10.1078412 76.759837 10.1078412 12.9721142 0.320352582 12.9721142"></polygon>
                            <g id="Group-80" transform="translate(0.000000, 17.511315)" fill="#231F1F">
                                <polygon id="Fill-68" points="0.320352582 1.52087132 10.1078412 1.52087132 10.1078412 0.351190834 0.320352582 0.351190834"></polygon>
                                <polygon id="Fill-70" points="0.320352582 4.49763172 10.1078412 4.49763172 10.1078412 3.32795123 0.320352582 3.32795123"></polygon>
                                <polygon id="Fill-72" points="0.320352582 51.2748173 10.1078412 51.2748173 10.1078412 50.1056146 0.320352582 50.1056146"></polygon>
                                <polygon id="Fill-74" points="0.320352582 48.2985347 10.1078412 48.2985347 10.1078412 47.1288542 0.320352582 47.1288542"></polygon>
                                <path d="M8.618632,12.3644975 C8.618632,10.485746 7.09432747,8.96248563 5.21428814,8.96248563 C3.33377066,8.96248563 1.80994428,10.485746 1.80994428,12.3644975 C1.80994428,14.243249 3.33377066,15.7665094 5.21428814,15.7665094 C7.09432747,15.7665094 8.618632,14.243249 8.618632,12.3644975" id="Fill-76"></path>
                                <path d="M6.91617318,12.3644975 C6.91617318,11.4251218 6.15402092,10.6634916 5.21400125,10.6634916 C4.27398159,10.6634916 3.51182932,11.4251218 3.51182932,12.3644975 C3.51182932,13.3038733 4.27398159,14.0655035 5.21400125,14.0655035 C6.15402092,14.0655035 6.91617318,13.3038733 6.91617318,12.3644975" id="Fill-78"></path>
                            </g>
                            <polygon id="Fill-81" fill="#0E424F" points="222.333777 17.9683413 213.373945 16.9515603 206.737866 75.346712 215.697697 76.3639709"></polygon>
                            <g id="Group-94" transform="translate(207.990109, 22.767233)" fill="#231F1F">
                                <polygon id="Fill-82" points="12.784124 0.939041286 5.61635453 0.125329736 0.307108155 46.8418334 7.47535579 47.6550671"></polygon>
                                <polygon id="Fill-84" points="7.14314538 42.3599694 1.81907672 41.7555389 1.77460986 42.1449546 7.09915667 42.7493851"></polygon>
                                <polygon id="Fill-86" points="7.32010432 40.80288 1.99603566 40.1984495 1.95156881 40.5878652 7.27611561 41.1918179"></polygon>
                                <polygon id="Fill-88" points="7.49706326 39.2455518 2.1729946 38.6411213 2.12852775 39.030537 7.45307455 39.6349674"></polygon>
                                <polygon id="Fill-90" points="11.294628 5.83053233 5.97008116 5.22610185 5.92561431 5.61551754 11.2501611 6.21994802"></polygon>
                                <polygon id="Fill-92" points="11.3473666 3.33908422 6.47752922 2.7867351 6.4335405 3.17567298 11.3028998 3.72849991"></polygon>
                            </g>
                            <polygon id="Fill-95" fill="#744C4C" points="271.510767 76.759837 280.96834 76.759837 280.96834 15.1222622 271.510767 15.1222622"></polygon>
                            <g id="Group-108" transform="translate(271.104350, 19.422558)" fill="#231F1F">
                                <polygon id="Fill-96" points="0.406417455 1.55527369 9.86399071 1.55527369 9.86399071 0.425251485 0.406417455 0.425251485"></polygon>
                                <polygon id="Fill-98" points="0.406417455 4.43169385 9.86399071 4.43169385 9.86399071 3.30167165 0.406417455 3.30167165"></polygon>
                                <polygon id="Fill-100" points="0.406417455 49.6325821 9.86399071 49.6325821 9.86399071 48.5025599 0.406417455 48.5025599"></polygon>
                                <polygon id="Fill-102" points="0.406417455 46.7561619 9.86399071 46.7561619 9.86399071 45.6261397 0.406417455 45.6261397"></polygon>
                                <path d="M8.42484259,12.0337092 C8.42484259,10.2180287 6.95217699,8.74637187 5.1352519,8.74637187 C3.3183268,8.74637187 1.8456612,10.2180287 1.8456612,12.0337092 C1.8456612,13.8493897 3.3183268,15.3210465 5.1352519,15.3210465 C6.95217699,15.3210465 8.42484259,13.8493897 8.42484259,12.0337092" id="Fill-104"></path>
                                <path d="M6.77985599,12.0337092 C6.77985599,11.1258689 6.04352319,10.3900405 5.13553878,10.3900405 C4.22659809,10.3900405 3.49026529,11.1258689 3.49026529,12.0337092 C3.49026529,12.9415494 4.22659809,13.6773779 5.13553878,13.6773779 C6.04352319,13.6773779 6.77985599,12.9415494 6.77985599,12.0337092" id="Fill-106"></path>
                            </g>
                            <polygon id="Fill-109" fill="#BC8F6E" points="232.580278 76.759837 242.368245 76.759837 242.368245 12.9721142 232.580278 12.9721142"></polygon>
                            <g id="Group-122" transform="translate(232.375157, 17.511315)" fill="#231F1F">
                                <polygon id="Fill-110" points="0.20512128 1.52087132 9.99308802 1.52087132 9.99308802 0.351190834 0.20512128 0.351190834"></polygon>
                                <polygon id="Fill-112" points="0.20512128 4.49763172 9.99308802 4.49763172 9.99308802 3.32795123 0.20512128 3.32795123"></polygon>
                                <polygon id="Fill-114" points="0.20512128 51.2748173 9.99308802 51.2748173 9.99308802 50.1056146 0.20512128 50.1056146"></polygon>
                                <polygon id="Fill-116" points="0.20512128 48.2985347 9.99308802 48.2985347 9.99308802 47.1288542 0.20512128 47.1288542"></polygon>
                                <path d="M8.50378321,12.3644975 C8.50378321,10.485746 6.97947868,8.96248563 5.09943935,8.96248563 C3.21892187,8.96248563 1.69509549,10.485746 1.69509549,12.3644975 C1.69509549,14.243249 3.21892187,15.7665094 5.09943935,15.7665094 C6.97947868,15.7665094 8.50378321,14.243249 8.50378321,12.3644975" id="Fill-118"></path>
                                <path d="M6.80132439,12.3644975 C6.80132439,11.4251218 6.03917213,10.6634916 5.09915246,10.6634916 C4.15961093,10.6634916 3.39745867,11.4251218 3.39745867,12.3644975 C3.39745867,13.3038733 4.15961093,14.0655035 5.09915246,14.0655035 C6.03917213,14.0655035 6.80132439,13.3038733 6.80132439,12.3644975" id="Fill-120"></path>
                            </g>
                            <polygon id="Fill-123" fill="#54ABB4" points="306.151878 76.759837 316.049339 76.759837 316.049339 12.2553982 306.151878 12.2553982"></polygon>
                            <g id="Group-132" transform="translate(306.008437, 19.900369)">
                                <polygon id="Fill-124" fill="#231F1F" points="0.143441455 7.62107999 10.0409018 7.62107999 10.0409018 6.43849861 0.143441455 6.43849861"></polygon>
                                <polygon id="Fill-126" fill="#231F1F" points="0.143441455 1.6006657 10.0409018 1.6006657 10.0409018 0.418084326 0.143441455 0.418084326"></polygon>
                                <polygon id="Fill-128" fill="#231F1F" points="0.143441455 4.61087285 10.0409018 4.61087285 10.0409018 3.42829147 0.143441455 3.42829147"></polygon>
                                <polygon id="Fill-130" fill="#FFFFFF" points="2.18796032 47.6138321 7.9968611 47.6138321 7.9968611 37.5081366 2.18796032 37.5081366"></polygon>
                            </g>
                            <polygon id="Fill-133" fill="#F3703A" points="290.095998 76.759837 298.343882 76.759837 298.343882 23.006138 290.095998 23.006138"></polygon>
                            <g id="Group-142" transform="translate(289.751739, 29.456582)">
                                <polygon id="Fill-134" fill="#231F1F" points="0.344259492 6.27126488 8.59214314 6.27126488 8.59214314 5.2855415 0.344259492 5.2855415"></polygon>
                                <polygon id="Fill-136" fill="#231F1F" points="0.344259492 1.25425298 8.59214314 1.25425298 8.59214314 0.26852959 0.344259492 0.26852959"></polygon>
                                <polygon id="Fill-138" fill="#231F1F" points="0.344259492 3.76275893 8.59214314 3.76275893 8.59214314 2.77703554 0.344259492 2.77703554"></polygon>
                                <polygon id="Fill-140" fill="#FFFFFF" points="2.0473877 39.5985583 6.8885368 39.5985583 6.8885368 31.1771454 2.0473877 31.1771454"></polygon>
                            </g>
                            <polygon id="Fill-143" fill="#0E424F" points="252.155733 76.759837 261.83325 76.759837 261.83325 13.6888302 252.155733 13.6888302"></polygon>
                            <g id="Group-152" transform="translate(251.978822, 21.333801)">
                                <polygon id="Fill-144" fill="#231F1F" points="0.176911128 7.28183443 9.85442794 7.28183443 9.85442794 6.12553263 0.176911128 6.12553263"></polygon>
                                <polygon id="Fill-146" fill="#231F1F" points="0.176911128 1.39520712 9.85442794 1.39520712 9.85442794 0.238905329 0.176911128 0.238905329"></polygon>
                                <polygon id="Fill-148" fill="#231F1F" points="0.176911128 4.33852077 9.85442794 4.33852077 9.85442794 3.18221898 0.176911128 3.18221898"></polygon>
                                <polygon id="Fill-150" fill="#FFFFFF" points="2.17552873 46.3858587 7.85581034 46.3858587 7.85581034 36.5047343 2.17552873 36.5047343"></polygon>
                            </g>
                            <polygon id="Fill-153" fill="#FDCC94" points="242.368245 76.759837 252.155733 76.759837 252.155733 12.9721142 242.368245 12.9721142"></polygon>
                            <g id="Group-162" transform="translate(241.937920, 20.855990)">
                                <polygon id="Fill-154" fill="#231F1F" points="0.430324364 7.21255188 10.217813 7.21255188 10.217813 6.04287139 0.430324364 6.04287139"></polygon>
                                <polygon id="Fill-156" fill="#231F1F" points="0.430324364 1.25903108 10.217813 1.25903108 10.217813 0.0898284037 0.430324364 0.0898284037"></polygon>
                                <polygon id="Fill-158" fill="#231F1F" points="0.430324364 4.23579148 10.217813 4.23579148 10.217813 3.06611099 0.430324364 3.06611099"></polygon>
                                <polygon id="Fill-160" fill="#FFFFFF" points="2.45141446 46.76094 8.19672287 46.76094 8.19672287 36.7675301 2.45141446 36.7675301"></polygon>
                            </g>
                            <polygon id="Fill-163" fill="#744C4C" points="298.343882 76.759837 306.151878 76.759837 306.151878 25.873002 298.343882 25.873002"></polygon>
                            <g id="Group-172" transform="translate(297.880088, 31.845635)">
                                <polygon id="Fill-164" fill="#231F1F" points="0.463794037 6.07058441 8.27179056 6.07058441 8.27179056 5.13742019 0.463794037 5.13742019"></polygon>
                                <polygon id="Fill-166" fill="#231F1F" points="0.463794037 1.32114647 8.27179056 1.32114647 8.27179056 0.387982254 0.463794037 0.387982254"></polygon>
                                <polygon id="Fill-168" fill="#231F1F" points="0.463794037 3.69586544 8.27179056 3.69586544 8.27179056 2.76317903 0.463794037 2.76317903"></polygon>
                                <polygon id="Fill-170" fill="#FFFFFF" points="2.07655413 37.6204221 6.65950861 37.6204221 6.65950861 29.6481513 2.07655413 29.6481513"></polygon>
                            </g>
                            <polygon id="Fill-173" fill="#AF9C31" points="261.833728 76.759837 271.510767 76.759837 271.510767 13.6888302 261.833728 13.6888302"></polygon>
                            <g id="Group-182" transform="translate(261.541586, 21.333801)">
                                <polygon id="Fill-174" fill="#231F1F" points="0.29214243 7.28183443 9.96918111 7.28183443 9.96918111 6.12553263 0.29214243 6.12553263"></polygon>
                                <polygon id="Fill-176" fill="#231F1F" points="0.29214243 1.39520712 9.96918111 1.39520712 9.96918111 0.238905329 0.29214243 0.238905329"></polygon>
                                <polygon id="Fill-178" fill="#231F1F" points="0.29214243 4.33852077 9.96918111 4.33852077 9.96918111 3.18221898 0.29214243 3.18221898"></polygon>
                                <polygon id="Fill-180" fill="#FFFFFF" points="2.29028189 46.3858587 7.9705635 46.3858587 7.9705635 36.5047343 2.29028189 36.5047343"></polygon>
                            </g>
                            <polygon id="Fill-183" fill="#BC8F6E" points="280.96834 76.759837 290.095998 76.759837 290.095998 17.2724101 280.96834 17.2724101"></polygon>
                            <g id="Group-192" transform="translate(280.667113, 24.678475)">
                                <polygon id="Fill-184" fill="#231F1F" points="0.301227055 6.67262584 9.42888496 6.67262584 9.42888496 5.58226192 0.301227055 5.58226192"></polygon>
                                <polygon id="Fill-186" fill="#231F1F" points="0.301227055 1.12046599 9.42888496 1.12046599 9.42888496 0.0296242608 0.301227055 0.0296242608"></polygon>
                                <polygon id="Fill-188" fill="#231F1F" points="0.301227055 3.89654591 9.42888496 3.89654591 9.42888496 2.80618199 0.301227055 2.80618199"></polygon>
                                <polygon id="Fill-190" fill="#FFFFFF" points="2.18604777 43.5548305 7.54358611 43.5548305 7.54358611 34.2351336 2.18604777 34.2351336"></polygon>
                            </g>
                            <polygon id="Fill-193" fill="#54ABB4" points="222.683774 76.759837 232.580756 76.759837 232.580756 12.2553982 222.683774 12.2553982"></polygon>
                            <g id="Group-202" transform="translate(222.334255, 21.333801)">
                                <polygon id="Fill-194" fill="#231F1F" points="0.349519012 41.3425672 10.2465013 41.3425672 10.2465013 40.1599858 0.349519012 40.1599858"></polygon>
                                <polygon id="Fill-196" fill="#231F1F" points="0.349519012 47.3629815 10.2465013 47.3629815 10.2465013 46.1804001 0.349519012 46.1804001"></polygon>
                                <polygon id="Fill-198" fill="#231F1F" points="0.349519012 44.3527743 10.2465013 44.3527743 10.2465013 43.1701929 0.349519012 43.1701929"></polygon>
                                <polygon id="Fill-200" fill="#FFFFFF" points="2.3930816 10.2729291 8.20246052 10.2729291 8.20246052 0.16723373 2.3930816 0.16723373"></polygon>
                            </g>
                            <polygon id="Fill-270" fill="#0E424F" points="136.983338 33.7603658 130.522257 34.6476602 136.311554 76.7561579 142.772635 75.8688635"></polygon>
                            <g id="Group-283" transform="translate(130.531724, 36.623742)" fill="#231F1F">
                                <polygon id="Fill-271" points="6.89566106 0.365142905 0.434101656 1.25195949 0.540248333 2.02410151 7.00180773 1.13680712"></polygon>
                                <polygon id="Fill-273" points="7.16552225 2.33004367 0.704440984 3.21733806 0.810587661 3.98948009 7.27166892 3.1021857"></polygon>
                                <polygon id="Fill-275" points="11.4113415 33.2099431 4.94978209 34.0967597 5.05640691 34.8689017 11.5174882 33.9820851"></polygon>
                                <polygon id="Fill-277" points="11.1410022 31.2448034 4.6799209 32.13162 4.78606758 32.903762 11.2471488 32.0169454"></polygon>
                                <path d="M7.00257275,8.43049125 C6.83235556,7.19009478 5.68769275,6.32286844 4.44644603,6.49344684 C3.20519931,6.66354743 2.33737851,7.80742615 2.50807384,9.04782262 C2.67829103,10.2877413 3.82295384,11.1554454 5.06372242,10.984867 C6.30496915,10.8142886 7.17278995,9.67088771 7.00257275,8.43049125" id="Fill-279"></path>
                                <path d="M5.87866114,8.58472853 C5.79355255,7.96453029 5.22122114,7.53067822 4.60059778,7.61620632 C3.97997442,7.70125662 3.54630309,8.27319598 3.63188982,8.89339421 C3.71699842,9.51359245 4.28932982,9.94744452 4.90947505,9.86191642 C5.53009841,9.77686612 5.96424788,9.20492676 5.87866114,8.58472853" id="Fill-281"></path>
                            </g>
                            <polygon id="Fill-284" fill="#0E424F" points="70.9174552 76.8410648 80.0451132 76.8410648 80.0451132 17.3536379 70.9174552 17.3536379"></polygon>
                            <g id="Group-297" transform="translate(71.720727, 23.245043)" fill="#231F1F">
                                <polygon id="Fill-285" points="0.109493644 47.6472788 7.41161997 47.6472788 7.41161997 0.0573372789 0.109493644 0.0573372789"></polygon>
                                <polygon id="Fill-287" points="1.04855703 5.29028734 6.47255658 5.29028734 6.47255658 4.94868498 1.04855703 4.94868498"></polygon>
                                <polygon id="Fill-289" points="1.04855703 6.87661873 6.47255658 6.87661873 6.47255658 6.53501637 1.04855703 6.53501637"></polygon>
                                <polygon id="Fill-291" points="1.04855703 8.46295011 6.47255658 8.46295011 6.47255658 8.12134775 1.04855703 8.12134775"></polygon>
                                <polygon id="Fill-293" points="1.04855703 42.5026592 6.47255658 42.5026592 6.47255658 42.1610568 1.04855703 42.1610568"></polygon>
                                <polygon id="Fill-295" points="1.28045405 45.0145098 6.2411377 45.0145098 6.2411377 44.6729075 1.28045405 44.6729075"></polygon>
                            </g>
                            <polygon id="Fill-298" fill="#B54A16" points="97.6401201 76.8410648 105.77851 76.8410648 105.77851 23.8040818 97.6401201 23.8040818"></polygon>
                            <g id="Group-311" transform="translate(98.018327, 28.978771)" fill="#231F1F">
                                <polygon id="Fill-299" points="0.436062023 42.5585953 6.94639152 42.5585953 6.94639152 0.129008878 0.436062023 0.129008878"></polygon>
                                <polygon id="Fill-301" points="1.27328198 4.70582846 6.10869342 4.70582846 6.10869342 4.48998675 1.27328198 4.48998675"></polygon>
                                <polygon id="Fill-303" points="1.27328198 6.12014801 6.10869342 6.12014801 6.10869342 5.9043063 1.27328198 5.9043063"></polygon>
                                <polygon id="Fill-305" points="1.27328198 7.53446756 6.10869342 7.53446756 6.10869342 7.31862585 1.27328198 7.31862585"></polygon>
                                <polygon id="Fill-307" points="1.27328198 37.8830893 6.10869342 37.8830893 6.10869342 37.6672476 1.27328198 37.6672476"></polygon>
                                <polygon id="Fill-309" points="1.47983768 40.1225879 5.90261586 40.1225879 5.90261586 39.9067461 1.47983768 39.9067461"></polygon>
                            </g>
                            <polygon id="Fill-312" fill="#744C4C" points="61.6798256 76.8410648 70.9174552 76.8410648 70.9174552 16.6369219 61.6798256 16.6369219"></polygon>
                            <g id="Group-325" transform="translate(62.157964, 22.289422)" fill="#231F1F">
                                <polygon id="Fill-313" points="0.445624786 48.5312285 7.83572854 48.5312285 7.83572854 0.367914207 0.445624786 0.367914207"></polygon>
                                <polygon id="Fill-315" points="1.39616349 5.67639766 6.88518983 5.67639766 6.88518983 5.31803262 1.39616349 5.31803262"></polygon>
                                <polygon id="Fill-317" points="1.39616349 7.28184147 6.88518983 7.28184147 6.88518983 6.92347643 1.39616349 6.92347643"></polygon>
                                <polygon id="Fill-319" points="1.39616349 8.88728528 6.88518983 8.88728528 6.88518983 8.52892024 1.39616349 8.52892024"></polygon>
                                <polygon id="Fill-321" points="1.39616349 43.3374337 6.88518983 43.3374337 6.88518983 42.9790687 1.39616349 42.9790687"></polygon>
                                <polygon id="Fill-323" points="1.6304512 45.8793864 6.65090212 45.8793864 6.65090212 45.5210214 1.6304512 45.5210214"></polygon>
                            </g>
                            <polygon id="Fill-326" fill="#AF9C31" points="113.586507 76.8410648 121.394503 76.8410648 121.394503 25.9542298 113.586507 25.9542298"></polygon>
                            <g id="Group-339" transform="translate(114.275026, 30.890014)" fill="#231F1F">
                                <polygon id="Fill-327" points="0.0927588074 40.8623675 6.33867789 40.8623675 6.33867789 0.152899411 0.0927588074 0.152899411"></polygon>
                                <polygon id="Fill-329" points="0.895552816 4.53476154 5.53540574 4.53476154 5.53540574 4.33708734 0.895552816 4.33708734"></polygon>
                                <polygon id="Fill-331" points="0.895552816 5.89174381 5.53540574 5.89174381 5.53540574 5.69406961 0.895552816 5.69406961"></polygon>
                                <polygon id="Fill-333" points="0.895552816 7.24872608 5.53540574 7.24872608 5.53540574 7.05105188 0.895552816 7.05105188"></polygon>
                                <polygon id="Fill-335" points="0.895552816 36.3669854 5.53540574 36.3669854 5.53540574 36.1693112 0.895552816 36.1693112"></polygon>
                                <polygon id="Fill-337" points="1.09350202 38.5156999 5.33697839 38.5156999 5.33697839 38.3180257 1.09350202 38.3180257"></polygon>
                            </g>
                            <polygon id="Fill-340" fill="#744C4C" points="80.0451132 76.8410648 88.9528275 76.8410648 88.9528275 18.7870699 80.0451132 18.7870699"></polygon>
                            <g id="Group-353" transform="translate(80.805353, 24.200665)" fill="#231F1F">
                                <polygon id="Fill-341" points="0.131009862 46.8350007 7.2567032 46.8350007 7.2567032 0.391804739 0.131009862 0.391804739"></polygon>
                                <polygon id="Fill-343" points="1.04712262 41.9844935 6.3401123 41.9844935 6.3401123 41.6746456 1.04712262 41.6746456"></polygon>
                                <polygon id="Fill-345" points="1.04712262 40.436387 6.3401123 40.436387 6.3401123 40.126539 1.04712262 40.126539"></polygon>
                                <polygon id="Fill-347" points="1.04712262 38.8882804 6.3401123 38.8882804 6.3401123 38.5784325 1.04712262 38.5784325"></polygon>
                                <polygon id="Fill-349" points="1.04712262 5.66849444 6.3401123 5.66849444 6.3401123 5.35864653 1.04712262 5.35864653"></polygon>
                                <polygon id="Fill-351" points="1.27280384 3.21732576 6.11395294 3.21732576 6.11395294 2.90747785 1.27280384 2.90747785"></polygon>
                            </g>
                            <polygon id="Fill-354" fill="#DF8121" points="121.394025 76.8410648 130.522161 76.8410648 130.522161 17.3536379 121.394025 17.3536379"></polygon>
                            <g id="Group-367" transform="translate(121.925237, 23.245043)" fill="#231F1F">
                                <polygon id="Fill-355" points="0.382032408 47.6472788 7.68415873 47.6472788 7.68415873 0.0573372789 0.382032408 0.0573372789"></polygon>
                                <polygon id="Fill-357" points="1.3210958 42.7009506 6.7446172 42.7009506 6.7446172 42.3593483 1.3210958 42.3593483"></polygon>
                                <polygon id="Fill-359" points="1.3210958 41.1146192 6.7446172 41.1146192 6.7446172 40.7730169 1.3210958 40.7730169"></polygon>
                                <polygon id="Fill-361" points="1.3210958 39.5282878 6.7446172 39.5282878 6.7446172 39.1866855 1.3210958 39.1866855"></polygon>
                                <polygon id="Fill-363" points="1.3210958 5.48857877 6.7446172 5.48857877 6.7446172 5.14697641 1.3210958 5.14697641"></polygon>
                                <polygon id="Fill-365" points="1.55251468 2.97672814 6.51319832 2.97672814 6.51319832 2.63512578 1.55251468 2.63512578"></polygon>
                            </g>
                            <polygon id="Fill-368" fill="#BC8F6E" points="88.9528275 76.8410648 97.6405983 76.8410648 97.6405983 20.2205019 88.9528275 20.2205019"></polygon>
                            <g id="Group-381" transform="translate(88.933702, 27.067529)" fill="#231F1F">
                                <polygon id="Fill-371" points="0.0191255273 42.7903335 8.70689631 42.7903335 8.70689631 41.7520509 0.0191255273 41.7520509"></polygon>
                                <polygon id="Fill-373" points="0.0191255273 1.2685873 8.70689631 1.2685873 8.70689631 0.230782548 0.0191255273 0.230782548"></polygon>
                                <polygon id="Fill-375" points="0.0191255273 3.91088023 8.70689631 3.91088023 8.70689631 2.87307549 0.0191255273 2.87307549"></polygon>
                                <path d="M7.38498767,34.7691348 C7.38498767,36.436694 6.03185662,37.7888982 4.36315436,37.7888982 C2.69397396,37.7888982 1.34084291,36.436694 1.34084291,34.7691348 C1.34084291,33.1015756 2.69397396,31.7493715 4.36315436,31.7493715 C6.03185662,31.7493715 7.38498767,33.1015756 7.38498767,34.7691348" id="Fill-377"></path>
                                <path d="M5.8740232,34.7691348 C5.8740232,35.6029144 5.19745767,36.2790165 4.36310654,36.2790165 C3.52875542,36.2790165 2.85218989,35.6029144 2.85218989,34.7691348 C2.85218989,33.9353552 3.52875542,33.2592531 4.36310654,33.2592531 C5.19745767,33.2592531 5.8740232,33.9353552 5.8740232,34.7691348" id="Fill-379"></path>
                            </g>
                            <polygon id="Fill-382" fill="#FDCC94" points="105.778988 76.8410648 113.586507 76.8410648 113.586507 25.9542298 105.778988 25.9542298"></polygon>
                            <polygon id="Fill-383" fill="#FFFFFF" points="107.730748 41.5595259 111.634747 41.5595259 111.634747 25.9542298 107.730748 25.9542298"></polygon>
                            <polygon id="Fill-385" fill="#AF9C31" points="415.713131 12.2532958 406.001188 13.4683683 413.933022 76.7620349 423.644965 75.5464846"></polygon>
                            <g id="Group-398" transform="translate(406.417455, 17.033505)" fill="#231F1F">
                                <polygon id="Fill-386" points="9.90362836 0.0721016283 0.191685597 1.28765194 0.337517743 2.44825403 10.0494605 1.23270372"></polygon>
                                <polygon id="Fill-388" points="10.2738986 3.0259749 0.561955806 4.2410474 0.707787952 5.40164949 10.4192526 4.18609917"></polygon>
                                <polygon id="Fill-390" points="16.0904496 49.4410278 6.3785068 50.6561003 6.52433894 51.8167024 16.2358036 50.6011521"></polygon>
                                <polygon id="Fill-392" points="15.7201794 46.4873934 6.00823659 47.7024659 6.15406873 48.863068 15.8660115 47.6475177"></polygon>
                                <path d="M9.91950255,12.1773869 C9.68617112,10.3129697 7.98447733,8.99086759 6.11878214,9.224517 C4.25308695,9.45816641 2.9300786,11.1586945 3.16388817,13.0231117 C3.3972196,14.8870511 5.09939153,16.2091532 6.96460858,15.9759816 C8.83030377,15.7423322 10.1533121,14.0418041 9.91950255,12.1773869" id="Fill-394"></path>
                                <path d="M8.23062286,12.3887703 C8.11395715,11.4565617 7.26334932,10.7957496 6.33002359,10.9123354 C5.39717599,11.0289212 4.73591089,11.8794241 4.85305474,12.8116327 C4.96972046,13.7433635 5.82032828,14.4046535 6.75317588,14.2880677 C7.68602347,14.1710041 8.34728858,13.3209789 8.23062286,12.3887703" id="Fill-396"></path>
                            </g>
                            <polygon id="Fill-399" fill="#54ABB4" points="335.510041 76.759837 344.747192 76.759837 344.747192 16.5556941 335.510041 16.5556941"></polygon>
                            <g id="Group-412" transform="translate(336.131142, 22.289422)" fill="#231F1F">
                                <polygon id="Fill-400" points="0.302183331 48.4500007 7.69228708 48.4500007 7.69228708 0.286686395 0.302183331 0.286686395"></polygon>
                                <polygon id="Fill-402" points="1.25320018 43.4568864 6.74174838 43.4568864 6.74174838 43.0985213 1.25320018 43.0985213"></polygon>
                                <polygon id="Fill-404" points="1.25320018 41.8514426 6.74174838 41.8514426 6.74174838 41.4930775 1.25320018 41.4930775"></polygon>
                                <polygon id="Fill-406" points="1.25320018 40.2459988 6.74174838 40.2459988 6.74174838 39.8876337 1.25320018 39.8876337"></polygon>
                                <polygon id="Fill-408" points="1.25320018 5.79585033 6.74174838 5.79585033 6.74174838 5.43748529 1.25320018 5.43748529"></polygon>
                                <polygon id="Fill-410" points="1.48700975 3.25389763 6.50746067 3.25389763 6.50746067 2.89553259 1.48700975 2.89553259"></polygon>
                            </g>
                            <polygon id="Fill-413" fill="#54ABB4" points="371.14042 76.759837 379.608247 76.759837 379.608247 21.572706 371.14042 21.572706"></polygon>
                            <g id="Group-424" transform="translate(371.513368, 27.067529)">
                                <polygon id="Fill-414" fill="#FFFFFF" points="0.473834939 44.1735953 7.24809671 44.1735953 7.24809671 0.0238905329 0.473834939 0.0238905329"></polygon>
                                <polygon id="Fill-416" fill="#231F1F" points="1.34548085 39.5209429 6.37692894 39.5209429 6.37692894 39.2679133 1.34548085 39.2679133"></polygon>
                                <polygon id="Fill-418" fill="#231F1F" points="1.34548085 37.3750953 6.37692894 37.3750953 6.37692894 37.1220656 1.34548085 37.1220656"></polygon>
                                <polygon id="Fill-420" fill="#231F1F" points="1.56016489 35.0448127 6.1622449 35.0448127 6.1622449 34.7917831 1.56016489 34.7917831"></polygon>
                                <polygon id="Fill-422" fill="#231F1F" points="1.79014936 7.19821756 5.93178229 7.19821756 5.93178229 1.86346157 1.79014936 1.86346157"></polygon>
                            </g>
                            <polygon id="Fill-425" fill="#AF9C31" points="379.608247 76.759837 388.076075 76.759837 388.076075 21.572706 379.608247 21.572706"></polygon>
                            <g id="Group-438" transform="translate(379.163579, 28.023150)" fill="#231F1F">
                                <polygon id="Fill-428" points="0.44466851 41.9302743 8.91249572 41.9302743 8.91249572 40.9182713 0.44466851 40.9182713"></polygon>
                                <polygon id="Fill-430" points="0.44466851 1.45971156 8.91249572 1.45971156 8.91249572 0.448186397 0.44466851 0.448186397"></polygon>
                                <polygon id="Fill-432" points="0.44466851 4.03511101 8.91249572 4.03511101 8.91249572 3.02358584 0.44466851 3.02358584"></polygon>
                                <path d="M7.62405676,34.1121452 C7.62405676,35.737657 6.30535166,37.0554588 4.67872556,37.0554588 C3.05162132,37.0554588 1.73339435,35.737657 1.73339435,34.1121452 C1.73339435,32.4866333 3.05162132,31.1688315 4.67872556,31.1688315 C6.30535166,31.1688315 7.62405676,32.4866333 7.62405676,34.1121452" id="Fill-434"></path>
                                <path d="M6.15134335,34.1121452 C6.15134335,34.9249011 5.49199079,35.583802 4.67867774,35.583802 C3.8653647,35.583802 3.20601214,34.9249011 3.20601214,34.1121452 C3.20601214,33.2993892 3.8653647,32.6404883 4.67867774,32.6404883 C5.49199079,32.6404883 6.15134335,33.2993892 6.15134335,34.1121452" id="Fill-436"></path>
                            </g>
                            <polygon id="Fill-439" fill="#FDCC94" points="344.747192 76.759837 353.764879 76.759837 353.764879 17.9891261 344.747192 17.9891261"></polygon>
                            <g id="Group-452" transform="translate(344.737630, 22.289422)" fill="#231F1F">
                                <polygon id="Fill-440" points="0.00956276365 1.28292162 9.02724889 1.28292162 9.02724889 0.205458583 0.00956276365 0.205458583"></polygon>
                                <polygon id="Fill-442" points="0.00956276365 4.02555479 9.02724889 4.02555479 9.02724889 2.94809176 0.00956276365 2.94809176"></polygon>
                                <polygon id="Fill-444" points="0.00956276365 47.1240761 9.02724889 47.1240761 9.02724889 46.0466131 0.00956276365 46.0466131"></polygon>
                                <polygon id="Fill-446" points="0.00956276365 44.381443 9.02724889 44.381443 9.02724889 43.3039799 0.00956276365 43.3039799"></polygon>
                                <path d="M7.65489668,11.2737991 C7.65489668,9.54269112 6.25060483,8.13936121 4.5183102,8.13936121 C2.78601556,8.13936121 1.38172372,9.54269112 1.38172372,11.2737991 C1.38172372,13.0049071 2.78601556,14.408237 4.5183102,14.408237 C6.25060483,14.408237 7.65489668,13.0049071 7.65489668,11.2737991" id="Fill-448"></path>
                                <path d="M6.08693813,11.2737991 C6.08693813,10.4080062 5.38455314,9.70658017 4.5186449,9.70658017 C3.65225851,9.70658017 2.94987352,10.4080062 2.94987352,11.2737991 C2.94987352,12.139592 3.65225851,12.8410181 4.5186449,12.8410181 C5.38455314,12.8410181 6.08693813,12.139592 6.08693813,11.2737991" id="Fill-450"></path>
                            </g>
                            <polygon id="Fill-453" fill="#F3703A" points="362.452649 76.759837 371.14042 76.759837 371.14042 20.1392741 362.452649 20.1392741"></polygon>
                            <g id="Group-462" transform="translate(362.428742, 28.023150)">
                                <polygon id="Fill-454" fill="#231F1F" points="0.0239069091 36.3742919 8.71167769 36.3742919 8.71167769 35.3364872 0.0239069091 35.3364872"></polygon>
                                <polygon id="Fill-456" fill="#231F1F" points="0.0239069091 41.6593556 8.71167769 41.6593556 8.71167769 40.6210731 0.0239069091 40.6210731"></polygon>
                                <polygon id="Fill-458" fill="#231F1F" points="0.0239069091 39.0165849 8.71167769 39.0165849 8.71167769 37.9787801 0.0239069091 37.9787801"></polygon>
                                <polygon id="Fill-460" fill="#FFFFFF" points="1.81835951 9.10229303 6.91770323 9.10229303 6.91770323 0.231738169 1.81835951 0.231738169"></polygon>
                            </g>
                            <polygon id="Fill-463" fill="#0E424F" points="396.43393 76.759837 406.001475 76.759837 406.001475 14.4055462 396.43393 14.4055462"></polygon>
                            <g id="Group-472" transform="translate(396.376553, 23.245043)">
                                <polygon id="Fill-464" fill="#231F1F" points="0.0573765819 39.9010124 9.62492162 39.9010124 9.62492162 38.7576115 0.0573765819 38.7576115"></polygon>
                                <polygon id="Fill-466" fill="#231F1F" points="0.0573765819 45.7207462 9.62492162 45.7207462 9.62492162 44.5773453 0.0573765819 44.5773453"></polygon>
                                <polygon id="Fill-468" fill="#231F1F" points="0.0573765819 42.8104015 9.62492162 42.8104015 9.62492162 41.6674784 0.0573765819 41.6674784"></polygon>
                                <polygon id="Fill-470" fill="#FFFFFF" points="2.03304355 9.86679008 7.64925465 9.86679008 7.64925465 0.0979511849 2.03304355 0.0979511849"></polygon>
                            </g>
                            <polygon id="Fill-473" fill="#BC8F6E" points="353.764879 76.759837 362.452649 76.759837 362.452649 20.1392741 353.764879 20.1392741"></polygon>
                            <polygon id="Fill-474" fill="#FFFFFF" points="355.93706 76.759837 360.280946 76.759837 360.280946 59.3961977 355.93706 59.3961977"></polygon>
                            <polygon id="Fill-476" fill="#F3703A" points="325.612102 76.759837 335.509563 76.759837 335.509563 12.2553982 325.612102 12.2553982"></polygon>
                            <polygon id="Fill-477" fill="#FFFFFF" points="328.085989 32.0367594 333.035198 32.0367594 333.035198 12.2553982 328.085989 12.2553982"></polygon>
                            <polygon id="Fill-479" fill="#744C4C" points="388.076075 76.759837 396.43393 76.759837 396.43393 22.289422 388.076075 22.289422"></polygon>
                            <polygon id="Fill-480" fill="#FFFFFF" points="390.165538 38.9936826 394.344466 38.9936826 394.344466 22.289422 390.165538 22.289422"></polygon>
                            <polygon id="Fill-490" fill="#FDCC94" points="52.1170619 76.759837 61.6798256 76.759837 61.6798256 0.310131762 52.1170619 0.310131762"></polygon>
                            <polygon id="Fill-491" fill="#FDCC94" points="316.049339 76.759837 325.612102 76.759837 325.612102 0.310131762 316.049339 0.310131762"></polygon>
                        </g>
                    </g>
                </g>
            </g>
        </g>
    </g>
</svg>