<?xml version="1.0" encoding="UTF-8" standalone="no"?>
<svg width="30px" height="32px" viewBox="0 0 30 32" version="1.1" xmlns="http://www.w3.org/2000/svg" xmlns:xlink="http://www.w3.org/1999/xlink">
    <!-- Generator: Sketch 3.6.1 (26313) - http://www.bohemiancoding.com/sketch -->
    <title>continuum-2</title>
    <desc>Created with Sketch.</desc>
    <defs></defs>
    <g id="HSS-Framework" stroke="none" stroke-width="1" fill="none" fill-rule="evenodd">
        <g id="01---View-mode" transform="translate(-395.000000, -276.000000)" fill="#212121">
            <g id="Framework" transform="translate(30.000000, 264.000000)">
                <g id="Fixed-header" transform="translate(-6.000000, -2.000000)">
                    <g id="Top-icons" transform="translate(247.000000, 14.000000)">
                        <g id="continuum-2" transform="translate(124.000000, 0.000000)">
                            <g id="icon-father" transform="translate(16.000000, 0.000000)">
                                <path d="M13.673,17.1466667 C13.876,18.0547879 13.3355,18.7980606 12.471,18.7980606 L10.904,18.7980606 L10.7615,20.4838788 L9.992,29.8778182 C9.916,30.8048485 9.198,31.5636364 8.394,31.5636364 L5.474,31.5636364 C4.6705,31.5636364 3.951,30.8053333 3.875,29.8778182 L3.1065,20.4838788 L2.96,18.7980606 L1.4635,18.7980606 C0.636,18.7980606 0.124,18.0547879 0.328,17.1466667 L1.8795,10.2118788 C2.083,9.30375758 3.0335,8.56 3.993,8.56 L5.2575,8.56 L8.7435,8.56 L10.008,8.56 C10.967,8.56 11.917,9.30375758 12.1205,10.2118788 L13.673,17.1466667 Z M10.4775,3.8089697 C10.4775,1.94618182 8.9205,0.436363636 6.9995,0.436363636 C5.079,0.436363636 3.5215,1.94618182 3.5215,3.8089697 C3.5215,5.67127273 5.0785,7.18109091 6.9995,7.18109091 C8.9205,7.18109091 10.4775,5.67127273 10.4775,3.8089697 Z" id="Combined-Shape"></path>
                            </g>
                            <g id="icon-mother">
                                <path d="M14.515,23.3095758 L10.544,10.2123636 C10.343,9.30375758 9.412,8.55951515 8.4785,8.55951515 L6.1855,8.55951515 C5.227,8.55951515 4.2805,9.30424242 4.083,10.2138182 L0.184,23.3086061 C-0.013,24.217697 0.6105,24.9629091 1.5685,24.9629091 L2.084,24.9629091 L3.836,24.9629091 L3.965,26.6477576 L4.229,29.8778182 C4.305,30.8048485 5.024,31.5636364 5.8275,31.5636364 L8.7475,31.5636364 C9.551,31.5636364 10.27,30.8053333 10.346,29.8778182 L10.6095,26.6477576 L10.745,24.9629091 L12.4915,24.9629091 L13.139,24.9629091 C14.098,24.9629091 14.718,24.2186667 14.515,23.3095758 Z M10.8275,3.8089697 C10.8275,1.94618182 9.271,0.436363636 7.35,0.436363636 C5.429,0.436363636 3.872,1.94618182 3.872,3.8089697 C3.872,5.67127273 5.429,7.18109091 7.35,7.18109091 C9.271,7.18109091 10.8275,5.67127273 10.8275,3.8089697 Z" id="Combined-Shape"></path>
                            </g>
                        </g>
                    </g>
                </g>
            </g>
        </g>
    </g>
</svg>