<?xml version="1.0" encoding="UTF-8" standalone="no"?>
<svg width="153px" height="21px" viewBox="0 0 153 21" version="1.1" xmlns="http://www.w3.org/2000/svg" xmlns:xlink="http://www.w3.org/1999/xlink">
    <!-- Generator: Sketch 3.7 (28169) - http://www.bohemiancoding.com/sketch -->
    <title>dha-logo</title>
    <desc>Created with Sketch.</desc>
    <defs></defs>
    <g id="Symbols" stroke="none" stroke-width="1" fill="none" fill-rule="evenodd">
        <g id="Top-navigation-bar" transform="translate(-31.000000, -16.000000)" fill="#FFFFFF">
            <g id="Global-panel" transform="translate(30.000000, 9.000000)">
                <path d="M1.12792969,23 L1.12792969,8.0703125 L5.63964844,8.0703125 C7.17090609,8.0703125 8.43554188,8.64965241 9.43359375,9.80834961 C10.4316456,10.9670468 10.9306641,12.4589752 10.9306641,14.2841797 L10.9306641,16.7963867 C10.9306641,18.6215912 10.4316456,20.1118106 9.43359375,21.2670898 C8.43554188,22.4223691 7.17090609,23 5.63964844,23 L1.12792969,23 Z M4.05029297,10.4082031 L4.05029297,20.6723633 L5.47558594,20.6723633 C6.28906657,20.6723633 6.91625756,20.3186071 7.35717773,19.611084 C7.79809791,18.9035609 8.01855469,17.9653379 8.01855469,16.7963867 L8.01855469,14.2636719 C8.01855469,13.1015567 7.79809791,12.1684606 7.35717773,11.4643555 C6.91625756,10.7602504 6.28906657,10.4082031 5.47558594,10.4082031 L4.05029297,10.4082031 Z M15.5285156,23 L12.6164063,23 L12.6164063,11.9052734 L15.5285156,11.9052734 L15.5285156,23 Z M15.5285156,9.22900391 L12.6164063,9.22900391 L12.6164063,7.00390625 L15.5285156,7.00390625 L15.5285156,9.22900391 Z M16.9066406,16.9399414 C16.9066406,15.3745039 17.2296355,14.1098681 17.8756348,13.1459961 C18.5216341,12.1821241 19.4325137,11.7001953 20.6083008,11.7001953 C21.1004908,11.7001953 21.5345685,11.8249499 21.9105469,12.0744629 C22.2865253,12.3239759 22.6146471,12.68115 22.8949219,13.1459961 L23.0794922,11.9052734 L25.6122071,11.9052734 L25.6122071,22.784668 C25.6122071,24.2407299 25.1900921,25.387447 24.3458496,26.2248535 C23.5016071,27.06226 22.3446363,27.480957 20.8749024,27.480957 C20.3963844,27.480957 19.8871121,27.4040535 19.3470703,27.2502441 C18.8070286,27.0964348 18.3045922,26.8896497 17.8397461,26.6298828 L18.3524414,24.3842773 C18.7420918,24.6030284 19.1385722,24.7670893 19.5418946,24.8764648 C19.9452169,24.9858404 20.3827125,25.0405273 20.8543946,25.0405273 C21.469632,25.0405273 21.9310532,24.847414 22.2386719,24.4611816 C22.5462906,24.0749492 22.7000977,23.512699 22.7000977,22.7744141 L22.7000977,22.1386719 C22.4266588,22.4941424 22.1156268,22.7624503 21.7669922,22.9436035 C21.4183577,23.1247568 21.0252952,23.215332 20.587793,23.215332 C19.4188418,23.215332 18.5130892,22.7658736 17.8705078,21.8669434 C17.2279265,20.9680131 16.9066406,19.7802808 16.9066406,18.3037109 L16.9066406,16.9399414 Z M19.81875,18.3037109 C19.81875,19.1103556 19.9349598,19.7409645 20.1673828,20.1955566 C20.3998059,20.6501488 20.7894504,20.8774414 21.3363281,20.8774414 C21.6371109,20.8774414 21.9020008,20.8159186 22.1310059,20.6928711 C22.3600109,20.5698236 22.5497063,20.3886731 22.7000977,20.1494141 L22.7000977,14.8994141 C22.5497063,14.6259752 22.3634289,14.4140633 22.1412598,14.2636719 C21.9190907,14.1132805 21.6576187,14.0380859 21.356836,14.0380859 C20.8099582,14.0380859 20.4168958,14.3029759 20.1776367,14.8327637 C19.9383777,15.3625515 19.81875,16.064937 19.81875,16.9399414 L19.81875,18.3037109 Z M30.2715821,23 L27.3594727,23 L27.3594727,11.9052734 L30.2715821,11.9052734 L30.2715821,23 Z M30.2715821,9.22900391 L27.3594727,9.22900391 L27.3594727,7.00390625 L30.2715821,7.00390625 L30.2715821,9.22900391 Z M35.5051758,9.14697266 L35.5051758,11.9052734 L37.0432618,11.9052734 L37.0432618,14.0175781 L35.5051758,14.0175781 L35.5051758,19.5854492 C35.5051758,20.0366233 35.5701166,20.3596182 35.7,20.5544434 C35.8298835,20.7492686 36.0076161,20.8466797 36.2332032,20.8466797 C36.4109384,20.8466797 36.5613276,20.8381349 36.684375,20.8210449 C36.8074225,20.803955 36.9441399,20.7749025 37.0945313,20.7338867 L37.3201172,22.9487305 C37.0124985,23.0444341 36.7185561,23.1127928 36.4382813,23.1538086 C36.1580065,23.1948244 35.8401385,23.215332 35.484668,23.215332 C34.5481399,23.215332 33.8320826,22.9265166 33.3364747,22.348877 C32.8408667,21.7712373 32.5930665,20.8535219 32.5930665,19.5957031 L32.5930665,14.0175781 L31.2805665,14.0175781 L31.2805665,11.9052734 L32.5930665,11.9052734 L32.5930665,9.14697266 L35.5051758,9.14697266 Z M43.8251954,23 C43.7431637,22.8154288 43.6696781,22.6137706 43.6047364,22.3950195 C43.5397947,22.1762684 43.4902346,21.9541027 43.4560547,21.7285156 C43.1826159,22.1796898 42.8493673,22.5402819 42.4562989,22.8103027 C42.0632305,23.0803236 41.6069363,23.215332 41.0874024,23.215332 C40.1713822,23.215332 39.4382352,22.9145538 38.8879395,22.3129883 C38.3376438,21.7114228 38.0625001,20.9082081 38.0625001,19.9033203 C38.0625001,18.8164008 38.4128384,17.972171 39.1135255,17.3706055 C39.8142125,16.76904 40.8549736,16.4682617 42.2358399,16.4682617 L43.3330079,16.4682617 L43.3330079,15.565918 C43.3330079,15.0258762 43.2355967,14.6105972 43.0407715,14.3200684 C42.8459464,14.0295396 42.5537129,13.8842773 42.1640626,13.8842773 C41.8359359,13.8842773 41.5898446,14.0004871 41.4257813,14.2329102 C41.261718,14.4653332 41.1796876,14.8037087 41.1796876,15.2480469 L38.3598633,15.237793 L38.3291016,15.1762695 C38.2949218,14.2123975 38.6520959,13.3920932 39.4006348,12.715332 C40.1491737,12.0385708 41.1352478,11.7001953 42.3588868,11.7001953 C43.514166,11.7001953 44.452389,12.0368619 45.173584,12.7102051 C45.8947791,13.3835483 46.2553712,14.3422789 46.2553712,15.5864258 L46.2553712,20.0776367 C46.2553712,20.6245145 46.2929684,21.1337867 46.3681641,21.6054688 C46.4433598,22.0771508 46.5595696,22.5419899 46.7167969,23 L43.8251954,23 Z M41.9282227,21.0209961 C42.2221695,21.0209961 42.4938953,20.9423836 42.7434083,20.7851562 C42.9929212,20.6279289 43.1894525,20.4262708 43.3330079,20.1801758 L43.3330079,18.1396484 L42.2358399,18.1396484 C41.7915017,18.1396484 41.4702159,18.2934555 41.2719727,18.6010742 C41.0737295,18.9086929 40.9746094,19.2983375 40.9746094,19.7700195 C40.9746094,20.139162 41.0600578,20.4399402 41.2309571,20.6723633 C41.4018564,20.9047863 41.6342759,21.0209961 41.9282227,21.0209961 L41.9282227,21.0209961 Z M50.8839844,23 L47.9718751,23 L47.9718751,7.00390625 L50.8839844,7.00390625 L50.8839844,23 Z M67.6470704,23 L64.734961,23 L64.734961,16.8168945 L60.1001954,16.8168945 L60.1001954,23 L57.1778321,23 L57.1778321,8.0703125 L60.1001954,8.0703125 L60.1001954,14.4892578 L64.734961,14.4892578 L64.734961,8.0703125 L67.6470704,8.0703125 L67.6470704,23 Z M73.772754,23.215332 C72.3782158,23.215332 71.270805,22.7573288 70.4504884,21.8413086 C69.6301718,20.9252884 69.2200196,19.7700265 69.2200196,18.3754883 L69.2200196,16.8168945 C69.2200196,15.3198167 69.6011193,14.0927782 70.3633302,13.1357422 C71.125541,12.1787062 72.1799738,11.7001953 73.5266603,11.7001953 C74.8254949,11.7001953 75.8303676,12.134273 76.5413087,13.0024414 C77.2522498,13.8706098 77.607715,15.0532152 77.607715,16.550293 L77.607715,18.3344727 L72.1218751,18.3344727 L72.1218751,18.3754883 C72.1218751,19.1069373 72.2876449,19.7084937 72.6191896,20.1801758 C72.9507342,20.6518578 73.4514616,20.8876953 74.1213868,20.8876953 C74.6682646,20.8876953 75.1125961,20.8261725 75.4543946,20.703125 C75.7961932,20.5800775 76.2029274,20.3750014 76.6746095,20.0878906 L77.4128907,21.9438477 C77.0300763,22.3129901 76.5190951,22.6171863 75.8799317,22.8564453 C75.2407684,23.0957043 74.5383828,23.215332 73.772754,23.215332 L73.772754,23.215332 Z M73.5266603,14.0380859 C73.0618142,14.0380859 72.7200207,14.2499979 72.5012696,14.6738281 C72.2825185,15.0976584 72.1594729,15.6684534 72.132129,16.3862305 L74.7468751,16.3862305 L74.7468751,15.9760742 C74.7468751,15.3608368 74.6511729,14.8840349 74.4597657,14.5456543 C74.2683585,14.2072737 73.9573265,14.0380859 73.5266603,14.0380859 L73.5266603,14.0380859 Z M84.2153322,23 C84.1333005,22.8154288 84.0598149,22.6137706 83.9948732,22.3950195 C83.9299314,22.1762684 83.8803714,21.9541027 83.8461915,21.7285156 C83.5727527,22.1796898 83.239504,22.5402819 82.8464357,22.8103027 C82.4533673,23.0803236 81.997073,23.215332 81.4775392,23.215332 C80.561519,23.215332 79.828372,22.9145538 79.2780763,22.3129883 C78.7277806,21.7114228 78.4526368,20.9082081 78.4526368,19.9033203 C78.4526368,18.8164008 78.8029751,17.972171 79.5036622,17.3706055 C80.2043493,16.76904 81.2451104,16.4682617 82.6259767,16.4682617 L83.7231447,16.4682617 L83.7231447,15.565918 C83.7231447,15.0258762 83.6257335,14.6105972 83.4309083,14.3200684 C83.2360831,14.0295396 82.9438497,13.8842773 82.5541993,13.8842773 C82.2260727,13.8842773 81.9799814,14.0004871 81.8159181,14.2329102 C81.6518548,14.4653332 81.5698243,14.8037087 81.5698243,15.2480469 L78.7500001,15.237793 L78.7192384,15.1762695 C78.6850585,14.2123975 79.0422327,13.3920932 79.7907716,12.715332 C80.5393105,12.0385708 81.5253846,11.7001953 82.7490236,11.7001953 C83.9043028,11.7001953 84.8425258,12.0368619 85.5637208,12.7102051 C86.2849158,13.3835483 86.6455079,14.3422789 86.6455079,15.5864258 L86.6455079,20.0776367 C86.6455079,20.6245145 86.6831052,21.1337867 86.7583009,21.6054688 C86.8334966,22.0771508 86.9497064,22.5419899 87.1069337,23 L84.2153322,23 Z M82.3183595,21.0209961 C82.6123063,21.0209961 82.8840321,20.9423836 83.133545,20.7851562 C83.383058,20.6279289 83.5795892,20.4262708 83.7231447,20.1801758 L83.7231447,18.1396484 L82.6259767,18.1396484 C82.1816385,18.1396484 81.8603527,18.2934555 81.6621095,18.6010742 C81.4638663,18.9086929 81.3647462,19.2983375 81.3647462,19.7700195 C81.3647462,20.139162 81.4501946,20.4399402 81.6210939,20.6723633 C81.7919932,20.9047863 82.0244127,21.0209961 82.3183595,21.0209961 L82.3183595,21.0209961 Z M91.2741212,23 L88.3620118,23 L88.3620118,7.00390625 L91.2741212,7.00390625 L91.2741212,23 Z M96.507715,9.14697266 L96.507715,11.9052734 L98.0458009,11.9052734 L98.0458009,14.0175781 L96.507715,14.0175781 L96.507715,19.5854492 C96.507715,20.0366233 96.5726557,20.3596182 96.7025392,20.5544434 C96.8324227,20.7492686 97.0101553,20.8466797 97.2357423,20.8466797 C97.4134776,20.8466797 97.5638667,20.8381349 97.6869142,20.8210449 C97.8099617,20.803955 97.9466791,20.7749025 98.0970705,20.7338867 L98.3226564,22.9487305 C98.0150377,23.0444341 97.7210953,23.1127928 97.4408205,23.1538086 C97.1605456,23.1948244 96.8426777,23.215332 96.4872072,23.215332 C95.5506791,23.215332 94.8346218,22.9265166 94.3390138,22.348877 C93.8434059,21.7712373 93.5956056,20.8535219 93.5956056,19.5957031 L93.5956056,14.0175781 L92.2831056,14.0175781 L92.2831056,11.9052734 L93.5956056,11.9052734 L93.5956056,9.14697266 L96.507715,9.14697266 Z M102.254004,13.2280273 C102.541115,12.7426734 102.886326,12.3667006 103.289649,12.1000977 C103.692971,11.8334948 104.137302,11.7001953 104.622656,11.7001953 C105.607036,11.7001953 106.37949,12.0915488 106.940039,12.8742676 C107.500589,13.6569863 107.78086,14.8652262 107.78086,16.4990234 L107.78086,23 L104.858496,23 L104.858496,16.4785156 C104.858496,15.5624954 104.750831,14.9267596 104.535498,14.5712891 C104.320165,14.2158185 103.983499,14.0380859 103.525488,14.0380859 C103.25205,14.0380859 103.009376,14.0978998 102.797461,14.2175293 C102.585546,14.3371588 102.404395,14.5029286 102.254004,14.7148438 L102.254004,23 L99.3418947,23 L99.3418947,7.00390625 L102.254004,7.00390625 L102.254004,13.2280273 Z M120.606445,19.831543 L116.668945,19.831543 L115.869141,23 L112.92627,23 L117.130371,8.0703125 L120.165528,8.0703125 L124.359375,23 L121.416504,23 L120.606445,19.831543 Z M117.263672,17.4833984 L120.011719,17.4833984 L118.668457,12.2026367 L118.606934,12.2026367 L117.263672,17.4833984 Z M128.3625,9.14697266 L128.3625,11.9052734 L129.900586,11.9052734 L129.900586,14.0175781 L128.3625,14.0175781 L128.3625,19.5854492 C128.3625,20.0366233 128.427441,20.3596182 128.557324,20.5544434 C128.687208,20.7492686 128.86494,20.8466797 129.090528,20.8466797 C129.268263,20.8466797 129.418652,20.8381349 129.541699,20.8210449 C129.664747,20.803955 129.801464,20.7749025 129.951856,20.7338867 L130.177442,22.9487305 C129.869823,23.0444341 129.57588,23.1127928 129.295606,23.1538086 C129.015331,23.1948244 128.697463,23.215332 128.341992,23.215332 C127.405464,23.215332 126.689407,22.9265166 126.193799,22.348877 C125.698191,21.7712373 125.450391,20.8535219 125.450391,19.5957031 L125.450391,14.0175781 L124.137891,14.0175781 L124.137891,11.9052734 L125.450391,11.9052734 L125.450391,9.14697266 L128.3625,9.14697266 Z M134.324121,23 L131.412012,23 L131.412012,7.00390625 L134.324121,7.00390625 L134.324121,23 Z M141.495703,23 C141.413672,22.8154288 141.340186,22.6137706 141.275244,22.3950195 C141.210303,22.1762684 141.160743,21.9541027 141.126563,21.7285156 C140.853124,22.1796898 140.519875,22.5402819 140.126807,22.8103027 C139.733738,23.0803236 139.277444,23.215332 138.75791,23.215332 C137.84189,23.215332 137.108743,22.9145538 136.558447,22.3129883 C136.008152,21.7114228 135.733008,20.9082081 135.733008,19.9033203 C135.733008,18.8164008 136.083346,17.972171 136.784033,17.3706055 C137.484721,16.76904 138.525482,16.4682617 139.906348,16.4682617 L141.003516,16.4682617 L141.003516,15.565918 C141.003516,15.0258762 140.906105,14.6105972 140.71128,14.3200684 C140.516454,14.0295396 140.224221,13.8842773 139.834571,13.8842773 C139.506444,13.8842773 139.260353,14.0004871 139.096289,14.2329102 C138.932226,14.4653332 138.850196,14.8037087 138.850196,15.2480469 L136.030371,15.237793 L135.99961,15.1762695 C135.96543,14.2123975 136.322604,13.3920932 137.071143,12.715332 C137.819682,12.0385708 138.805756,11.7001953 140.029395,11.7001953 C141.184674,11.7001953 142.122897,12.0368619 142.844092,12.7102051 C143.565287,13.3835483 143.925879,14.3422789 143.925879,15.5864258 L143.925879,20.0776367 C143.925879,20.6245145 143.963476,21.1337867 144.038672,21.6054688 C144.113868,22.0771508 144.230078,22.5419899 144.387305,23 L141.495703,23 Z M139.598731,21.0209961 C139.892677,21.0209961 140.164403,20.9423836 140.413916,20.7851562 C140.663429,20.6279289 140.85996,20.4262708 141.003516,20.1801758 L141.003516,18.1396484 L139.906348,18.1396484 C139.46201,18.1396484 139.140724,18.2934555 138.942481,18.6010742 C138.744238,18.9086929 138.645117,19.2983375 138.645117,19.7700195 C138.645117,20.139162 138.730566,20.4399402 138.901465,20.6723633 C139.072364,20.9047863 139.304784,21.0209961 139.598731,21.0209961 L139.598731,21.0209961 Z M150.338672,20.0981445 C150.338672,19.7836898 150.215626,19.511964 149.969531,19.282959 C149.723436,19.0539539 149.251762,18.7719743 148.554492,18.4370117 C147.440229,18.0200174 146.604544,17.5483425 146.047412,17.0219727 C145.490281,16.4956028 145.211719,15.8120159 145.211719,14.9711914 C145.211719,14.0688431 145.568893,13.2980989 146.283252,12.6589355 C146.997611,12.0197722 147.94267,11.7001953 149.118457,11.7001953 C150.348932,11.7001953 151.329879,12.028317 152.061328,12.6845703 C152.792777,13.3408236 153.144825,14.1782176 153.117481,15.1967773 L153.086719,15.2583008 L150.277149,15.2583008 C150.277149,14.7934547 150.181446,14.4243178 149.990039,14.1508789 C149.798632,13.87744 149.50469,13.7407227 149.108203,13.7407227 C148.793749,13.7407227 148.52715,13.8466786 148.308399,14.0585938 C148.089648,14.2705089 147.980274,14.526854 147.980274,14.8276367 C147.980274,15.1557634 148.089648,15.4206533 148.308399,15.6223145 C148.52715,15.8239756 149.002243,16.0991194 149.733692,16.4477539 C150.895807,16.8442403 151.757126,17.3142063 152.317676,17.857666 C152.878226,18.4011258 153.158496,19.1137651 153.158496,19.9956055 C153.158496,20.9389696 152.782524,21.7114228 152.030567,22.3129883 C151.27861,22.9145538 150.290827,23.215332 149.067188,23.215332 C147.788861,23.215332 146.777152,22.8427772 146.032031,22.0976562 C145.286911,21.3525353 144.931445,20.5117234 144.965625,19.5751953 L144.986133,19.5136719 L147.652149,19.5136719 C147.665821,20.1015654 147.802538,20.5253893 148.062305,20.7851562 C148.322072,21.0449232 148.680955,21.1748047 149.138965,21.1748047 C149.528615,21.1748047 149.825976,21.0791025 150.031055,20.8876953 C150.236134,20.6962881 150.338672,20.4331071 150.338672,20.0981445 L150.338672,20.0981445 Z" id="dha-logo"></path>
            </g>
        </g>
    </g>
</svg>