<?xml version="1.0" encoding="UTF-8" standalone="no"?>
<svg width="15px" height="20px" viewBox="0 0 15 20" version="1.1" xmlns="http://www.w3.org/2000/svg" xmlns:xlink="http://www.w3.org/1999/xlink">
    <!-- Generator: Sketch 3.6.1 (26313) - http://www.bohemiancoding.com/sketch -->
    <title>icon-child</title>
    <desc>Created with Sketch.</desc>
    <defs></defs>
    <g id="HSS-Framework" stroke="none" stroke-width="1" fill="none" fill-rule="evenodd">
        <g id="01---View-mode" transform="translate(-54.000000, -387.000000)" fill="#039BE5">
            <g id="Framework" transform="translate(30.000000, 264.000000)">
                <g id="Fixed-header" transform="translate(-6.000000, -2.000000)">
                    <g id="Header-2" transform="translate(0.000000, 111.000000)">
                        <g id="icon-child" transform="translate(30.000000, 14.000000)">
                            <path d="M7.28287854,0.296052632 C8.88533975,0.296052632 10.1673087,1.59278111 10.1673087,3.14252978 C10.1673087,4.69227845 8.85329053,5.98900693 7.28287854,5.98900693 C5.71246656,5.98900693 4.39844837,4.69227845 4.39844837,3.14252978 C4.39844837,1.59278111 5.68041734,0.296052632 7.28287854,0.296052632 Z M0.2,8.45595379 C0.2,6.81132255 1.86655966,6.81132255 1.86655966,6.81132255 L12.6991974,6.81132255 C12.6991974,6.81132255 14.3657571,6.7480675 14.3657571,8.45595379 C14.3657571,10.1638401 12.6991974,10.1322126 12.6991974,10.1322126 L11.0326378,10.1322126 L11.0326378,18.3553688 C11.0326378,18.3553688 11.0326378,20 9.36607812,20 C7.69951846,20 7.69951846,18.3553688 7.69951846,18.3553688 L7.69951846,13.421475 L6.86623863,13.421475 L6.86623863,18.3237412 C6.86623863,18.3237412 6.86623863,19.9683725 5.19967897,19.9683725 C3.53311932,19.9683725 3.53311932,18.3237412 3.53311932,18.3237412 L3.53311932,10.1322126 L1.86655966,10.1322126 C1.86655966,10.1322126 0.2,10.1322126 0.2,8.45595379 Z" id="Combined-Shape"></path>
                        </g>
                    </g>
                </g>
            </g>
        </g>
    </g>
</svg>