<?xml version="1.0" encoding="UTF-8" standalone="no"?>
<svg width="281px" height="188px" viewBox="0 0 281 188" version="1.1" xmlns="http://www.w3.org/2000/svg" xmlns:xlink="http://www.w3.org/1999/xlink">
    <!-- Generator: Sketch 3.7.1 (28215) - http://www.bohemiancoding.com/sketch -->
    <title>book</title>
    <desc>Created with Sketch.</desc>
    <defs>
        <filter x="-50%" y="-50%" width="200%" height="200%" filterUnits="objectBoundingBox" id="filter-1">
            <feOffset dx="-10" dy="13" in="SourceAlpha" result="shadowOffsetOuter1"></feOffset>
            <feGaussianBlur stdDeviation="13.5" in="shadowOffsetOuter1" result="shadowBlurOuter1"></feGaussianBlur>
            <feColorMatrix values="0 0 0 0 0   0 0 0 0 0   0 0 0 0 0  0 0 0 0.120414402 0" type="matrix" in="shadowBlurOuter1" result="shadowMatrixOuter1"></feColorMatrix>
            <feMerge>
                <feMergeNode in="shadowMatrixOuter1"></feMergeNode>
                <feMergeNode in="SourceGraphic"></feMergeNode>
            </feMerge>
        </filter>
    </defs>
    <g id="Assets" stroke="none" stroke-width="1" fill="none" fill-rule="evenodd">
        <g id="Other" transform="translate(-1151.000000, -20.000000)">
            <g id="Bg">
                <g id="book" filter="url(#filter-1)" transform="translate(1188.000000, 33.000000)">
                    <path d="M71.2976101,100.137523 C78.6555913,100.137523 84.6212668,103.531337 84.6212668,107.715125 C84.6212668,111.901275 78.6555913,115.294302 71.2976101,115.294302 C63.939629,115.294302 57.9739534,111.901275 57.9739534,107.715125 C57.9739534,103.531337 63.939629,100.137523 71.2976101,100.137523 L71.2976101,100.137523 Z" id="Fill-1" fill="#353535"></path>
                    <path d="M71.2976101,100.137523 C78.6555913,100.137523 84.6212668,103.529762 84.6212668,107.715125 C84.6212668,111.901275 78.6555913,115.294302 71.2976101,115.294302 L71.2976101,100.137523 Z" id="Fill-3" fill="#212121"></path>
                    <polygon id="Fill-5" fill="#353535" points="0 111.605212 142.594119 111.605212 142.594119 19.167292 0 19.167292"></polygon>
                    <polygon id="Fill-7" fill="#212121" points="71.2978461 111.605212 142.595692 111.605212 142.595692 19.167292 71.2978461 19.167292"></polygon>
                    <path d="M3.05890328,21.334954 C25.8054011,14.5725292 48.5511123,14.7355646 71.2976101,21.334954 L71.2976101,107.86737 L3.05890328,107.86737 L3.05890328,21.334954 Z" id="Fill-8" fill="#FFFFFF"></path>
                    <path d="M139.536317,21.334954 C116.789819,14.5725292 94.0433213,14.7355646 71.2976101,21.334954 L71.2976101,107.86737 L139.536317,107.86737 L139.536317,21.334954 Z" id="Fill-9" fill="#E6E6E6"></path>
                    <path d="M71.2976101,103.335616 L71.2976101,107.867527 L139.536317,107.867527 L139.536317,103.335616 C116.789819,96.5731912 94.0441079,96.7362265 71.2976101,103.335616" id="Fill-10" fill="#CCCCCC"></path>
                    <path d="M81.692548,32.741446 C97.5089823,29.523269 113.325417,29.4539593 129.141064,32.6965522 L129.141064,27.1667381 C113.325417,23.9241451 97.5089823,23.9934549 81.692548,27.2100566 L81.692548,32.741446 Z" id="Fill-11" fill="#CCCCCC"></path>
                    <path d="M81.692548,62.7444487 C97.5089823,59.5262717 113.325417,59.4569619 129.141064,62.6995549 L129.141064,37.1667938 C113.325417,33.9242009 97.5089823,33.9935106 81.692548,37.2116876 L81.692548,62.7444487 Z" id="Fill-12" fill="#CCCCCC"></path>
                    <path d="M81.692548,92.7475301 C97.5089823,89.5309283 113.325417,89.4616186 129.141064,92.7042115 L129.141064,67.1698752 C113.325417,63.9272823 97.5089823,63.9981673 81.692548,67.214769 L81.692548,92.7475301 Z" id="Fill-13" fill="#CCCCCC"></path>
                    <path d="M13.4538412,32.741446 C29.2702755,29.523269 45.0867098,29.4539593 60.9023576,32.6965522 L60.9023576,27.1667381 C45.0867098,23.9241451 29.2702755,23.9934549 13.4538412,27.2100566 L13.4538412,32.741446 Z" id="Fill-14" fill="#E6E6E6"></path>
                    <path d="M13.4538412,52.7424239 C29.2702755,49.5258221 45.0867098,49.4565124 60.9023576,52.6991053 L60.9023576,37.1674239 C45.0867098,33.9240434 29.2702755,33.9933531 13.4538412,37.2115301 L13.4538412,52.7424239 Z" id="Fill-15" fill="#E6E6E6"></path>
                    <path d="M13.4538412,62.7444487 C29.2702755,59.5262717 45.0867098,59.4569619 60.9023576,62.6995549 L60.9023576,57.1697407 C45.0867098,53.9271478 29.2702755,53.9964575 13.4538412,57.2130593 L13.4538412,62.7444487 Z" id="Fill-16" fill="#E6E6E6"></path>
                    <path d="M100.910849,84.0191504 L100.910849,84.0191504 C99.5563009,82.3651681 99.7608203,79.847177 101.451252,78.5476195 L117.578399,66.1474779 C119.268831,64.8471327 121.688454,65.0337965 123.043002,66.6869912 C124.396763,68.3393982 124.15134,70.797531 122.502598,72.1569469 L106.373879,84.5594513 C104.6803,85.8621593 102.265397,85.6731327 100.910849,84.0191504" id="Fill-17" fill="#DEAC81"></path>
                    <path d="M108.393666,88.3172204 L108.393666,88.3172204 C106.794481,86.9003088 106.595468,84.3823177 108.056995,82.8299372 L122.009943,68.0181319 C123.47147,66.4657513 125.890306,66.264123 127.489491,67.6794593 C129.090249,69.0963708 129.237346,71.5623796 127.826162,73.1667425 L113.874001,87.980123 C112.40854,89.535654 109.993637,89.7341319 108.393666,88.3172204" id="Fill-18" fill="#DEAC81"></path>
                    <polygon id="Fill-19" fill="#DEAC81" points="143.602243 87.1542345 133.636638 64.0378628 113.460793 64.3379425 104.25899 73.6467124 131.143074 92.084677"></polygon>
                    <path d="M116.607718,92.3260009 L116.607718,92.3260009 C114.683662,91.3981956 113.808948,89.0282752 114.795361,87.1356469 L124.206403,69.0867619 C125.192816,67.1964965 127.466129,66.3443018 129.389398,67.2728947 C131.313454,68.2007 132.124453,70.532815 131.201755,72.4616735 L121.789927,90.5121336 C120.80194,92.4079124 118.530988,93.2553814 116.607718,92.3260009" id="Fill-20" fill="#DEAC81"></path>
                    <path d="M145.805389,90.7076973 L145.805389,90.7076973 C144.02135,91.8828124 141.208421,91.5795823 140.4281,89.5971664 L130.89592,65.3978301 C130.1156,63.4154142 130.221006,61.1888389 132.004258,60.0137239 C133.788297,58.8386088 136.2032,59.3403168 137.38076,61.1242549 L146.912941,85.3235912 C147.697194,87.312308 147.589428,89.5310071 145.805389,90.7076973" id="Fill-21" fill="#F9C293"></path>
                    <path d="M113.228506,61.7753726 L113.228506,61.7753726 C113.443251,59.6480363 115.358655,58.1326735 117.480938,58.2988593 L134.437961,59.6188947 C136.560244,59.7850805 138.125605,61.7493814 137.911646,63.8767177 C137.696114,66.004054 135.784643,67.5643106 133.659214,67.353231 L116.70219,66.0331956 C114.572041,65.8670097 113.014547,63.9042841 113.228506,61.7753726" id="Fill-22" fill="#F9C293"></path>
                    <path d="M95.7448446,75.0432248 L95.7448446,75.0432248 C94.5759372,73.2545611 95.0486918,70.7728 96.8689151,69.662269 L114.234191,59.0681186 C116.052841,57.9591628 118.440213,58.4033752 119.608333,60.1928265 C120.778027,61.9830655 120.269875,64.3978796 118.484263,65.5737823 L101.118987,76.1679327 C99.2948306,77.2816142 96.913752,76.8334637 95.7448446,75.0432248" id="Fill-23" fill="#F9C293"></path>
                    <polygon id="Fill-24" fill="#F9C293" points="143.359494 81.0040982 130.998652 96.3947973 139.250226 105.36962 153.256663 91.3706292"></polygon>
                    <path d="M125.01394,65.2118752 C126.840456,68.3867336 135.270591,82.9976982 126.027885,83.4253708 C116.785965,83.8546186 138.059922,94.8488752 138.059922,94.8488752 L142.957377,80.4781319 C142.957377,80.4781319 138.04183,64.9566894 125.01394,65.2118752" id="Fill-25" fill="#F9C293"></path>
                    <path d="M139.98799,82.1409354 C147.965036,83.4822363 149.972473,95.9674398 146.645099,100.74036 C143.316938,105.514068 135.638019,105.417192 128.710315,101.126289 C121.783398,96.8345991 120.744282,88.7324487 122.559785,86.2695903 C124.374502,83.8067319 132.010158,80.7996345 139.98799,82.1409354" id="Fill-26" fill="#F9C293"></path>
                    <polygon id="Fill-27" fill="#FFFFFF" points="153.248246 88.5525584 135.259972 106.221815 140.711989 111.785496 158.70105 94.1162398"></polygon>
                    <polygon id="Fill-28" fill="#283593" points="190.747921 165.237698 137.917567 112.548642 159.494371 91.355615 231.238986 164.972479"></polygon>
                    <path d="M71.2976101,21.334954 C77.9020157,6.91459115 89.3417334,-2.71788673 107.239547,0.686166372 L107.239547,82.0290159 C89.3417334,78.6241752 77.9020157,88.2574407 71.2976101,102.677016 L71.2976101,21.334954 Z" id="Fill-29" fill="#F6F6F6"></path>
                    <path d="M97.4409403,15.9785717 C89.2428561,16.7197133 82.7768945,20.6845451 77.8031384,26.6373062 L77.8031384,20.4317221 C77.8432557,20.2844389 77.8841596,20.1395186 77.9274233,19.9938106 C82.8846605,14.1237487 89.3097182,10.2179876 97.4409403,9.48393451 L97.4409403,15.9785717 Z" id="Fill-30" fill="#E0DDDD"></path>
                    <path d="M97.4409403,39.5560894 C89.2428561,40.2956558 82.7768945,44.2620628 77.8031384,50.2132487 L77.8031384,31.2846027 C77.8432557,31.1373195 77.8841596,30.9923991 77.9274233,30.8459035 C82.8846605,24.9758416 89.3097182,21.0700805 97.4409403,20.336815 L97.4409403,39.5560894 Z" id="Fill-31" fill="#E0DDDD"></path>
                    <path d="M97.4409403,70.9912832 C89.2428561,71.7324248 82.7768945,75.6972566 77.8031384,81.6500177 L77.8031384,55.2343451 C77.8432557,55.0886372 77.8841596,54.9421416 77.9274233,54.7972212 C82.8846605,48.9271593 89.3097182,45.0213982 97.4409403,44.2881327 L97.4409403,70.9912832 Z" id="Fill-32" fill="#E0DDDD"></path>
                    <path d="M129.258112,89.8862982 L129.258112,89.8862982 C128.155281,92.1396522 125.322686,93.2336434 123.158713,91.9766168 L103.609011,80.6137584 C101.445038,79.3567319 100.416935,76.7615549 101.519766,74.5066257 C102.624172,72.2509088 105.364732,71.316015 107.619166,72.4155195 L127.170441,83.7791655 C129.33992,85.0393425 130.361731,87.631369 129.258112,89.8862982" id="Fill-33" fill="#F9C293"></path>
                    <path d="M71.2976101,103.335616 L71.2976101,107.867527 L3.05890328,107.867527 L3.05890328,103.335616 C25.8046145,96.5731912 48.5518989,96.7362265 71.2976101,103.335616" id="Fill-34" fill="#E6E6E6"></path>
                    <path d="M13.4538412,92.7475301 C29.2702755,89.5309283 45.0867098,89.4616186 60.9023576,92.7042115 L60.9023576,67.1698752 C45.0867098,63.9272823 29.2702755,63.9981673 13.4538412,67.214769 L13.4538412,92.7475301 Z" id="Fill-35" fill="#E6E6E6"></path>
                    <polygon id="Fill-36" fill="#E7D1A7" points="37.0622312 119.807783 39.3434099 153.739624 22.3022186 173.177854 15.8244578 166.775367 12.9934364 124.486978"></polygon>
                    <polygon id="Fill-37" fill="#F9C293" points="13.7649468 127.990034 13.6776327 170.242193 18.8724271 176.560405 38.1727719 154.782972 38.2168223 130.134697"></polygon>
                    <path d="M51.0607235,88.4371735 L46.3142986,113.90535 C45.8321046,116.494227 41.4349361,125.832138 38.8186601,125.55805 C36.2063173,125.283961 36.0513544,117.257421 36.6004105,114.678784 L41.0935459,95.2673327 C42.9656856,87.1785717 48.2698194,87.8283504 51.0607235,88.4371735" id="Fill-38" fill="#DEAC81"></path>
                    <path d="M32.9517046,65.0949938 L33.3355719,88.7603301 C31.0158492,85.5051354 25.330208,87.4481708 24.9022903,91.7185956 C22.9821672,88.0554186 17.4813801,89.4431885 16.3392176,93.2378965 C14.0155618,90.1536133 8.40936852,92.3211177 8.46521807,96.7088965 L8.72008079,116.801631 C8.7916626,122.443286 11.9326097,129.662525 14.3734708,132.509737 C21.6063804,140.95056 34.5792076,135.381365 37.7319538,130.324905 C40.1893339,126.382127 42.3792654,123.844445 42.3824119,120.824746 L42.3824119,64.8500469 C42.390278,57.7725779 32.8014614,59.2769142 32.9517046,65.0949938" id="Fill-39" fill="#F9C293"></path>
                    <path d="M25.3921144,90.0216097 C25.1364651,90.5319814 24.9641968,91.1014239 24.9020543,91.718123 C24.774623,91.4739637 24.6306727,91.2534327 24.4733501,91.0541673 C24.548865,94.9717425 24.6629239,99.8249991 24.6629239,99.8249991 C24.6629239,99.8249991 25.1750092,93.7793 25.3921144,90.0216097 M33.2676872,88.6692823 C33.0529417,88.3849549 32.8130247,88.1431584 32.551869,87.9415301 C32.6761539,91.9079372 33.0427157,98.6821761 33.0427157,98.6821761 C33.0427157,98.6821761 33.3400556,91.7118221 33.3361225,88.7598575 C33.3361225,88.8063265 33.3093777,88.7645832 33.2676872,88.6692823 M16.1313157,100.277088 C16.1313157,100.277088 16.0015245,96.2933531 15.9024112,92.7554062 C16.057374,92.8995389 16.2036841,93.0594239 16.3389816,93.2382115 C16.4388815,92.9058398 16.574179,92.5907956 16.7362213,92.2970168 C16.4900113,95.901123 16.1313157,100.277088 16.1313157,100.277088" id="Fill-40" fill="#DEAC81"></path>
                    <polygon id="Fill-41" fill="#FFFFFF" points="11.5103556 136.473781 11.6936365 177.253896 31.5996736 177.253896 39.8559671 160.250958 39.7529208 136.436764"></polygon>
                    <polygon id="Fill-42" fill="#283593" points="10.6653756 142.917519 10.6957068 175.254448 40.6653756 175.254448 40.6222733 142.896253"></polygon>
                    <path d="M24.7083901,16.9615097 L24.7083901,34.8213681 L18.0489216,31.7520496 L11.3894531,35.4475186 L11.3894531,19.1676071 C15.8290988,18.1799434 20.2679579,17.4458903 24.7083901,16.9615097" id="Fill-43" fill="#F44336"></path>
                </g>
            </g>
        </g>
    </g>
</svg>