<?xml version="1.0" encoding="UTF-8"?>
<svg width="205px" height="28px" viewBox="0 0 205 28" version="1.1" xmlns="http://www.w3.org/2000/svg" xmlns:xlink="http://www.w3.org/1999/xlink">
    <!-- Generator: Sketch 42 (36781) - http://www.bohemiancoding.com/sketch -->
    <title>dha-logo copy</title>
    <desc>Created with Sketch.</desc>
    <defs></defs>
    <g id="Landing-page-v2-(editable)" stroke="none" stroke-width="1" fill="none" fill-rule="evenodd">
        <g id="07---Landing-page-(no-country)" transform="translate(-120.000000, -35.000000)">
            <g id="Top-navigation-bar-(logged-out)" transform="translate(80.000000, 0.000000)">
                <g id="dha-logo-copy" transform="translate(40.000000, 35.000000)">
                    <path d="M12.9419057,21.6363636 L12.9419057,2.63494318 L18.6377283,2.63494318 C20.5708656,2.63494318 22.167406,3.37228489 23.4273973,4.84699041 C24.6873886,6.32169594 25.3173748,8.22051395 25.3173748,10.5435014 L25.3173748,13.7408558 C25.3173748,16.0638433 24.6873886,17.9604863 23.4273973,19.4308416 C22.167406,20.901197 20.5708656,21.6363636 18.6377283,21.6363636 L12.9419057,21.6363636 Z M16.6312453,5.61044034 L16.6312453,18.6739169 L18.4306075,18.6739169 C19.4575867,18.6739169 20.2493844,18.2236817 20.8060244,17.3231978 C21.3626644,16.4227139 21.6409802,15.2286118 21.6409802,13.7408558 L21.6409802,10.5174006 C21.6409802,9.03834488 21.3626644,7.85076797 20.8060244,6.95463423 C20.2493844,6.05850049 19.4575867,5.61044034 18.4306075,5.61044034 L16.6312453,5.61044034 Z M31.1219358,21.6363636 L27.4455412,21.6363636 L27.4455412,7.51580256 L31.1219358,7.51580256 L31.1219358,21.6363636 Z M31.1219358,4.10964134 L27.4455412,4.10964134 L27.4455412,1.27769886 L31.1219358,1.27769886 L31.1219358,4.10964134 Z M32.8617507,13.9235618 C32.8617507,11.9311868 33.2695158,10.3216503 34.0850581,9.09490412 C34.9006004,7.86815793 36.050541,7.25479403 37.5349143,7.25479403 C38.1562798,7.25479403 38.7042815,7.41357263 39.1789358,7.73113459 C39.65359,8.04869655 40.0678275,8.50328184 40.4216607,9.09490412 L40.6546716,7.51580256 L43.8520993,7.51580256 L43.8520993,21.3623047 C43.8520993,23.2154745 43.3192,24.6749325 42.2533855,25.7407227 C41.1875709,26.8065128 39.7269522,27.3393999 37.8714856,27.3393999 C37.2673802,27.3393999 36.6244491,27.2415226 35.9426729,27.0457653 C35.2608968,26.8500079 34.6265957,26.5868269 34.0397504,26.2562145 L34.687003,23.3981712 C35.1789174,23.6765816 35.6794544,23.8853864 36.1886289,24.0245916 C36.6978035,24.1637969 37.2501202,24.2333984 37.8455955,24.2333984 C38.6223025,24.2333984 39.2048239,23.9876179 39.5931774,23.4960494 C39.9815309,23.0044809 40.1757047,22.2888896 40.1757047,21.3492543 L40.1757047,20.5401278 C39.8305016,20.9925449 39.437839,21.3340276 38.9977051,21.5645863 C38.5575711,21.795145 38.0613491,21.9104226 37.5090242,21.9104226 C36.0332809,21.9104226 34.8898128,21.3383846 34.0785856,20.1942915 C33.2673583,19.0501985 32.8617507,17.5385392 32.8617507,15.6592685 L32.8617507,13.9235618 Z M36.5381453,15.6592685 C36.5381453,16.6859071 36.6848544,17.4885003 36.9782771,18.0670721 C37.2716997,18.6456439 37.7636067,18.9349254 38.4540129,18.9349254 C38.8337363,18.9349254 39.1681468,18.8566237 39.4572544,18.7000178 C39.746362,18.5434119 39.985843,18.3128566 40.1757047,18.0083452 L40.1757047,11.326527 C39.985843,10.9785139 39.750677,10.7088078 39.4701994,10.5174006 C39.1897219,10.3259934 38.8596264,10.2302912 38.479903,10.2302912 C37.7894968,10.2302912 37.2932748,10.5674238 36.9912221,11.2416992 C36.6891694,11.9159746 36.5381453,12.8099199 36.5381453,13.9235618 L36.5381453,15.6592685 Z M49.7343307,21.6363636 L46.0579361,21.6363636 L46.0579361,7.51580256 L49.7343307,7.51580256 L49.7343307,21.6363636 Z M49.7343307,4.10964134 L46.0579361,4.10964134 L46.0579361,1.27769886 L49.7343307,1.27769886 L49.7343307,4.10964134 Z M56.3414849,4.00523793 L56.3414849,7.51580256 L58.2832426,7.51580256 L58.2832426,10.2041903 L56.3414849,10.2041903 L56.3414849,17.2905717 C56.3414849,17.8647934 56.4234694,18.2758777 56.5874409,18.523837 C56.7514123,18.7717963 56.975791,18.8957741 57.2605835,18.8957741 C57.4849656,18.8957741 57.6748244,18.8848989 57.8301658,18.8631481 C57.9855072,18.8413973 58.1581061,18.8044214 58.3479679,18.7522195 L58.632759,21.5711115 C58.2444055,21.6929161 57.8733177,21.7799181 57.5194846,21.83212 C57.1656514,21.884322 56.7643588,21.9104226 56.3155948,21.9104226 C55.1332742,21.9104226 54.2292871,21.5428393 53.6036065,20.8076616 C52.9779259,20.0724839 52.6650903,18.9044824 52.6650903,17.3036222 L52.6650903,10.2041903 L51.0081237,10.2041903 L51.0081237,7.51580256 L52.6650903,7.51580256 L52.6650903,4.00523793 L56.3414849,4.00523793 Z M66.8450996,21.6363636 C66.7415386,21.4014548 66.6487667,21.144799 66.566781,20.8663885 C66.4847952,20.587978 66.4222281,20.3052216 66.3790777,20.0181108 C66.0338746,20.5923324 65.6131647,21.0512678 65.1169352,21.3949308 C64.6207058,21.7385937 64.0446567,21.9104226 63.3887709,21.9104226 C62.2323405,21.9104226 61.3067786,21.5276139 60.6120573,20.7619851 C59.9173361,19.9963563 59.5699807,18.9740831 59.5699807,17.6951349 C59.5699807,16.3117829 60.0122655,15.2373085 60.8968485,14.4716797 C61.7814314,13.7060509 63.095341,13.3232422 64.8386166,13.3232422 L66.2237371,13.3232422 L66.2237371,12.1748047 C66.2237371,11.4874788 66.1007603,10.9589418 65.8548031,10.5891779 C65.6088459,10.219414 65.2399157,10.0345348 64.7480013,10.0345348 C64.3337575,10.0345348 64.0230794,10.1824382 63.8159576,10.4782493 C63.6088357,10.7740604 63.5052763,11.2047202 63.5052763,11.7702415 L59.9453872,11.7571911 L59.906552,11.6788885 C59.8634017,10.4521423 60.3143164,9.40811865 61.2593099,8.54678622 C62.2043034,7.68545379 63.4491734,7.25479403 64.9939572,7.25479403 C66.4524403,7.25479403 67.6369007,7.68327874 68.5473738,8.54026101 C69.457847,9.39724328 69.9130767,10.6174459 69.9130767,12.2009055 L69.9130767,17.9169922 C69.9130767,18.6130184 69.9605415,19.2611831 70.0554723,19.8615057 C70.1504032,20.4618283 70.2971123,21.0534417 70.4956041,21.6363636 L66.8450996,21.6363636 Z M64.4502651,19.1176314 C64.8213584,19.1176314 65.1643988,19.0175791 65.4793967,18.8174716 C65.7943945,18.6173641 66.0425055,18.3607082 66.2237371,18.0474964 L66.2237371,15.4504616 L64.8386166,15.4504616 C64.2776616,15.4504616 63.872054,15.6462161 63.6217818,16.0377308 C63.3715095,16.4292456 63.2463753,16.9251568 63.2463753,17.5254794 C63.2463753,17.9952971 63.3542496,18.3781058 63.5700016,18.6739169 C63.7857535,18.969728 64.0791717,19.1176314 64.4502651,19.1176314 L64.4502651,19.1176314 Z M75.7564729,21.6363636 L72.0800784,21.6363636 L72.0800784,1.27769886 L75.7564729,1.27769886 L75.7564729,21.6363636 Z M96.9190429,21.6363636 L93.2426483,21.6363636 L93.2426483,13.7669567 L87.3914851,13.7669567 L87.3914851,21.6363636 L83.7021455,21.6363636 L83.7021455,2.63494318 L87.3914851,2.63494318 L87.3914851,10.8045099 L93.2426483,10.8045099 L93.2426483,2.63494318 L96.9190429,2.63494318 L96.9190429,21.6363636 Z M104.652417,21.9104226 C102.891881,21.9104226 101.493829,21.3275094 100.45822,20.1616655 C99.4226107,18.9958216 98.9048138,17.5254883 98.9048138,15.7506214 L98.9048138,13.7669567 C98.9048138,11.8615849 99.3859334,10.2998996 100.348187,9.08185369 C101.310441,7.86380783 102.64161,7.25479403 104.341735,7.25479403 C105.98145,7.25479403 107.250052,7.80725655 108.14758,8.91219815 C109.045109,10.0171398 109.493866,11.5222739 109.493866,13.4276456 L109.493866,15.6984197 L102.568263,15.6984197 L102.568263,15.7506214 C102.568263,16.6815565 102.77754,17.4471738 103.196098,18.0474964 C103.614657,18.6478191 104.246801,18.9479759 105.092548,18.9479759 C105.782955,18.9479759 106.343901,18.8696741 106.775405,18.7130682 C107.206909,18.5564623 107.720391,18.2954564 108.315866,17.9300426 L109.24791,20.2921697 C108.764625,20.7619874 108.119537,21.1491462 107.312625,21.4536577 C106.505712,21.7581691 105.618985,21.9104226 104.652417,21.9104226 L104.652417,21.9104226 Z M104.341735,10.2302912 C103.75489,10.2302912 103.323393,10.4999973 103.04723,11.0394176 C102.771068,11.5788379 102.615729,12.3053044 102.581208,13.2188388 L105.882196,13.2188388 L105.882196,12.6968217 C105.882196,11.9137922 105.761377,11.3069535 105.519735,10.8762873 C105.278093,10.4456211 104.88543,10.2302912 104.341735,10.2302912 L104.341735,10.2302912 Z M117.835657,21.6363636 C117.732096,21.4014548 117.639324,21.144799 117.557338,20.8663885 C117.475353,20.587978 117.412785,20.3052216 117.369635,20.0181108 C117.024432,20.5923324 116.603722,21.0512678 116.107493,21.3949308 C115.611263,21.7385937 115.035214,21.9104226 114.379328,21.9104226 C113.222898,21.9104226 112.297336,21.5276139 111.602615,20.7619851 C110.907893,19.9963563 110.560538,18.9740831 110.560538,17.6951349 C110.560538,16.3117829 111.002823,15.2373085 111.887406,14.4716797 C112.771989,13.7060509 114.085898,13.3232422 115.829174,13.3232422 L117.214294,13.3232422 L117.214294,12.1748047 C117.214294,11.4874788 117.091318,10.9589418 116.84536,10.5891779 C116.599403,10.219414 116.230473,10.0345348 115.738559,10.0345348 C115.324315,10.0345348 115.013637,10.1824382 114.806515,10.4782493 C114.599393,10.7740604 114.495834,11.2047202 114.495834,11.7702415 L110.935945,11.7571911 L110.897109,11.6788885 C110.853959,10.4521423 111.304874,9.40811865 112.249867,8.54678622 C113.194861,7.68545379 114.439731,7.25479403 115.984515,7.25479403 C117.442998,7.25479403 118.627458,7.68327874 119.537931,8.54026101 C120.448404,9.39724328 120.903634,10.6174459 120.903634,12.2009055 L120.903634,17.9169922 C120.903634,18.6130184 120.951099,19.2611831 121.04603,19.8615057 C121.14096,20.4618283 121.28767,21.0534417 121.486161,21.6363636 L117.835657,21.6363636 Z M115.440822,19.1176314 C115.811916,19.1176314 116.154956,19.0175791 116.469954,18.8174716 C116.784952,18.6173641 117.033063,18.3607082 117.214294,18.0474964 L117.214294,15.4504616 L115.829174,15.4504616 C115.268219,15.4504616 114.862611,15.6462161 114.612339,16.0377308 C114.362067,16.4292456 114.236933,16.9251568 114.236933,17.5254794 C114.236933,17.9952971 114.344807,18.3781058 114.560559,18.6739169 C114.776311,18.969728 115.069729,19.1176314 115.440822,19.1176314 L115.440822,19.1176314 Z M126.74703,21.6363636 L123.070636,21.6363636 L123.070636,1.27769886 L126.74703,1.27769886 L126.74703,21.6363636 Z M133.354184,4.00523793 L133.354184,7.51580256 L135.295942,7.51580256 L135.295942,10.2041903 L133.354184,10.2041903 L133.354184,17.2905717 C133.354184,17.8647934 133.436169,18.2758777 133.60014,18.523837 C133.764112,18.7717963 133.988491,18.8957741 134.273283,18.8957741 C134.497665,18.8957741 134.687524,18.8848989 134.842865,18.8631481 C134.998207,18.8413973 135.170806,18.8044214 135.360667,18.7522195 L135.645459,21.5711115 C135.257105,21.6929161 134.886017,21.7799181 134.532184,21.83212 C134.178351,21.884322 133.777058,21.9104226 133.328294,21.9104226 C132.145974,21.9104226 131.241987,21.5428393 130.616306,20.8076616 C129.990626,20.0724839 129.67779,18.9044824 129.67779,17.3036222 L129.67779,10.2041903 L128.020823,10.2041903 L128.020823,7.51580256 L129.67779,7.51580256 L129.67779,4.00523793 L133.354184,4.00523793 Z M140.608591,9.19930753 C140.971055,8.58158427 141.406867,8.10307343 141.916041,7.76376065 C142.425216,7.42444788 142.986163,7.25479403 143.598898,7.25479403 C144.841629,7.25479403 145.816813,7.75288032 146.52448,8.74906783 C147.232146,9.74525534 147.585974,11.2830152 147.585974,13.3623935 L147.585974,21.6363636 L143.896634,21.6363636 L143.896634,13.3362926 C143.896634,12.1704487 143.760713,11.3613304 143.488865,10.9089134 C143.217018,10.4564963 142.791993,10.2302912 142.213778,10.2302912 C141.868575,10.2302912 141.562211,10.3064179 141.294679,10.4586737 C141.027147,10.6109294 140.798453,10.8219092 140.608591,11.0916193 L140.608591,21.6363636 L136.932197,21.6363636 L136.932197,1.27769886 L140.608591,1.27769886 L140.608591,9.19930753 Z M163.777644,17.603782 L158.806745,17.603782 L157.79703,21.6363636 L154.081801,21.6363636 L159.389272,2.63494318 L163.221007,2.63494318 L168.515533,21.6363636 L164.800303,21.6363636 L163.777644,17.603782 Z M159.557557,14.6152344 L163.026831,14.6152344 L161.33103,7.89426491 L161.253359,7.89426491 L159.557557,14.6152344 Z M173.569281,4.00523793 L173.569281,7.51580256 L175.511039,7.51580256 L175.511039,10.2041903 L173.569281,10.2041903 L173.569281,17.2905717 C173.569281,17.8647934 173.651266,18.2758777 173.815237,18.523837 C173.979209,18.7717963 174.203587,18.8957741 174.48838,18.8957741 C174.712762,18.8957741 174.902621,18.8848989 175.057962,18.8631481 C175.213303,18.8413973 175.385902,18.8044214 175.575764,18.7522195 L175.860555,21.5711115 C175.472202,21.6929161 175.101114,21.7799181 174.747281,21.83212 C174.393448,21.884322 173.992155,21.9104226 173.543391,21.9104226 C172.36107,21.9104226 171.457083,21.5428393 170.831403,20.8076616 C170.205722,20.0724839 169.892886,18.9044824 169.892886,17.3036222 L169.892886,10.2041903 L168.23592,10.2041903 L168.23592,7.51580256 L169.892886,7.51580256 L169.892886,4.00523793 L173.569281,4.00523793 Z M181.095534,21.6363636 L177.419139,21.6363636 L177.419139,1.27769886 L181.095534,1.27769886 L181.095534,21.6363636 Z M190.149303,21.6363636 C190.045742,21.4014548 189.95297,21.144799 189.870984,20.8663885 C189.788999,20.587978 189.726431,20.3052216 189.683281,20.0181108 C189.338078,20.5923324 188.917368,21.0512678 188.421139,21.3949308 C187.924909,21.7385937 187.34886,21.9104226 186.692974,21.9104226 C185.536544,21.9104226 184.610982,21.5276139 183.916261,20.7619851 C183.221539,19.9963563 182.874184,18.9740831 182.874184,17.6951349 C182.874184,16.3117829 183.316469,15.2373085 184.201052,14.4716797 C185.085635,13.7060509 186.399544,13.3232422 188.14282,13.3232422 L189.52794,13.3232422 L189.52794,12.1748047 C189.52794,11.4874788 189.404964,10.9589418 189.159006,10.5891779 C188.913049,10.219414 188.544119,10.0345348 188.052205,10.0345348 C187.637961,10.0345348 187.327283,10.1824382 187.120161,10.4782493 C186.913039,10.7740604 186.80948,11.2047202 186.80948,11.7702415 L183.249591,11.7571911 L183.210755,11.6788885 C183.167605,10.4521423 183.61852,9.40811865 184.563513,8.54678622 C185.508507,7.68545379 186.753377,7.25479403 188.298161,7.25479403 C189.756644,7.25479403 190.941104,7.68327874 191.851577,8.54026101 C192.76205,9.39724328 193.21728,10.6174459 193.21728,12.2009055 L193.21728,17.9169922 C193.21728,18.6130184 193.264745,19.2611831 193.359676,19.8615057 C193.454606,20.4618283 193.601316,21.0534417 193.799807,21.6363636 L190.149303,21.6363636 Z M187.754468,19.1176314 C188.125562,19.1176314 188.468602,19.0175791 188.7836,18.8174716 C189.098598,18.6173641 189.346709,18.3607082 189.52794,18.0474964 L189.52794,15.4504616 L188.14282,15.4504616 C187.581865,15.4504616 187.176257,15.6462161 186.925985,16.0377308 C186.675713,16.4292456 186.550579,16.9251568 186.550579,17.5254794 C186.550579,17.9952971 186.658453,18.3781058 186.874205,18.6739169 C187.089957,18.969728 187.383375,19.1176314 187.754468,19.1176314 L187.754468,19.1176314 Z M201.313115,17.943093 C201.313115,17.542878 201.157776,17.1970451 200.847093,16.9055842 C200.536411,16.6141232 199.940944,16.2552401 199.060676,15.828924 C197.653974,15.298204 196.598962,14.6978904 195.895611,14.0279652 C195.19226,13.35804 194.840589,12.4880203 194.840589,11.41788 C194.840589,10.2694367 195.291504,9.28848951 196.193347,8.47500888 C197.09519,7.66152825 198.288281,7.25479403 199.772654,7.25479403 C201.326068,7.25479403 202.564466,7.67240349 203.487884,8.50763494 C204.411302,9.34286639 204.855744,10.4086405 204.821224,11.7049893 L204.782389,11.7832919 L201.235445,11.7832919 C201.235445,11.1916696 201.114626,10.721859 200.872983,10.3738459 C200.631341,10.0258328 200.260253,9.85182884 199.759709,9.85182884 C199.362725,9.85182884 199.026157,9.98668189 198.749995,10.256392 C198.473833,10.5261022 198.335753,10.8523596 198.335753,11.235174 C198.335753,11.6527897 198.473833,11.9899224 198.749995,12.246582 C199.026157,12.5032417 199.625939,12.8534246 200.549357,13.2971413 C202.01647,13.8017603 203.103844,14.3998989 203.81151,15.0915749 C204.519176,15.783251 204.873004,16.6902465 204.873004,17.8125888 C204.873004,19.013234 204.398357,19.9963563 203.449049,20.7619851 C202.49974,21.5276139 201.252713,21.9104226 199.707929,21.9104226 C198.094104,21.9104226 196.816872,21.4362618 195.876194,20.4879261 C194.935515,19.5395904 194.486758,18.4694662 194.529908,17.2775213 L194.555798,17.1992188 L197.921512,17.1992188 C197.938772,17.9474469 198.111371,18.4868591 198.439314,18.8174716 C198.767257,19.148084 199.220329,19.3133878 199.798544,19.3133878 C200.290459,19.3133878 200.665861,19.191585 200.924764,18.9479759 C201.183666,18.7043667 201.313115,18.3694091 201.313115,17.943093 L201.313115,17.943093 Z" id="dha-logo" fill="#283593"></path>
                    <g id="6pack" transform="translate(3.135368, 12.603185) scale(1, -1) rotate(-90.000000) translate(-3.135368, -12.603185) translate(-9.364632, 9.603185)">
                        <rect id="Card" fill="#6A1B9A" x="-2.7533531e-14" y="0.0475546869" width="4.12888164" height="5.02959984"></rect>
                        <rect id="Card" fill="#D84315" x="4.12243027" y="0.0475785896" width="4.12888164" height="5.02959984"></rect>
                        <rect id="Card" fill="#0097A7" x="8.24486053" y="0.0475785896" width="4.12888164" height="5.02959984"></rect>
                        <rect id="Card" fill="#FAA906" x="12.3672908" y="0.0475785896" width="4.12888164" height="5.02959984"></rect>
                        <rect id="Card" fill="#558B2F" x="16.4897211" y="0.0475785896" width="4.12888164" height="5.02959984"></rect>
                        <rect id="Card" fill="#5D4037" x="20.6121513" y="0.0475785896" width="4.12888164" height="5.02959984"></rect>
                    </g>
                </g>
            </g>
        </g>
    </g>
</svg>