<?xml version="1.0" encoding="UTF-8" standalone="no"?>
<svg width="86px" height="65px" viewBox="0 0 86 65" version="1.1" xmlns="http://www.w3.org/2000/svg" xmlns:xlink="http://www.w3.org/1999/xlink">
    <!-- Generator: Sketch 3.8.3 (29802) - http://www.bohemiancoding.com/sketch -->
    <title>Group</title>
    <desc>Created with Sketch.</desc>
    <defs></defs>
    <g id="Assets" stroke="none" stroke-width="1" fill="none" fill-rule="evenodd">
        <g id="HSS-Icons" transform="translate(-232.000000, -159.000000)" fill="#000000">
            <g id="Group" transform="translate(274.500000, 191.500000) scale(-1, 1) translate(-274.500000, -191.500000) translate(231.000000, 159.000000)">
                <g transform="translate(48.206887, 21.398506)">
                    <ellipse id="Oval" cx="5.38124787" cy="2.44862098" rx="2.40208518" ry="2.39117533"></ellipse>
                    <path d="M2.54635456,27.9903947 C2.54635456,28.7300074 3.15228595,29.3260061 3.88805979,29.3260061 C4.63104709,29.3260061 5.23697849,28.7228267 5.23697849,27.9903947 L5.23697849,16.7597694 L5.83569642,16.7597694 L5.83569642,27.9903947 C5.83569642,28.7300074 6.44162781,29.3260061 7.17740165,29.3260061 C7.91317549,29.3260061 8.51910688,28.7228267 8.51910688,27.9903947 L8.52632035,8.63120944 L9.11061134,8.63120944 L9.11061134,15.7688319 C9.11061134,17.2049732 10.9861133,17.2049732 10.9861133,15.7688319 L10.9861133,8.4804146 C10.9861133,6.90065912 10.0483623,5.34244577 8.18728731,5.34244577 L2.81325291,5.34244577 C1.11808769,5.34244577 0.050494283,6.72114146 0.050494283,8.43733036 L0.050494283,15.7688319 C0.050494283,17.1977925 1.94042316,17.1977925 1.94042316,15.7688319 L1.94042316,8.62402873 L2.54635456,8.62402873 L2.54635456,27.9903947 L2.54635456,27.9903947 Z" id="Shape"></path>
                </g>
                <g transform="translate(60.830457, 37.390034)">
                    <ellipse id="Oval" cx="4.89073198" cy="2.23319978" rx="2.20010804" ry="2.19011554"></ellipse>
                    <path d="M2.29388314,25.6494843 C2.29388314,26.3244707 2.84932025,26.8773851 3.52738634,26.8773851 C4.20545242,26.8773851 4.76088954,26.3244707 4.76088954,25.6494843 L4.76088954,15.3451702 L5.30911318,15.3451702 L5.30911318,25.6423036 C5.30911318,26.31729 5.86455029,26.8702044 6.54261638,26.8702044 C7.22068246,26.8702044 7.77611958,26.31729 7.77611958,25.6423036 L7.78333304,7.89159665 L8.32434322,7.89159665 L8.32434322,14.4332204 C8.32434322,15.7544705 10.0483623,15.7544705 10.0483623,14.4332204 L10.0483623,7.74798251 C10.0483623,6.29747976 9.1899595,4.87569984 7.48036735,4.87569984 L2.54635456,4.87569984 C0.988245252,4.87569984 0.014426938,6.13950422 0.014426938,7.71925969 L0.014426938,14.4404011 C0.014426938,15.7472898 1.7456595,15.7472898 1.7456595,14.4404011 L1.7456595,7.89877735 L2.30109661,7.89877735 L2.29388314,25.6494843 L2.29388314,25.6494843 Z" id="Shape"></path>
                </g>
                <g transform="translate(36.448932, 37.390034)">
                    <ellipse id="Oval" cx="4.89073198" cy="2.23319978" rx="2.20010804" ry="2.19011554"></ellipse>
                    <path d="M2.28666967,25.6494843 C2.28666967,26.3244707 2.84210678,26.8773851 3.52017287,26.8773851 C4.19823895,26.8773851 4.75367607,26.3244707 4.75367607,25.6494843 L4.75367607,15.3451702 L5.30189971,15.3451702 L5.30189971,25.6423036 C5.30189971,26.31729 5.85733682,26.8702044 6.53540291,26.8702044 C7.21346899,26.8702044 7.76890611,26.31729 7.76890611,25.6423036 L7.77611958,7.89159665 L8.31712975,7.89159665 L8.31712975,14.4332204 C8.31712975,15.7544705 10.0411488,15.7544705 10.0411488,14.4332204 L10.0411488,7.74798251 C10.0411488,6.29747976 9.18274603,4.87569984 7.47315388,4.87569984 L2.53914109,4.87569984 C0.981031783,4.87569984 0.00721346899,6.13950422 0.00721346899,7.71925969 L0.00721346899,14.4404011 C0.00721346899,15.7472898 1.73844603,15.7472898 1.73844603,14.4404011 L1.73844603,7.89877735 L2.29388314,7.89877735 L2.28666967,25.6494843 L2.28666967,25.6494843 Z" id="Shape"></path>
                </g>
                <g transform="translate(24.402439, 37.390034)">
                    <ellipse id="Oval" cx="4.89073198" cy="2.23319978" rx="2.20010804" ry="2.19011554"></ellipse>
                    <path d="M2.29388314,25.6494843 C2.29388314,26.3244707 2.84932025,26.8773851 3.52738634,26.8773851 C4.20545242,26.8773851 4.76088954,26.3244707 4.76088954,25.6494843 L4.76088954,15.3451702 L5.30911318,15.3451702 L5.30911318,25.6423036 C5.30911318,26.31729 5.86455029,26.8702044 6.54261638,26.8702044 C7.22068246,26.8702044 7.77611958,26.31729 7.77611958,25.6423036 L7.78333304,7.89159665 L8.32434322,7.89159665 L8.32434322,14.4332204 C8.32434322,15.7544705 10.0483623,15.7544705 10.0483623,14.4332204 L10.0483623,7.74798251 C10.0483623,6.29747976 9.1899595,4.87569984 7.48036735,4.87569984 L2.53914109,4.87569984 C0.981031783,4.87569984 0.00721346899,6.13950422 0.00721346899,7.71925969 L0.00721346899,14.4404011 C0.00721346899,15.7472898 1.73844603,15.7472898 1.73844603,14.4404011 L1.73844603,7.89877735 L2.29388314,7.89877735 L2.29388314,25.6494843 L2.29388314,25.6494843 Z" id="Shape"></path>
                </g>
                <g transform="translate(12.046493, 37.390034)">
                    <ellipse id="Oval" cx="4.89073198" cy="2.23319978" rx="2.20010804" ry="2.19011554"></ellipse>
                    <path d="M2.28666967,25.6494843 C2.28666967,26.3244707 2.84210678,26.8773851 3.52017287,26.8773851 C4.19823895,26.8773851 4.75367607,26.3244707 4.75367607,25.6494843 L4.75367607,15.3451702 L5.30189971,15.3451702 L5.30189971,25.6423036 C5.30189971,26.31729 5.85733682,26.8702044 6.53540291,26.8702044 C7.21346899,26.8702044 7.76890611,26.31729 7.76890611,25.6423036 L7.77611958,7.89159665 L8.31712975,7.89159665 L8.31712975,14.4332204 C8.31712975,15.7544705 10.0411488,15.7544705 10.0411488,14.4332204 L10.0411488,7.74798251 C10.0411488,6.29747976 9.18274603,4.87569984 7.47315388,4.87569984 L2.53914109,4.87569984 C0.981031783,4.87569984 0.00721346899,6.13950422 0.00721346899,7.71925969 L0.00721346899,14.4404011 C0.00721346899,15.7472898 1.73844603,15.7472898 1.73844603,14.4404011 L1.73844603,7.89877735 L2.29388314,7.89877735 L2.28666967,25.6494843 L2.28666967,25.6494843 Z" id="Shape"></path>
                </g>
                <g transform="translate(0.000000, 37.390034)">
                    <ellipse id="Oval" cx="4.89073198" cy="2.23319978" rx="2.20010804" ry="2.19011554"></ellipse>
                    <path d="M2.29388314,25.6494843 C2.29388314,26.3244707 2.84932025,26.8773851 3.52738634,26.8773851 C4.20545242,26.8773851 4.76088954,26.3244707 4.76088954,25.6494843 L4.76088954,15.3451702 L5.30911318,15.3451702 L5.30911318,25.6423036 C5.30911318,26.31729 5.86455029,26.8702044 6.54261638,26.8702044 C7.22068246,26.8702044 7.77611958,26.31729 7.77611958,25.6423036 L7.78333304,7.89159665 L8.32434322,7.89159665 L8.32434322,14.4332204 C8.32434322,15.7544705 10.0483623,15.7544705 10.0483623,14.4332204 L10.0483623,7.74798251 C10.0483623,6.29747976 9.1899595,4.87569984 7.48036735,4.87569984 L2.53914109,4.87569984 C0.981031783,4.87569984 0.00721346899,6.13950422 0.00721346899,7.71925969 L0.00721346899,14.4404011 C0.00721346899,15.7472898 1.73844603,15.7472898 1.73844603,14.4404011 L1.73844603,7.89877735 L2.29388314,7.89877735 L2.29388314,25.6494843 L2.29388314,25.6494843 Z" id="Shape"></path>
                </g>
                <g transform="translate(73.093355, 37.390034)">
                    <ellipse id="Oval" cx="4.89073198" cy="2.23319978" rx="2.20010804" ry="2.19011554"></ellipse>
                    <path d="M2.29388314,25.6494843 C2.29388314,26.3244707 2.84932025,26.8773851 3.52738634,26.8773851 C4.20545242,26.8773851 4.76088954,26.3244707 4.76088954,25.6494843 L4.76088954,15.3451702 L5.30911318,15.3451702 L5.30911318,25.6423036 C5.30911318,26.31729 5.86455029,26.8702044 6.54261638,26.8702044 C7.22068246,26.8702044 7.77611958,26.31729 7.77611958,25.6423036 L7.78333304,7.89159665 L8.32434322,7.89159665 L8.32434322,14.4332204 C8.32434322,15.7544705 10.0483623,15.7544705 10.0483623,14.4332204 L10.0483623,7.74798251 C10.0483623,6.29747976 9.1899595,4.87569984 7.48036735,4.87569984 L2.54635456,4.87569984 C0.988245252,4.87569984 0.014426938,6.13950422 0.014426938,7.71925969 L0.014426938,14.4404011 C0.014426938,15.7472898 1.7456595,15.7472898 1.7456595,14.4404011 L1.7456595,7.89877735 L2.30109661,7.89877735 L2.29388314,25.6494843 L2.29388314,25.6494843 Z" id="Shape"></path>
                </g>
                <g transform="translate(33.058602, 0.000000)" id="Shape">
                    <path d="M51.3454723,0.222601907 L44.8749906,0.222601907 C44.4782498,0.222601907 44.1608572,0.545733708 44.1608572,0.933491869 L44.1608572,2.11830847 L41.5784353,2.11830847 C41.1816945,2.11830847 40.8643019,2.44144027 40.8643019,2.82919843 L40.8643019,14.6845452 C40.8570884,15.079484 41.188908,15.3954351 41.5784353,15.3954351 L44.1608572,15.3954351 L44.1608572,16.4940833 C44.1608572,16.8890221 44.4854633,17.2049732 44.8749906,17.2049732 L51.3382588,17.2049732 C51.7349996,17.2049732 52.0523923,16.8818414 52.0523923,16.4940833 L52.0523923,0.933491869 C52.0668192,0.538553001 51.7422131,0.222601907 51.3454723,0.222601907 L51.3454723,0.222601907 Z"></path>
                    <path d="M9.37750969,0.0933491869 C8.64894932,-0.143614134 7.85546773,0.251324734 7.61742326,0.976576109 L7.57414244,1.11300954 C7.33609797,1.83826091 7.73283876,2.62813865 8.46139913,2.86510197 L14.4413649,4.82543489 L1.68795174,4.81107348 C0.78626812,4.81107348 0.043280814,5.54350556 0.043280814,6.4482746 L0.043280814,6.62061156 C0.043280814,7.5181999 0.779054651,8.25781269 1.68795174,8.25781269 L9.9113064,8.2649934 L5.91504458,10.4622896 C5.90783111,10.4622896 5.90783111,10.4694703 5.90061764,10.4694703 C5.7707752,10.5412774 5.65535969,10.6346266 5.54715766,10.7351565 L0.880043217,15.373893 C0.872829748,15.3810737 0.865616279,15.3882544 0.85840281,15.3954351 C0.238044477,16.034518 0.252471415,17.0541784 0.880043217,17.6788999 C0.887256686,17.6860806 0.959391376,17.7507069 0.959391376,17.7507069 C1.26957054,18.0163931 1.6518844,18.1528265 2.04141173,18.1528265 C2.40208518,18.1528265 2.76275862,18.0307545 3.06572432,17.7937912 C3.07293779,17.7937912 3.07293779,17.7866105 3.08015126,17.7866105 L7.6318502,14.0957272 L12.9698173,12.5877788 L12.9698173,17.1403469 C12.9698173,17.4203944 13.0419519,17.700442 13.1862213,17.944586 C13.1862213,17.9517667 13.1862213,17.9517667 13.1934348,17.9589474 L15.5522392,22.0232274 C15.9994742,22.7987437 16.9877195,23.0644299 17.7667741,22.6335875 C17.7667741,22.6335875 17.7739876,22.6335875 17.7739876,22.6264068 L17.918257,22.547419 L17.9254705,22.547419 C18.6612443,22.1237573 18.9569965,21.2189883 18.6035365,20.4506526 L18.6035365,20.4506526 L16.9300117,16.8531186 L16.9300117,13.2555845 C16.9300117,12.559056 17.3700333,11.9415152 18.026459,11.7117326 C18.0336725,11.7117326 18.0336725,11.7117326 18.040886,11.7045519 L18.8704349,11.4245043 L18.8776484,11.4245043 C19.4042316,11.2521674 19.9813091,11.4101429 20.4357577,11.654287 C20.4357577,11.654287 24.4753003,13.8587639 24.4825138,13.8659446 C25.1533664,14.2752449 25.2471415,15.1943753 24.886468,15.8837232 C24.886468,15.8909039 24.8792546,15.8909039 24.8792546,15.8980846 L22.4122482,20.1849665 C22.0155074,20.9173986 22.3545404,22.0878538 23.0542469,22.5545997 L23.2273702,22.6623103 C23.9126497,23.1146948 25.0956586,23.0141649 25.6366688,22.4038049 C25.6438823,22.3966242 33.8383831,12.8391036 33.8383831,12.8391036 L39.5225966,12.8391036 L39.5225966,3.83449737 L20.8036446,3.83449737 L9.37750969,0.0933491869 L9.37750969,0.0933491869 Z"></path>
                </g>
            </g>
        </g>
    </g>
</svg>