<?xml version="1.0" encoding="UTF-8" standalone="no"?>
<svg width="69px" height="50px" viewBox="0 0 69 50" version="1.1" xmlns="http://www.w3.org/2000/svg" xmlns:xlink="http://www.w3.org/1999/xlink">
    <!-- Generator: Sketch 3.6.1 (26313) - http://www.bohemiancoding.com/sketch -->
    <title>logo-bg-who</title>
    <desc>Created with Sketch.</desc>
    <defs></defs>
    <g id="HSS-Framework" stroke="none" stroke-width="1" fill="none" fill-rule="evenodd">
        <g id="01---View-mode" transform="translate(-30.000000, -424.000000)" fill="#212121">
            <g id="Framework" transform="translate(30.000000, 264.000000)">
                <g id="RMNCH" transform="translate(0.000000, 160.000000)">
                    <g id="thead">
                        <g id="logo-bg-who" transform="translate(-11.000000, -9.000000)">
                            <path d="M64.3365135,13.4754184 C65.8504324,15.2909898 68.4952548,16.3620755 70.0474752,18.1796755 C68.9367305,12.7999041 64.8102432,8.40601839 59.9298202,7.35927553 C62.3065317,9.16064696 62.8205788,11.659847 64.3365135,13.4754184 L64.3365135,13.4754184 Z M5.68072365,27.1155327 C9.04118011,19.753847 14.0586823,21.3117898 16.1813941,14.2969898 C14.9819511,16.4493041 9.5028145,17.3560755 6.95878567,22.8717612 C8.25700641,19.5935898 7.60789604,14.5830184 9.80317924,11.8769041 C3.23547248,16.7515612 6.03350102,24.6406755 5.68072365,27.1155327 L5.68072365,27.1155327 Z M11.7686532,44.7681612 C12.3713985,47.6385898 10.601464,51.7728184 13.4156195,55.7265041 C10.4966388,52.4361612 4.32202679,51.5983612 1.7961408,46.5938755 C4.94694671,58.8221041 13.1515405,56.304647 16.8567108,58.9620755 C13.8107302,54.5600755 16.3023464,51.632847 11.7686532,44.7681612 L11.7686532,44.7681612 Z M10.8211939,52.4463041 C9.00489444,45.6100184 12.2323034,43.254847 9.78100466,36.694447 C9.52297321,40.3884755 7.07772204,42.189847 8.72872015,48.9449898 C5.81377111,43.2203612 1.30628422,41.0903612 0,37.1650755 C0.0907141817,47.898247 8.65816468,49.4845898 10.8211939,52.4463041 L10.8211939,52.4463041 Z M23.978782,63.9057041 C21.4589437,60.394247 23.1784814,58.4082755 16.0926958,52.0284184 C17.5945195,54.359247 16.0463308,57.2864755 20.8259603,61.842647 C16.1511561,59.0675612 9.70036983,60.2542755 6.5918972,56.546047 C11.9299228,66.8288755 21.3198486,62.6277041 23.978782,63.9057041 L23.978782,63.9057041 Z M58.2687427,61.842647 C63.0483722,57.2864755 61.5021993,54.359247 63.0020071,52.0284184 C55.9162216,58.4082755 57.6377752,60.394247 55.1159209,63.9057041 C57.7768703,62.6277041 67.1647801,66.8288755 72.5028058,56.546047 C69.396349,60.2542755 62.9455628,59.0675612 58.2687427,61.842647 L58.2687427,61.842647 Z M65.6790834,55.7265041 C68.4952548,51.7728184 66.7233045,47.6385898 67.3260498,44.7681612 C62.7943725,51.632847 65.2859886,54.5600755 62.240008,58.9620755 C65.9451784,56.304647 74.1477563,58.8221041 77.2985622,46.5938755 C74.7726762,51.5983612 68.5980642,52.4361612 65.6790834,55.7265041 L65.6790834,55.7265041 Z M54.3619853,64.3905327 C51.5901631,63.6480755 48.737706,63.2788755 46.6129783,63.2241041 C43.9641242,63.1571612 41.597492,63.6622755 39.5473515,64.4311041 C37.497211,63.6622755 35.1305788,63.1571612 32.4817247,63.2241041 C30.3569969,63.2788755 27.5045399,63.6480755 24.7347335,64.3905327 C20.4731829,65.534647 16.7881712,66.4191041 13.5768892,64.782047 C16.6531079,67.5307612 20.2474054,68.5125898 25.4362566,67.9506755 C29.7582833,67.480047 33.2417079,65.3094755 37.3157826,65.3378755 C37.3702111,65.3378755 37.4226238,65.3419327 37.4750364,65.3439612 C33.1832477,67.522647 30.7601711,70.5959327 30.7601711,70.5959327 L32.725645,70.8637041 C32.725645,70.8637041 34.7939284,66.6787612 39.5473515,65.5934755 C44.3007746,66.6787612 46.3710738,70.8637041 46.3710738,70.8637041 L48.3345319,70.5959327 C48.3345319,70.5959327 45.9134712,67.522647 41.6196666,65.3439612 C41.6740951,65.3419327 41.7244918,65.3378755 41.7789204,65.3378755 C45.852995,65.3094755 49.3384355,67.480047 53.6584464,67.9506755 C58.8493135,68.5125898 62.4415951,67.5307612 65.5178138,64.782047 C62.3085476,66.4191041 58.6215201,65.534647 54.3619853,64.3905327 L54.3619853,64.3905327 Z M10.07129,29.2861041 C8.31143492,32.6799041 5.58194598,33.456847 5.87223136,40.4635327 C4.39862988,34.237847 0.876903757,31.923247 0.923268783,27.9431898 C-1.52802999,38.3213612 5.01750218,39.5567612 6.69873835,43.9060184 C6.45078626,37.6701898 10.4039087,36.4145041 10.07129,29.2861041 L10.07129,29.2861041 Z M12.5266206,21.2712184 C11.9137959,22.1333612 11.4844154,22.4985041 9.853576,23.8515612 C7.62805475,25.6955327 5.85005679,28.1196755 5.10216875,31.6554755 C5.27150189,27.8498755 2.93510775,22.3828755 4.48934406,18.3967327 C-1.52802999,26.9431041 4.83204208,32.0632184 5.0578196,35.1567898 C6.61205591,29.2009041 10.196274,29.154247 12.5266206,21.2712184 L12.5266206,21.2712184 Z M73.9945501,31.6554755 C73.2446462,28.1196755 71.4686641,25.6955327 69.2431428,23.8515612 C67.6123034,22.4985041 67.1809071,22.1333612 66.5700983,21.2712184 C68.8984289,29.154247 72.4826471,29.2009041 74.0388992,35.1567898 C74.2646768,32.0632184 80.622733,26.9431041 74.6073748,18.3967327 C76.1595952,22.3828755 73.8252169,27.8498755 73.9945501,31.6554755 L73.9945501,31.6554755 Z M79.094703,37.1650755 C77.7904346,41.0903612 73.2809319,43.2203612 70.3679987,48.9449898 C72.0189968,42.189847 69.5717298,40.3884755 69.3157142,36.694447 C66.8644154,43.254847 70.0898085,45.6100184 68.273509,52.4463041 C70.4365383,49.4845898 79.0039888,47.898247 79.094703,37.1650755 L79.094703,37.1650755 Z M69.0234129,29.2861041 C68.6907943,36.4145041 72.6459326,37.6701898 72.3979805,43.9060184 C74.0792167,39.5567612 80.622733,38.3213612 78.1714342,27.9431898 C78.2177992,31.923247 74.6960731,34.237847 73.2224716,40.4635327 C73.512757,33.456847 70.7832681,32.6799041 69.0234129,29.2861041 L69.0234129,29.2861041 Z M14.7581894,13.4754184 C16.2741242,11.659847 16.7881712,9.16064696 19.1648828,7.35927553 C14.2864757,8.40601839 10.1579725,12.7999041 9.04722772,18.1796755 C10.5994482,16.3620755 13.2442705,15.2909898 14.7581894,13.4754184 L14.7581894,13.4754184 Z M62.9133088,14.2969898 C65.0380365,21.3117898 70.0555387,19.753847 73.4139793,27.1155327 C73.061202,24.6406755 75.8592305,16.7515612 69.2935396,11.8769041 C71.4888228,14.5830184 70.8376966,19.5935898 72.1359173,22.8717612 C69.5918885,17.3560755 64.1127519,16.4493041 62.9133088,14.2969898 L62.9133088,14.2969898 Z M45.8792014,18.2811041 C44.6172663,17.7557041 43.2767123,17.382447 41.8817298,17.183647 C41.8756821,17.481847 41.8696345,17.7841041 41.8615711,18.0843327 C43.1497124,18.2750184 44.3854412,18.6198755 45.5506144,19.1067327 C45.7058365,18.859247 45.8167094,18.5853898 45.8792014,18.2811041 L45.8792014,18.2811041 Z M44.8611867,9.59881839 L45.1313133,9.35741839 L44.621298,9.13833267 L43.2787282,9.11398982 L42.9299825,9.35741839 L42.1377453,9.29047553 L42.127666,9.48318982 C42.6316337,9.51564696 43.1235061,9.56433267 43.5105533,9.63127553 L44.1636954,9.57244696 L44.8611867,9.59881839 Z M42.2768404,38.7067898 C42.2768404,38.4775612 41.9764757,38.2523898 41.5289524,38.0414184 L41.4483176,38.0393898 C41.4442858,38.2260184 41.4281589,39.1409041 41.4180795,39.5871898 C41.9704281,39.3376755 42.2768404,39.0699041 42.2768404,38.7067898 L42.2768404,38.7067898 Z M26.7364932,21.5531898 C26.7667312,21.3685898 26.8030169,21.2205041 26.8513978,21.0561898 C26.6840805,21.0987898 26.4905569,21.117047 26.3010651,21.1150184 L26.7364932,21.5531898 Z M39.5775895,61.2645041 C54.6663818,61.2645041 66.9410185,48.9105041 66.9410185,33.7246184 C66.9410185,19.4820184 56.1419991,7.7305041 42.3494118,6.32673267 C42.3393324,6.37947553 42.3272372,6.43424696 42.3171578,6.48496124 C42.2627293,6.75273267 42.2123326,6.99413267 42.1720151,7.20713267 C48.348643,7.8157041 53.9084144,10.5684755 58.1074731,14.712847 L55.0876987,17.7536755 L55.2026034,17.2181327 L54.8095086,17.041647 L54.2632076,17.0112184 L54.3801281,16.6602755 L54.0132397,15.4147327 L53.2633358,14.585047 L50.9027512,13.3334184 L50.7011641,13.5504755 L50.2717836,13.676247 C51.0821637,14.8791898 51.5216235,16.2647041 51.5216235,17.6705041 C51.5216235,17.851047 51.5175917,18.0315898 51.5075124,18.2080755 L52.6767174,19.6869041 L52.1284006,19.8147041 L52.4912573,20.3664755 L51.4591315,21.4030755 L51.0438621,20.6078755 C50.8463068,21.1637041 50.5842436,21.6789612 50.2637202,22.1597327 C50.3403232,22.2307327 50.4189422,22.2997041 50.4955453,22.3747612 L47.3165172,25.5717898 C47.1229936,25.3871898 46.9234224,25.2107041 46.7178036,25.0403041 C46.4134071,25.1823041 46.102963,25.3141612 45.7864713,25.4358755 C45.8771855,25.5068755 45.9678997,25.575847 46.056598,25.6488755 L45.8953283,25.8111612 L45.5244081,26.0221327 L45.3832972,26.3953898 L45.151472,26.1621041 L44.482203,26.3872755 L44.6656472,26.683447 L45.1292975,26.5597041 L45.4316781,26.5820184 L45.4538526,26.4197327 L45.6856778,26.3020755 L45.7562333,26.1621041 L46.1735185,26.044447 L46.4980737,26.030247 C46.5625815,26.087047 46.6270894,26.143847 46.6895814,26.2047041 L45.4276463,27.4725612 L45.3329004,27.336647 L44.0165368,27.5577612 L43.7242356,27.8539327 L43.4339502,27.8863898 L44.2523937,27.0993041 L43.9600925,26.9512184 L43.1960775,27.9797041 L43.4198391,27.9553612 L43.4077439,28.3347041 L43.685934,28.4422184 L43.7423784,28.8479327 L43.2827599,28.7546184 L42.8029827,28.8438755 L41.6478888,28.245447 C41.6478888,28.245447 41.5833809,31.3714755 41.551127,32.9415898 C44.2826318,33.8666184 47.179438,35.2014184 47.179438,38.7067898 C47.179438,40.2464755 46.5182324,41.4920184 45.2159799,42.4089327 L45.2280751,42.4129898 C45.2079164,42.4251612 45.1877577,42.4393612 45.167599,42.4515327 L45.1615514,42.4474755 C45.1313133,42.4677612 45.1030911,42.488047 45.074869,42.5083327 C43.9701718,43.2447041 42.548983,43.6341898 41.3193018,44.0236755 C41.3112384,44.0257041 41.2810003,46.478247 41.2810003,46.478247 C43.2404266,47.458047 45.6151223,48.8821041 45.3974083,52.9595327 C45.3691861,53.9636755 44.980123,54.2375327 44.6495202,54.330847 C43.5024898,54.6168755 42.3191737,54.8055327 41.1096513,54.8927612 C41.1036037,55.2092184 41.0975561,55.5114755 41.0935243,55.7914184 C46.3650262,55.4283041 51.1325604,53.1867327 54.7369372,49.7280184 L57.9139495,52.925047 C53.1524629,57.5339612 46.6875655,60.3699041 39.5775895,60.3699041 C32.5038992,60.3699041 26.06924,57.5643898 21.3158168,53.0001041 L24.4948449,49.801047 C28.0629361,53.1928184 32.7558831,55.3978755 37.9427184,55.7853327 C37.9386867,55.5074184 37.9326391,55.2071898 37.9286073,54.8866755 C32.99174,54.4992184 28.5265863,52.3955898 25.1237966,49.1701612 L25.9724782,48.3141041 L27.1356356,48.4500184 L27.7545079,47.7785612 L29.3792997,47.8333327 L29.6191883,47.2673612 L29.5627439,47.0279898 C31.915265,48.8273327 34.7556268,50.0079612 37.8459566,50.3325327 C37.839909,49.9836184 37.8338614,49.6773041 37.8298296,49.431847 C34.4169605,49.048447 31.3286466,47.5635327 28.9317764,45.3361612 L32.1128203,42.1350755 C32.8848988,42.828847 33.7517232,43.4171327 34.691119,43.8755898 C34.7616744,43.5713041 34.8705315,43.2893327 35.0116424,43.0357612 C34.1871513,42.6239612 33.4231363,42.1107327 32.741772,41.5021612 L35.9308794,38.2949898 C36.4348471,38.7027327 37.0113861,39.0273041 37.6342902,39.2484184 C37.6282426,38.9299327 37.6201791,38.597247 37.6141315,38.284847 C37.2371637,38.1185041 36.8843863,37.9095612 36.561847,37.6580184 L37.4609253,36.7532755 C37.1464495,36.6579327 36.8279419,36.5565041 36.5094343,36.4469612 L35.9107207,37.0514755 C35.6043084,36.7106755 35.3482928,36.3293041 35.1467057,35.913447 C34.596373,35.6700184 34.066199,35.3921041 33.5723107,35.0655041 C31.6128844,33.769247 30.6190601,31.9394755 30.6190601,29.6289327 C30.6190601,27.8640755 31.1109326,26.527247 31.9072015,25.490647 L28.7362369,22.2997041 C31.0202184,20.1047898 33.957342,18.5914755 37.2230526,18.0944755 C37.217005,17.7841041 37.2129732,17.481847 37.2069256,17.1937898 C33.7033423,17.7009327 30.5505205,19.3156755 28.1072852,21.6688184 L27.5730795,21.1292184 C27.4501114,21.344247 27.3090004,21.6181041 27.1457149,21.9629612 L27.4823653,22.3037612 C24.7528764,25.2289612 23.0575291,29.140047 22.9869736,33.4446755 L18.4855344,33.4446755 C18.5581057,27.8924755 20.7574206,22.8474184 24.3013213,19.100647 L25.7305737,20.5389041 C25.7950815,20.5409327 25.8636211,20.5389041 25.9321607,20.534847 C26.1861605,20.5165898 26.4683824,20.4374755 26.7425408,20.2954755 L24.9262413,18.4677327 C25.8878116,17.5345898 26.9360644,16.6907041 28.0568885,15.9523041 C28.1455868,15.6480184 28.2302533,15.3822755 28.2786342,15.2869327 C28.3330628,15.1753612 28.6193164,14.7960184 28.9660462,14.357847 C27.2606195,15.309247 25.6902563,16.4797327 24.2993055,17.836847 L21.1222932,14.6377898 C25.289098,10.5563041 30.7863774,7.84004696 36.8864022,7.21727553 C36.8662434,7.10773267 36.8501165,7.02253267 36.8501165,7.02253267 C36.8077832,6.80953267 36.763434,6.57827553 36.717069,6.33687553 C22.9668149,7.77918982 12.2101289,19.5104184 12.2101289,33.7246184 C12.2101289,48.9105041 24.4867815,61.2645041 39.5775895,61.2645041 L39.5775895,61.2645041 Z M45.4840907,42.2385327 L45.480059,42.2162184 L45.4901383,42.2344755 C45.4881225,42.2344755 45.4861066,42.2385327 45.4840907,42.2385327 L45.4840907,42.2385327 Z M58.732393,15.3477898 C63.2076259,20.0703041 65.9794482,26.4379898 66.0500036,33.4446755 L61.554612,33.4446755 C61.5122787,29.9758184 60.6696447,26.6956184 59.2081385,23.7825898 L59.24644,23.701447 L59.5589,23.8677898 L59.6314713,23.6284184 L58.825123,22.210447 L57.8756479,20.8837612 L56.7588556,19.9445327 C56.3758401,19.4617327 55.9746819,18.9971898 55.5533649,18.5488755 L58.732393,15.3477898 Z M53.0053043,21.1474755 L54.085811,21.1961612 L54.3418266,21.5105898 L54.2148267,21.9710755 L55.7146345,22.9103041 L56.0089517,22.8717612 L57.9280606,25.0829041 L58.7142501,24.8070184 C59.9298202,27.4401041 60.6273114,30.3632755 60.6676289,33.4446755 L56.1661896,33.4446755 C56.1480467,32.264047 56.0008882,31.1118184 55.7489043,30.0021898 L55.9545232,29.722247 L56.2327133,28.3042755 L56.0230628,26.7808184 L55.4807935,25.0281327 L54.226922,23.1821327 L54.5313184,23.3444184 L54.6845246,23.190247 L53.6786051,22.5025612 L53.6100655,22.7297612 L54.6180009,24.1761327 L55.1884923,25.3648755 L55.5936823,26.5394184 L55.7247139,27.3325898 L55.9323486,28.6633327 L55.5553808,28.6917327 C55.5553808,28.6917327 55.1219685,27.876247 54.9869052,27.5395041 L55.1884923,27.237247 L54.8054768,26.683447 L54.8054768,26.1316755 L54.5313184,25.7827612 L54.1906363,25.8273898 C54.0676682,25.5981612 53.9406683,25.3729898 53.8076209,25.149847 L54.0475095,25.2756184 L54.1140332,25.2107041 L53.9850175,24.9246755 L54.2773187,24.7583327 L54.1442713,24.5919898 L53.7108591,24.7583327 L53.868097,24.0726755 L53.6120814,23.9245898 L53.3802563,24.4723041 C52.8883838,23.7318755 52.3440987,23.0320184 51.7433692,22.380847 L53.0053043,21.1474755 Z M52.106226,31.7569041 L52.9105584,31.3146755 L53.7350495,31.184847 L53.9164779,30.7811612 L54.3740805,30.503247 L54.5514771,30.1178184 L54.694604,29.4483898 C54.7591118,29.6857327 54.8195879,29.9230755 54.8760323,30.162447 L54.4385884,31.4729041 L54.4204455,31.9151327 L55.0554448,31.0651612 C55.1864764,31.8400755 55.2650954,32.6352755 55.2792065,33.4446755 L51.3361634,33.4446755 L51.2454492,33.0998184 L51.7030518,32.732647 L51.793766,32.5115327 L51.9953531,32.363447 L52.5255271,32.3086755 L52.5819715,32.0693041 L52.106226,31.7569041 Z M46.7057084,28.6450755 L47.1088825,28.5517612 L47.0887238,28.4543898 L46.6875655,28.1845898 L46.8246447,27.3305612 L47.3064378,26.8477612 C47.6088184,27.1905898 47.8870086,27.5557327 48.1430242,27.9371041 L47.973691,28.4625041 L47.5342312,28.1480755 L47.1995967,28.2393612 L47.3648981,28.5517612 L47.5301995,28.5517612 L47.3467552,29.012247 L47.2197554,28.827647 L46.7057084,28.6450755 Z M48.4292778,43.6747612 L47.4576281,43.3948184 L47.163311,43.5043612 L46.6149942,43.0803898 L46.0989313,42.8937612 C46.3549469,42.7091612 46.602899,42.5144184 46.8407717,42.3095327 L47.6410724,42.8775327 L48.2518812,43.2021041 L48.5542618,43.5084184 L48.4292778,43.6747612 Z M47.9353895,26.214847 L51.1164335,23.0117327 C51.8623056,23.8251898 52.5194795,24.7177612 53.0839233,25.6711898 L52.6867967,25.7807327 L52.7089713,26.4968184 L53.9023668,27.2534755 C54.194668,27.9066755 54.4426201,28.5821898 54.6462231,29.2759612 L54.4385884,29.5843041 L54.0071921,29.8581612 L53.898335,30.5235327 L53.6060338,30.687847 L53.3621134,30.9799612 L53.1101296,30.8907041 L52.6726856,30.872447 L52.9287012,30.5235327 L53.1101296,29.6208184 L53.4044467,29.4362184 L52.5436699,28.6085612 L51.9046389,28.827647 L51.7574803,29.4362184 L51.3543062,29.878447 L50.9350051,29.5275041 L50.7858307,29.1562755 L51.0237034,29.0061612 L51.1567509,29.2516184 L51.3543062,29.1785898 L51.2696396,28.770847 L50.9894336,28.7546184 L50.9712908,28.9189327 L50.7878465,28.9574755 L49.8000699,27.7971327 L49.4654354,27.5374755 L49.5924352,27.3995327 L49.8927999,27.294047 L49.6166257,27.1845041 C49.6166257,27.1845041 49.2658642,27.2636184 49.2255467,27.2636184 L49.4251179,27.5151612 L48.9231661,27.507047 C48.6248173,27.052647 48.2942145,26.6185327 47.9353895,26.214847 L47.9353895,26.214847 Z M49.5541337,43.2507898 L49.1227373,42.8166755 L49.4533401,42.3845898 L49.8706254,41.5346184 L49.7073398,41.2932184 L49.9835141,40.6643612 L49.9512602,40.0963612 L49.7859588,39.5080755 L49.392864,39.3681041 L49.2497372,39.7007898 L49.0158962,39.6379041 C49.3545625,39.094247 49.7113716,38.583047 49.9552919,37.9846184 L50.3604819,37.8081327 L50.5862595,37.5018184 L50.6971324,37.6296184 L50.9712908,37.2989612 L50.7515609,37.021047 L50.9531479,36.9662755 L51.3180205,37.1143612 L52.0134959,37.1326184 L52.4348129,36.9115041 L53.5314466,36.6173612 L53.3258278,36.2501898 L53.2552723,35.8059327 L53.8439065,36.0655898 L54.0636364,35.9377898 L53.9527635,35.4752755 L53.229066,35.7491327 L52.4348129,35.5848184 L51.8300517,34.3392755 L55.271143,34.3392755 C55.1179368,38.3233898 53.493145,41.9322184 50.9289575,44.6342755 L50.4572437,44.1575612 L50.6588308,43.5226184 L50.2939582,42.1229041 L49.5541337,43.2507898 Z M50.1629266,52.0791327 L50.5862595,51.1662755 L50.4209581,50.7605612 L51.0438621,50.2067612 L51.0438621,49.8761041 L50.5136881,49.5434184 L50.9531479,48.6609898 L51.6103218,47.7947898 L50.9531479,47.0787041 L50.4572437,47.0787041 L50.1508314,46.577647 C50.4149105,46.3565327 50.6749578,46.1313612 50.9269416,45.8940184 L54.1079856,49.0971327 C52.916606,50.2371898 51.5941948,51.2393041 50.1629266,52.0791327 L50.1629266,52.0791327 Z M54.1261284,47.8515898 L54.4768899,47.4560184 L54.1462871,45.7073898 L53.914462,45.6161041 L54.0555729,45.3199327 L53.305669,45.0805612 L53.1585105,45.7073898 L53.0839233,46.5005612 L52.9266854,46.6445898 L51.5579091,45.2651612 C54.2813505,42.402847 56.0049199,38.5708755 56.1581261,34.3392755 L60.6595654,34.3392755 C60.5043433,39.8164184 58.2768062,44.7823612 54.7389531,48.466247 L54.1261284,47.8515898 Z M55.3658889,49.0971327 C59.0650116,45.2509612 61.3933423,40.0639041 61.5485644,34.3392755 L66.0459719,34.3392755 C65.888734,41.3114755 63.0564356,47.6304755 58.544917,52.2961898 L55.3658889,49.0971327 Z M28.2967771,44.7113612 C27.9722219,44.3725898 27.6597619,44.0196184 27.3654448,43.652447 L27.502524,42.5083327 L27.0267785,41.408847 L26.9159056,39.690647 L26.3837158,38.6479612 L26.4945887,37.9988184 L25.8515259,36.7593612 L25.2911139,36.4773898 L25.5189073,35.8181041 L25.2830504,35.2967612 L25.5148755,34.7023898 L26.1317319,34.7023898 L26.3474301,34.3392755 L27.3976987,34.3392755 L27.5609843,34.6516755 L27.3654448,35.7268184 L27.2364291,35.9114184 L27.6315397,36.7776184 L27.3714924,36.9196184 L27.1900641,36.6903898 L27.1154768,36.7755898 L27.2948893,37.2888184 L27.6033176,37.8892755 L27.7464444,37.8750755 L27.8311109,37.3375041 L27.6819365,37.1407327 L27.6658096,36.7776184 L27.6214604,36.027047 L27.8411903,34.6983327 L27.627508,34.3392755 L28.3814437,34.3392755 C28.5306181,37.1143612 29.6816803,39.6257327 31.4758052,41.5123041 L28.2967771,44.7113612 Z M25.3253837,35.8627327 L24.9000349,36.5341898 L24.1702897,36.5341898 L24.1138454,36.4915898 C23.9908773,35.7897041 23.9102424,35.0695612 23.8840361,34.3392755 L25.2387012,34.3392755 L24.914146,35.430647 L25.3253837,35.8627327 Z M26.8030169,32.7590184 L26.8876835,31.8563041 L27.4198733,31.5459327 L28.3713643,31.7163327 L28.516507,31.8907898 C28.4338563,32.3979327 28.3834595,32.917247 28.3713643,33.4446755 L27.2928735,33.4446755 L26.8030169,32.7590184 Z M31.368964,36.140647 L31.5927257,36.027047 L32.1833758,36.4733327 L31.9273602,36.6822755 L32.5885658,37.1245041 L32.5462325,36.6498184 L32.8990099,36.0635612 L33.2679142,36.4550755 L33.6448821,37.0007612 L32.9635178,37.1529041 L33.271946,37.773647 L33.7476915,37.5200755 L33.6872153,37.3212755 L34.0399927,37.0798755 L34.2496433,36.0960184 C34.5076747,36.680247 34.8564204,37.2178184 35.2817691,37.6843898 L32.102741,40.8814184 C30.5868062,39.278847 29.5728232,37.191447 29.3188235,34.8748184 L29.9679339,35.5746755 L30.5807586,35.5604755 L31.368964,36.140647 Z M28.111317,22.934647 L31.2883292,26.1337041 C30.6251077,26.8660184 30.0566322,27.6896184 29.6010454,28.5781327 L29.3792997,28.5639327 L28.9317764,28.7059327 L28.7785702,28.6917327 L28.3008088,29.1359898 L28.9035542,29.0386184 L29.4438075,28.9027041 C29.4115536,28.9716755 29.3792997,29.040647 29.3490616,29.1096184 L28.875332,29.4037612 L28.6515703,29.4037612 L27.9520632,29.9393041 L27.2787624,29.8845327 L26.2990492,31.7163327 L26.4945887,32.0835041 L25.9623988,32.6738184 L25.8837798,33.4446755 L23.8739568,33.4446755 C23.9445122,29.3875327 25.5410818,25.6995898 28.111317,22.934647 L28.111317,22.934647 Z M24.0029725,47.0726184 L25.0109078,47.6649612 L25.2205584,47.8069612 L24.4908132,48.5433327 C24.1460993,48.1883327 23.8195282,47.8191327 23.5010207,47.4418184 L24.0029725,47.0726184 Z M22.9950371,34.3392755 C23.0111641,34.7794755 23.0494656,35.2156184 23.0978465,35.6477041 L22.5475138,35.771447 L22.4346251,36.3353898 L21.2855788,37.802047 L21.3158168,39.818447 L20.1385483,40.2140184 L19.4954856,40.2201041 C18.8987879,38.3578755 18.5500422,36.3840755 18.4935978,34.3392755 L22.9950371,34.3392755 Z M18.5560898,40.1917041 L18.2899949,40.1409898 L18.0380111,39.8590184 L16.7780919,39.747447 L17.1691708,40.2829898 L15.9999658,40.0578184 L16.3063781,39.775847 L16.0221404,39.4938755 L15.1795064,39.861047 L14.8771258,40.4249898 L14.9920304,41.7131327 L15.9596484,44.0520755 L16.4293462,44.7843898 L16.697457,44.8837898 L15.9596484,43.482047 L15.8003946,42.7700184 L15.965696,42.5935327 L15.8649024,42.1999898 L16.3063781,42.2588184 L16.9837107,43.2913612 L17.1530438,43.3603327 L17.134901,42.6077327 L17.4090594,42.7679898 L17.4675197,43.1797898 L18.1831538,43.3704755 L18.4794868,43.1534184 L18.5822962,43.226447 L18.5702009,43.7761898 L18.8846768,44.1656755 L19.2656763,44.2529041 L20.1002468,45.6708755 L20.6042145,45.8128755 L20.7614524,45.1495327 C21.640372,46.6080755 22.6825772,47.9591041 23.8618615,49.1742184 L20.6848493,52.3732755 C16.1289815,47.699447 13.2644292,41.3500184 13.1071913,34.3392755 L17.6045989,34.3392755 C17.6590274,36.3698755 17.9896302,38.3315041 18.5560898,40.1917041 L18.5560898,40.1917041 Z M20.4953575,15.2707041 L23.6723697,18.4697612 C19.9692152,22.3788184 17.6711226,27.6470184 17.5985513,33.4446755 L13.1011437,33.4446755 C13.1737151,26.399447 15.9777912,20.0013327 20.4953575,15.2707041 L20.4953575,15.2707041 Z M53.0476376,13.6214755 L52.7734792,13.179247 L52.1868608,12.8851041 L51.7292582,13.236047 L52.3158765,13.548447 L52.9730504,14.0271898 L53.0476376,13.6214755 Z M50.3221804,26.3893041 L50.3403232,26.740247 L51.1204652,26.5049327 L51.3583379,26.0261898 L50.8201005,25.3161898 L51.1063541,24.8841041 L51.8340834,25.405447 L51.9671309,25.2979327 L51.8240041,25.1944755 L51.6587027,24.880047 L51.9570515,24.7076184 L51.6627344,24.3201612 L50.983386,24.6690755 L50.7434974,25.0829041 L50.608434,25.4602184 L50.9087988,25.9673612 L50.7979259,26.2067327 L50.3221804,26.3893041 Z M17.8061859,46.6871898 L17.8626303,46.4843327 L17.4574403,45.597847 L16.9776631,45.4193327 L17.8061859,46.6871898 Z M36.1929426,29.6816755 C36.1929426,30.4423898 36.6525612,30.9759041 37.4891475,31.4384184 C37.4891475,31.4384184 37.4851158,31.3085898 37.481084,31.1016755 L36.9549418,30.5722184 L37.2331319,30.063047 L37.4609253,30.0001612 C37.4427825,29.1136755 37.4246396,28.1237327 37.4226238,27.9837612 L37.3802905,27.9878184 C36.6142596,28.4138184 36.1929426,28.9371898 36.1929426,29.6816755 L36.1929426,29.6816755 Z" id="Fill-1"></path>
                            <path d="M41.3691727,48.8861813 C42.7782663,49.6042956 44.0825347,50.596267 44.6268198,52.4787813 C44.8646925,49.3628956 43.1290278,48.0098385 41.4054584,47.0990099 C41.4074743,47.103067 41.3691727,48.8882099 41.3691727,48.8861813" id="Fill-3"></path>
                            <path d="M50.6047529,17.1018413 C50.6047529,14.2699556 48.5626759,11.1276984 43.5613006,10.0200984 C43.1923963,9.93692702 42.6279525,9.88012702 42.0373024,9.84158416 C42.027223,10.2696127 42.0050485,11.2453556 42.0050485,11.2453556 C41.996985,11.5536984 41.9727945,12.6856413 41.9667469,12.9310984 C42.4283813,12.9716699 42.7690635,13.0284699 42.9283172,13.0670127 C45.8331869,13.7648413 46.8733762,15.4424699 46.8733762,17.1018413 C46.8733762,19.7876699 44.5893947,20.8019556 41.7833027,21.566727 C41.4789062,21.6498984 41.1664462,21.7310413 40.8539863,21.8101556 C40.001273,22.0251842 39.1243692,22.2300699 38.2595607,22.4653842 C37.9491166,22.5485556 37.6406884,22.6378127 37.3383078,22.7290984 C34.2258034,23.6845556 31.5527589,25.1917842 31.5527589,29.0622984 C31.5527589,32.8922413 34.6027712,34.3244127 37.5822281,35.2474127 C37.5600536,34.1458984 37.5398948,33.0362699 37.5177203,31.9266413 C36.2033726,31.307927 35.276072,30.4904127 35.276072,29.1150413 C35.276072,27.772127 36.118706,26.9606984 37.4108791,26.3724127 C37.6971328,26.2425842 38.0035451,26.124927 38.3301162,26.0133556 C39.0719566,25.7577556 39.9045112,25.5447556 40.7793991,25.3317556 C41.0837955,25.2566984 41.3962555,25.1816413 41.7107313,25.1045556 C45.9037424,24.0821556 50.6047529,22.7615556 50.6047529,17.1018413" id="Fill-5"></path>
                            <path d="M35.7598372,44.5163171 C35.7679007,46.0641171 36.8967883,46.9080028 38.0297077,47.5449743 C38.0256759,47.2853171 37.9813268,44.8895743 37.9813268,44.8490028 C38.0055172,44.37026 38.4651357,44.0842314 38.8360559,43.9077457 C39.3823569,43.6480885 39.9347055,43.4594314 40.6382444,43.2139743 C40.9728789,43.0983457 41.2631643,42.9827171 41.5836877,42.8853457 C43.8596057,42.1956314 46.490317,41.31726 46.490317,38.5300028 C46.490317,35.7407171 44.2345577,34.5986314 41.7671319,33.7425743 C41.7489891,34.6310885 41.7227828,35.9273457 41.70464,36.8219457 C42.748861,37.2357743 43.4382888,37.7368314 43.4382888,38.5300028 C43.4382888,39.52806 42.3779408,40.1021457 41.6280369,40.39426 C41.3175928,40.5159743 40.8398314,40.6762314 40.7087998,40.7168028 C40.1020227,40.90546 39.4508965,41.1245457 38.8441194,41.3497171 C38.523596,41.4714314 38.2131519,41.60126 37.9228665,41.7513743 C36.8564709,42.3011171 35.7517738,43.10646 35.7598372,44.5163171" id="Fill-7"></path>
                            <path d="M37.2725729,10.5445545 C35.758654,10.9806973 34.8676391,11.554783 34.5309887,11.668383 C33.5492597,11.9970116 32.1663724,12.0538116 30.73712,13.6178402 C30.4831203,13.8957545 29.864248,14.6808116 29.4247882,15.3218402 C28.9954078,15.9466402 28.975249,16.950783 28.6587573,17.490383 C28.2011547,18.271383 28.3100117,18.7176687 28.3100117,18.7176687 L28.3241228,18.7420116 C28.3079958,18.839383 28.2152658,19.2532116 27.7979806,19.7218116 C27.3202192,20.2553259 26.6912675,20.5494687 25.9433795,20.429783 C26.5945057,20.756383 27.4935841,20.2999545 27.4935841,20.2999545 C27.4935841,20.2999545 27.3222351,20.7928973 27.1508861,21.6022973 C27.8806313,19.9368402 28.5499003,19.3302973 28.7595509,19.1619259 C29.0740267,19.2329259 29.7231371,19.2024973 30.9306436,18.5066973 C32.2953881,17.7196116 34.3475445,16.4314687 34.9281152,15.6180116 C35.555051,14.7396402 36.4158278,14.1594687 37.3451442,13.784183 C37.3189379,12.5568973 37.2947474,11.4655259 37.2725729,10.5445545 L37.2725729,10.5445545 Z M31.5132303,15.7356687 L30.8096914,15.8898402 L31.6503095,14.5043259 L32.6380861,14.5347545 L31.5132303,15.7356687 Z" id="Fill-9"></path>
                            <path d="M39.7719896,44.4575287 C39.640958,44.5041859 39.29826,44.650243 39.0825618,44.7273287 C38.8547684,44.8105001 38.564483,44.9261287 38.564483,45.0072716 C38.5664989,45.0295859 38.784213,57.0103287 38.784213,57.274043 C38.784213,59.7407859 40.0340528,59.7549859 40.0340528,57.274043 C40.0340528,57.0975573 40.2860366,44.2871287 40.2860366,44.2871287 C40.2860366,44.2871287 39.983656,44.380443 39.7719896,44.4575287" id="Fill-11"></path>
                            <path d="M38.814451,40.3976141 C39.2035141,40.2616999 39.5905612,40.1420141 39.9514021,40.0304427 C40.2235446,39.9452427 40.4735126,39.868157 40.7073536,39.7910713 C40.7234806,39.0364427 40.935147,28.6095856 40.9734485,26.7128713 C40.0421163,26.946157 39.2317363,27.1652427 38.564483,27.4127284 C38.5927052,28.834757 38.7922764,39.257557 38.814451,40.3976141" id="Fill-13"></path>
                            <path d="M39.4532398,0 C35.9456248,0 37.4353532,5.23371429 37.7135434,6.93974286 C37.7256386,7.02088571 37.9977812,18.7663143 38.0522097,21.4602571 C38.5843995,21.3202857 39.1145735,21.1884286 39.6266047,21.0626571 C39.9934932,20.9713714 40.3482864,20.8821143 40.6849368,20.7969143 C40.7393653,18.2003429 40.9973968,6.99248571 41.0054603,6.91742857 C41.2151108,5.09374286 43.0535849,0 39.4532398,0" id="Fill-15"></path>
                        </g>
                    </g>
                </g>
            </g>
        </g>
    </g>
</svg>