<?xml version="1.0" encoding="UTF-8" standalone="no"?>
<svg width="37px" height="42px" viewBox="0 0 37 42" version="1.1" xmlns="http://www.w3.org/2000/svg" xmlns:xlink="http://www.w3.org/1999/xlink">
    <!-- Generator: Sketch 3.7.2 (28276) - http://www.bohemiancoding.com/sketch -->
    <title>icon-role-investor</title>
    <desc>Created with Sketch.</desc>
    <defs></defs>
    <g id="Landing-page" stroke="none" stroke-width="1" fill="none" fill-rule="evenodd">
        <g id="01---Landing-page" transform="translate(-668.000000, -1101.000000)" fill="#212121">
            <g id="Content" transform="translate(530.000000, 579.000000)">
                <g id="Sign-up" transform="translate(110.000000, 70.000000)">
                    <g id="1" transform="translate(0.000000, 212.000000)">
                        <g id="icon-role-investor" transform="translate(28.000000, 240.000000)">
                            <path d="M24.9181914,35.9255072 L19.5961634,35.9255072 L18.1368977,29.2948989 C21.0983488,25.1881996 17.9222998,25.0170871 17.3643453,25.0170871 L17.3643453,25.0170871 L17.3643453,25.0170871 C16.8063907,25.0170871 13.6732614,25.2309777 16.5917928,29.2948989 L15.1325271,35.9255072 L0.411111111,35.9255072 L0.411111111,31.1771361 C0.411111111,30.1932394 0.840306913,29.2093427 1.61285936,28.5676709 C5.94773695,25.0170871 10.6259712,22.6642906 11.570202,22.1937313 C11.6560411,22.1509532 11.7418803,22.0226188 11.7418803,21.9370626 L11.7418803,19.4559317 C11.0980866,18.3864788 10.7547299,17.1459134 10.5830516,16.0764604 C10.1967754,16.0336823 9.68174043,15.5203449 9.16670546,13.6381077 C8.4370726,11.0286425 9.20962504,10.6436394 9.85341875,10.7291956 C9.38130337,9.36029586 9.33838379,8.0341742 9.68174043,6.79360878 C10.0250971,5.33915276 10.7976495,4.18414357 11.6989607,3.24302497 C12.2569152,2.64413132 12.9007089,2.1307939 13.5874222,1.70301272 C14.1453768,1.31800966 14.7462509,1.01856283 15.3900446,0.76189412 L15.3900446,0.76189412 C15.9050796,0.590781647 16.4630341,0.462447293 17.0639082,0.462447293 C18.8665306,0.29133482 20.2399571,0.76189412 21.2271075,1.31800966 C22.6863732,2.1307939 23.2443278,3.20024685 23.2443278,3.20024685 C23.2443278,3.20024685 26.9354117,3.45691556 25.3044676,11.1569768 C25.8195026,11.3280893 26.1628592,12.0125392 25.5619851,14.0231107 C24.8752718,16.5042416 24.2314781,16.6325759 23.8452019,16.3759072 C23.6735236,17.2314696 23.4160061,18.1725882 22.9868103,19.0709287 L22.9868103,21.9370626 C22.9868103,22.0653969 23.0726494,22.1509532 23.1584886,22.1937313 C23.630604,22.4504 25.1327893,23.177628 27.0212508,24.3326372 C25.4332263,25.359312 24.4889956,26.9421024 24.4031564,28.9098959 C24.3173173,30.4499081 24.7465131,32.6315921 27.4504466,34.2571606 C27.4933662,34.2571606 27.4933662,34.2999387 27.5362858,34.2999387 C27.3646075,34.2571606 27.1929291,34.2143825 26.9783312,34.2143825 C26.5491354,34.2571606 25.4332263,34.4282731 24.9181914,35.9255072 L24.9181914,35.9255072 Z M32.8153941,39.476091 C33.7596249,39.2194223 34.5321773,38.7060849 35.175971,37.9788569 C36.8927543,35.9255072 36.206041,32.931039 33.8025445,31.5621392 C33.029992,31.134358 32.2574396,30.8349112 31.4419676,30.4926862 C30.9698522,30.3215737 30.5406564,30.064905 30.1543802,29.7654582 C29.3818277,29.1665646 29.553506,28.1826678 30.4548172,27.7548867 C30.7123347,27.6265523 30.9698522,27.6265523 31.2273697,27.5837742 C32.2574396,27.5409961 33.2445899,27.7121085 34.1888207,28.1826678 C34.6609361,28.3965584 34.8326144,28.3537803 34.9613731,27.8404429 C35.1330515,27.3271055 35.2618102,26.8137681 35.4334885,26.3004306 C35.5193277,25.9582057 35.3905689,25.701537 35.0901319,25.5732026 C34.4892578,25.3165339 33.8454641,25.1026433 33.2016704,25.0170871 C32.3432788,24.8887527 32.3432788,24.8887527 32.3432788,24.0331904 C32.3432788,22.8354031 32.3432788,22.8354031 31.1415305,22.8354031 L30.6264955,22.8354031 C30.068541,22.8354031 29.9827018,22.9637374 29.9397823,23.519853 L29.9397823,24.2898591 C29.9397823,25.0598652 29.9397823,25.0170871 29.2101494,25.2737558 C27.4504466,25.9154276 26.3774571,27.1132149 26.2486984,28.9954521 C26.1628592,30.6637987 27.0212508,31.8188079 28.3946774,32.6315921 C29.253069,33.1449295 30.1972997,33.4443764 31.0986109,33.8293794 C31.4419676,34.0004919 31.7853242,34.1716044 32.0857613,34.4282731 C32.9441529,35.1555011 32.8153941,36.3532884 31.7424046,36.7810696 C31.1844501,37.0377383 30.6264955,37.0805164 30.0256214,36.9949602 C29.0813907,36.8666258 28.2229991,36.6527352 27.3646075,36.2249541 C26.8924921,35.9682853 26.7208138,36.0538416 26.5491354,36.567179 C26.4203767,37.0377383 26.291618,37.4655195 26.1628592,37.9360788 C25.9911809,38.5349724 26.0341005,38.7060849 26.6349746,39.0055317 C27.407527,39.3905348 28.1800795,39.5616473 29.0384711,39.6899816 C29.6822648,39.7755379 29.6822648,39.818316 29.7251844,40.5027659 L29.7251844,41.4011063 C29.7251844,41.7861094 29.8968627,42 30.3260585,42 L31.6565655,42 C31.9999221,42 32.21452,41.7861094 32.21452,41.4438845 L32.21452,40.203319 C32.2574396,39.7755379 32.4291179,39.5616473 32.8153941,39.476091 L32.8153941,39.476091 Z" id="Shape"></path>
                        </g>
                    </g>
                </g>
            </g>
        </g>
    </g>
</svg>