<?xml version="1.0" encoding="UTF-8" standalone="no"?>
<svg width="42px" height="42px" viewBox="0 0 42 42" version="1.1" xmlns="http://www.w3.org/2000/svg" xmlns:xlink="http://www.w3.org/1999/xlink">
    <!-- Generator: Sketch 3.7.2 (28276) - http://www.bohemiancoding.com/sketch -->
    <title>icon-role-government</title>
    <desc>Created with Sketch.</desc>
    <defs></defs>
    <g id="Landing-page" stroke="none" stroke-width="1" fill="none" fill-rule="evenodd">
        <g id="01---Landing-page" transform="translate(-664.000000, -1235.000000)" fill="#000000">
            <g id="Content" transform="translate(530.000000, 579.000000)">
                <g id="Sign-up" transform="translate(110.000000, 70.000000)">
                    <g id="1" transform="translate(0.000000, 212.000000)">
                        <g id="icon-role-government" transform="translate(24.000000, 374.000000)">
                            <g id="Group">
                                <polygon id="Shape" points="11.08338 21.27006 21 18.62574 30.91662 21.27006 30.91662 22.16634 33.25014 22.16634 33.25014 17.50014 8.74986 17.50014 8.74986 22.16634 11.08338 22.16634"></polygon>
                                <polygon id="Shape" points="29.74986 38.50014 29.74986 25.08408 29.74986 23.91732 29.74986 23.9169 29.74986 22.16676 21 19.83366 12.25014 22.16676 12.25014 23.9169 12.25014 23.91732 12.25014 25.08408 12.25014 38.50014 15.75 38.50014 15.75 25.08408 19.24986 25.08408 19.24986 38.50014 22.75014 38.50014 22.75014 25.08408 26.25 25.08408 26.25 38.50014"></polygon>
                                <path d="M28.00014,15.16662 L28.00014,15.1662 C28.00014,11.69868 25.47636,8.82756 22.16634,8.27106 L22.16634,6.70824 C22.16634,6.54696 22.03572,6.41676 21.87486,6.41676 L21.58338,6.41676 L21.58338,4.90728 C23.63886,5.93586 25.33188,4.16346 28.00014,5.22984 L28.00014,1.16676 C25.33146,0.10038 23.63844,1.87278 21.58338,0.8442 L21.58338,0.58338 C21.58338,0.26082 21.32256,0 21,0 C20.67744,0 20.41662,0.26082 20.41662,0.58338 L20.41662,6.41676 L20.12514,6.41676 C19.96386,6.41676 19.83366,6.54738 19.83366,6.70824 L19.83366,8.27106 C16.52364,8.82756 13.99986,11.69868 13.99986,15.1662 C13.99986,15.1662 13.99986,15.1662 13.99986,15.16662 L13.99986,16.33296 L28.00014,16.33296 L28.00014,15.16662 L28.00014,15.16662 Z" id="Shape"></path>
                                <polygon id="Shape" points="11.08338 39.66648 8.74986 42 33.25014 42 30.91662 39.66648"></polygon>
                                <path d="M30.91662,23.33352 L30.91662,38.50014 L31.39962,38.50014 L31.74108,38.8416 L34.0746,41.17512 L34.8999,42 L42,42 L42,23.33352 L30.91662,23.33352 L30.91662,23.33352 Z M35.58366,35.58366 L33.25014,35.58366 L33.25014,32.08338 L35.58366,32.08338 L35.58366,35.58366 L35.58366,35.58366 Z M35.58366,29.74986 L33.25014,29.74986 L33.25014,26.25 L35.58366,26.25 L35.58366,29.74986 L35.58366,29.74986 Z M39.66648,35.58366 L37.33296,35.58366 L37.33296,32.08338 L39.66648,32.08338 L39.66648,35.58366 L39.66648,35.58366 Z M39.66648,29.74986 L37.33296,29.74986 L37.33296,26.25 L39.66648,26.25 L39.66648,29.74986 L39.66648,29.74986 Z" id="Shape"></path>
                                <path d="M10.59996,38.50014 L11.08296,38.50014 L11.08296,23.33352 L0,23.33352 L0,42 L7.1001,42 L7.92498,41.17512 L10.2585,38.8416 L10.59996,38.50014 L10.59996,38.50014 Z M4.66662,35.58366 L2.33352,35.58366 L2.33352,32.08338 L4.66704,32.08338 L4.66704,35.58366 L4.66662,35.58366 Z M4.66662,29.74986 L2.33352,29.74986 L2.33352,26.25 L4.66704,26.25 L4.66704,29.74986 L4.66662,29.74986 Z M8.74986,35.58366 L6.41634,35.58366 L6.41634,32.08338 L8.74986,32.08338 L8.74986,35.58366 L8.74986,35.58366 Z M8.74986,29.74986 L6.41634,29.74986 L6.41634,26.25 L8.74986,26.25 L8.74986,29.74986 L8.74986,29.74986 Z" id="Shape"></path>
                            </g>
                        </g>
                    </g>
                </g>
            </g>
        </g>
    </g>
</svg>