<?xml version="1.0" encoding="UTF-8"?>
<svg width="232px" height="24px" viewBox="0 0 232 24" version="1.1" xmlns="http://www.w3.org/2000/svg" xmlns:xlink="http://www.w3.org/1999/xlink">
    <!-- Generator: Sketch 43.2 (39069) - http://www.bohemiancoding.com/sketch -->
    <title>Supported by</title>
    <desc>Created with Sketch.</desc>
    <defs></defs>
    <g id="Landing-page-v2-(editable)" stroke="none" stroke-width="1" fill="none" fill-rule="evenodd">
        <g id="01---Landing-page-(logged-out)" transform="translate(-1101.000000, 0.000000)">
            <g id="Supported-by" transform="translate(1101.000000, 0.000000)">
                <path d="M1.82338548e-06,0 L232.140691,0 C221.436278,0 218.970623,8 218.965519,8 L216.416554,16 C213.789519,24 204.636829,24 204.631726,24 L27.5089673,24 C18.3513122,24 15.7190363,16 15.7241398,16 L13.1751742,8 C10.7042777,0 -0.00510162489,0 1.82338548e-06,0 Z" id="Combined-Shape" fill="#E0E0E0"></path>
                <g id="dha-logo-copy" transform="translate(94.000000, 5.000000)">
                    <path d="M6.93316376,11.5909091 L6.93316376,1.4115767 L9.98449729,1.4115767 C11.0201066,1.4115767 11.8753961,1.80658119 12.5503914,2.59660201 C13.2253867,3.38662282 13.5628793,4.40384676 13.5628793,5.64830433 L13.5628793,7.36117276 C13.5628793,8.60563033 13.2253867,9.62168907 12.5503914,10.4093794 C11.8753961,11.1970698 11.0201066,11.5909091 9.98449729,11.5909091 L6.93316376,11.5909091 Z M8.90959571,3.00559304 L8.90959571,10.0038841 L9.87353971,10.0038841 C10.4237071,10.0038841 10.8478845,9.76268663 11.1460845,9.28028453 C11.4442845,8.79788244 11.5933822,8.15818492 11.5933822,7.36117276 L11.5933822,5.63432173 C11.5933822,4.84197047 11.4442845,4.20576856 11.1460845,3.72569691 C10.8478845,3.24562526 10.4237071,3.00559304 9.87353971,3.00559304 L8.90959571,3.00559304 Z M16.6724656,11.5909091 L14.7029685,11.5909091 L14.7029685,4.0263228 L16.6724656,4.0263228 L16.6724656,11.5909091 Z M16.6724656,2.20159357 L14.7029685,2.20159357 L14.7029685,0.684481534 L16.6724656,0.684481534 L16.6724656,2.20159357 Z M17.6045093,7.45905096 C17.6045093,6.3917072 17.8229549,5.52945552 18.2598525,4.87227006 C18.6967502,4.2150846 19.3127898,3.8864968 20.1079898,3.8864968 C20.4408642,3.8864968 20.7344365,3.97155677 20.9887156,4.14167924 C21.2429947,4.31180172 21.4649076,4.55532956 21.6544611,4.87227006 L21.7792884,4.0263228 L23.4921961,4.0263228 L23.4921961,11.4440918 C23.4921961,12.4368613 23.2067143,13.2187139 22.6357422,13.7896729 C22.0647701,14.3606318 21.2822958,14.6461071 20.2882959,14.6461071 C19.964668,14.6461071 19.6202406,14.5936728 19.2550034,14.4888028 C18.8897662,14.3839328 18.549962,14.242943 18.2355806,14.0658292 L18.582323,12.5347346 C18.8458486,12.683883 19.1139934,12.7957427 19.3867655,12.8703169 C19.6595376,12.9448912 19.9554215,12.9821777 20.2744262,12.9821777 C20.6905192,12.9821777 21.0025843,12.8505096 21.2106308,12.5871693 C21.4186773,12.323829 21.522699,11.9404766 21.522699,11.4371005 L21.522699,11.0036399 C21.3377687,11.2460062 21.1274138,11.4289434 20.8916277,11.5524569 C20.6558417,11.6759705 20.3900085,11.7377264 20.0941201,11.7377264 C19.3035434,11.7377264 18.6909712,11.4312775 18.2563851,10.8183705 C17.8217991,10.2054635 17.6045093,9.39564601 17.6045093,8.38889382 L17.6045093,7.45905096 Z M19.5740064,8.38889382 C19.5740064,8.93887882 19.6526006,9.36883945 19.8097913,9.67878862 C19.966982,9.98873779 20.2305036,10.14371 20.6003641,10.14371 C20.8037873,10.14371 20.9829358,10.1017627 21.1378149,10.0178667 C21.2926939,9.93397064 21.4209873,9.81045891 21.522699,9.64732777 L21.522699,6.06778232 C21.4209873,5.88134672 21.2950055,5.73686131 21.1447497,5.63432173 C20.9944939,5.53178216 20.817657,5.48051314 20.6142338,5.48051314 C20.2443733,5.48051314 19.9785401,5.66111991 19.8167261,6.02233887 C19.6549122,6.38355783 19.5740064,6.86245707 19.5740064,7.45905096 L19.5740064,8.38889382 Z M26.6433914,11.5909091 L24.6738943,11.5909091 L24.6738943,4.0263228 L26.6433914,4.0263228 L26.6433914,11.5909091 Z M26.6433914,2.20159357 L24.6738943,2.20159357 L24.6738943,0.684481534 L26.6433914,0.684481534 L26.6433914,2.20159357 Z M30.1829383,2.14566317 L30.1829383,4.0263228 L31.2231657,4.0263228 L31.2231657,5.46653054 L30.1829383,5.46653054 L30.1829383,9.26280629 C30.1829383,9.57042501 30.2268586,9.79064875 30.3147005,9.92348411 C30.4025423,10.0563195 30.5227452,10.1227362 30.6753126,10.1227362 C30.7955173,10.1227362 30.8972274,10.1169101 30.980446,10.1052579 C31.0636646,10.0936057 31.1561283,10.0737972 31.2578399,10.0458319 L31.4104066,11.5559526 C31.2023601,11.621205 31.0035631,11.6678132 30.8140096,11.6957786 C30.6244561,11.7237439 30.4094779,11.7377264 30.1690686,11.7377264 C29.5356826,11.7377264 29.0514038,11.5408067 28.7162178,11.1469616 C28.3810317,10.7531164 28.2134412,10.1274013 28.2134412,9.26979759 L28.2134412,5.46653054 L27.3257806,5.46653054 L27.3257806,4.0263228 L28.2134412,4.0263228 L28.2134412,2.14566317 L30.1829383,2.14566317 Z M35.8098748,11.5909091 C35.7543957,11.4650651 35.7046964,11.3275709 35.6607755,11.1784224 C35.6168546,11.0292739 35.5833365,10.8777973 35.5602202,10.7239879 C35.37529,11.0316067 35.1499096,11.2774649 34.8840724,11.46157 C34.6182352,11.6456752 34.3096375,11.7377264 33.9582701,11.7377264 C33.3387538,11.7377264 32.8429171,11.5326503 32.470745,11.122492 C32.0985729,10.7123337 31.9124897,10.1646874 31.9124897,9.47953658 C31.9124897,8.7384551 32.149428,8.16284385 32.6233117,7.75268555 C33.0971954,7.34252725 33.8010755,7.13745117 34.7349732,7.13745117 L35.477002,7.13745117 L35.477002,6.5222168 C35.477002,6.1540065 35.4111216,5.8708617 35.2793588,5.67277388 C35.147596,5.47468607 34.9499548,5.37564364 34.6864292,5.37564364 C34.464513,5.37564364 34.2980783,5.45487758 34.1871201,5.61334783 C34.076162,5.77181809 34.0206837,6.00252867 34.0206837,6.30548651 L32.1136003,6.29849521 L32.0927957,6.25654741 C32.0696795,5.59936195 32.311241,5.04006356 32.8174875,4.57863548 C33.323734,4.11720739 33.9906286,3.8864968 34.8181914,3.8864968 C35.5995216,3.8864968 36.2340539,4.11604218 36.7218074,4.57513983 C37.2095609,5.03423747 37.453434,5.68791746 37.453434,6.5361994 L37.453434,9.59838867 C37.453434,9.97125985 37.4788615,10.3184909 37.5297173,10.6400923 C37.5805731,10.9616937 37.6591673,11.2786295 37.7655022,11.5909091 L35.8098748,11.5909091 Z M34.5269277,10.2415882 C34.7257277,10.2415882 34.9094994,10.1879888 35.0782482,10.0807884 C35.246997,9.97358789 35.3799137,9.8360937 35.477002,9.66830167 L35.477002,8.27703303 L34.7349732,8.27703303 C34.4344616,8.27703303 34.2171718,8.38190147 34.0830974,8.59164151 C33.949023,8.80138155 33.8819868,9.06704829 33.8819868,9.38864968 C33.8819868,9.64033773 33.9397766,9.8454138 34.055358,10.0038841 C34.1709394,10.1623543 34.3281277,10.2415882 34.5269277,10.2415882 L34.5269277,10.2415882 Z M40.5838248,11.5909091 L38.6143277,11.5909091 L38.6143277,0.684481534 L40.5838248,0.684481534 L40.5838248,11.5909091 Z M51.9209158,11.5909091 L49.9514187,11.5909091 L49.9514187,7.37515536 L46.816867,7.37515536 L46.816867,11.5909091 L44.8404351,11.5909091 L44.8404351,1.4115767 L46.816867,1.4115767 L46.816867,5.78813033 L49.9514187,5.78813033 L49.9514187,1.4115767 L51.9209158,1.4115767 L51.9209158,11.5909091 Z M56.0637946,11.7377264 C55.1206504,11.7377264 54.3716942,11.4254515 53.8169036,10.8008922 C53.2621129,10.176333 52.9847217,9.38865443 52.9847217,8.43783292 L52.9847217,7.37515536 C52.9847217,6.3544205 53.2424643,5.51780333 53.7579573,4.86527876 C54.2734504,4.21275419 54.9865769,3.8864968 55.8973582,3.8864968 C56.7757768,3.8864968 57.4553852,4.18245887 57.9362038,4.77439187 C58.4170224,5.36632487 58.6574281,6.17264671 58.6574281,7.19338157 L58.6574281,8.40986772 L54.9472839,8.40986772 L54.9472839,8.43783292 C54.9472839,8.93654813 55.0593962,9.34670027 55.2836241,9.66830167 C55.507852,9.98990306 55.8465004,10.1507013 56.2995795,10.1507013 C56.6694399,10.1507013 56.969947,10.108754 57.2011098,10.024858 C57.4322726,9.94096194 57.7073522,9.80113734 58.0263569,9.60537997 L58.525666,10.8708052 C58.2667637,11.1224933 57.9211805,11.3298998 57.4889061,11.4930309 C57.0566317,11.656162 56.5815992,11.7377264 56.0637946,11.7377264 L56.0637946,11.7377264 Z M55.8973582,5.48051314 C55.5829768,5.48051314 55.3518175,5.62499856 55.2038733,5.91397372 C55.0559292,6.20294889 54.9727118,6.59212735 54.9542188,7.08152077 L56.7226053,7.08152077 L56.7226053,6.80186879 C56.7226053,6.38238871 56.6578806,6.05729652 56.5284295,5.82658248 C56.3989783,5.59586843 56.1886233,5.48051314 55.8973582,5.48051314 L55.8973582,5.48051314 Z M63.1262448,11.5909091 C63.0707657,11.4650651 63.0210664,11.3275709 62.9771455,11.1784224 C62.9332246,11.0292739 62.8997065,10.8777973 62.8765902,10.7239879 C62.69166,11.0316067 62.4662796,11.2774649 62.2004424,11.46157 C61.9346052,11.6456752 61.6260075,11.7377264 61.2746401,11.7377264 C60.6551238,11.7377264 60.1592871,11.5326503 59.787115,11.122492 C59.4149429,10.7123337 59.2288597,10.1646874 59.2288597,9.47953658 C59.2288597,8.7384551 59.465798,8.16284385 59.9396817,7.75268555 C60.4135654,7.34252725 61.1174455,7.13745117 62.0513432,7.13745117 L62.793372,7.13745117 L62.793372,6.5222168 C62.793372,6.1540065 62.7274916,5.8708617 62.5957288,5.67277388 C62.463966,5.47468607 62.2663248,5.37564364 62.0027992,5.37564364 C61.780883,5.37564364 61.6144483,5.45487758 61.5034901,5.61334783 C61.392532,5.77181809 61.3370537,6.00252867 61.3370537,6.30548651 L59.4299703,6.29849521 L59.4091657,6.25654741 C59.3860495,5.59936195 59.627611,5.04006356 60.1338575,4.57863548 C60.640104,4.11720739 61.3069986,3.8864968 62.1345614,3.8864968 C62.9158916,3.8864968 63.5504239,4.11604218 64.0381774,4.57513983 C64.5259309,5.03423747 64.769804,5.68791746 64.769804,6.5361994 L64.769804,9.59838867 C64.769804,9.97125985 64.7952315,10.3184909 64.8460873,10.6400923 C64.8969431,10.9616937 64.9755373,11.2786295 65.0818722,11.5909091 L63.1262448,11.5909091 Z M61.8432977,10.2415882 C62.0420977,10.2415882 62.2258694,10.1879888 62.3946182,10.0807884 C62.563367,9.97358789 62.6962837,9.8360937 62.793372,9.66830167 L62.793372,8.27703303 L62.0513432,8.27703303 C61.7508316,8.27703303 61.5335418,8.38190147 61.3994674,8.59164151 C61.265393,8.80138155 61.1983568,9.06704829 61.1983568,9.38864968 C61.1983568,9.64033773 61.2561466,9.8454138 61.371728,10.0038841 C61.4873094,10.1623543 61.6444977,10.2415882 61.8432977,10.2415882 L61.8432977,10.2415882 Z M67.9001948,11.5909091 L65.9306977,11.5909091 L65.9306977,0.684481534 L67.9001948,0.684481534 L67.9001948,11.5909091 Z M71.4397417,2.14566317 L71.4397417,4.0263228 L72.479969,4.0263228 L72.479969,5.46653054 L71.4397417,5.46653054 L71.4397417,9.26280629 C71.4397417,9.57042501 71.483662,9.79064875 71.5715038,9.92348411 C71.6593457,10.0563195 71.7795485,10.1227362 71.932116,10.1227362 C72.0523206,10.1227362 72.1540307,10.1169101 72.2372493,10.1052579 C72.3204679,10.0936057 72.4129317,10.0737972 72.5146433,10.0458319 L72.66721,11.5559526 C72.4591634,11.621205 72.2603664,11.6678132 72.0708129,11.6957786 C71.8812595,11.7237439 71.6662813,11.7377264 71.425872,11.7377264 C70.792486,11.7377264 70.3082072,11.5408067 69.9730211,11.1469616 C69.6378351,10.7531164 69.4702446,10.1274013 69.4702446,9.26979759 L69.4702446,5.46653054 L68.5825839,5.46653054 L68.5825839,4.0263228 L69.4702446,4.0263228 L69.4702446,2.14566317 L71.4397417,2.14566317 Z M75.326031,4.92820046 C75.5202078,4.59727729 75.7536787,4.34093219 76.0264508,4.15915749 C76.2992229,3.97738279 76.59973,3.8864968 76.9279811,3.8864968 C77.59373,3.8864968 78.11615,4.15332874 78.495257,4.68700062 C78.874364,5.2206725 79.0639146,6.04447241 79.0639146,7.15842507 L79.0639146,11.5909091 L77.0874827,11.5909091 L77.0874827,7.14444247 C77.0874827,6.51988324 77.0146675,6.08642699 76.8690349,5.84406072 C76.7234024,5.60169446 76.4957104,5.48051314 76.1859523,5.48051314 C76.0010221,5.48051314 75.836899,5.52129531 75.693578,5.60286088 C75.5502571,5.68442646 75.4277427,5.79745134 75.326031,5.94193892 L75.326031,11.5909091 L73.3565339,11.5909091 L73.3565339,0.684481534 L75.326031,0.684481534 L75.326031,4.92820046 Z M87.7380237,9.43059748 L85.0750417,9.43059748 L84.5341235,11.5909091 L82.5438218,11.5909091 L85.3871099,1.4115767 L87.4398252,1.4115767 L90.2761784,11.5909091 L88.2858768,11.5909091 L87.7380237,9.43059748 Z M85.4772629,7.82958984 L87.3358024,7.82958984 L86.4273372,4.22907049 L86.3857281,4.22907049 L85.4772629,7.82958984 Z M92.9835434,2.14566317 L92.9835434,4.0263228 L94.0237708,4.0263228 L94.0237708,5.46653054 L92.9835434,5.46653054 L92.9835434,9.26280629 C92.9835434,9.57042501 93.0274637,9.79064875 93.1153056,9.92348411 C93.2031474,10.0563195 93.3233503,10.1227362 93.4759177,10.1227362 C93.5961224,10.1227362 93.6978325,10.1169101 93.7810511,10.1052579 C93.8642697,10.0936057 93.9567334,10.0737972 94.058445,10.0458319 L94.2110117,11.5559526 C94.0029652,11.621205 93.8041682,11.6678132 93.6146147,11.6957786 C93.4250612,11.7237439 93.210083,11.7377264 92.9696737,11.7377264 C92.3362877,11.7377264 91.8520089,11.5408067 91.5168229,11.1469616 C91.1816368,10.7531164 91.0140463,10.1274013 91.0140463,9.26979759 L91.0140463,5.46653054 L90.1263857,5.46653054 L90.1263857,4.0263228 L91.0140463,4.0263228 L91.0140463,2.14566317 L92.9835434,2.14566317 Z M97.0154646,11.5909091 L95.0459675,11.5909091 L95.0459675,0.684481534 L97.0154646,0.684481534 L97.0154646,11.5909091 Z M101.865698,11.5909091 C101.810219,11.4650651 101.76052,11.3275709 101.716599,11.1784224 C101.672678,11.0292739 101.63916,10.8777973 101.616043,10.7239879 C101.431113,11.0316067 101.205733,11.2774649 100.939896,11.46157 C100.674058,11.6456752 100.365461,11.7377264 100.014093,11.7377264 C99.394577,11.7377264 98.8987403,11.5326503 98.5265682,11.122492 C98.1543961,10.7123337 97.9683129,10.1646874 97.9683129,9.47953658 C97.9683129,8.7384551 98.2052512,8.16284385 98.6791349,7.75268555 C99.1530186,7.34252725 99.8568987,7.13745117 100.790796,7.13745117 L101.532825,7.13745117 L101.532825,6.5222168 C101.532825,6.1540065 101.466945,5.8708617 101.335182,5.67277388 C101.203419,5.47468607 101.005778,5.37564364 100.742252,5.37564364 C100.520336,5.37564364 100.353901,5.45487758 100.242943,5.61334783 C100.131985,5.77181809 100.076507,6.00252867 100.076507,6.30548651 L98.1694235,6.29849521 L98.1486189,6.25654741 C98.1255027,5.59936195 98.3670641,5.04006356 98.8733106,4.57863548 C99.3795572,4.11720739 100.046452,3.8864968 100.874015,3.8864968 C101.655345,3.8864968 102.289877,4.11604218 102.777631,4.57513983 C103.265384,5.03423747 103.509257,5.68791746 103.509257,6.5361994 L103.509257,9.59838867 C103.509257,9.97125985 103.534685,10.3184909 103.585541,10.6400923 C103.636396,10.9616937 103.71499,11.2786295 103.821325,11.5909091 L101.865698,11.5909091 Z M100.582751,10.2415882 C100.781551,10.2415882 100.965323,10.1879888 101.134071,10.0807884 C101.30282,9.97358789 101.435737,9.8360937 101.532825,9.66830167 L101.532825,8.27703303 L100.790796,8.27703303 C100.490285,8.27703303 100.272995,8.38190147 100.138921,8.59164151 C100.004846,8.80138155 99.93781,9.06704829 99.93781,9.38864968 C99.93781,9.64033773 99.9955998,9.8454138 100.111181,10.0038841 C100.226763,10.1623543 100.383951,10.2415882 100.582751,10.2415882 L100.582751,10.2415882 Z M107.846312,9.61237127 C107.846312,9.39797034 107.763094,9.21270275 107.596657,9.05656294 C107.43022,8.90042314 107.11122,8.70816432 106.639648,8.47978072 C105.886057,8.19546644 105.320873,7.87386987 104.944077,7.51498136 C104.567282,7.15609284 104.378887,6.69001086 104.378887,6.11672141 C104.378887,5.50148396 104.620449,4.97597652 105.103579,4.54018333 C105.586709,4.10439013 106.225865,3.8864968 107.021065,3.8864968 C107.853251,3.8864968 108.516678,4.11021616 109.011366,4.55766158 C109.506055,5.005107 109.744149,5.57605743 109.725656,6.27053001 L109.704851,6.31247781 L107.804703,6.31247781 C107.804703,5.9955373 107.739978,5.74385303 107.610527,5.55741744 C107.481076,5.37098184 107.282279,5.27776545 107.01413,5.27776545 C106.80146,5.27776545 106.621156,5.35000816 106.473212,5.49449574 C106.325267,5.63898332 106.251296,5.81376407 106.251296,6.01884322 C106.251296,6.24256593 106.325267,6.4231727 106.473212,6.56066895 C106.621156,6.69816519 106.942467,6.88576319 107.437156,7.12346857 C108.223109,7.39380018 108.805631,7.71423155 109.184738,8.08477228 C109.563845,8.45531302 109.753395,8.94120349 109.753395,9.54245827 C109.753395,10.1856611 109.49912,10.7123337 108.990562,11.122492 C108.482004,11.5326503 107.813953,11.7377264 106.98639,11.7377264 C106.121842,11.7377264 105.43761,11.4837117 104.933675,10.9756747 C104.42974,10.4676377 104.189335,9.89435689 104.212451,9.25581499 L104.226321,9.21386719 L106.029381,9.21386719 C106.038628,9.61470371 106.131092,9.90367454 106.306775,10.0807884 C106.482459,10.2579022 106.725176,10.3464577 107.034934,10.3464577 C107.29846,10.3464577 107.499569,10.2812063 107.638266,10.1507013 C107.776964,10.0201964 107.846312,9.84075487 107.846312,9.61237127 L107.846312,9.61237127 Z" id="dha-logo" fill="#283593"></path>
                    <g id="6pack" transform="translate(1.837224, 7.114101) scale(1, -1) rotate(-90.000000) translate(-1.837224, -7.114101) translate(-5.221599, 5.349395)">
                        <rect id="Card" fill="#6A1B9A" x="-2.7533531e-14" y="0.0254757251" width="2.21190088" height="2.69442849"></rect>
                        <rect id="Card" fill="#D84315" x="2.20844479" y="0.0254885302" width="2.21190088" height="2.69442849"></rect>
                        <rect id="Card" fill="#0097A7" x="4.41688957" y="0.0254885302" width="2.21190088" height="2.69442849"></rect>
                        <rect id="Card" fill="#FAA906" x="6.62533436" y="0.0254885302" width="2.21190088" height="2.69442849"></rect>
                        <rect id="Card" fill="#558B2F" x="8.83377914" y="0.0254885302" width="2.21190088" height="2.69442849"></rect>
                        <rect id="Card" fill="#5D4037" x="11.0422239" y="0.0254885302" width="2.21190088" height="2.69442849"></rect>
                    </g>
                </g>
                <path d="M30.4384766,14.1689453 C30.4384766,14.0257154 30.4173179,13.8979498 30.375,13.7856445 C30.3326821,13.6733393 30.2553717,13.5699875 30.1430664,13.4755859 C30.0307612,13.3811844 29.8761403,13.2908533 29.6791992,13.2045898 C29.4822581,13.1183264 29.2291682,13.0279953 28.9199219,12.9335938 C28.5813785,12.8326818 28.2688816,12.717123 27.9824219,12.5869141 C27.6959621,12.4567051 27.4493825,12.3053394 27.2426758,12.1328125 C27.035969,11.9602856 26.874024,11.7617199 26.7568359,11.5371094 C26.6396479,11.3124989 26.5810547,11.05534 26.5810547,10.765625 C26.5810547,10.4791652 26.6420892,10.215496 26.7641602,9.97460938 C26.8862311,9.73372275 27.0579416,9.5253915 27.2792969,9.34960938 C27.5006521,9.17382725 27.765949,9.03710986 28.0751953,8.93945312 C28.3844417,8.84179639 28.7262351,8.79296875 29.1005859,8.79296875 C29.5009786,8.79296875 29.8606755,8.85074812 30.1796875,8.96630859 C30.4986995,9.08186907 30.7680653,9.2389313 30.987793,9.4375 C31.2075206,9.6360687 31.375976,9.86637239 31.4931641,10.128418 C31.6103521,10.3904635 31.6689453,10.6695949 31.6689453,10.9658203 L30.4384766,10.9658203 C30.4384766,10.7932934 30.4116214,10.6346036 30.3579102,10.4897461 C30.304199,10.3448886 30.2220058,10.2195643 30.1113281,10.1137695 C30.0006505,10.0079747 29.8606779,9.92578154 29.6914062,9.8671875 C29.5221346,9.80859346 29.3219413,9.77929688 29.0908203,9.77929688 C28.8727203,9.77929688 28.6839201,9.80371069 28.5244141,9.85253906 C28.3649081,9.90136743 28.2322596,9.96972612 28.1264648,10.0576172 C28.02067,10.1455083 27.9425458,10.2496739 27.8920898,10.3701172 C27.8416339,10.4905605 27.8164062,10.6207675 27.8164062,10.7607422 C27.8164062,11.0244154 27.9409167,11.2441397 28.1899414,11.4199219 C28.4389661,11.595704 28.8190079,11.7584628 29.3300781,11.9082031 C29.7304708,12.0253912 30.077147,12.1555982 30.3701172,12.2988281 C30.6630874,12.442058 30.9064118,12.604003 31.1000977,12.784668 C31.2937835,12.9653329 31.437825,13.1687814 31.5322266,13.3950195 C31.6266281,13.6212576 31.6738281,13.8759751 31.6738281,14.1591797 C31.6738281,14.4586604 31.6144212,14.7280261 31.4956055,14.9672852 C31.3767898,15.2065442 31.2075206,15.4099927 30.987793,15.5776367 C30.7680653,15.7452808 30.5019547,15.8738602 30.1894531,15.9633789 C29.8769516,16.0528976 29.5286478,16.0976562 29.1445312,16.0976562 C28.8027327,16.0976562 28.465822,16.05127 28.1337891,15.9584961 C27.8017562,15.8657222 27.5039076,15.7257496 27.2402344,15.5385742 C26.9765612,15.3513988 26.764161,15.1178399 26.6030273,14.8378906 C26.4418937,14.5579413 26.3613281,14.2291686 26.3613281,13.8515625 L27.5966797,13.8515625 C27.5966797,14.076173 27.6365556,14.2690422 27.7163086,14.4301758 C27.7960616,14.5913094 27.90511,14.723144 28.043457,14.8256836 C28.1818041,14.9282232 28.3453767,15.0030922 28.5341797,15.050293 C28.7229827,15.0974937 28.9264312,15.1210938 29.1445312,15.1210938 C29.5742209,15.1210938 29.8972971,15.0340178 30.1137695,14.8598633 C30.330242,14.6857088 30.4384766,14.4554051 30.4384766,14.1689453 Z M36.04375,15.4824219 C35.8777335,15.6777354 35.6726575,15.829101 35.4285156,15.9365234 C35.1843738,16.0439458 34.8946631,16.0976562 34.559375,16.0976562 C34.298957,16.0976562 34.062143,16.0610355 33.8489258,15.987793 C33.6357086,15.9145504 33.4526049,15.7989917 33.2996094,15.6411133 C33.1466138,15.4832349 33.0277999,15.2797864 32.9431641,15.0307617 C32.8585282,14.781737 32.8162109,14.4830747 32.8162109,14.1347656 L32.8162109,10.7167969 L34.0027344,10.7167969 L34.0027344,14.1445312 C34.0027344,14.3365895 34.0255206,14.4952793 34.0710938,14.6206055 C34.1166669,14.7459316 34.1777014,14.8468421 34.2541992,14.9233398 C34.330697,14.9998376 34.4194005,15.053548 34.5203125,15.0844727 C34.6212245,15.1153973 34.7270177,15.1308594 34.8376953,15.1308594 C35.1436864,15.1308594 35.3910798,15.0755214 35.5798828,14.9648438 C35.7686858,14.8541661 35.910286,14.7028004 36.0046875,14.5107422 L36.0046875,10.7167969 L37.1912109,10.7167969 L37.1912109,16 L36.0730469,16 L36.04375,15.4824219 Z M43.2261719,13.4121094 C43.2261719,13.7962259 43.1814132,14.1526676 43.0918945,14.4814453 C43.0023759,14.810223 42.8705412,15.0942371 42.6963867,15.3334961 C42.5222322,15.5727551 42.3073906,15.7599277 42.0518555,15.8950195 C41.7963203,16.0301114 41.5041683,16.0976562 41.1753906,16.0976562 C40.8726547,16.0976562 40.6073579,16.0488286 40.3794922,15.9511719 C40.1516265,15.8535151 39.9530607,15.711915 39.7837891,15.5263672 L39.7837891,18.03125 L38.5972656,18.03125 L38.5972656,10.7167969 L39.6910156,10.7167969 L39.7398438,11.2539062 C39.9091154,11.0488271 40.1101225,10.8917649 40.3428711,10.7827148 C40.5756197,10.6736648 40.8482406,10.6191406 41.1607422,10.6191406 C41.4960303,10.6191406 41.7922513,10.6842441 42.0494141,10.8144531 C42.3065768,10.9446621 42.5222322,11.1277657 42.6963867,11.3637695 C42.8705412,11.5997733 43.0023759,11.8829736 43.0918945,12.2133789 C43.1814132,12.5437842 43.2261719,12.9091777 43.2261719,13.3095703 L43.2261719,13.4121094 Z M42.0445313,13.3095703 C42.0445313,13.0719389 42.0209312,12.8489594 41.9737305,12.640625 C41.9265297,12.4322906 41.8541021,12.2500008 41.7564453,12.09375 C41.6587886,11.9374992 41.5334643,11.8146163 41.3804688,11.7250977 C41.2274732,11.635579 41.0435558,11.5908203 40.8287109,11.5908203 C40.568293,11.5908203 40.3534514,11.6445307 40.1841797,11.7519531 C40.014908,11.8593755 39.8814458,12.0058584 39.7837891,12.1914062 L39.7837891,14.5351562 C39.8814458,14.7207041 40.0140942,14.8696283 40.1817383,14.9819336 C40.3493824,15.0942388 40.5682929,15.1503906 40.8384766,15.1503906 C41.0533214,15.1503906 41.236425,15.1040044 41.387793,15.0112305 C41.5391609,14.9184566 41.6636714,14.7931323 41.7613281,14.6352539 C41.8589849,14.4773755 41.9305987,14.2926443 41.9761719,14.0810547 C42.021745,13.8694651 42.0445313,13.6464855 42.0445313,13.4121094 L42.0445313,13.3095703 Z M49.0560547,13.4121094 C49.0560547,13.7962259 49.011296,14.1526676 48.9217774,14.4814453 C48.8322587,14.810223 48.7004241,15.0942371 48.5262695,15.3334961 C48.352115,15.5727551 48.1372734,15.7599277 47.8817383,15.8950195 C47.6262032,16.0301114 47.3340511,16.0976562 47.0052734,16.0976562 C46.7025376,16.0976562 46.4372407,16.0488286 46.209375,15.9511719 C45.9815093,15.8535151 45.7829436,15.711915 45.6136719,15.5263672 L45.6136719,18.03125 L44.4271484,18.03125 L44.4271484,10.7167969 L45.5208984,10.7167969 L45.5697266,11.2539062 C45.7389983,11.0488271 45.9400054,10.8917649 46.1727539,10.7827148 C46.4055025,10.6736648 46.6781234,10.6191406 46.990625,10.6191406 C47.3259131,10.6191406 47.6221341,10.6842441 47.8792969,10.8144531 C48.1364596,10.9446621 48.352115,11.1277657 48.5262695,11.3637695 C48.7004241,11.5997733 48.8322587,11.8829736 48.9217774,12.2133789 C49.011296,12.5437842 49.0560547,12.9091777 49.0560547,13.3095703 L49.0560547,13.4121094 Z M47.8744141,13.3095703 C47.8744141,13.0719389 47.850814,12.8489594 47.8036133,12.640625 C47.7564125,12.4322906 47.6839849,12.2500008 47.5863281,12.09375 C47.4886714,11.9374992 47.3633471,11.8146163 47.2103516,11.7250977 C47.057356,11.635579 46.8734386,11.5908203 46.6585938,11.5908203 C46.3981758,11.5908203 46.1833342,11.6445307 46.0140625,11.7519531 C45.8447908,11.8593755 45.7113286,12.0058584 45.6136719,12.1914062 L45.6136719,14.5351562 C45.7113286,14.7207041 45.843977,14.8696283 46.0116211,14.9819336 C46.1792652,15.0942388 46.3981757,15.1503906 46.6683594,15.1503906 C46.8832042,15.1503906 47.0663078,15.1040044 47.2176758,15.0112305 C47.3690437,14.9184566 47.4935542,14.7931323 47.5912109,14.6352539 C47.6888677,14.4773755 47.7604816,14.2926443 47.8060547,14.0810547 C47.8516278,13.8694651 47.8744141,13.6464855 47.8744141,13.4121094 L47.8744141,13.3095703 Z M50.0373047,13.3095703 C50.0373047,12.9254538 50.0934565,12.5698259 50.2057617,12.2426758 C50.318067,11.9155257 50.4791982,11.6315116 50.6891602,11.390625 C50.8991222,11.1497384 51.1554672,10.9609382 51.4582031,10.8242188 C51.760939,10.6874993 52.1043601,10.6191406 52.4884766,10.6191406 C52.8758483,10.6191406 53.2225245,10.6874993 53.5285156,10.8242188 C53.8345068,10.9609382 54.0924794,11.1497384 54.3024414,11.390625 C54.5124034,11.6315116 54.6727208,11.9155257 54.7833984,12.2426758 C54.8940761,12.5698259 54.9494141,12.9254538 54.9494141,13.3095703 L54.9494141,13.4121094 C54.9494141,13.7962259 54.8940761,14.1526676 54.7833984,14.4814453 C54.6727208,14.810223 54.5124034,15.0942371 54.3024414,15.3334961 C54.0924794,15.5727551 53.8353205,15.7599277 53.530957,15.8950195 C53.2265935,16.0301114 52.8823587,16.0976562 52.4982422,16.0976562 C52.1108705,16.0976562 51.765008,16.0301114 51.4606445,15.8950195 C51.156281,15.7599277 50.8991222,15.5727551 50.6891602,15.3334961 C50.4791982,15.0942371 50.318067,14.810223 50.2057617,14.4814453 C50.0934565,14.1526676 50.0373047,13.7962259 50.0373047,13.4121094 L50.0373047,13.3095703 Z M51.2238281,13.4121094 C51.2238281,13.6497408 51.248242,13.8743479 51.2970703,14.0859375 C51.3458987,14.2975271 51.4223953,14.4822583 51.5265625,14.6401367 C51.6307297,14.7980151 51.7633781,14.9225256 51.9245117,15.0136719 C52.0856453,15.1048182 52.2768869,15.1503906 52.4982422,15.1503906 C52.7163422,15.1503906 52.9059562,15.1048182 53.0670899,15.0136719 C53.2282235,14.9225256 53.3600581,14.7980151 53.4625977,14.6401367 C53.5651372,14.4822583 53.6416339,14.2975271 53.6920899,14.0859375 C53.7425458,13.8743479 53.7677734,13.6497408 53.7677734,13.4121094 L53.7677734,13.3095703 C53.7677734,13.0751941 53.7425458,12.8530284 53.6920899,12.6430664 C53.6416339,12.4331044 53.5643234,12.249187 53.4601563,12.0913086 C53.3559891,11.9334302 53.2233407,11.8072921 53.062207,11.7128906 C52.9010734,11.6184891 52.7098318,11.5712891 52.4884766,11.5712891 C52.2671213,11.5712891 52.0775073,11.6184891 51.9196289,11.7128906 C51.7617505,11.8072921 51.6307297,11.9334302 51.5265625,12.0913086 C51.4223953,12.249187 51.3458987,12.4331044 51.2970703,12.6430664 C51.248242,12.8530284 51.2238281,13.0751941 51.2238281,13.3095703 L51.2238281,13.4121094 Z M58.9189453,11.8007812 C58.8408199,11.7877604 58.7618819,11.7779948 58.6821289,11.7714844 C58.6023759,11.7649739 58.5201827,11.7617188 58.4355469,11.7617188 C58.1490871,11.7617188 57.9163421,11.8170567 57.7373047,11.9277344 C57.5582673,12.038412 57.4248051,12.1914053 57.3369141,12.3867188 L57.3369141,16 L56.1503906,16 L56.1503906,10.7167969 L57.2832031,10.7167969 L57.3125,11.3076172 C57.4459642,11.0927724 57.6111644,10.924317 57.8081055,10.8022461 C58.0050466,10.6801752 58.2369778,10.6191406 58.5039063,10.6191406 C58.572266,10.6191406 58.6495764,10.6264648 58.7358399,10.6411133 C58.8221033,10.6557618 58.8847654,10.6712239 58.9238281,10.6875 L58.9189453,11.8007812 Z M61.5994141,9.43261719 L61.5994141,10.7167969 L62.5320313,10.7167969 L62.5320313,11.5957031 L61.5994141,11.5957031 L61.5994141,14.5449219 C61.5994141,14.6653652 61.6124348,14.7630205 61.6384766,14.8378906 C61.6645184,14.9127608 61.7019529,14.9705402 61.7507813,15.0112305 C61.7996096,15.0519208 61.857389,15.0795898 61.9241211,15.0942383 C61.9908532,15.1088868 62.0649085,15.1162109 62.1462891,15.1162109 C62.2276697,15.1162109 62.3066077,15.1105144 62.3831055,15.0991211 C62.4596033,15.0877278 62.5190102,15.0771485 62.5613281,15.0673828 L62.5613281,15.9853516 C62.4669266,16.0113934 62.3570644,16.036621 62.2317383,16.0610352 C62.1064122,16.0854493 61.9558603,16.0976562 61.7800781,16.0976562 C61.5847647,16.0976562 61.4032886,16.0716148 61.2356445,16.0195312 C61.0680005,15.9674477 60.9231452,15.8828131 60.8010742,15.765625 C60.6790033,15.6484369 60.5837894,15.4954437 60.5154297,15.3066406 C60.44707,15.1178376 60.4128906,14.8867201 60.4128906,14.6132812 L60.4128906,11.5957031 L59.54375,11.5957031 L59.54375,10.7167969 L60.4128906,10.7167969 L60.4128906,9.43261719 L61.5994141,9.43261719 Z M65.9644531,16.0976562 C65.5738262,16.0976562 65.2222672,16.0325527 64.9097656,15.9023438 C64.5972641,15.7721348 64.3319673,15.5931001 64.1138672,15.3652344 C63.8957672,15.1373687 63.7281256,14.8671891 63.6109375,14.5546875 C63.4937494,14.2421859 63.4351563,13.9052752 63.4351563,13.5439453 L63.4351563,13.3486328 C63.4351563,12.9319641 63.4970046,12.5551775 63.6207031,12.2182617 C63.7444017,11.881346 63.9136708,11.5948905 64.1285156,11.3588867 C64.3433605,11.1228829 64.5964504,10.9405931 64.887793,10.8120117 C65.1791356,10.6834303 65.4924463,10.6191406 65.8277344,10.6191406 C66.2118509,10.6191406 66.5455064,10.6834303 66.828711,10.8120117 C67.1119155,10.9405931 67.3462882,11.1204416 67.531836,11.3515625 C67.7173838,11.5826834 67.8557287,11.8577458 67.946875,12.1767578 C68.0380213,12.4957698 68.0835938,12.8457012 68.0835938,13.2265625 L68.0835938,13.734375 L64.6314453,13.734375 C64.6477215,13.9394542 64.6908525,14.1282543 64.7608399,14.3007812 C64.8308272,14.4733082 64.9260411,14.6222324 65.0464844,14.7475586 C65.1669277,14.8728847 65.3093416,14.9713538 65.4737305,15.0429688 C65.6381193,15.1145837 65.8244781,15.1503906 66.0328125,15.1503906 C66.3257827,15.1503906 66.5805002,15.0917975 66.7969727,14.9746094 C67.0134451,14.8574213 67.2014315,14.6962901 67.3609375,14.4912109 L68.000586,15.1015625 C67.9159501,15.2285163 67.8109707,15.3513991 67.6856446,15.4702148 C67.5603184,15.5890305 67.4138355,15.6948238 67.2461914,15.7875977 C67.0785474,15.8803716 66.8889334,15.9552406 66.6773438,16.012207 C66.4657542,16.0691735 66.2281263,16.0976562 65.9644531,16.0976562 Z M65.8228516,11.5712891 C65.4973291,11.5712891 65.2344737,11.6852202 65.0342774,11.9130859 C64.8340811,12.1409517 64.7063154,12.4583313 64.6509766,12.8652344 L66.9117188,12.8652344 L66.9117188,12.7773438 C66.9019531,12.621093 66.8767255,12.4705411 66.8360352,12.3256836 C66.7953449,12.1808261 66.7326827,12.0522467 66.6480469,11.9399414 C66.5634111,11.8276362 66.4535489,11.7381188 66.3184571,11.6713867 C66.1833652,11.6046546 66.0181651,11.5712891 65.8228516,11.5712891 Z M68.981836,13.3193359 C68.981836,12.9189433 69.0298498,12.552736 69.1258789,12.2207031 C69.2219081,11.8886702 69.360253,11.6038423 69.540918,11.3662109 C69.721583,11.1285795 69.9404935,10.9446621 70.1976563,10.8144531 C70.454819,10.6842441 70.7445297,10.6191406 71.0667969,10.6191406 C71.3597671,10.6191406 71.6177398,10.6695958 71.8407227,10.7705078 C72.0637056,10.8714198 72.2582023,11.0162751 72.4242188,11.2050781 L72.4242188,8.5 L73.6107422,8.5 L73.6107422,16 L72.5365235,16 L72.4779297,15.453125 C72.308658,15.6582042 72.1076509,15.816894 71.8749024,15.9291992 C71.6421538,16.0415045 71.3695328,16.0976562 71.0570313,16.0976562 C70.7380193,16.0976562 70.45075,16.0301114 70.1952149,15.8950195 C69.9396797,15.7599277 69.7223968,15.5735689 69.5433594,15.3359375 C69.364322,15.0983061 69.2259771,14.8159196 69.1283203,14.4887695 C69.0306636,14.1616195 68.981836,13.8059915 68.981836,13.421875 L68.981836,13.3193359 Z M70.1683594,13.421875 C70.1683594,13.6562512 70.1903318,13.8767893 70.2342774,14.0834961 C70.2782229,14.2902029 70.3482092,14.4716789 70.4442383,14.6279297 C70.5402674,14.7841805 70.6631503,14.9070634 70.8128906,14.996582 C70.962631,15.0861007 71.1449208,15.1308594 71.3597656,15.1308594 C71.6266941,15.1308594 71.8456046,15.0714524 72.0165039,14.9526367 C72.1874032,14.833821 72.3233068,14.6767588 72.4242188,14.4814453 L72.4242188,12.2255859 C72.3233068,12.0302725 72.1865894,11.8756516 72.0140625,11.7617188 C71.8415356,11.6477859 71.626694,11.5908203 71.3695313,11.5908203 C71.1546864,11.5908203 70.9715828,11.6363928 70.8202149,11.7275391 C70.6688469,11.8186854 70.5451502,11.942382 70.4491211,12.0986328 C70.353092,12.2548836 70.2822919,12.4379872 70.2367188,12.6479492 C70.1911456,12.8579112 70.1683594,13.0817045 70.1683594,13.3193359 L70.1683594,13.421875 Z M82.375,13.4121094 C82.375,13.8027363 82.3302414,14.1624333 82.2407227,14.4912109 C82.151204,14.8199886 82.0201832,15.1031889 81.8476563,15.3408203 C81.6751294,15.5784517 81.4602878,15.7639967 81.203125,15.8974609 C80.9459623,16.0309251 80.6497413,16.0976562 80.3144532,16.0976562 C79.9921859,16.0976562 79.7122408,16.0398769 79.4746094,15.9243164 C79.236978,15.8087559 79.0351571,15.6435558 78.8691407,15.4287109 L78.8105469,16 L77.7363282,16 L77.7363282,8.5 L78.9228516,8.5 L78.9228516,11.2246094 C79.088868,11.0292959 79.2849924,10.8795578 79.5112305,10.7753906 C79.7374686,10.6712234 80.0019516,10.6191406 80.3046875,10.6191406 C80.6464861,10.6191406 80.9459623,10.6850579 81.203125,10.8168945 C81.4602878,10.9487311 81.6759432,11.1334624 81.8500977,11.3710938 C82.0242522,11.6087251 82.155273,11.8927392 82.2431641,12.2231445 C82.3310552,12.5535498 82.375,12.9156881 82.375,13.3095703 L82.375,13.4121094 Z M81.1884766,13.3095703 C81.1884766,13.0784494 81.1697593,12.858725 81.1323242,12.6503906 C81.0948892,12.4420563 81.0305994,12.2597664 80.9394532,12.1035156 C80.8483069,11.9472648 80.7270516,11.8227544 80.5756836,11.7299805 C80.4243157,11.6372066 80.2347017,11.5908203 80.006836,11.5908203 C79.7301419,11.5908203 79.5039072,11.6518549 79.328125,11.7739258 C79.1523429,11.8959967 79.0172531,12.0595693 78.9228516,12.2646484 L78.9228516,14.4423828 C79.0172531,14.647462 79.1531567,14.8134759 79.3305664,14.9404297 C79.5079762,15.0673834 79.7366523,15.1308594 80.0166016,15.1308594 C80.2347016,15.1308594 80.4186191,15.0861007 80.5683594,14.996582 C80.7180997,14.9070634 80.839355,14.7849943 80.9321289,14.6303711 C81.0249028,14.4757479 81.0908201,14.2942719 81.1298828,14.0859375 C81.1689455,13.8776031 81.1884766,13.652996 81.1884766,13.4121094 L81.1884766,13.3095703 Z M85.363086,14.3007812 L86.4373047,10.7167969 L87.7019532,10.7167969 L85.6023438,16.8007812 C85.5535154,16.9342455 85.4892257,17.078287 85.4094727,17.2329102 C85.3297197,17.3875333 85.2255541,17.5315749 85.0969727,17.6650391 C84.9683913,17.7985033 84.8113291,17.909993 84.6257813,17.9995117 C84.4402335,18.0890304 84.2188815,18.1337891 83.9617188,18.1337891 C83.8608068,18.1337891 83.7607102,18.1248373 83.6614258,18.1069336 C83.5621415,18.0890299 83.4718103,18.068685 83.3904297,18.0458984 L83.3904297,17.1279297 C83.4197267,17.1344401 83.4579751,17.1385091 83.5051758,17.1401367 C83.5523766,17.1417643 83.5889973,17.1425781 83.6150391,17.1425781 C83.7615242,17.1425781 83.8892899,17.1303712 83.9983399,17.105957 C84.1073899,17.0815428 84.2026038,17.0408531 84.2839844,16.9838867 C84.365365,16.9269203 84.4353513,16.8536788 84.4939453,16.7641602 C84.5525394,16.6746415 84.6046222,16.5631517 84.6501953,16.4296875 L84.8210938,15.9755859 L82.965625,10.7167969 L84.2449219,10.7167969 L85.363086,14.3007812 Z" id="Btn-text" fill="#757575"></path>
            </g>
        </g>
    </g>
</svg>