<?xml version="1.0" encoding="UTF-8" standalone="no"?>
<svg width="33px" height="19px" viewBox="0 0 33 19" version="1.1" xmlns="http://www.w3.org/2000/svg" xmlns:xlink="http://www.w3.org/1999/xlink">
    <!-- Generator: Sketch 3.7 (28169) - http://www.bohemiancoding.com/sketch -->
    <title>icon-axis1</title>
    <desc>Created with Sketch.</desc>
    <defs></defs>
    <g id="Symbols" stroke="none" stroke-width="1" fill="none" fill-rule="evenodd">
        <g id="Flex---2---Project-Details" transform="translate(-20.000000, -105.000000)" fill="#FEFEFE">
            <g id="Overview">
                <g transform="translate(10.000000, 87.000000)">
                    <g id="icon-axis1" transform="translate(10.000000, 18.000000)">
                        <polygon id="Fill-3" points="13.267 4.258 20.643 4.258 20.643 0.57 13.267 0.57"></polygon>
                        <polygon id="Fill-4" points="4.968 13.478 12.344 13.478 12.344 9.79 4.968 9.79"></polygon>
                        <polygon id="Fill-5" points="13.267 13.478 20.643 13.478 20.643 9.79 13.267 9.79"></polygon>
                        <polygon id="Fill-6" points="21.565 13.478 28.942 13.478 28.942 9.79 21.565 9.79"></polygon>
                        <polygon id="Fill-7" points="9.072 8.868 16.448 8.868 16.448 5.18 9.072 5.18"></polygon>
                        <polygon id="Fill-8" points="17.37 8.868 24.746 8.868 24.746 5.18 17.37 5.18"></polygon>
                        <polygon id="Fill-9" points="0.773 18.049 8.149 18.049 8.149 14.36 0.773 14.36"></polygon>
                        <polygon id="Fill-10" points="9.071 18.049 16.447 18.049 16.447 14.36 9.071 14.36"></polygon>
                        <polygon id="Fill-11" points="17.37 18.049 24.747 18.049 24.747 14.36 17.37 14.36"></polygon>
                        <polygon id="Fill-12" points="24.668 18.049 32.044 18.049 32.044 14.36 24.668 14.36"></polygon>
                    </g>
                </g>
            </g>
        </g>
    </g>
</svg>