<svg version="1.1" viewBox="98 56 504.002 448.003" xmlns="http://www.w3.org/2000/svg" xmlns:xlink="http://www.w3.org/1999/xlink">
  <g>
    <rect x="119.819" y="70.747" width="460.327" height="416.574" style="stroke: rgb(0, 0, 0); paint-order: fill; fill: rgb(255, 255, 255);"></rect>
    <path fill="#9B9B9B" d="m574 56h-448c-15.438 0-28 12.562-28 28v78.398c0 11.453 6.9258 21.293 16.801 25.625v287.98c0 15.438 12.562 28 28 28h414.4c15.438 0 28-12.562 28-28v-287.97c9.8711-4.3359 16.801-14.172 16.801-25.625v-78.402c0-15.438-12.562-28-28-28zm-453.6 28c0-3.0352 2.5664-5.6016 5.6016-5.6016h448c3.0352 0 5.6016 2.5664 5.6016 5.6016v78.398c0 3.0352-2.5664 5.6016-5.6016 5.6016h-448c-3.0352 0-5.6016-2.5664-5.6016-5.6016zm436.8 397.6h-414.4c-3.0352 0-5.6016-2.5664-5.6016-5.6016v-285.6h425.6v285.6c0 3.0352-2.5664 5.6016-5.6016 5.6016zm-140-268.8h-134.4c-15.438 0-28 12.562-28 28s12.562 28 28 28h134.4c15.438 0 28-12.562 28-28 0-15.441-12.559-28-28-28zm0 33.598h-134.4c-3.0352 0-5.6016-2.5664-5.6016-5.6016s2.5664-5.6016 5.6016-5.6016h134.4c3.0352 0 5.6016 2.5664 5.6016 5.6016 0 3.0391-2.5664 5.6016-5.6016 5.6016z"></path>
  </g>
</svg>