<?xml version="1.0" encoding="UTF-8"?>
<svg width="113px" height="31px" viewBox="0 0 113 31" version="1.1" xmlns="http://www.w3.org/2000/svg" xmlns:xlink="http://www.w3.org/1999/xlink">
    <!-- Generator: Sketch 47.1 (45422) - http://www.bohemiancoding.com/sketch -->
    <title>PATH logo (2-colors)</title>
    <desc>Created with Sketch.</desc>
    <defs>
        <polygon id="path-1" points="0.00054703125 0.697074107 29.0041439 0.697074107 29.0041439 28.6645156 0.00054703125 28.6645156"></polygon>
        <polygon id="path-3" points="6.88057486 7.03247746 0.0639925716 7.03247746 0.0639925716 0.218093011 6.88057486 0.218093011 6.88057486 7.03247746"></polygon>
    </defs>
    <g id="01---Landing-page" stroke="none" stroke-width="1" fill="none" fill-rule="evenodd">
        <g id="Logged-in-v3" transform="translate(-140.000000, -50.000000)">
            <g id="Topbar" transform="translate(0.000000, 19.000000)">
                <g id="Logos" transform="translate(140.000000, 26.000000)">
                    <g id="PATH-logo-(2-colors)" transform="translate(0.000000, 5.000000)">
                        <g id="Group-3" transform="translate(0.000000, 0.086978)">
                            <mask id="mask-2" fill="white">
                                <use xlink:href="#path-1"></use>
                            </mask>
                            <g id="Clip-2"></g>
                            <path d="M18.0666448,16.3914788 C18.9247024,13.6258451 25.997035,14.1681875 29.0041439,14.5300096 C28.8923932,12.1011909 28.1812526,9.82319645 27.0137316,7.8437248 C24.026941,9.65752413 18.526151,12.7099585 17.099181,11.5385302 C14.8180606,10.0873344 16.7404848,4.17080069 17.9337944,1.10664422 C16.9233495,0.862043103 15.873831,0.718252031 14.7914906,0.697152254 C13.4997153,0.672145112 12.2446694,0.818280603 11.0466709,1.11055158 C12.0829044,4.01841342 14.1108274,10.6476507 11.6359017,12.0847799 C10.1643877,13.1936904 4.81285908,9.9326027 1.89874547,7.9984565 C0.783583192,9.94119891 0.106827388,12.1699605 0.00054703125,14.5518909 C3.54530953,14.315886 9.39307359,14.1869429 10.1010883,15.8147516 C11.5897948,18.3545395 6.23357739,23.3278351 3.99778252,25.241663 C5.25986176,26.5639156 6.76966801,27.6470375 8.45296132,28.4191331 C9.6759669,25.1713304 12.1641776,19.2532337 14.0295542,19.2993406 C16.9131903,19.0195732 19.1505481,25.7550909 19.9804727,28.6645156 C21.7848944,27.9291494 23.4064513,26.8397757 24.7646517,25.4823567 C22.3795955,23.2621913 17.2562571,18.2029337 18.0666448,16.3914788" id="Fill-1" fill="#BF311A" mask="url(#mask-2)"></path>
                        </g>
                        <path d="M11.3301894,6.57875411 C11.2934602,8.46132308 9.73676551,9.95471839 7.85575949,9.91720768 C5.97319051,9.88047844 4.47901373,8.32534674 4.51574297,6.44355924 C4.55403516,4.56255321 6.10838538,3.06759496 7.99095435,3.1043242 C9.87274185,3.14183491 11.3684816,4.69696661 11.3301894,6.57875411" id="Fill-4" fill="#231F20"></path>
                        <path d="M24.7641047,6.02203259 C24.726594,7.90382009 23.1714623,9.39955982 21.2896748,9.36204911 C19.4063243,9.32375692 17.9121475,7.76706228 17.9496583,5.88605625 C17.9879504,4.00426875 19.5430821,2.50774754 21.4240882,2.54447679 C23.3066571,2.58276897 24.8016154,4.14102656 24.7641047,6.02203259" id="Fill-6" fill="#231F20"></path>
                        <path d="M28.9495971,19.1471878 C28.9120864,21.0289753 27.3546102,22.524715 25.4736042,22.4856414 C23.5925982,22.4489121 22.0968585,20.8937804 22.1335877,19.0112115 C22.1718799,17.129424 23.7285745,15.6344657 25.6095806,15.6727579 C27.4913681,15.7094871 28.9863263,17.2646188 28.9495971,19.1471878" id="Fill-8" fill="#231F20"></path>
                        <g id="Group-12" transform="translate(10.940625, 23.531174)">
                            <mask id="mask-4" fill="white">
                                <use xlink:href="#path-3"></use>
                            </mask>
                            <g id="Clip-11"></g>
                            <path d="M6.87985574,3.6963683 C6.84234502,5.57581138 5.28565038,7.07076964 3.40542583,7.03247746 C1.52285685,6.99574821 0.028680067,5.44061652 0.0646278348,3.56039196 C0.103701496,1.67547857 1.65961467,0.180520313 3.53983922,0.2188125 C5.42240819,0.256323214 6.91814792,1.81145491 6.87985574,3.6963683" id="Fill-10" fill="#231F20" mask="url(#mask-4)"></path>
                        </g>
                        <path d="M7.01684799,19.0052723 C6.98011875,20.8878413 5.42420558,22.3827995 3.54163661,22.3460703 C1.65906763,22.3085596 0.165672321,20.7518649 0.202401563,18.8700774 C0.24069375,16.9890714 1.79582545,15.4941131 3.67761295,15.5308424 C5.56018192,15.5683531 7.05514018,17.1242663 7.01684799,19.0052723" id="Fill-13" fill="#231F20"></path>
                        <path d="M33.0332635,25.1845373 L33.0332635,12.0253098 C33.0332635,7.77956585 37.002366,5.16475647 41.581799,5.16475647 C47.0013157,5.16475647 50.3975983,8.14529531 50.3975983,11.4915636 C50.3975983,14.9495826 47.1154108,17.7613232 42.8790445,17.7613232 L38.0331291,17.7613232 L38.0331291,15.287179 L41.8490628,15.287179 C44.6725256,15.287179 46.8098548,13.8531757 46.8098548,11.4915636 C46.8098548,9.10103705 44.5592119,7.63890067 41.6200912,7.63890067 C38.7575548,7.63890067 36.621007,9.18543616 36.621007,11.6884949 L36.621007,25.1845373 L33.0332635,25.1845373 Z" id="Fill-15" fill="#BF311A"></path>
                        <path d="M53.2206703,25.1845373 L53.2206703,12.6997212 C53.2206703,8.03276317 57.1522621,5.16475647 62.3428071,5.16475647 C67.5325708,5.16475647 71.4625996,8.03276317 71.4625996,12.6997212 L71.4625996,25.1845373 L67.8756375,25.1845373 L67.8756375,16.2429208 L58.2588281,16.2429208 L58.2588281,13.7687766 L67.8756375,13.7687766 L67.8756375,12.5317045 C67.8756375,9.43863348 65.6242132,7.63890067 62.3428071,7.63890067 C59.0606196,7.63890067 56.8084138,9.43863348 56.8084138,12.5317045 L56.8084138,25.1845373 L53.2206703,25.1845373 Z" id="Fill-17" fill="#BF311A"></path>
                        <polygon id="Fill-19" fill="#BF311A" points="73.4920855 5.5023529 90.2843819 5.5023529 90.2843819 7.97727857 83.6817147 7.97727857 83.6817147 25.1845373 80.0947527 25.1845373 80.0947527 7.97727857 73.4920855 7.97727857"></polygon>
                        <polygon id="Fill-21" fill="#BF311A" points="93.7561548 25.1845373 93.7561548 5.5023529 97.3431169 5.5023529 97.3431169 13.7687766 108.94565 13.7687766 108.94565 5.5023529 112.53183 5.5023529 112.53183 25.1845373 108.94565 25.1845373 108.94565 16.2429208 97.3431169 16.2429208 97.3431169 25.1845373"></polygon>
                    </g>
                </g>
            </g>
        </g>
    </g>
</svg>