<?xml version="1.0" encoding="UTF-8" standalone="no"?>
<svg width="166px" height="22px" viewBox="0 0 166 22" version="1.1" xmlns="http://www.w3.org/2000/svg" xmlns:xlink="http://www.w3.org/1999/xlink">
    <!-- Generator: Sketch 3.7.2 (28276) - http://www.bohemiancoding.com/sketch -->
    <title>dha-logo</title>
    <desc>Created with Sketch.</desc>
    <defs></defs>
    <g id="Symbols" stroke="none" stroke-width="1" fill="none" fill-rule="evenodd">
        <g id="Top-navigation-bar" transform="translate(-31.000000, -15.000000)">
            <g id="Global-panel">
                <g transform="translate(30.000000, 9.000000)">
                    <g id="logo-+-CLM" transform="translate(1.000000, 6.000000)">
                        <g id="dha-logo">
                            <path d="M13.1279297,17 L13.1279297,2.0703125 L17.6396484,2.0703125 C19.1709061,2.0703125 20.4355419,2.64965241 21.4335938,3.80834961 C22.4316456,4.96704681 22.9306641,6.45897525 22.9306641,8.28417969 L22.9306641,10.7963867 C22.9306641,12.6215912 22.4316456,14.1118106 21.4335938,15.2670898 C20.4355419,16.4223691 19.1709061,17 17.6396484,17 L13.1279297,17 Z M16.050293,4.40820312 L16.050293,14.6723633 L17.4755859,14.6723633 C18.2890666,14.6723633 18.9162576,14.3186071 19.3571777,13.611084 C19.7980979,12.9035609 20.0185547,11.9653379 20.0185547,10.7963867 L20.0185547,8.26367188 C20.0185547,7.10155669 19.7980979,6.16846055 19.3571777,5.46435547 C18.9162576,4.76025039 18.2890666,4.40820312 17.4755859,4.40820312 L16.050293,4.40820312 Z M27.5285156,17 L24.6164063,17 L24.6164063,5.90527344 L27.5285156,5.90527344 L27.5285156,17 Z M27.5285156,3.22900391 L24.6164063,3.22900391 L24.6164063,1.00390625 L27.5285156,1.00390625 L27.5285156,3.22900391 Z M28.9066406,10.9399414 C28.9066406,9.37450389 29.2296355,8.1098681 29.8756348,7.14599609 C30.5216341,6.18212409 31.4325137,5.70019531 32.6083008,5.70019531 C33.1004908,5.70019531 33.5345685,5.82494992 33.9105469,6.07446289 C34.2865253,6.32397586 34.6146471,6.68115002 34.8949219,7.14599609 L35.0794922,5.90527344 L37.6122071,5.90527344 L37.6122071,16.784668 C37.6122071,18.2407299 37.1900921,19.387447 36.3458496,20.2248535 C35.5016071,21.06226 34.3446363,21.480957 32.8749024,21.480957 C32.3963844,21.480957 31.8871121,21.4040535 31.3470703,21.2502441 C30.8070286,21.0964348 30.3045922,20.8896497 29.8397461,20.6298828 L30.3524414,18.3842773 C30.7420918,18.6030284 31.1385722,18.7670893 31.5418946,18.8764648 C31.9452169,18.9858404 32.3827125,19.0405273 32.8543946,19.0405273 C33.469632,19.0405273 33.9310532,18.847414 34.2386719,18.4611816 C34.5462906,18.0749492 34.7000977,17.512699 34.7000977,16.7744141 L34.7000977,16.1386719 C34.4266588,16.4941424 34.1156268,16.7624503 33.7669922,16.9436035 C33.4183577,17.1247568 33.0252952,17.215332 32.587793,17.215332 C31.4188418,17.215332 30.5130892,16.7658736 29.8705078,15.8669434 C29.2279265,14.9680131 28.9066406,13.7802808 28.9066406,12.3037109 L28.9066406,10.9399414 Z M31.81875,12.3037109 C31.81875,13.1103556 31.9349598,13.7409645 32.1673828,14.1955566 C32.3998059,14.6501488 32.7894504,14.8774414 33.3363281,14.8774414 C33.6371109,14.8774414 33.9020008,14.8159186 34.1310059,14.6928711 C34.3600109,14.5698236 34.5497063,14.3886731 34.7000977,14.1494141 L34.7000977,8.89941406 C34.5497063,8.6259752 34.3634289,8.41406325 34.1412598,8.26367188 C33.9190907,8.1132805 33.6576187,8.03808594 33.356836,8.03808594 C32.8099582,8.03808594 32.4168958,8.30297587 32.1776367,8.83276367 C31.9383777,9.36255148 31.81875,10.064937 31.81875,10.9399414 L31.81875,12.3037109 Z M42.2715821,17 L39.3594727,17 L39.3594727,5.90527344 L42.2715821,5.90527344 L42.2715821,17 Z M42.2715821,3.22900391 L39.3594727,3.22900391 L39.3594727,1.00390625 L42.2715821,1.00390625 L42.2715821,3.22900391 Z M47.5051758,3.14697266 L47.5051758,5.90527344 L49.0432618,5.90527344 L49.0432618,8.01757812 L47.5051758,8.01757812 L47.5051758,13.5854492 C47.5051758,14.0366233 47.5701166,14.3596182 47.7,14.5544434 C47.8298835,14.7492686 48.0076161,14.8466797 48.2332032,14.8466797 C48.4109384,14.8466797 48.5613276,14.8381349 48.684375,14.8210449 C48.8074225,14.803955 48.9441399,14.7749025 49.0945313,14.7338867 L49.3201172,16.9487305 C49.0124985,17.0444341 48.7185561,17.1127928 48.4382813,17.1538086 C48.1580065,17.1948244 47.8401385,17.215332 47.484668,17.215332 C46.5481399,17.215332 45.8320826,16.9265166 45.3364747,16.348877 C44.8408667,15.7712373 44.5930665,14.8535219 44.5930665,13.5957031 L44.5930665,8.01757812 L43.2805665,8.01757812 L43.2805665,5.90527344 L44.5930665,5.90527344 L44.5930665,3.14697266 L47.5051758,3.14697266 Z M55.8251954,17 C55.7431637,16.8154288 55.6696781,16.6137706 55.6047364,16.3950195 C55.5397947,16.1762684 55.4902346,15.9541027 55.4560547,15.7285156 C55.1826159,16.1796898 54.8493673,16.5402819 54.4562989,16.8103027 C54.0632305,17.0803236 53.6069363,17.215332 53.0874024,17.215332 C52.1713822,17.215332 51.4382352,16.9145538 50.8879395,16.3129883 C50.3376438,15.7114228 50.0625001,14.9082081 50.0625001,13.9033203 C50.0625001,12.8164008 50.4128384,11.972171 51.1135255,11.3706055 C51.8142125,10.76904 52.8549736,10.4682617 54.2358399,10.4682617 L55.3330079,10.4682617 L55.3330079,9.56591797 C55.3330079,9.02587621 55.2355967,8.61059716 55.0407715,8.32006836 C54.8459464,8.02953956 54.5537129,7.88427734 54.1640626,7.88427734 C53.8359359,7.88427734 53.5898446,8.00048712 53.4257813,8.23291016 C53.261718,8.46533319 53.1796876,8.80370872 53.1796876,9.24804688 L50.3598633,9.23779297 L50.3291016,9.17626953 C50.2949218,8.21239752 50.6520959,7.39209323 51.4006348,6.71533203 C52.1491737,6.03857083 53.1352478,5.70019531 54.3588868,5.70019531 C55.514166,5.70019531 56.452389,6.03686187 57.173584,6.71020508 C57.8947791,7.38354829 58.2553712,8.34227894 58.2553712,9.58642578 L58.2553712,14.0776367 C58.2553712,14.6245145 58.2929684,15.1337867 58.3681641,15.6054688 C58.4433598,16.0771508 58.5595696,16.5419899 58.7167969,17 L55.8251954,17 Z M53.9282227,15.0209961 C54.2221695,15.0209961 54.4938953,14.9423836 54.7434083,14.7851562 C54.9929212,14.6279289 55.1894525,14.4262708 55.3330079,14.1801758 L55.3330079,12.1396484 L54.2358399,12.1396484 C53.7915017,12.1396484 53.4702159,12.2934555 53.2719727,12.6010742 C53.0737295,12.9086929 52.9746094,13.2983375 52.9746094,13.7700195 C52.9746094,14.139162 53.0600578,14.4399402 53.2309571,14.6723633 C53.4018564,14.9047863 53.6342759,15.0209961 53.9282227,15.0209961 L53.9282227,15.0209961 Z M62.8839844,17 L59.9718751,17 L59.9718751,1.00390625 L62.8839844,1.00390625 L62.8839844,17 Z M79.6470704,17 L76.734961,17 L76.734961,10.8168945 L72.1001954,10.8168945 L72.1001954,17 L69.1778321,17 L69.1778321,2.0703125 L72.1001954,2.0703125 L72.1001954,8.48925781 L76.734961,8.48925781 L76.734961,2.0703125 L79.6470704,2.0703125 L79.6470704,17 Z M85.772754,17.215332 C84.3782158,17.215332 83.270805,16.7573288 82.4504884,15.8413086 C81.6301718,14.9252884 81.2200196,13.7700265 81.2200196,12.3754883 L81.2200196,10.8168945 C81.2200196,9.31981673 81.6011193,8.09277822 82.3633302,7.13574219 C83.125541,6.17870615 84.1799738,5.70019531 85.5266603,5.70019531 C86.8254949,5.70019531 87.8303676,6.134273 88.5413087,7.00244141 C89.2522498,7.87060981 89.607715,9.05321517 89.607715,10.550293 L89.607715,12.3344727 L84.1218751,12.3344727 L84.1218751,12.3754883 C84.1218751,13.1069373 84.2876449,13.7084937 84.6191896,14.1801758 C84.9507342,14.6518578 85.4514616,14.8876953 86.1213868,14.8876953 C86.6682646,14.8876953 87.1125961,14.8261725 87.4543946,14.703125 C87.7961932,14.5800775 88.2029274,14.3750014 88.6746095,14.0878906 L89.4128907,15.9438477 C89.0300763,16.3129901 88.5190951,16.6171863 87.8799317,16.8564453 C87.2407684,17.0957043 86.5383828,17.215332 85.772754,17.215332 L85.772754,17.215332 Z M85.5266603,8.03808594 C85.0618142,8.03808594 84.7200207,8.24999788 84.5012696,8.67382812 C84.2825185,9.09765837 84.1594729,9.66845344 84.132129,10.3862305 L86.7468751,10.3862305 L86.7468751,9.97607422 C86.7468751,9.36083677 86.6511729,8.8840349 86.4597657,8.5456543 C86.2683585,8.2072737 85.9573265,8.03808594 85.5266603,8.03808594 L85.5266603,8.03808594 Z M96.2153322,17 C96.1333005,16.8154288 96.0598149,16.6137706 95.9948732,16.3950195 C95.9299314,16.1762684 95.8803714,15.9541027 95.8461915,15.7285156 C95.5727527,16.1796898 95.239504,16.5402819 94.8464357,16.8103027 C94.4533673,17.0803236 93.997073,17.215332 93.4775392,17.215332 C92.561519,17.215332 91.828372,16.9145538 91.2780763,16.3129883 C90.7277806,15.7114228 90.4526368,14.9082081 90.4526368,13.9033203 C90.4526368,12.8164008 90.8029751,11.972171 91.5036622,11.3706055 C92.2043493,10.76904 93.2451104,10.4682617 94.6259767,10.4682617 L95.7231447,10.4682617 L95.7231447,9.56591797 C95.7231447,9.02587621 95.6257335,8.61059716 95.4309083,8.32006836 C95.2360831,8.02953956 94.9438497,7.88427734 94.5541993,7.88427734 C94.2260727,7.88427734 93.9799814,8.00048712 93.8159181,8.23291016 C93.6518548,8.46533319 93.5698243,8.80370872 93.5698243,9.24804688 L90.7500001,9.23779297 L90.7192384,9.17626953 C90.6850585,8.21239752 91.0422327,7.39209323 91.7907716,6.71533203 C92.5393105,6.03857083 93.5253846,5.70019531 94.7490236,5.70019531 C95.9043028,5.70019531 96.8425258,6.03686187 97.5637208,6.71020508 C98.2849158,7.38354829 98.6455079,8.34227894 98.6455079,9.58642578 L98.6455079,14.0776367 C98.6455079,14.6245145 98.6831052,15.1337867 98.7583009,15.6054688 C98.8334966,16.0771508 98.9497064,16.5419899 99.1069337,17 L96.2153322,17 Z M94.3183595,15.0209961 C94.6123063,15.0209961 94.8840321,14.9423836 95.133545,14.7851562 C95.383058,14.6279289 95.5795892,14.4262708 95.7231447,14.1801758 L95.7231447,12.1396484 L94.6259767,12.1396484 C94.1816385,12.1396484 93.8603527,12.2934555 93.6621095,12.6010742 C93.4638663,12.9086929 93.3647462,13.2983375 93.3647462,13.7700195 C93.3647462,14.139162 93.4501946,14.4399402 93.6210939,14.6723633 C93.7919932,14.9047863 94.0244127,15.0209961 94.3183595,15.0209961 L94.3183595,15.0209961 Z M103.274121,17 L100.362012,17 L100.362012,1.00390625 L103.274121,1.00390625 L103.274121,17 Z M108.507715,3.14697266 L108.507715,5.90527344 L110.045801,5.90527344 L110.045801,8.01757812 L108.507715,8.01757812 L108.507715,13.5854492 C108.507715,14.0366233 108.572656,14.3596182 108.702539,14.5544434 C108.832423,14.7492686 109.010155,14.8466797 109.235742,14.8466797 C109.413478,14.8466797 109.563867,14.8381349 109.686914,14.8210449 C109.809962,14.803955 109.946679,14.7749025 110.09707,14.7338867 L110.322656,16.9487305 C110.015038,17.0444341 109.721095,17.1127928 109.44082,17.1538086 C109.160546,17.1948244 108.842678,17.215332 108.487207,17.215332 C107.550679,17.215332 106.834622,16.9265166 106.339014,16.348877 C105.843406,15.7712373 105.595606,14.8535219 105.595606,13.5957031 L105.595606,8.01757812 L104.283106,8.01757812 L104.283106,5.90527344 L105.595606,5.90527344 L105.595606,3.14697266 L108.507715,3.14697266 Z M114.254004,7.22802734 C114.541115,6.74267335 114.886326,6.36670055 115.289649,6.10009766 C115.692971,5.83349476 116.137302,5.70019531 116.622656,5.70019531 C117.607036,5.70019531 118.37949,6.09154882 118.940039,6.87426758 C119.500589,7.65698634 119.78086,8.86522621 119.78086,10.4990234 L119.78086,17 L116.858496,17 L116.858496,10.4785156 C116.858496,9.56249542 116.750831,8.92675959 116.535498,8.57128906 C116.320165,8.21581854 115.983499,8.03808594 115.525488,8.03808594 C115.25205,8.03808594 115.009376,8.09789979 114.797461,8.2175293 C114.585546,8.3371588 114.404395,8.50292863 114.254004,8.71484375 L114.254004,17 L111.341895,17 L111.341895,1.00390625 L114.254004,1.00390625 L114.254004,7.22802734 Z M132.606445,13.831543 L128.668945,13.831543 L127.869141,17 L124.92627,17 L129.130371,2.0703125 L132.165528,2.0703125 L136.359375,17 L133.416504,17 L132.606445,13.831543 Z M129.263672,11.4833984 L132.011719,11.4833984 L130.668457,6.20263672 L130.606934,6.20263672 L129.263672,11.4833984 Z M140.3625,3.14697266 L140.3625,5.90527344 L141.900586,5.90527344 L141.900586,8.01757812 L140.3625,8.01757812 L140.3625,13.5854492 C140.3625,14.0366233 140.427441,14.3596182 140.557324,14.5544434 C140.687208,14.7492686 140.86494,14.8466797 141.090528,14.8466797 C141.268263,14.8466797 141.418652,14.8381349 141.541699,14.8210449 C141.664747,14.803955 141.801464,14.7749025 141.951856,14.7338867 L142.177442,16.9487305 C141.869823,17.0444341 141.57588,17.1127928 141.295606,17.1538086 C141.015331,17.1948244 140.697463,17.215332 140.341992,17.215332 C139.405464,17.215332 138.689407,16.9265166 138.193799,16.348877 C137.698191,15.7712373 137.450391,14.8535219 137.450391,13.5957031 L137.450391,8.01757812 L136.137891,8.01757812 L136.137891,5.90527344 L137.450391,5.90527344 L137.450391,3.14697266 L140.3625,3.14697266 Z M146.324121,17 L143.412012,17 L143.412012,1.00390625 L146.324121,1.00390625 L146.324121,17 Z M153.495703,17 C153.413672,16.8154288 153.340186,16.6137706 153.275244,16.3950195 C153.210303,16.1762684 153.160743,15.9541027 153.126563,15.7285156 C152.853124,16.1796898 152.519875,16.5402819 152.126807,16.8103027 C151.733738,17.0803236 151.277444,17.215332 150.75791,17.215332 C149.84189,17.215332 149.108743,16.9145538 148.558447,16.3129883 C148.008152,15.7114228 147.733008,14.9082081 147.733008,13.9033203 C147.733008,12.8164008 148.083346,11.972171 148.784033,11.3706055 C149.484721,10.76904 150.525482,10.4682617 151.906348,10.4682617 L153.003516,10.4682617 L153.003516,9.56591797 C153.003516,9.02587621 152.906105,8.61059716 152.71128,8.32006836 C152.516454,8.02953956 152.224221,7.88427734 151.834571,7.88427734 C151.506444,7.88427734 151.260353,8.00048712 151.096289,8.23291016 C150.932226,8.46533319 150.850196,8.80370872 150.850196,9.24804688 L148.030371,9.23779297 L147.99961,9.17626953 C147.96543,8.21239752 148.322604,7.39209323 149.071143,6.71533203 C149.819682,6.03857083 150.805756,5.70019531 152.029395,5.70019531 C153.184674,5.70019531 154.122897,6.03686187 154.844092,6.71020508 C155.565287,7.38354829 155.925879,8.34227894 155.925879,9.58642578 L155.925879,14.0776367 C155.925879,14.6245145 155.963476,15.1337867 156.038672,15.6054688 C156.113868,16.0771508 156.230078,16.5419899 156.387305,17 L153.495703,17 Z M151.598731,15.0209961 C151.892677,15.0209961 152.164403,14.9423836 152.413916,14.7851562 C152.663429,14.6279289 152.85996,14.4262708 153.003516,14.1801758 L153.003516,12.1396484 L151.906348,12.1396484 C151.46201,12.1396484 151.140724,12.2934555 150.942481,12.6010742 C150.744238,12.9086929 150.645117,13.2983375 150.645117,13.7700195 C150.645117,14.139162 150.730566,14.4399402 150.901465,14.6723633 C151.072364,14.9047863 151.304784,15.0209961 151.598731,15.0209961 L151.598731,15.0209961 Z M162.338672,14.0981445 C162.338672,13.7836898 162.215626,13.511964 161.969531,13.282959 C161.723436,13.0539539 161.251762,12.7719743 160.554492,12.4370117 C159.440229,12.0200174 158.604544,11.5483425 158.047412,11.0219727 C157.490281,10.4956028 157.211719,9.81201592 157.211719,8.97119141 C157.211719,8.06884314 157.568893,7.2980989 158.283252,6.65893555 C158.997611,6.01977219 159.94267,5.70019531 161.118457,5.70019531 C162.348932,5.70019531 163.329879,6.02831703 164.061328,6.68457031 C164.792777,7.34082359 165.144825,8.17821756 165.117481,9.19677734 L165.086719,9.25830078 L162.277149,9.25830078 C162.277149,8.79345471 162.181446,8.42431777 161.990039,8.15087891 C161.798632,7.87744004 161.50469,7.74072266 161.108203,7.74072266 C160.793749,7.74072266 160.52715,7.84667863 160.308399,8.05859375 C160.089648,8.27050887 159.980274,8.52685396 159.980274,8.82763672 C159.980274,9.15576336 160.089648,9.42065329 160.308399,9.62231445 C160.52715,9.82397562 161.002243,10.0991194 161.733692,10.4477539 C162.895807,10.8442403 163.757126,11.3142063 164.317676,11.857666 C164.878226,12.4011258 165.158496,13.1137651 165.158496,13.9956055 C165.158496,14.9389696 164.782524,15.7114228 164.030567,16.3129883 C163.27861,16.9145538 162.290827,17.215332 161.067188,17.215332 C159.788861,17.215332 158.777152,16.8427772 158.032031,16.0976562 C157.286911,15.3525353 156.931445,14.5117234 156.965625,13.5751953 L156.986133,13.5136719 L159.652149,13.5136719 C159.665821,14.1015654 159.802538,14.5253893 160.062305,14.7851562 C160.322072,15.0449232 160.680955,15.1748047 161.138965,15.1748047 C161.528615,15.1748047 161.825976,15.0791025 162.031055,14.8876953 C162.236134,14.6962881 162.338672,14.4331071 162.338672,14.0981445 L162.338672,14.0981445 Z" fill="#FFFFFF"></path>
                            <g id="6pack" transform="translate(2.000000, 10.000000) scale(1, -1) rotate(-90.000000) translate(-2.000000, -10.000000) translate(-8.000000, 8.000000)">
                                <rect id="Card" fill="#6A1B9A" x="-2.84217094e-14" y="0.0373643969" width="3.27052896" height="3.95182845"></rect>
                                <rect id="Card" fill="#D84315" x="3.26541876" y="0.0373831776" width="3.27052896" height="3.95182845"></rect>
                                <rect id="Card" fill="#0097A7" x="6.53083751" y="0.0373831776" width="3.27052896" height="3.95182845"></rect>
                                <rect id="Card" fill="#FAA906" x="9.79625627" y="0.0373831776" width="3.27052896" height="3.95182845"></rect>
                                <rect id="Card" fill="#558B2F" x="13.061675" y="0.0373831776" width="3.27052896" height="3.95182845"></rect>
                                <rect id="Card" fill="#5D4037" x="16.3270938" y="0.0373831776" width="3.27052896" height="3.95182845"></rect>
                            </g>
                        </g>
                    </g>
                </g>
            </g>
        </g>
    </g>
</svg>